<?xml version="1.0" encoding="utf-8"?>
<!-- Generator: Adobe Illustrator 24.2.0, SVG Export Plug-In . SVG Version: 6.00 Build 0)  -->
<svg version="1.1" id="Layer_1" xmlns="http://www.w3.org/2000/svg" xmlns:xlink="http://www.w3.org/1999/xlink" x="0px" y="0px"
	 width="2048px" height="1536px" viewBox="0 0 2048 1536" enable-background="new 0 0 2048 1536" xml:space="preserve">
<polygon fill="#FFFFFF" points="1919.7,1425 1894.5,1536 1899.2,1536 1924.4,1425 "/>
<polygon fill="#FFFFFF" points="1790.8,1425 1765.6,1536 1770.4,1536 1795.5,1425 "/>
<polygon fill="#FFFFFF" points="1662.5,1425 1637.3,1536 1642,1536 1667.2,1425 "/>
<g id="nav-btn-home">
	<polygon fill="#CC0033" points="1924.4,1425 1899.2,1536 2048,1536 2048,1425 	"/>
	<polygon fill="none" stroke="#FFFFFF" stroke-width="3" points="2007.2,1481.4 2001.2,1475.4 2001.2,1458.9 1991.5,1458.9 
		1991.5,1465.7 1982.8,1456.9 1957.3,1481.4 1963.7,1481.4 1963.7,1504.7 2000.6,1504.7 2000.6,1481.4 	"/>
</g>
<g id="nav-btn-burger">
	<polygon fill="#CC0033" points="1795.5,1425 1770.4,1536 1894.5,1536 1919.7,1425 	"/>
	<rect x="1820" y="1493.5" fill="#FFFFFF" width="51.9" height="5.3"/>
	<rect x="1820" y="1477.9" fill="#FFFFFF" width="51.9" height="5.3"/>
	<rect x="1820" y="1462.3" fill="#FFFFFF" width="51.9" height="5.3"/>
</g>
<g id="nav-btn-pi">
	<polygon fill="#CC0033" points="1667.2,1425 1642,1536 1765.6,1536 1790.8,1425 	"/>
	<g>
		<path fill="#FFFFFF" d="M1705.9,1490.4v14.7h-5.3v-40.6h11.5c5,0,11.4,2.6,11.4,8.6v8.8c0,5.7-5.7,8.6-11.4,8.6H1705.9z
			 M1712.1,1485.1c3.1,0,6.1-1.1,6.1-3.3v-8.8c0-2.5-3.8-3.2-6.1-3.3h-6.2v15.4H1712.1z"/>
		<path fill="#FFFFFF" d="M1733.1,1464.5v40.5h-5.5v-36.7L1733.1,1464.5z"/>
	</g>
</g>
<g id="nav-btn-r">
	<polygon fill="#CC0033" points="1542.7,1425 1513.5,1536 1637.3,1536 1662.5,1425 	"/>
	<g>
		<path fill="#FFFFFF" d="M1583.1,1490.6v14.4h-5.5v-40.6h11.5c1.5,0,11.4,0.1,11.4,8.6v9c0,2.5-1.2,4.6-3.2,6
			c2,1.3,3.2,3.2,3.2,5.9v11.1h-5.5V1494c0-2.6-3.9-3.4-6.1-3.4H1583.1z M1595.2,1473.1c0-2.5-3.7-3.5-5.9-3.5h-6.1v15.7h5.9
			c2.4,0,6.1-0.6,6.1-3.2V1473.1z"/>
	</g>
</g>
</svg>
