<?xml version="1.0" encoding="utf-8"?>
<!-- Generator: Adobe Illustrator 24.2.0, SVG Export Plug-In . SVG Version: 6.00 Build 0)  -->
<svg version="1.1" id="Layer_1" xmlns="http://www.w3.org/2000/svg" xmlns:xlink="http://www.w3.org/1999/xlink" x="0px" y="0px"
	 width="2048px" height="1536px" viewBox="0 0 2048 1536" enable-background="new 0 0 2048 1536" xml:space="preserve">
<rect opacity="0.9" fill="#333333" enable-background="new    " width="2048" height="1536"/>
<rect x="140.5" y="140.5" fill="#FFFFFF" width="1767" height="1255"/>
<g>
	<path fill="#CC0033" d="M1878.5,172.1c0.7-0.7,0.5-1.5-0.6-2.5c-1-1-1.8-1.2-2.4-0.5l-29.2,29.2c-0.6,0.6-0.4,1.4,0.5,2.4
		c1,1,1.8,1.2,2.5,0.6L1878.5,172.1z"/>
	<path fill="#CC0033" d="M1849.4,169.1c-0.7-0.7-1.5-0.5-2.5,0.6c-1,1-1.2,1.8-0.5,2.4l29.2,29.2c0.6,0.6,1.4,0.4,2.4-0.5
		c1-1,1.2-1.8,0.6-2.5L1849.4,169.1z"/>
</g>
<g>
	<g>
		<path fill="#CC0033" d="M283.7,322v11h-4.1v-30.8h8.8c1.1,0,8.7,0.1,8.7,6.6v6.8c0,1.9-0.9,3.5-2.4,4.6c1.5,1,2.4,2.5,2.4,4.4v8.4
			h-4.2v-8.4c0-2-2.9-2.6-4.7-2.6H283.7z M292.8,308.8c0-1.9-2.8-2.6-4.5-2.6h-4.6V318h4.4c1.8,0,4.7-0.5,4.7-2.5V308.8z"/>
		<path fill="#CC0033" d="M305.4,315.3h13.1v4.5h-13.1c0,0.8,0,1.9,0,3c0,1.8,0,3.7,0.1,3.9c0.4,1.3,2.7,1.8,4.3,1.8h8.7v4.5h-8.7
			c-4,0-8.8-1.9-8.8-6.6v-24.2h17.5v4.4h-13.1V315.3z"/>
		<path fill="#CC0033" d="M340.1,302.2v4.3h-13.2v9.1H338v4.4h-11.1v2.8c0,3.3,0,8.9,0,10.3h-4.3v-30.8L340.1,302.2L340.1,302.2z"/>
		<path fill="#CC0033" d="M348.4,315.3h13.1v4.5h-13.1c0,0.8,0,1.9,0,3c0,1.8,0,3.7,0.1,3.9c0.4,1.3,2.7,1.8,4.3,1.8h8.7v4.5h-8.7
			c-4,0-8.8-1.9-8.8-6.6v-24.2h17.5v4.4h-13.1V315.3z"/>
		<path fill="#CC0033" d="M369.8,322v11h-4.1v-30.8h8.8c1.1,0,8.7,0.1,8.7,6.6v6.8c0,1.9-0.9,3.5-2.4,4.6c1.5,1,2.4,2.5,2.4,4.4v8.4
			H379v-8.4c0-2-2.9-2.6-4.7-2.6H369.8z M378.9,308.8c0-1.9-2.8-2.6-4.5-2.6h-4.6V318h4.4c1.8,0,4.7-0.5,4.7-2.5V308.8z"/>
		<path fill="#CC0033" d="M391.5,315.3h13.1v4.5h-13.1c0,0.8,0,1.9,0,3c0,1.8,0,3.7,0.1,3.9c0.4,1.3,2.7,1.8,4.3,1.8h8.7v4.5h-8.7
			c-4,0-8.8-1.9-8.8-6.6v-24.2h17.5v4.4h-13.1V315.3z"/>
		<path fill="#CC0033" d="M428.2,333h-3.7l-11.7-21.8V333h-4v-30.8h3.8l11.6,21.8v-21.8h4L428.2,333L428.2,333z"/>
		<path fill="#CC0033" d="M452.2,325.2c0.3,4.5-2.4,6.6-5.4,7.5l0,0c-1.2,0.4-2.9,0.5-4.4,0.5s-3.1-0.1-4.2-0.4
			c-3-0.9-5.6-3-5.6-6.2v-17.8c0-3.7,3-5.8,6.4-6.4c1.1-0.2,2.3-0.3,3.4-0.3c1.6,0,3.4,0.2,4.8,0.7c2.9,1,5.3,3,5,7.3h-4.4
			c0-2-0.4-2.6-1.9-3.2l-0.4-0.1c-0.9-0.2-1.8-0.3-2.9-0.3c-0.9,0-1.9,0-2.6,0.2c-1.5,0.2-2.9,1.1-2.9,2.1v17.8
			c0,0.9,1.1,1.6,2.3,1.9c0.9,0.2,2,0.3,3.1,0.3s2.2-0.1,3.1-0.4c1.2-0.4,2.2-1,2.2-3.1L452.2,325.2z"/>
		<path fill="#CC0033" d="M460.7,315.3h13.1v4.5h-13.1c0,0.8,0,1.9,0,3c0,1.8,0,3.7,0.1,3.9c0.4,1.3,2.7,1.8,4.3,1.8h8.7v4.5h-8.7
			c-4,0-8.8-1.9-8.8-6.6v-24.2h17.5v4.4h-13.1V315.3z"/>
		<path fill="#CC0033" d="M491.4,309.2c0.1-2.6-2.6-3.5-4.3-3.6c-1.7,0-3.5,0.2-4.6,1.4c-0.7,0.8-0.8,2.2-0.8,3.3
			c0,1,0.3,1.8,0.8,2.5c1,1.2,3,1.7,4.8,2.2c5.3,1.4,9.5,3.7,9.5,9.9c0,2.7-0.9,4.9-2.6,6.4c-1.8,1.5-4.8,2-7.2,2
			c-1.6,0-3.1-0.2-4.5-0.4c-3-0.6-5.3-2.9-4.9-7.6h4.1c0,1.4,0.2,3.2,2.2,3.7c1,0.2,2.1,0.4,3.1,0.4c1.5,0,3.1-0.2,4.3-1.2
			c1-0.7,1.3-2,1.4-3.3c0-3.6-3.3-5.2-6.3-6c-2.6-0.7-5.2-1.5-6.7-3.2c-1.4-1.5-2-3.4-2-5.5c0-2.3,0-4.4,2.2-6.2
			c1.6-1.6,4.8-2.4,7.4-2.4c3.1,0,8.5,2.2,8.4,7.5L491.4,309.2z"/>
	</g>
	<g>
		<path fill="#333333" d="M320.8,409.1L320.8,409.1l-3.2,1.7l-0.5-1.9l4-2.1h2.1V425h-2.4V409.1z"/>
		<path fill="#333333" d="M328,423.5c0-1,0.7-1.8,1.7-1.8s1.7,0.7,1.7,1.8c0,1-0.6,1.8-1.7,1.8S328,424.6,328,423.5z"/>
	</g>
	<g>
		<path fill="#333333" d="M368.4,415.4c0,6.5-3.9,9.9-8.8,9.9c-5,0-8.5-3.9-8.5-9.6c0-6,3.7-9.9,8.8-9.9
			C365.1,405.8,368.4,409.8,368.4,415.4z M353.8,415.7c0,4,2.2,7.6,6,7.6c3.9,0,6-3.6,6-7.8c0-3.8-2-7.7-6-7.7
			C355.8,407.8,353.8,411.5,353.8,415.7z"/>
		<path fill="#333333" d="M371.1,406.4c1.2-0.2,2.7-0.4,4.7-0.4c2.4,0,4.2,0.6,5.3,1.6c1,0.9,1.7,2.3,1.7,3.9c0,1.7-0.5,3.1-1.5,4
			c-1.3,1.4-3.4,2.1-5.8,2.1c-0.7,0-1.4,0-2-0.2v7.6h-2.4L371.1,406.4L371.1,406.4z M373.5,415.5c0.5,0.1,1.2,0.2,2,0.2
			c2.9,0,4.7-1.4,4.7-4c0-2.5-1.8-3.7-4.5-3.7c-1.1,0-1.9,0.1-2.3,0.2L373.5,415.5L373.5,415.5z"/>
		<path fill="#333333" d="M384.9,422c1.1,0.7,2.7,1.2,4.4,1.2c2.5,0,3.9-1.3,3.9-3.2c0-1.8-1-2.8-3.6-3.8c-3.1-1.1-5-2.7-5-5.3
			c0-2.9,2.4-5.1,6.1-5.1c1.9,0,3.3,0.4,4.2,0.9l-0.7,2c-0.6-0.3-1.9-0.9-3.6-0.9c-2.6,0-3.6,1.5-3.6,2.8c0,1.8,1.1,2.6,3.8,3.6
			c3.2,1.2,4.8,2.8,4.8,5.5c0,2.9-2.2,5.4-6.6,5.4c-1.8,0-3.8-0.5-4.8-1.2L384.9,422z"/>
		<path fill="#333333" d="M400.4,406.1v11.2c0,4.2,1.9,6,4.4,6c2.8,0,4.6-1.8,4.6-6v-11.2h2.5v11c0,5.8-3.1,8.2-7.1,8.2
			c-3.9,0-6.8-2.2-6.8-8.1v-11.1H400.4z"/>
		<path fill="#333333" d="M431.1,416.7c-0.1-2.6-0.3-5.8-0.3-8.1h-0.1c-0.6,2.2-1.4,4.6-2.4,7.2L425,425h-1.8l-3.1-9
			c-0.9-2.7-1.7-5.1-2.2-7.3h-0.1c-0.1,2.4-0.2,5.5-0.4,8.3l-0.5,8.1h-2.3l1.3-18.9h3.1l3.2,9.1c0.8,2.3,1.4,4.4,1.9,6.4h0.1
			c0.5-1.9,1.1-4,2-6.4l3.4-9.1h3.1L434,425h-2.4L431.1,416.7z"/>
		<path fill="#333333" d="M439.7,406.1V425h-2.4v-18.9H439.7z"/>
		<path fill="#333333" d="M447.1,408.2h-5.7v-2.1h14v2.1h-5.8V425h-2.5V408.2z"/>
		<path fill="#333333" d="M462.5,422c1.1,0.7,2.7,1.2,4.4,1.2c2.5,0,3.9-1.3,3.9-3.2c0-1.8-1-2.8-3.6-3.8c-3.1-1.1-5-2.7-5-5.3
			c0-2.9,2.4-5.1,6.1-5.1c1.9,0,3.3,0.4,4.2,0.9l-0.7,2c-0.6-0.3-1.9-0.9-3.6-0.9c-2.6,0-3.6,1.5-3.6,2.8c0,1.8,1.1,2.6,3.8,3.6
			c3.2,1.2,4.8,2.8,4.8,5.5c0,2.9-2.2,5.4-6.6,5.4c-1.8,0-3.8-0.5-4.8-1.2L462.5,422z"/>
		<path fill="#333333" d="M487.1,421.3c0,1.4,0,2.6,0.1,3.7H485l-0.1-2.2h-0.1c-0.6,1.1-2.1,2.5-4.5,2.5c-2.1,0-4.7-1.2-4.7-5.9
			v-7.9h2.5v7.5c0,2.6,0.8,4.3,3,4.3c1.7,0,2.8-1.1,3.2-2.2c0.1-0.4,0.2-0.8,0.2-1.3v-8.3h2.5v9.8H487.1z"/>
		<path fill="#333333" d="M490.5,415.1c0-1.4,0-2.5-0.1-3.7h2.2l0.1,2.2h0.1c0.8-1.3,2-2.5,4.3-2.5c1.8,0,3.2,1.1,3.8,2.7h0.1
			c0.4-0.8,1-1.3,1.5-1.8c0.8-0.6,1.7-1,3-1c1.8,0,4.5,1.2,4.5,5.9v8h-2.4v-7.7c0-2.6-1-4.2-2.9-4.2c-1.4,0-2.5,1-2.9,2.2
			c-0.1,0.3-0.2,0.8-0.2,1.2v8.4H499v-8.1c0-2.2-1-3.7-2.8-3.7c-1.5,0-2.7,1.2-3.1,2.5c-0.1,0.4-0.2,0.8-0.2,1.2v8.2h-2.4V415.1z"/>
		<path fill="#333333" d="M513.1,415.1c0-1.4,0-2.5-0.1-3.7h2.2l0.1,2.2h0.1c0.8-1.3,2-2.5,4.3-2.5c1.8,0,3.2,1.1,3.8,2.7h0.1
			c0.4-0.8,1-1.3,1.5-1.8c0.8-0.6,1.7-1,3-1c1.8,0,4.5,1.2,4.5,5.9v8h-2.4v-7.7c0-2.6-1-4.2-2.9-4.2c-1.4,0-2.5,1-2.9,2.2
			c-0.1,0.3-0.2,0.8-0.2,1.2v8.4h-2.4v-8.1c0-2.2-1-3.7-2.8-3.7c-1.5,0-2.7,1.2-3.1,2.5c-0.1,0.4-0.2,0.8-0.2,1.2v8.2h-2.4v-9.8
			L513.1,415.1L513.1,415.1z"/>
		<path fill="#333333" d="M543.3,425l-0.2-1.7H543c-0.8,1.1-2.2,2-4.1,2c-2.7,0-4.1-1.9-4.1-3.9c0-3.3,2.9-5.1,8.1-5v-0.3
			c0-1.1-0.3-3.1-3.1-3.1c-1.3,0-2.6,0.4-3.5,1l-0.6-1.6c1.1-0.7,2.7-1.2,4.5-1.2c4.1,0,5.2,2.8,5.2,5.5v5.1c0,1.2,0.1,2.3,0.2,3.2
			H543.3z M542.9,418.1c-2.7-0.1-5.7,0.4-5.7,3.1c0,1.6,1.1,2.4,2.3,2.4c1.8,0,2.9-1.1,3.3-2.3c0.1-0.3,0.1-0.5,0.1-0.8L542.9,418.1
			L542.9,418.1z"/>
		<path fill="#333333" d="M548.6,415.7c0-1.6,0-3-0.1-4.2h2.2l0.1,2.7h0.1c0.6-1.8,2.1-3,3.8-3c0.3,0,0.5,0,0.7,0.1v2.3
			c-0.3-0.1-0.5-0.1-0.8-0.1c-1.7,0-3,1.3-3.3,3.2c-0.1,0.3-0.1,0.7-0.1,1.1v7.2h-2.4v-9.3L548.6,415.7L548.6,415.7z"/>
		<path fill="#333333" d="M559,411.4l3,8c0.3,0.9,0.6,2,0.9,2.8h0.1c0.3-0.8,0.5-1.8,0.9-2.8l2.7-8h2.6l-3.7,9.7
			c-1.8,4.6-3,7-4.6,8.5c-1.2,1.1-2.4,1.5-3,1.6l-0.6-2.1c0.6-0.2,1.4-0.6,2.2-1.2c0.7-0.5,1.5-1.5,2.1-2.7c0.1-0.3,0.2-0.4,0.2-0.6
			s-0.1-0.3-0.2-0.6l-5-12.5L559,411.4L559,411.4z"/>
		<path fill="#333333" d="M588.9,418.1c0,5-3.5,7.2-6.7,7.2c-3.7,0-6.5-2.7-6.5-7c0-4.5,3-7.2,6.7-7.2
			C586.3,411.1,588.9,414,588.9,418.1z M578.2,418.3c0,3,1.7,5.2,4.1,5.2c2.4,0,4.1-2.2,4.1-5.3c0-2.3-1.1-5.2-4.1-5.2
			S578.2,415.7,578.2,418.3z"/>
		<path fill="#333333" d="M591.7,425v-11.7h-1.9v-1.9h1.9v-0.6c0-1.9,0.4-3.6,1.6-4.7c0.9-0.9,2.2-1.3,3.3-1.3
			c0.9,0,1.6,0.2,2.1,0.4l-0.3,1.9c-0.4-0.2-0.9-0.3-1.6-0.3c-2.1,0-2.6,1.8-2.6,3.9v0.7h3.3v1.9h-3.3V425H591.7z"/>
		<path fill="#333333" d="M605.1,406.4c1.2-0.2,2.7-0.4,4.7-0.4c2.4,0,4.2,0.6,5.3,1.6c1,0.9,1.7,2.3,1.7,3.9c0,1.7-0.5,3.1-1.5,4
			c-1.3,1.4-3.4,2.1-5.8,2.1c-0.7,0-1.4,0-2-0.2v7.6h-2.4V406.4z M607.5,415.5c0.5,0.1,1.2,0.2,2,0.2c2.9,0,4.7-1.4,4.7-4
			c0-2.5-1.8-3.7-4.5-3.7c-1.1,0-1.9,0.1-2.3,0.2L607.5,415.5L607.5,415.5z"/>
		<path fill="#333333" d="M619,415.7c0-1.6,0-3-0.1-4.2h2.2l0.1,2.7h0.1c0.6-1.8,2.1-3,3.8-3c0.3,0,0.5,0,0.7,0.1v2.3
			c-0.3-0.1-0.5-0.1-0.8-0.1c-1.7,0-3,1.3-3.3,3.2c-0.1,0.3-0.1,0.7-0.1,1.1v7.2H619V415.7z"/>
		<path fill="#333333" d="M639.7,418.1c0,5-3.5,7.2-6.7,7.2c-3.7,0-6.5-2.7-6.5-7c0-4.5,3-7.2,6.7-7.2
			C637.1,411.1,639.7,414,639.7,418.1z M628.9,418.3c0,3,1.7,5.2,4.1,5.2c2.4,0,4.1-2.2,4.1-5.3c0-2.3-1.1-5.2-4.1-5.2
			S628.9,415.7,628.9,418.3z"/>
		<path fill="#333333" d="M654.1,405.1v16.4c0,1.2,0,2.6,0.1,3.5H652l-0.1-2.4h-0.1c-0.8,1.5-2.4,2.7-4.6,2.7
			c-3.3,0-5.8-2.8-5.8-6.9c0-4.5,2.8-7.3,6.1-7.3c2.1,0,3.5,1,4.1,2.1h0.1v-8.1L654.1,405.1L654.1,405.1z M651.6,417
			c0-0.3,0-0.7-0.1-1c-0.4-1.6-1.7-2.9-3.6-2.9c-2.5,0-4.1,2.2-4.1,5.2c0,2.7,1.3,5,4,5c1.7,0,3.2-1.1,3.6-2.9
			c0.1-0.3,0.1-0.7,0.1-1.1L651.6,417L651.6,417z"/>
		<path fill="#333333" d="M668.8,421.3c0,1.4,0,2.6,0.1,3.7h-2.2l-0.1-2.2h-0.1c-0.6,1.1-2.1,2.5-4.5,2.5c-2.1,0-4.7-1.2-4.7-5.9
			v-7.9h2.5v7.5c0,2.6,0.8,4.3,3,4.3c1.7,0,2.8-1.1,3.2-2.2c0.1-0.4,0.2-0.8,0.2-1.3v-8.3h2.5L668.8,421.3L668.8,421.3z"/>
		<path fill="#333333" d="M682,424.5c-0.6,0.3-2.1,0.8-3.9,0.8c-4.1,0-6.7-2.8-6.7-6.9c0-4.2,2.9-7.2,7.3-7.2c1.5,0,2.7,0.4,3.4,0.7
			l-0.6,1.9c-0.6-0.3-1.5-0.6-2.9-0.6c-3.1,0-4.8,2.3-4.8,5.1c0,3.1,2,5.1,4.7,5.1c1.4,0,2.3-0.4,3-0.7L682,424.5z"/>
		<path fill="#333333" d="M687.8,407.6v3.9h3.5v1.9h-3.5v7.3c0,1.7,0.5,2.6,1.8,2.6c0.6,0,1.1-0.1,1.4-0.2l0.1,1.8
			c-0.5,0.2-1.2,0.3-2.2,0.3c-1.1,0-2.1-0.4-2.7-1c-0.7-0.7-1-1.9-1-3.5v-7.4h-2.1v-1.9h2.1v-3.2L687.8,407.6z"/>
		<path fill="#333333" d="M712.8,424.4c-0.9,0.4-2.7,0.9-5,0.9c-5.3,0-9.3-3.4-9.3-9.5c0-5.9,4-9.9,9.9-9.9c2.4,0,3.8,0.5,4.5,0.8
			l-0.6,2c-0.9-0.4-2.2-0.8-3.8-0.8c-4.4,0-7.4,2.8-7.4,7.8c0,4.6,2.7,7.6,7.3,7.6c1.5,0,3-0.3,4-0.8L712.8,424.4z"/>
		<path fill="#333333" d="M714.9,405.1h2.5v8.5h0.1c0.4-0.7,1-1.3,1.8-1.7c0.7-0.4,1.6-0.7,2.5-0.7c1.8,0,4.7,1.1,4.7,5.8v8.1H724
			v-7.8c0-2.2-0.8-4-3.1-4c-1.6,0-2.9,1.1-3.3,2.5c-0.1,0.3-0.2,0.7-0.2,1.2v8.2h-2.5V405.1z"/>
		<path fill="#333333" d="M737.3,425l-0.2-1.7H737c-0.8,1.1-2.2,2-4.1,2c-2.7,0-4.1-1.9-4.1-3.9c0-3.3,2.9-5.1,8.1-5v-0.3
			c0-1.1-0.3-3.1-3.1-3.1c-1.3,0-2.6,0.4-3.5,1l-0.6-1.6c1.1-0.7,2.7-1.2,4.5-1.2c4.1,0,5.2,2.8,5.2,5.5v5.1c0,1.2,0.1,2.3,0.2,3.2
			H737.3z M736.9,418.1c-2.7-0.1-5.7,0.4-5.7,3.1c0,1.6,1.1,2.4,2.3,2.4c1.8,0,2.9-1.1,3.3-2.3c0.1-0.3,0.1-0.5,0.1-0.8L736.9,418.1
			L736.9,418.1z"/>
		<path fill="#333333" d="M742.6,415.7c0-1.6,0-3-0.1-4.2h2.2l0.1,2.7h0.1c0.6-1.8,2.1-3,3.8-3c0.3,0,0.5,0,0.7,0.1v2.3
			c-0.3-0.1-0.5-0.1-0.8-0.1c-1.7,0-3,1.3-3.3,3.2c-0.1,0.3-0.1,0.7-0.1,1.1v7.2h-2.4v-9.3L742.6,415.7L742.6,415.7z"/>
		<path fill="#333333" d="M758.7,425l-0.2-1.7h-0.1c-0.8,1.1-2.2,2-4.1,2c-2.7,0-4.1-1.9-4.1-3.9c0-3.3,2.9-5.1,8.1-5v-0.3
			c0-1.1-0.3-3.1-3.1-3.1c-1.3,0-2.6,0.4-3.5,1l-0.6-1.6c1.1-0.7,2.7-1.2,4.5-1.2c4.1,0,5.2,2.8,5.2,5.5v5.1c0,1.2,0.1,2.3,0.2,3.2
			H758.7z M758.3,418.1c-2.7-0.1-5.7,0.4-5.7,3.1c0,1.6,1.1,2.4,2.3,2.4c1.8,0,2.9-1.1,3.3-2.3c0.1-0.3,0.1-0.5,0.1-0.8L758.3,418.1
			L758.3,418.1z"/>
		<path fill="#333333" d="M773.7,424.5c-0.6,0.3-2.1,0.8-3.9,0.8c-4.1,0-6.7-2.8-6.7-6.9c0-4.2,2.9-7.2,7.3-7.2
			c1.5,0,2.7,0.4,3.4,0.7l-0.6,1.9c-0.6-0.3-1.5-0.6-2.9-0.6c-3.1,0-4.8,2.3-4.8,5.1c0,3.1,2,5.1,4.7,5.1c1.4,0,2.3-0.4,3-0.7
			L773.7,424.5z"/>
		<path fill="#333333" d="M779.6,407.6v3.9h3.5v1.9h-3.5v7.3c0,1.7,0.5,2.6,1.8,2.6c0.6,0,1.1-0.1,1.4-0.2l0.1,1.8
			c-0.5,0.2-1.2,0.3-2.2,0.3c-1.1,0-2.1-0.4-2.7-1c-0.7-0.7-1-1.9-1-3.5v-7.4h-2.1v-1.9h2.1v-3.2L779.6,407.6z"/>
		<path fill="#333333" d="M786.4,418.7c0.1,3.3,2.2,4.7,4.6,4.7c1.8,0,2.8-0.3,3.8-0.7l0.4,1.8c-0.9,0.4-2.4,0.8-4.5,0.8
			c-4.2,0-6.7-2.7-6.7-6.8c0-4.1,2.4-7.3,6.4-7.3c4.4,0,5.6,3.9,5.6,6.4c0,0.5-0.1,0.9-0.1,1.1H786.4z M793.6,416.9
			c0-1.6-0.6-4-3.4-4c-2.5,0-3.6,2.3-3.8,4H793.6z"/>
		<path fill="#333333" d="M798.4,415.7c0-1.6,0-3-0.1-4.2h2.2l0.1,2.7h0.1c0.6-1.8,2.1-3,3.8-3c0.3,0,0.5,0,0.7,0.1v2.3
			c-0.3-0.1-0.5-0.1-0.8-0.1c-1.7,0-3,1.3-3.3,3.2c-0.1,0.3-0.1,0.7-0.1,1.1v7.2h-2.4v-9.3L798.4,415.7L798.4,415.7z"/>
		<path fill="#333333" d="M809.8,407.6c0,0.8-0.6,1.5-1.6,1.5c-0.9,0-1.5-0.7-1.5-1.5c0-0.9,0.6-1.5,1.5-1.5
			C809.2,406.1,809.8,406.8,809.8,407.6z M807,425v-13.6h2.5V425H807z"/>
		<path fill="#333333" d="M812.4,422.5c0.7,0.5,2,1,3.2,1c1.8,0,2.6-0.9,2.6-2c0-1.2-0.7-1.8-2.5-2.5c-2.4-0.9-3.6-2.2-3.6-3.8
			c0-2.2,1.8-4,4.7-4c1.4,0,2.6,0.4,3.3,0.8l-0.6,1.8c-0.5-0.3-1.5-0.8-2.8-0.8c-1.5,0-2.3,0.8-2.3,1.8c0,1.1,0.8,1.6,2.6,2.3
			c2.4,0.9,3.6,2.1,3.6,4.1c0,2.4-1.8,4.1-5.1,4.1c-1.5,0-2.9-0.4-3.8-0.9L812.4,422.5z"/>
		<path fill="#333333" d="M826.4,407.6v3.9h3.5v1.9h-3.5v7.3c0,1.7,0.5,2.6,1.8,2.6c0.6,0,1.1-0.1,1.4-0.2l0.1,1.8
			c-0.5,0.2-1.2,0.3-2.2,0.3c-1.1,0-2.1-0.4-2.7-1c-0.7-0.7-1-1.9-1-3.5v-7.4h-2.1v-1.9h2.1v-3.2L826.4,407.6z"/>
		<path fill="#333333" d="M834.7,407.6c0,0.8-0.6,1.5-1.6,1.5c-0.9,0-1.5-0.7-1.5-1.5c0-0.9,0.6-1.5,1.5-1.5
			C834.1,406.1,834.7,406.8,834.7,407.6z M832,425v-13.6h2.5V425H832z"/>
		<path fill="#333333" d="M847.6,424.5c-0.6,0.3-2.1,0.8-3.9,0.8c-4.1,0-6.7-2.8-6.7-6.9c0-4.2,2.9-7.2,7.3-7.2
			c1.5,0,2.7,0.4,3.4,0.7l-0.6,1.9c-0.6-0.3-1.5-0.6-2.9-0.6c-3.1,0-4.8,2.3-4.8,5.1c0,3.1,2,5.1,4.7,5.1c1.4,0,2.3-0.4,3-0.7
			L847.6,424.5z"/>
		<path fill="#333333" d="M849.8,422.5c0.7,0.5,2,1,3.2,1c1.8,0,2.6-0.9,2.6-2c0-1.2-0.7-1.8-2.5-2.5c-2.4-0.9-3.6-2.2-3.6-3.8
			c0-2.2,1.8-4,4.7-4c1.4,0,2.6,0.4,3.3,0.8l-0.6,1.8c-0.5-0.3-1.5-0.8-2.8-0.8c-1.5,0-2.3,0.8-2.3,1.8c0,1.1,0.8,1.6,2.6,2.3
			c2.4,0.9,3.6,2.1,3.6,4.1c0,2.4-1.8,4.1-5.1,4.1c-1.5,0-2.9-0.4-3.8-0.9L849.8,422.5z"/>
		<path fill="#333333" d="M859.1,428.4c0.6-1.7,1.4-4.6,1.7-6.7l2.7-0.3c-0.6,2.4-1.9,5.5-2.7,6.8L859.1,428.4z"/>
		<path fill="#333333" d="M875.1,419.1l-2,5.9h-2.5l6.4-18.9h2.9l6.4,18.9h-2.6l-2-5.9H875.1z M881.3,417.2l-1.8-5.4
			c-0.4-1.2-0.7-2.4-1-3.4h-0.1c-0.3,1.1-0.6,2.3-1,3.4l-1.8,5.5h5.7L881.3,417.2L881.3,417.2z"/>
		<path fill="#333333" d="M888.4,415.9c0-1.7-0.1-3.1-0.1-4.4h2.2l0.1,2.3h0.1c1-1.7,2.6-2.6,4.8-2.6c3.3,0,5.7,2.8,5.7,6.9
			c0,4.9-3,7.3-6.2,7.3c-1.8,0-3.4-0.8-4.2-2.1h-0.1v7.4h-2.4v-14.8L888.4,415.9L888.4,415.9z M890.8,419.5c0,0.4,0.1,0.7,0.1,1
			c0.4,1.7,1.9,2.9,3.7,2.9c2.6,0,4.1-2.1,4.1-5.2c0-2.7-1.4-5-4-5c-1.7,0-3.2,1.2-3.7,3.1c-0.1,0.3-0.2,0.7-0.2,1L890.8,419.5
			L890.8,419.5z"/>
		<path fill="#333333" d="M903.7,415.7c0-1.6,0-3-0.1-4.2h2.2l0.1,2.7h0.1c0.6-1.8,2.1-3,3.8-3c0.3,0,0.5,0,0.7,0.1v2.3
			c-0.3-0.1-0.5-0.1-0.8-0.1c-1.7,0-3,1.3-3.3,3.2c-0.1,0.3-0.1,0.7-0.1,1.1v7.2h-2.4v-9.3L903.7,415.7L903.7,415.7z"/>
		<path fill="#333333" d="M915.1,407.6c0,0.8-0.6,1.5-1.6,1.5c-0.9,0-1.5-0.7-1.5-1.5c0-0.9,0.6-1.5,1.5-1.5
			C914.5,406.1,915.1,406.8,915.1,407.6z M912.3,425v-13.6h2.5V425H912.3z"/>
		<path fill="#333333" d="M918.1,405.1h2.5V425h-2.5V405.1z"/>
		<path fill="#333333" d="M929.4,425v-1.5l1.9-1.9c4.6-4.4,6.7-6.8,6.8-9.5c0-1.8-0.9-3.6-3.6-3.6c-1.7,0-3,0.8-3.9,1.5l-0.8-1.7
			c1.3-1.1,3.1-1.8,5.2-1.8c3.9,0,5.6,2.7,5.6,5.3c0,3.4-2.4,6.1-6.3,9.8l-1.5,1.3v0.1h8.2v2L929.4,425L929.4,425z"/>
		<path fill="#333333" d="M954.8,415.7c0,6.2-2.3,9.6-6.3,9.6c-3.6,0-6-3.3-6-9.4s2.6-9.5,6.3-9.5
			C952.7,406.5,954.8,409.9,954.8,415.7z M945,416c0,4.7,1.5,7.4,3.7,7.4c2.5,0,3.7-2.9,3.7-7.6c0-4.5-1.1-7.4-3.7-7.4
			C946.5,408.4,945,411,945,416z"/>
		<path fill="#333333" d="M955.7,425v-1.5l1.9-1.9c4.6-4.4,6.7-6.8,6.8-9.5c0-1.8-0.9-3.6-3.6-3.6c-1.7,0-3,0.8-3.9,1.5l-0.8-1.7
			c1.3-1.1,3.1-1.8,5.2-1.8c3.9,0,5.6,2.7,5.6,5.3c0,3.4-2.4,6.1-6.3,9.8l-1.5,1.3v0.1h8.2v2L955.7,425L955.7,425z"/>
		<path fill="#333333" d="M973.4,409.1L973.4,409.1l-3.2,1.7l-0.5-1.9l4-2.1h2.1V425h-2.4L973.4,409.1L973.4,409.1z"/>
		<path fill="#333333" d="M980.5,423.5c0-1,0.7-1.8,1.7-1.8s1.7,0.7,1.7,1.8c0,1-0.6,1.8-1.7,1.8
			C981.2,425.3,980.5,424.6,980.5,423.5z"/>
	</g>
</g>
</svg>
