<?xml version="1.0" encoding="utf-8"?>
<!-- Generator: Adobe Illustrator 24.2.0, SVG Export Plug-In . SVG Version: 6.00 Build 0)  -->
<svg version="1.1" id="Layer_1" xmlns="http://www.w3.org/2000/svg" xmlns:xlink="http://www.w3.org/1999/xlink" x="0px" y="0px"
	 width="2048px" height="1536px" viewBox="0 0 2048 1536" enable-background="new 0 0 2048 1536" xml:space="preserve">
<rect x="140.5" y="140.5" fill="#FFFFFF" width="1767" height="1255"/>
<g id="_x3C_Group_x3E_">
	<path fill="#CC0033" d="M1878.5,172.1c0.7-0.7,0.5-1.5-0.6-2.5c-1-1-1.8-1.2-2.4-0.5l-29.2,29.2c-0.6,0.6-0.4,1.4,0.5,2.4
		c1,1,1.8,1.2,2.5,0.6L1878.5,172.1z"/>
	<path fill="#CC0033" d="M1849.4,169.1c-0.7-0.7-1.5-0.5-2.5,0.6c-1,1-1.2,1.8-0.5,2.4l29.2,29.2c0.6,0.6,1.4,0.4,2.4-0.5
		c1-1,1.2-1.8,0.6-2.5L1849.4,169.1z"/>
</g>
<g>
	
		<linearGradient id="SVGID_1_" gradientUnits="userSpaceOnUse" x1="1346.9775" y1="1536.699" x2="1347.9775" y2="1536.699" gradientTransform="matrix(1318.4 0 0 -1318.4 -1775636.25 2026218.5)">
		<stop  offset="0" style="stop-color:#CC1236"/>
		<stop  offset="0.1592" style="stop-color:#CC1236"/>
		<stop  offset="0.366" style="stop-color:#BA1031"/>
		<stop  offset="0.7785" style="stop-color:#8C0B25"/>
		<stop  offset="0.8754" style="stop-color:#800A22"/>
		<stop  offset="1" style="stop-color:#800A22"/>
	</linearGradient>
	<path fill="url(#SVGID_1_)" d="M249.3,221.2V257h-5.6v-16.5h-16.8V257h-5.7v-35.8c0-3.2,1.9-5.8,4.4-7.4c2.3-1.3,6.1-2.2,9.7-2.2
		c3.7,0,7.3,0.8,9.7,2.2C247.5,215.5,249.3,217.9,249.3,221.2z M226.9,221.2v13.6h16.8v-13.6c0-1.1-0.7-1.9-1.7-2.5
		c-1.5-0.9-4.2-1.4-6.8-1.4s-5.3,0.5-6.8,1.4C227.5,219.3,226.9,220.1,226.9,221.2z M254.1,257v-44.9h16c5.5,0,12.4,2.9,12.4,9.5
		v25.7c0,6.8-7,9.6-12.7,9.6h-15.7L254.1,257L254.1,257z M276.3,247.3c0.2-0.5,0.3-5.1,0.3-11c0-2-0.1-4-0.1-5.8v-8.8
		c-0.1-2.3-3.9-3.6-6.5-3.6h-9.9v33h9.6c2.4,0,5.5-1.5,6.2-3.1L276.3,247.3z M299.7,257.4l-10-8.8c-2.2-2-2.8-3.9-2.8-6.6v-25.4
		l6.1-4.4V242c0,1,0,1.3,0.7,1.9h-0.1l7.3,6.5l7.3-6.5c0.4-0.5,0.6-0.9,0.6-1.9v-29.9h6.1V242c0,2.7-0.6,4.6-2.8,6.6l-10,8.8H299.7z
		 M325.5,231.3h19v6.6h-19c0,1.2-0.1,2.8-0.1,4.4c0,2.7,0.1,5.3,0.2,5.6c0.6,1.9,4,2.6,6.2,2.6h12.7v6.5l-12.7-0.1
		c-5.9,0.1-12.8-2.8-12.8-9.7v-35.1h25.5v6.5h-19L325.5,231.3L325.5,231.3z M354.7,241.1V257h-6v-44.8h12.7c1.6,0,12.6,0.1,12.6,9.5
		v9.9c0,2.8-1.3,5.1-3.5,6.7c2.2,1.4,3.5,3.6,3.5,6.5V257h-6.1v-12.2c0-2.9-4.3-3.7-6.8-3.7H354.7z M367.9,221.7
		c0-2.8-4.1-3.8-6.5-3.8h-6.7v17.3h6.5c2.6,0,6.8-0.7,6.8-3.6L367.9,221.7L367.9,221.7z M397.7,222.4c0.1-3.8-3.7-5.1-6.3-5.2
		c-2.5-0.1-5.1,0.3-6.7,2c-1.1,1.2-1.2,3.1-1.2,4.9c0,1.4,0.4,2.7,1.2,3.6c1.4,1.7,4.4,2.5,7,3.1c7.7,2,13.8,5.3,13.8,14.4
		c-0.1,4-1.3,7.2-3.8,9.3c-2.6,2.1-6.9,2.9-10.4,2.9c-2.3,0-4.5-0.3-6.5-0.6c-4.4-0.8-7.7-4.3-7.2-11l6,0.1c0.1,2,0.3,4.7,3.3,5.4
		c1.5,0.3,3,0.5,4.5,0.5c2.2,0,4.5-0.3,6.2-1.7c1.4-1.1,1.9-2.9,2-4.9c0.1-5.2-4.9-7.6-9.2-8.7c-3.7-1-7.6-2.2-9.8-4.6
		c-2-2.1-2.9-5-2.9-7.9c0-3.3,0-6.3,3.1-9c2.4-2.3,6.9-3.5,10.8-3.5c4.5,0,12.4,3.3,12.2,10.9H397.7z M415.2,231.3h19v6.6h-19
		c0,1.2-0.1,2.8-0.1,4.4c0,2.7,0.1,5.3,0.2,5.6c0.6,1.9,4,2.6,6.2,2.6h12.7v6.5l-12.7-0.1c-5.9,0.1-12.8-2.8-12.8-9.7v-35.1h25.5
		v6.5h-19L415.2,231.3L415.2,231.3z M460.6,231.3h19v6.6h-19c0,1.2-0.1,2.8-0.1,4.4c0,2.7,0.1,5.3,0.2,5.6c0.6,1.9,4,2.6,6.2,2.6
		h12.7v6.5l-12.7-0.1c-5.9,0.1-12.8-2.8-12.8-9.7v-35.1h25.5v6.5h-19L460.6,231.3L460.6,231.3z M496.6,257.4l-10-8.8
		c-2.2-2-2.8-3.9-2.8-6.6v-25.4l6.1-4.4V242c0,1,0,1.3,0.7,1.9h-0.1l7.3,6.5l7.3-6.5c0.4-0.5,0.6-0.9,0.6-1.9v-29.9h6.1V242
		c0,2.7-0.6,4.6-2.8,6.6l-10,8.8H496.6z M522.4,231.3h19v6.6h-19c0,1.2-0.1,2.8-0.1,4.4c0,2.7,0.1,5.3,0.2,5.6
		c0.6,1.9,4,2.6,6.2,2.6h12.7v6.5l-12.7-0.1c-5.9,0.1-12.8-2.8-12.8-9.7v-35.1h25.5v6.5h-19L522.4,231.3L522.4,231.3z M573.8,257
		h-5.4l-17-31.7V257h-5.8v-44.8h5.5l16.9,31.7v-31.7h5.8V257z M580.9,212.2h26.2v5.7h-11.3c0,12.8-0.1,26.4-0.1,39.1h-6.1l0.1-39.1
		H577L580.9,212.2z M631.3,222.4c0.1-3.8-3.7-5.1-6.3-5.2c-2.5-0.1-5.1,0.3-6.7,2c-1.1,1.2-1.2,3.1-1.2,4.9c0,1.4,0.4,2.7,1.2,3.6
		c1.4,1.7,4.4,2.5,7,3.1c7.7,2,13.8,5.3,13.8,14.4c-0.1,4-1.3,7.2-3.8,9.3c-2.6,2.1-6.9,2.9-10.4,2.9c-2.3,0-4.5-0.3-6.5-0.6
		c-4.4-0.8-7.7-4.3-7.2-11l6,0.1c0.1,2,0.3,4.7,3.3,5.4c1.5,0.3,3,0.5,4.5,0.5c2.2,0,4.5-0.3,6.2-1.7c1.4-1.1,1.9-2.9,2-4.9
		c0.1-5.2-4.9-7.6-9.2-8.7c-3.7-1-7.6-2.2-9.8-4.6c-2-2.1-2.9-5-2.9-7.9c0-3.3,0-6.3,3.1-9c2.4-2.3,6.9-3.5,10.8-3.5
		c4.5,0,12.4,3.3,12.2,10.9H631.3z M676.5,222.4c0.1-3.8-3.7-5.1-6.3-5.2c-2.5-0.1-5.1,0.3-6.7,2c-1.1,1.2-1.2,3.1-1.2,4.9
		c0,1.4,0.4,2.7,1.2,3.6c1.4,1.7,4.4,2.5,7,3.1c7.7,2,13.8,5.3,13.8,14.4c-0.1,4-1.3,7.2-3.8,9.3c-2.6,2.1-6.9,2.9-10.4,2.9
		c-2.3,0-4.5-0.3-6.5-0.6c-4.4-0.8-7.7-4.3-7.2-11l6,0.1c0.1,2,0.3,4.7,3.3,5.4c1.5,0.3,3,0.5,4.5,0.5c2.2,0,4.5-0.3,6.2-1.7
		c1.4-1.1,1.9-2.9,2-4.9c0.1-5.2-4.9-7.6-9.2-8.7c-3.7-1-7.6-2.2-9.8-4.6c-2-2.1-2.9-5-2.9-7.9c0-3.3,0-6.3,3.1-9
		c2.4-2.3,6.9-3.5,10.8-3.5c4.5,0,12.4,3.3,12.2,10.9H676.5z M693.6,237.7V257h-6v-40.5l6-4.2v19.3H709v-19.5h6.1V257H709v-19.3
		H693.6z M719.6,221.2c0-6.3,7-9.5,14.1-9.5c7,0,14.1,3.2,14.1,9.5v26.6c0,6.4-7.1,9.7-14.1,9.7c-7.1,0-14.1-3.3-14.1-9.7V221.2z
		 M741.7,248.4v-0.8l0.1-26.3c0-2.5-4.1-3.6-8.1-3.6s-8.1,1.2-8.1,3.6l0.1,26.3c0,0.5,0.1,0.9,0.1,1.1c0.6,1.9,4.2,2.8,7.9,2.8
		c3.6,0,7.2-0.9,7.9-2.8L741.7,248.4z M766.7,251.3c2.5,0,4.9-0.3,6.2-1.1c1-0.6,1.7-1.5,1.7-2.6v-35.5h6v35.5c0,3.3-1.8,6-4.4,7.6
		c-2.3,1.3-6,2.2-9.4,2.1h-0.6c-3.5,0.1-7.1-0.8-9.4-2.1c-2.6-1.7-4.5-4.4-4.5-7.6v-30.9l6.1-4.5v35.4c0,1.1,0.6,1.9,1.6,2.4
		c1.2,0.8,3.5,1.2,5.9,1.2h0.8L766.7,251.3L766.7,251.3z M808,250.9v6.1h-10.2c-6.5,0-12.9-2.8-12.9-10.5v-29.9l6.1-4.4v34.2
		c0,3.3,3.7,4.4,6.7,4.4L808,250.9L808,250.9z M811.4,257v-44.9h16c5.5,0,12.4,2.9,12.4,9.5v25.7c0,6.8-7,9.6-12.7,9.6h-15.7V257z
		 M833.5,247.3c0.2-0.5,0.3-5.1,0.3-11c0-2-0.1-4-0.1-5.8v-8.8c-0.1-2.3-3.9-3.6-6.5-3.6h-9.9v33h9.6c2.4,0,5.5-1.5,6.2-3.1
		L833.5,247.3z M885.5,234c2.5,1.7,4,4.1,4,7.4v5.8c0,3.5-1.9,6.1-4.7,7.7l0.1-0.1c-2.5,1.5-5.6,2.2-8.7,2.2h-15.7l0.1-44.8h15.7
		c2.8,0,5.6,0.6,7.7,1.9c2.6,1.5,4.2,3.9,4.3,7.1v7C888.1,230.4,887,232.4,885.5,234z M866.3,231.3h9.8c1.6,0,3.4-0.2,4.7-1
		c0.9-0.6,1.5-1.3,1.5-2.2v-6.8c0-0.8-0.6-1.5-1.4-2c-1.3-0.8-3-1.1-4.7-1.1h-9.9L866.3,231.3L866.3,231.3z M866.3,237.2v13.9h9.9
		c2.1,0,4.2-0.4,5.6-1.3c1.2-0.7,1.9-1.6,1.9-2.8v-5.7c0-1.2-0.8-2-1.9-2.7c-1.5-1-3.5-1.4-5.5-1.4H866.3z M900.1,231.3h19v6.6h-19
		c0,1.2-0.1,2.8-0.1,4.4c0,2.7,0.1,5.3,0.2,5.6c0.6,1.9,4,2.6,6.2,2.6h12.7v6.5l-12.7-0.1c-5.9,0.1-12.8-2.8-12.8-9.7v-35.1h25.5
		v6.5h-19L900.1,231.3L900.1,231.3z M945.2,241.1V257h-6v-44.8H952c1.6,0,12.6,0.1,12.6,9.5v9.9c0,2.8-1.3,5.1-3.5,6.7
		c2.2,1.4,3.5,3.6,3.5,6.5V257h-6.1v-12.2c0-2.9-4.3-3.7-6.8-3.7H945.2z M958.5,221.7c0-2.8-4.1-3.8-6.5-3.8h-6.7v17.3h6.5
		c2.6,0,6.8-0.7,6.8-3.6L958.5,221.7L958.5,221.7z M975,231.3h19v6.6h-19c0,1.2-0.1,2.8-0.1,4.4c0,2.7,0.1,5.3,0.2,5.6
		c0.6,1.9,4,2.6,6.2,2.6H994v6.5l-12.7-0.1c-5.9,0.1-12.8-2.8-12.8-9.7v-35.1H994v6.5h-19V231.3z M1004,240.8V257h-5.8v-44.8h12.7
		c5.5,0,12.5,2.8,12.5,9.5v9.7c0,6.3-6.3,9.5-12.6,9.5L1004,240.8L1004,240.8z M1010.8,235c3.4,0,6.8-1.2,6.8-3.6v-9.7
		c0-2.8-4.2-3.6-6.7-3.6h-6.8v17L1010.8,235L1010.8,235z M1027.2,221.2c0-6.3,7-9.5,14.1-9.5c7,0,14.1,3.2,14.1,9.5v26.6
		c0,6.4-7.1,9.7-14.1,9.7c-7.1,0-14.1-3.3-14.1-9.7V221.2z M1049.3,248.4v-0.8l0.1-26.3c0-2.5-4.1-3.6-8.1-3.6s-8.1,1.2-8.1,3.6
		l0.1,26.3c0,0.5,0.1,0.9,0.1,1.1c0.6,1.9,4.2,2.8,7.9,2.8c3.6,0,7.2-0.9,7.9-2.8L1049.3,248.4z M1065.9,241.1V257h-6v-44.8h12.7
		c1.6,0,12.6,0.1,12.6,9.5v9.9c0,2.8-1.3,5.1-3.5,6.7c2.2,1.4,3.5,3.6,3.5,6.5V257h-6.1v-12.2c0-2.9-4.3-3.7-6.8-3.7H1065.9z
		 M1079.1,221.7c0-2.8-4.1-3.8-6.5-3.8h-6.7v17.3h6.5c2.6,0,6.8-0.7,6.8-3.6v-9.9H1079.1z M1091.6,212.2h26.2v5.7h-11.3
		c0,12.8-0.1,26.4-0.1,39.1h-6.1l0.1-39.1h-12.7L1091.6,212.2z M1129,231.3h19v6.6h-19c0,1.2-0.1,2.8-0.1,4.4c0,2.7,0.1,5.3,0.2,5.6
		c0.6,1.9,4,2.6,6.2,2.6h12.7v6.5l-12.7-0.1c-5.9,0.1-12.8-2.8-12.8-9.7v-35.1h25.5v6.5h-19L1129,231.3L1129,231.3z M1152.1,257
		v-44.9h16c5.5,0,12.4,2.9,12.4,9.5v25.7c0,6.8-7,9.6-12.7,9.6h-15.7L1152.1,257L1152.1,257z M1174.3,247.3c0.2-0.5,0.3-5.1,0.3-11
		c0-2-0.1-4-0.1-5.8v-8.8c-0.1-2.3-3.9-3.6-6.5-3.6h-9.9v33h9.6c2.4,0,5.5-1.5,6.2-3.1L1174.3,247.3z"/>
	<g>
		<path fill="#333333" d="M221.2,347.9c1.7-0.3,4.1-0.5,6.9-0.5c3.4,0,5.8,0.5,7.4,1.8c1.4,1.1,2.1,2.7,2.1,4.8c0,2.9-2.1,4.9-4,5.6
			v0.1c1.6,0.6,2.5,2.2,3.1,4.3c0.7,2.6,1.4,5.6,1.9,6.5h-5.3c-0.4-0.6-0.9-2.5-1.6-5.3c-0.6-2.9-1.6-3.6-3.7-3.7h-1.6v9h-5.1
			L221.2,347.9L221.2,347.9z M226.4,357.8h2c2.6,0,4.1-1.3,4.1-3.3c0-2.1-1.4-3.2-3.8-3.2c-1.3,0-2,0.1-2.3,0.2V357.8z"/>
		<path fill="#333333" d="M244.6,363.8c0.2,2.1,2.3,3.2,4.7,3.2c1.8,0,3.2-0.2,4.6-0.7l0.7,3.5c-1.7,0.7-3.8,1-6,1
			c-5.6,0-8.9-3.3-8.9-8.5c0-4.2,2.6-8.9,8.4-8.9c5.4,0,7.4,4.2,7.4,8.3c0,0.9-0.1,1.7-0.2,2h-10.7V363.8z M250.7,360.3
			c0-1.3-0.5-3.4-2.9-3.4c-2.2,0-3.1,2-3.2,3.4H250.7z"/>
		<path fill="#333333" d="M258.1,359.5c0-2.2-0.1-4-0.1-5.6h4.5l0.2,2.3h0.1c1.2-1.8,3.1-2.7,5.5-2.7c3.6,0,6.9,3.2,6.9,8.5
			c0,6.1-3.8,8.9-7.5,8.9c-2,0-3.6-0.8-4.3-1.9h-0.1v8.3h-5.2V359.5z M263.3,363.4c0,0.4,0,0.8,0.1,1.1c0.3,1.4,1.5,2.4,3,2.4
			c2.2,0,3.6-1.9,3.6-4.7c0-2.7-1.2-4.7-3.5-4.7c-1.5,0-2.8,1.1-3.1,2.6c-0.1,0.3-0.1,0.6-0.1,0.9V363.4z"/>
		<path fill="#333333" d="M294.4,362c0,6.1-4.3,8.9-8.8,8.9c-4.9,0-8.6-3.2-8.6-8.6s3.5-8.8,8.9-8.8C291,353.5,294.4,357,294.4,362z
			 M282.4,362.2c0,2.9,1.2,5,3.4,5c2,0,3.3-2,3.3-5c0-2.5-1-5-3.3-5C283.3,357.2,282.4,359.7,282.4,362.2z"/>
		<path fill="#333333" d="M297,359.3c0-2.4-0.1-4-0.1-5.5h4.5l0.2,3.1h0.1c0.9-2.4,2.9-3.4,4.5-3.4c0.5,0,0.7,0,1.1,0.1v4.9
			c-0.4-0.1-0.8-0.1-1.4-0.1c-1.9,0-3.2,1-3.5,2.6c-0.1,0.3-0.1,0.7-0.1,1.2v8.4H297V359.3z"/>
		<path fill="#333333" d="M315.7,349.1v4.8h3.7v3.8h-3.7v6c0,2,0.5,2.9,2,2.9c0.6,0,1.2-0.1,1.5-0.1v3.9c-0.7,0.3-1.9,0.4-3.4,0.4
			c-1.7,0-3.1-0.6-3.9-1.4c-1-1-1.4-2.6-1.4-4.9v-6.8h-2.2v-3.8h2.2v-3.6L315.7,349.1z"/>
		<path fill="#333333" d="M327.4,349.3c0,1.4-1.1,2.6-2.8,2.6c-1.6,0-2.7-1.2-2.7-2.6c0-1.5,1.1-2.6,2.7-2.6
			C326.3,346.6,327.4,347.8,327.4,349.3z M322.1,370.5v-16.6h5.2v16.6H322.1z"/>
		<path fill="#333333" d="M330.8,359.2c0-2.1-0.1-3.8-0.1-5.3h4.5l0.2,2.3h0.1c0.7-1.1,2.4-2.7,5.1-2.7c3.4,0,5.9,2.2,5.9,7.1v9.9
			h-5.2v-9.2c0-2.1-0.7-3.6-2.6-3.6c-1.4,0-2.3,1-2.6,1.9c-0.1,0.3-0.2,0.8-0.2,1.3v9.6h-5.2v-11.3L330.8,359.2L330.8,359.2z"/>
		<path fill="#333333" d="M366,353.9c-0.1,1.1-0.1,2.4-0.1,4.9v9.3c0,3.2-0.6,5.8-2.5,7.5c-1.8,1.6-4.3,2-6.8,2
			c-2.2,0-4.5-0.4-6-1.3l1-3.9c1.1,0.6,2.9,1.3,4.8,1.3c2.4,0,4.3-1.3,4.3-4.4v-1.1h-0.1c-1,1.4-2.6,2.2-4.5,2.2c-4.1,0-7-3.3-7-8.1
			c0-5.3,3.5-8.7,7.5-8.7c2.3,0,3.7,1,4.6,2.3h0.1l0.2-2L366,353.9L366,353.9z M360.7,360.6c0-0.3,0-0.7-0.1-1
			c-0.4-1.4-1.4-2.3-2.8-2.3c-1.9,0-3.4,1.7-3.4,4.7c0,2.5,1.2,4.4,3.4,4.4c1.3,0,2.4-0.9,2.7-2.1c0.1-0.4,0.2-0.9,0.2-1.4
			L360.7,360.6L360.7,360.6z"/>
		<path fill="#333333" d="M376.8,370.5v-12.8h-2.2v-3.8h2.2v-0.6c0-2,0.6-4.2,2.1-5.6c1.3-1.2,3.1-1.7,4.6-1.7c1.2,0,2,0.1,2.8,0.3
			l-0.2,4c-0.4-0.1-1-0.2-1.7-0.2c-1.7,0-2.4,1.3-2.4,3v0.8h3.3v3.8H382v12.8L376.8,370.5L376.8,370.5z"/>
		<path fill="#333333" d="M403.7,362c0,6.1-4.3,8.9-8.8,8.9c-4.9,0-8.6-3.2-8.6-8.6s3.5-8.8,8.9-8.8
			C400.3,353.5,403.7,357,403.7,362z M391.6,362.2c0,2.9,1.2,5,3.4,5c2,0,3.3-2,3.3-5c0-2.5-1-5-3.3-5
			C392.6,357.2,391.6,359.7,391.6,362.2z"/>
		<path fill="#333333" d="M406.3,359.3c0-2.4-0.1-4-0.1-5.5h4.5l0.2,3.1h0.1c0.9-2.4,2.9-3.4,4.5-3.4c0.5,0,0.7,0,1.1,0.1v4.9
			c-0.4-0.1-0.8-0.1-1.4-0.1c-1.9,0-3.2,1-3.5,2.6c-0.1,0.3-0.1,0.7-0.1,1.2v8.4h-5.2v-11.3L406.3,359.3L406.3,359.3z"/>
		<path fill="#333333" d="M418.5,359.2c0-2.1-0.1-3.8-0.1-5.3h4.4l0.2,2.2h0.1c0.7-1.1,2.2-2.6,5-2.6c2.1,0,3.8,1.1,4.6,2.8h0.1
			c0.6-0.8,1.4-1.5,2.1-2c0.9-0.5,1.9-0.8,3.2-0.8c3.2,0,5.6,2.2,5.6,7.2v9.8h-5v-9c0-2.4-0.8-3.8-2.4-3.8c-1.2,0-2,0.8-2.4,1.8
			c-0.1,0.4-0.2,0.9-0.2,1.3v9.7h-5v-9.3c0-2.1-0.7-3.5-2.4-3.5c-1.3,0-2.1,1-2.4,1.9c-0.2,0.4-0.2,0.9-0.2,1.3v9.7h-5v-11.4
			L418.5,359.2L418.5,359.2z"/>
		<path fill="#333333" d="M447.1,366c1,0.6,2.9,1.3,4.5,1.3s2.2-0.5,2.2-1.4c0-0.8-0.5-1.3-2.4-1.9c-3.4-1.2-4.8-3-4.7-5
			c0-3.1,2.7-5.4,6.8-5.4c1.9,0,3.7,0.4,4.7,1l-0.9,3.6c-0.7-0.4-2.2-1-3.6-1c-1.3,0-2,0.5-2,1.4c0,0.8,0.6,1.2,2.7,1.9
			c3.2,1.1,4.5,2.7,4.5,5.1c0,3.1-2.4,5.4-7.2,5.4c-2.2,0-4.1-0.5-5.4-1.2L447.1,366z"/>
		<path fill="#333333" d="M477.6,370.5l-0.3-1.7h-0.1c-1.1,1.3-2.8,2-4.8,2c-3.4,0-5.4-2.4-5.4-5.1c0-4.3,3.9-6.4,9.8-6.4v-0.2
			c0-0.9-0.5-2.1-3-2.1c-1.7,0-3.5,0.6-4.6,1.3l-1-3.3c1.2-0.6,3.4-1.5,6.5-1.5c5.5,0,7.3,3.3,7.3,7.2v5.8c0,1.6,0.1,3.1,0.2,4
			L477.6,370.5L477.6,370.5z M477,362.6c-2.7,0-4.8,0.6-4.8,2.6c0,1.3,0.9,2,2,2c1.3,0,2.3-0.9,2.7-1.9c0.1-0.3,0.1-0.6,0.1-0.9
			L477,362.6L477,362.6z"/>
		<path fill="#333333" d="M485.5,359.2c0-2.1-0.1-3.8-0.1-5.3h4.5l0.2,2.3h0.1c0.7-1.1,2.4-2.7,5.1-2.7c3.4,0,5.9,2.2,5.9,7.1v9.9
			H496v-9.2c0-2.1-0.7-3.6-2.6-3.6c-1.4,0-2.3,1-2.6,1.9c-0.1,0.3-0.2,0.8-0.2,1.3v9.6h-5.2v-11.3L485.5,359.2L485.5,359.2z"/>
		<path fill="#333333" d="M521,346.4v19.2c0,1.9,0.1,3.8,0.1,5h-4.6l-0.2-2.4h-0.1c-1.1,1.9-3.1,2.8-5.2,2.8c-3.9,0-7.1-3.4-7.1-8.5
			c0-5.6,3.5-8.8,7.4-8.8c2,0,3.6,0.7,4.4,1.9h0.1v-9h5.2V346.4z M515.8,360.9c0-0.3,0-0.6-0.1-0.9c-0.3-1.4-1.4-2.5-3-2.5
			c-2.3,0-3.6,2.1-3.6,4.7c0,2.8,1.4,4.6,3.5,4.6c1.5,0,2.7-1,3-2.5c0.1-0.4,0.1-0.7,0.1-1.2v-2.2H515.8z"/>
		<path fill="#333333" d="M536.7,349.3c0,1.4-1.1,2.6-2.8,2.6c-1.6,0-2.7-1.2-2.7-2.6c0-1.5,1.1-2.6,2.7-2.6
			C535.6,346.6,536.6,347.8,536.7,349.3z M531.3,370.5v-16.6h5.2v16.6H531.3z"/>
		<path fill="#333333" d="M540.1,359.2c0-2.1-0.1-3.8-0.1-5.3h4.5l0.2,2.3h0.1c0.7-1.1,2.4-2.7,5.1-2.7c3.4,0,5.9,2.2,5.9,7.1v9.9
			h-5.2v-9.2c0-2.1-0.7-3.6-2.6-3.6c-1.4,0-2.3,1-2.6,1.9c-0.1,0.3-0.2,0.8-0.2,1.3v9.6H540L540.1,359.2L540.1,359.2z"/>
		<path fill="#333333" d="M560,370.5v-12.8h-2.2v-3.8h2.2v-0.6c0-2,0.6-4.2,2.1-5.6c1.3-1.2,3.1-1.7,4.6-1.7c1.2,0,2,0.1,2.8,0.3
			l-0.2,4c-0.4-0.1-1-0.2-1.7-0.2c-1.7,0-2.4,1.3-2.4,3v0.8h3.3v3.8h-3.3v12.8L560,370.5L560,370.5z"/>
		<path fill="#333333" d="M586.8,362c0,6.1-4.3,8.9-8.8,8.9c-4.9,0-8.6-3.2-8.6-8.6s3.5-8.8,8.9-8.8
			C583.4,353.5,586.8,357,586.8,362z M574.8,362.2c0,2.9,1.2,5,3.4,5c2,0,3.3-2,3.3-5c0-2.5-1-5-3.3-5
			C575.7,357.2,574.8,359.7,574.8,362.2z"/>
		<path fill="#333333" d="M589.5,359.3c0-2.4-0.1-4-0.1-5.5h4.5l0.2,3.1h0.1c0.9-2.4,2.9-3.4,4.5-3.4c0.5,0,0.7,0,1.1,0.1v4.9
			c-0.4-0.1-0.8-0.1-1.4-0.1c-1.9,0-3.2,1-3.5,2.6c-0.1,0.3-0.1,0.7-0.1,1.2v8.4h-5.2L589.5,359.3L589.5,359.3z"/>
		<path fill="#333333" d="M601.7,359.2c0-2.1-0.1-3.8-0.1-5.3h4.4l0.2,2.2h0.1c0.7-1.1,2.2-2.6,5-2.6c2.1,0,3.8,1.1,4.6,2.8h0.1
			c0.6-0.8,1.4-1.5,2.1-2c0.9-0.5,1.9-0.8,3.2-0.8c3.2,0,5.6,2.2,5.6,7.2v9.8h-5v-9c0-2.4-0.8-3.8-2.4-3.8c-1.2,0-2,0.8-2.4,1.8
			c-0.1,0.4-0.2,0.9-0.2,1.3v9.7h-5v-9.3c0-2.1-0.7-3.5-2.4-3.5c-1.3,0-2.1,1-2.4,1.9c-0.2,0.4-0.2,0.9-0.2,1.3v9.7h-5v-11.4
			L601.7,359.2L601.7,359.2z"/>
		<path fill="#333333" d="M639.8,370.5l-0.3-1.7h-0.1c-1.1,1.3-2.8,2-4.8,2c-3.4,0-5.4-2.4-5.4-5.1c0-4.3,3.9-6.4,9.8-6.4v-0.2
			c0-0.9-0.5-2.1-3-2.1c-1.7,0-3.5,0.6-4.6,1.3l-1-3.3c1.2-0.6,3.4-1.5,6.5-1.5c5.5,0,7.3,3.3,7.3,7.2v5.8c0,1.6,0.1,3.1,0.2,4
			L639.8,370.5L639.8,370.5z M639.2,362.6c-2.7,0-4.8,0.6-4.8,2.6c0,1.3,0.9,2,2,2c1.3,0,2.3-0.9,2.7-1.9c0.1-0.3,0.1-0.6,0.1-0.9
			V362.6z"/>
		<path fill="#333333" d="M653.3,349.1v4.8h3.7v3.8h-3.7v6c0,2,0.5,2.9,2,2.9c0.6,0,1.2-0.1,1.5-0.1v3.9c-0.7,0.3-1.9,0.4-3.4,0.4
			c-1.7,0-3.1-0.6-3.9-1.4c-1-1-1.4-2.6-1.4-4.9v-6.8h-2.2v-3.8h2.2v-3.6L653.3,349.1z"/>
		<path fill="#333333" d="M665,349.3c0,1.4-1.1,2.6-2.8,2.6c-1.6,0-2.7-1.2-2.7-2.6c0-1.5,1.1-2.6,2.7-2.6
			C663.9,346.6,665,347.8,665,349.3z M659.7,370.5v-16.6h5.2v16.6H659.7z"/>
		<path fill="#333333" d="M684.8,362c0,6.1-4.3,8.9-8.8,8.9c-4.9,0-8.6-3.2-8.6-8.6s3.5-8.8,8.9-8.8
			C681.4,353.5,684.8,357,684.8,362z M672.8,362.2c0,2.9,1.2,5,3.4,5c2,0,3.3-2,3.3-5c0-2.5-1-5-3.3-5
			C673.7,357.2,672.8,359.7,672.8,362.2z"/>
		<path fill="#333333" d="M687.4,359.2c0-2.1-0.1-3.8-0.1-5.3h4.5l0.2,2.3h0.1c0.7-1.1,2.4-2.7,5.1-2.7c3.4,0,5.9,2.2,5.9,7.1v9.9
			h-5.2v-9.2c0-2.1-0.7-3.6-2.6-3.6c-1.4,0-2.3,1-2.6,1.9c-0.1,0.3-0.2,0.8-0.2,1.3v9.6h-5.2L687.4,359.2L687.4,359.2z"/>
		<path fill="#333333" d="M726.1,370.1c-0.9,0.4-2.7,0.7-4.6,0.7c-5.4,0-8.8-3.3-8.8-8.5c0-4.9,3.3-8.8,9.5-8.8
			c1.4,0,2.9,0.2,3.9,0.6l-0.8,3.8c-0.6-0.3-1.5-0.5-2.9-0.5c-2.7,0-4.5,1.9-4.5,4.7c0,3.1,2,4.7,4.6,4.7c1.2,0,2.2-0.2,3-0.5
			L726.1,370.1z"/>
		<path fill="#333333" d="M737.8,370.5l-0.3-1.7h-0.1c-1.1,1.3-2.8,2-4.8,2c-3.4,0-5.4-2.4-5.4-5.1c0-4.3,3.9-6.4,9.8-6.4v-0.2
			c0-0.9-0.5-2.1-3-2.1c-1.7,0-3.5,0.6-4.6,1.3l-1-3.3c1.2-0.6,3.4-1.5,6.5-1.5c5.5,0,7.3,3.3,7.3,7.2v5.8c0,1.6,0.1,3.1,0.2,4
			L737.8,370.5L737.8,370.5z M737.2,362.6c-2.7,0-4.8,0.6-4.8,2.6c0,1.3,0.9,2,2,2c1.3,0,2.3-0.9,2.7-1.9c0.1-0.3,0.1-0.6,0.1-0.9
			V362.6z"/>
		<path fill="#333333" d="M745.7,359.2c0-2.1-0.1-3.8-0.1-5.3h4.5l0.2,2.3h0.1c0.7-1.1,2.4-2.7,5.1-2.7c3.4,0,5.9,2.2,5.9,7.1v9.9
			h-5.2v-9.2c0-2.1-0.7-3.6-2.6-3.6c-1.4,0-2.3,1-2.6,1.9c-0.1,0.3-0.2,0.8-0.2,1.3v9.6h-5.2L745.7,359.2L745.7,359.2z"/>
		<path fill="#333333" d="M771.7,370.5c0.1-1.1,0.1-3.1,0.1-5v-19.2h5.2v9.5h0.1c1-1.4,2.7-2.3,5-2.3c4,0,6.9,3.3,6.9,8.4
			c0,6-3.8,9-7.6,9c-1.9,0-3.8-0.7-5-2.7h-0.1l-0.2,2.3L771.7,370.5L771.7,370.5z M777,363.4c0,0.3,0,0.6,0.1,0.9
			c0.3,1.4,1.5,2.4,3,2.4c2.2,0,3.6-1.7,3.6-4.7c0-2.6-1.2-4.6-3.6-4.6c-1.4,0-2.7,1.1-3,2.5c-0.1,0.3-0.1,0.6-0.1,1V363.4z"/>
		<path fill="#333333" d="M795.7,363.8c0.2,2.1,2.3,3.2,4.7,3.2c1.8,0,3.2-0.2,4.6-0.7l0.7,3.5c-1.7,0.7-3.8,1-6,1
			c-5.6,0-8.9-3.3-8.9-8.5c0-4.2,2.6-8.9,8.4-8.9c5.4,0,7.4,4.2,7.4,8.3c0,0.9-0.1,1.7-0.2,2h-10.7V363.8z M801.8,360.3
			c0-1.3-0.5-3.4-2.9-3.4c-2.2,0-3.1,2-3.2,3.4H801.8z"/>
		<path fill="#333333" d="M816.5,370.5v-12.8h-2.2v-3.8h2.2v-0.6c0-2,0.6-4.2,2.1-5.6c1.3-1.2,3.1-1.7,4.6-1.7c1.2,0,2,0.1,2.8,0.3
			l-0.2,4c-0.4-0.1-1-0.2-1.7-0.2c-1.7,0-2.4,1.3-2.4,3v0.8h3.3v3.8h-3.3v12.8L816.5,370.5L816.5,370.5z"/>
		<path fill="#333333" d="M843.3,362c0,6.1-4.3,8.9-8.8,8.9c-4.9,0-8.6-3.2-8.6-8.6s3.5-8.8,8.9-8.8
			C839.9,353.5,843.3,357,843.3,362z M831.3,362.2c0,2.9,1.2,5,3.4,5c2,0,3.3-2,3.3-5c0-2.5-1-5-3.3-5
			C832.2,357.2,831.3,359.7,831.3,362.2z"/>
		<path fill="#333333" d="M861.6,365.2c0,2.2,0.1,3.9,0.1,5.3h-4.5l-0.2-2.3h-0.1c-0.6,1-2.2,2.7-5.2,2.7c-3.4,0-5.8-2.1-5.8-7.2
			v-9.8h5.2v8.9c0,2.4,0.8,3.9,2.6,3.9c1.4,0,2.2-1,2.6-1.8c0.1-0.3,0.2-0.7,0.2-1.1v-9.9h5.2L861.6,365.2L861.6,365.2z"/>
		<path fill="#333333" d="M865.2,359.2c0-2.1-0.1-3.8-0.1-5.3h4.5l0.2,2.3h0.1c0.7-1.1,2.4-2.7,5.1-2.7c3.4,0,5.9,2.2,5.9,7.1v9.9
			h-5.2v-9.2c0-2.1-0.7-3.6-2.6-3.6c-1.4,0-2.3,1-2.6,1.9c-0.1,0.3-0.2,0.8-0.2,1.3v9.6h-5.2L865.2,359.2L865.2,359.2z"/>
		<path fill="#333333" d="M900.7,346.4v19.2c0,1.9,0.1,3.8,0.1,5h-4.6l-0.2-2.4h-0.1c-1.1,1.9-3.1,2.8-5.2,2.8
			c-3.9,0-7.1-3.4-7.1-8.5c0-5.6,3.5-8.8,7.4-8.8c2,0,3.6,0.7,4.4,1.9h0.1v-9h5.2L900.7,346.4L900.7,346.4z M895.5,360.9
			c0-0.3,0-0.6-0.1-0.9c-0.3-1.4-1.4-2.5-3-2.5c-2.3,0-3.6,2.1-3.6,4.7c0,2.8,1.4,4.6,3.5,4.6c1.5,0,2.7-1,3-2.5
			c0.1-0.4,0.1-0.7,0.1-1.2L895.5,360.9L895.5,360.9z"/>
		<path fill="#333333" d="M920.5,370.5l-0.3-1.7h-0.1c-1.1,1.3-2.8,2-4.8,2c-3.4,0-5.4-2.4-5.4-5.1c0-4.3,3.9-6.4,9.8-6.4v-0.2
			c0-0.9-0.5-2.1-3-2.1c-1.7,0-3.5,0.6-4.6,1.3l-1-3.3c1.2-0.6,3.4-1.5,6.5-1.5c5.5,0,7.3,3.3,7.3,7.2v5.8c0,1.6,0.1,3.1,0.2,4
			L920.5,370.5L920.5,370.5z M919.9,362.6c-2.7,0-4.8,0.6-4.8,2.6c0,1.3,0.9,2,2,2c1.3,0,2.3-0.9,2.7-1.9c0.1-0.3,0.1-0.6,0.1-0.9
			V362.6z"/>
		<path fill="#333333" d="M934,349.1v4.8h3.7v3.8H934v6c0,2,0.5,2.9,2,2.9c0.6,0,1.2-0.1,1.5-0.1v3.9c-0.7,0.3-1.9,0.4-3.4,0.4
			c-1.7,0-3.1-0.6-3.9-1.4c-1-1-1.4-2.6-1.4-4.9v-6.8h-2.2v-3.8h2.2v-3.6L934,349.1z"/>
	</g>
	<g>
		<path fill="#CC0033" d="M945.9,346.4h5.2v9.5h0.1c0.5-0.7,1.2-1.3,2-1.7c0.7-0.4,1.7-0.6,2.7-0.6c3.3,0,5.8,2.3,5.8,7.3v9.7h-5.2
			v-9.1c0-2.2-0.7-3.7-2.7-3.7c-1.4,0-2.2,0.9-2.6,1.8c-0.1,0.3-0.2,0.8-0.2,1.2v9.9h-5.2v-24.3L945.9,346.4L945.9,346.4z"/>
		<path fill="#CC0033" d="M970.8,349.1v4.8h3.7v3.8h-3.7v6c0,2,0.5,2.9,2,2.9c0.6,0,1.2-0.1,1.5-0.1v3.9c-0.7,0.3-1.9,0.4-3.4,0.4
			c-1.7,0-3.1-0.6-3.9-1.4c-1-1-1.4-2.6-1.4-4.9v-6.8h-2.2v-3.8h2.2v-3.6L970.8,349.1z"/>
		<path fill="#CC0033" d="M983.1,349.1v4.8h3.7v3.8h-3.7v6c0,2,0.5,2.9,2,2.9c0.6,0,1.2-0.1,1.5-0.1v3.9c-0.7,0.3-1.9,0.4-3.4,0.4
			c-1.7,0-3.1-0.6-3.9-1.4c-1-1-1.4-2.6-1.4-4.9v-6.8h-2.2v-3.8h2.2v-3.6L983.1,349.1z"/>
		<path fill="#CC0033" d="M989.5,359.5c0-2.2-0.1-4-0.1-5.6h4.5l0.2,2.3h0.1c1.2-1.8,3.1-2.7,5.5-2.7c3.6,0,6.9,3.2,6.9,8.5
			c0,6.1-3.8,8.9-7.5,8.9c-2,0-3.6-0.8-4.3-1.9h-0.1v8.3h-5.2L989.5,359.5L989.5,359.5z M994.6,363.4c0,0.4,0,0.8,0.1,1.1
			c0.3,1.4,1.5,2.4,3,2.4c2.2,0,3.6-1.9,3.6-4.7c0-2.7-1.2-4.7-3.5-4.7c-1.5,0-2.8,1.1-3.1,2.6c-0.1,0.3-0.1,0.6-0.1,0.9V363.4z"/>
		<path fill="#CC0033" d="M1009.2,366c1,0.6,2.9,1.3,4.5,1.3s2.2-0.5,2.2-1.4c0-0.8-0.5-1.3-2.4-1.9c-3.4-1.2-4.8-3-4.7-5
			c0-3.1,2.7-5.4,6.8-5.4c1.9,0,3.7,0.4,4.7,1l-0.9,3.6c-0.7-0.4-2.2-1-3.6-1c-1.3,0-2,0.5-2,1.4c0,0.8,0.6,1.2,2.7,1.9
			c3.2,1.1,4.5,2.7,4.5,5.1c0,3.1-2.4,5.4-7.2,5.4c-2.2,0-4.1-0.5-5.4-1.2L1009.2,366z"/>
		<path fill="#CC0033" d="M1022.8,356.8c0-1.8,1.3-3.1,3.1-3.1s3,1.3,3,3.1c0,1.8-1.2,3.1-3.1,3.1
			C1024,359.9,1022.8,358.6,1022.8,356.8z M1022.8,367.8c0-1.8,1.3-3.1,3.1-3.1s3,1.3,3,3.1c0,1.8-1.2,3.1-3.1,3.1
			C1024,370.9,1022.8,369.5,1022.8,367.8z"/>
		<path fill="#CC0033" d="M1029.9,371.9l7.3-24.6h3.4l-7.3,24.6H1029.9z"/>
		<path fill="#CC0033" d="M1038.7,371.9l7.3-24.6h3.4l-7.3,24.6H1038.7z"/>
		<path fill="#CC0033" d="M1054.9,353.9l2.5,8.2c0.3,1,0.6,2.2,0.8,3.1h0.1c0.2-0.9,0.5-2.1,0.7-3.1l2-8.2h5.5l-3.9,10.9
			c-2.4,6.6-4,9.2-5.8,10.9c-1.8,1.6-3.7,2.1-5,2.3l-1.1-4.4c0.6-0.1,1.5-0.4,2.2-0.9c0.8-0.4,1.6-1.2,2.1-2.1
			c0.2-0.2,0.3-0.5,0.3-0.7s0-0.4-0.2-0.8l-6.1-15.2L1054.9,353.9L1054.9,353.9z"/>
		<path fill="#CC0033" d="M1071.6,363.8c0.2,2.1,2.3,3.2,4.7,3.2c1.8,0,3.2-0.2,4.6-0.7l0.7,3.5c-1.7,0.7-3.8,1-6,1
			c-5.6,0-8.9-3.3-8.9-8.5c0-4.2,2.6-8.9,8.4-8.9c5.4,0,7.4,4.2,7.4,8.3c0,0.9-0.1,1.7-0.2,2h-10.7V363.8z M1077.7,360.3
			c0-1.3-0.5-3.4-2.9-3.4c-2.2,0-3.1,2-3.2,3.4H1077.7z"/>
		<path fill="#CC0033" d="M1085.3,346.4h5.2v24.1h-5.2V346.4z"/>
		<path fill="#CC0033" d="M1094,346.4h5.2v24.1h-5.2V346.4z"/>
		<path fill="#CC0033" d="M1119.2,362c0,6.1-4.3,8.9-8.8,8.9c-4.9,0-8.6-3.2-8.6-8.6s3.5-8.8,8.9-8.8
			C1115.8,353.5,1119.2,357,1119.2,362z M1107.2,362.2c0,2.9,1.2,5,3.4,5c2,0,3.3-2,3.3-5c0-2.5-1-5-3.3-5
			C1108.1,357.2,1107.2,359.7,1107.2,362.2z"/>
		<path fill="#CC0033" d="M1125,353.9l1.3,6.8c0.3,1.7,0.7,3.6,1,5.5h0.1c0.3-1.9,0.8-3.8,1.2-5.4l1.8-6.8h4.1l1.7,6.6
			c0.4,1.9,0.9,3.7,1.2,5.6h0.1c0.2-1.9,0.6-3.8,1-5.7l1.4-6.6h5.1l-5.1,16.6h-4.9l-1.6-5.8c-0.4-1.6-0.7-3.1-1.1-5.2h-0.1
			c-0.3,2.1-0.6,3.6-1.1,5.2l-1.7,5.8h-4.9l-4.8-16.6H1125z"/>
		<path fill="#CC0033" d="M1158.6,370.1c-0.9,0.4-2.7,0.7-4.6,0.7c-5.4,0-8.8-3.3-8.8-8.5c0-4.9,3.3-8.8,9.5-8.8
			c1.4,0,2.9,0.2,3.9,0.6l-0.8,3.8c-0.6-0.3-1.5-0.5-2.9-0.5c-2.7,0-4.5,1.9-4.5,4.7c0,3.1,2,4.7,4.6,4.7c1.2,0,2.2-0.2,3-0.5
			L1158.6,370.1z"/>
		<path fill="#CC0033" d="M1170.3,370.5l-0.3-1.7h-0.1c-1.1,1.3-2.8,2-4.8,2c-3.4,0-5.4-2.4-5.4-5.1c0-4.3,3.9-6.4,9.8-6.4v-0.2
			c0-0.9-0.5-2.1-3-2.1c-1.7,0-3.5,0.6-4.6,1.3l-1-3.3c1.2-0.6,3.4-1.5,6.5-1.5c5.5,0,7.3,3.3,7.3,7.2v5.8c0,1.6,0.1,3.1,0.2,4
			L1170.3,370.5L1170.3,370.5z M1169.7,362.6c-2.7,0-4.8,0.6-4.8,2.6c0,1.3,0.9,2,2,2c1.3,0,2.3-0.9,2.7-1.9
			c0.1-0.3,0.1-0.6,0.1-0.9L1169.7,362.6L1169.7,362.6z"/>
		<path fill="#CC0033" d="M1178.2,359.3c0-2.4-0.1-4-0.1-5.5h4.5l0.2,3.1h0.1c0.8-2.4,2.9-3.4,4.5-3.4c0.5,0,0.7,0,1.1,0.1v4.9
			c-0.4-0.1-0.8-0.1-1.4-0.1c-1.9,0-3.2,1-3.5,2.6c-0.1,0.3-0.1,0.7-0.1,1.2v8.4h-5.2L1178.2,359.3L1178.2,359.3z"/>
		<path fill="#CC0033" d="M1206.7,346.4v19.2c0,1.9,0.1,3.8,0.1,5h-4.6l-0.2-2.4h-0.1c-1.1,1.9-3.1,2.8-5.2,2.8
			c-3.9,0-7.1-3.4-7.1-8.5c0-5.6,3.5-8.8,7.4-8.8c2,0,3.6,0.7,4.4,1.9h0.1v-9h5.2L1206.7,346.4L1206.7,346.4z M1201.6,360.9
			c0-0.3,0-0.6-0.1-0.9c-0.3-1.4-1.4-2.5-3-2.5c-2.3,0-3.6,2.1-3.6,4.7c0,2.8,1.4,4.6,3.5,4.6c1.5,0,2.7-1,3-2.5
			c0.1-0.4,0.1-0.7,0.1-1.2L1201.6,360.9L1201.6,360.9z"/>
		<path fill="#CC0033" d="M1210,367.7c0-1.8,1.3-3.2,3.1-3.2s3,1.3,3,3.2c0,1.8-1.2,3.1-3.1,3.1C1211.3,370.9,1210,369.5,1210,367.7
			z"/>
		<path fill="#CC0033" d="M1218.9,359.2c0-2.1-0.1-3.8-0.1-5.3h4.4l0.2,2.2h0.1c0.7-1.1,2.2-2.6,5-2.6c2.1,0,3.8,1.1,4.6,2.8h0.1
			c0.6-0.8,1.4-1.5,2.1-2c0.9-0.5,1.9-0.8,3.2-0.8c3.2,0,5.6,2.2,5.6,7.2v9.8h-5v-9c0-2.4-0.8-3.8-2.4-3.8c-1.2,0-2,0.8-2.4,1.8
			c-0.1,0.4-0.2,0.9-0.2,1.3v9.7h-5v-9.3c0-2.1-0.7-3.5-2.4-3.5c-1.3,0-2.1,1-2.4,1.9c-0.2,0.4-0.2,0.9-0.2,1.3v9.7h-5v-11.4
			L1218.9,359.2L1218.9,359.2z"/>
		<path fill="#CC0033" d="M1247.6,346.4h5.2v9.5h0.1c0.5-0.7,1.2-1.3,2-1.7c0.7-0.4,1.7-0.6,2.7-0.6c3.3,0,5.8,2.3,5.8,7.3v9.7h-5.2
			v-9.1c0-2.2-0.7-3.7-2.7-3.7c-1.4,0-2.2,0.9-2.6,1.8c-0.1,0.3-0.2,0.8-0.2,1.2v9.9h-5.2L1247.6,346.4L1247.6,346.4z"/>
		<path fill="#CC0033" d="M1266.9,359.3c0-2.4-0.1-4-0.1-5.5h4.5l0.2,3.1h0.1c0.8-2.4,2.9-3.4,4.5-3.4c0.5,0,0.7,0,1.1,0.1v4.9
			c-0.4-0.1-0.8-0.1-1.4-0.1c-1.9,0-3.2,1-3.5,2.6c-0.1,0.3-0.1,0.7-0.1,1.2v8.4h-5.2L1266.9,359.3L1266.9,359.3z"/>
		<path fill="#CC0033" d="M1288.4,370.5l-0.3-1.7h-0.1c-1.1,1.3-2.8,2-4.8,2c-3.4,0-5.4-2.4-5.4-5.1c0-4.3,3.9-6.4,9.8-6.4v-0.2
			c0-0.9-0.5-2.1-3-2.1c-1.7,0-3.5,0.6-4.6,1.3l-1-3.3c1.2-0.6,3.4-1.5,6.5-1.5c5.5,0,7.3,3.3,7.3,7.2v5.8c0,1.6,0.1,3.1,0.2,4
			L1288.4,370.5L1288.4,370.5z M1287.8,362.6c-2.7,0-4.8,0.6-4.8,2.6c0,1.3,0.9,2,2,2c1.3,0,2.3-0.9,2.7-1.9
			c0.1-0.3,0.1-0.6,0.1-0.9L1287.8,362.6L1287.8,362.6z"/>
		<path fill="#CC0033" d="M1296,367.7c0-1.8,1.3-3.2,3.1-3.2s3,1.3,3,3.2c0,1.8-1.2,3.1-3.1,3.1C1297.3,370.9,1296,369.5,1296,367.7
			z"/>
		<path fill="#CC0033" d="M1320.5,353.9c-0.1,1.1-0.1,2.4-0.1,4.9v9.3c0,3.2-0.6,5.8-2.5,7.5c-1.8,1.6-4.3,2-6.8,2
			c-2.2,0-4.5-0.4-6-1.3l1-3.9c1.1,0.6,2.9,1.3,4.8,1.3c2.4,0,4.3-1.3,4.3-4.4v-1.1h-0.1c-1,1.4-2.6,2.2-4.5,2.2c-4.1,0-7-3.3-7-8.1
			c0-5.3,3.5-8.7,7.5-8.7c2.3,0,3.7,1,4.6,2.3h0.1l0.2-2L1320.5,353.9L1320.5,353.9z M1315.2,360.6c0-0.3,0-0.7-0.1-1
			c-0.4-1.4-1.4-2.3-2.8-2.3c-1.9,0-3.4,1.7-3.4,4.7c0,2.5,1.2,4.4,3.4,4.4c1.3,0,2.4-0.9,2.7-2.1c0.1-0.4,0.2-0.9,0.2-1.4
			L1315.2,360.6L1315.2,360.6z"/>
		<path fill="#CC0033" d="M1340.4,362c0,6.1-4.3,8.9-8.8,8.9c-4.9,0-8.6-3.2-8.6-8.6s3.5-8.8,8.9-8.8
			C1337,353.5,1340.4,357,1340.4,362z M1328.3,362.2c0,2.9,1.2,5,3.4,5c2,0,3.3-2,3.3-5c0-2.5-1-5-3.3-5
			C1329.3,357.2,1328.3,359.7,1328.3,362.2z"/>
		<path fill="#CC0033" d="M1346.3,353.9l2.2,7.7c0.4,1.4,0.7,2.7,1,4h0.1c0.3-1.4,0.5-2.6,0.9-4l2.1-7.7h5.4l-6.2,16.6h-5.2
			l-6.1-16.6H1346.3z"/>
		<path fill="#CC0033" d="M1357.8,367.7c0-1.8,1.3-3.2,3.1-3.2s3,1.3,3,3.2c0,1.8-1.2,3.1-3.1,3.1
			C1359,370.9,1357.8,369.5,1357.8,367.7z"/>
		<path fill="#CC0033" d="M1382,365.2c0,2.2,0.1,3.9,0.1,5.3h-4.5l-0.2-2.3h-0.1c-0.6,1-2.2,2.7-5.2,2.7c-3.4,0-5.8-2.1-5.8-7.2
			v-9.8h5.2v8.9c0,2.4,0.8,3.9,2.6,3.9c1.4,0,2.2-1,2.6-1.8c0.1-0.3,0.2-0.7,0.2-1.1v-9.9h5.2L1382,365.2L1382,365.2z"/>
		<path fill="#CC0033" d="M1390.8,360.9L1390.8,360.9c0.4-0.7,0.8-1.4,1.3-2l3.4-5h6.2l-5.9,6.7l6.8,9.9h-6.4l-4-6.8l-1.3,1.6v5.2
			h-5.2v-24.1h5.2L1390.8,360.9L1390.8,360.9z"/>
	</g>
	<g>
		<path fill="#333333" d="M237.5,408.8c0,6.1-4.3,8.9-8.8,8.9c-4.9,0-8.6-3.2-8.6-8.6s3.5-8.8,8.9-8.8
			C234.1,400.3,237.5,403.8,237.5,408.8z M225.5,409c0,2.9,1.2,5,3.4,5c2,0,3.3-2,3.3-5c0-2.5-1-5-3.3-5
			C226.4,404,225.5,406.5,225.5,409z"/>
		<path fill="#333333" d="M240.1,406.1c0-2.4-0.1-4-0.1-5.5h4.5l0.2,3.1h0.1c0.9-2.4,2.9-3.4,4.5-3.4c0.5,0,0.7,0,1.1,0.1v4.9
			c-0.4-0.1-0.8-0.1-1.4-0.1c-1.9,0-3.2,1-3.5,2.6c-0.1,0.3-0.1,0.7-0.1,1.2v8.4h-5.2v-11.3L240.1,406.1L240.1,406.1z"/>
		<path fill="#333333" d="M259.3,412.8c1,0.6,2.9,1.3,4.5,1.3s2.2-0.5,2.2-1.4c0-0.8-0.5-1.3-2.4-1.9c-3.4-1.2-4.8-3-4.7-5
			c0-3.1,2.7-5.4,6.8-5.4c1.9,0,3.7,0.4,4.7,1l-0.9,3.6c-0.7-0.4-2.2-1-3.6-1c-1.3,0-2,0.5-2,1.4c0,0.8,0.6,1.2,2.7,1.9
			c3.2,1.1,4.5,2.7,4.5,5.1c0,3.1-2.4,5.4-7.2,5.4c-2.2,0-4.1-0.5-5.4-1.2L259.3,412.8z"/>
		<path fill="#333333" d="M277.4,410.6c0.2,2.1,2.3,3.2,4.7,3.2c1.8,0,3.2-0.2,4.6-0.7l0.7,3.5c-1.7,0.7-3.8,1-6,1
			c-5.6,0-8.9-3.3-8.9-8.5c0-4.2,2.6-8.9,8.4-8.9c5.4,0,7.4,4.2,7.4,8.3c0,0.9-0.1,1.7-0.2,2h-10.7V410.6z M283.5,407.1
			c0-1.3-0.5-3.4-2.9-3.4c-2.2,0-3.1,2-3.2,3.4H283.5z"/>
		<path fill="#333333" d="M300.4,417.3l-0.3-1.7H300c-1.1,1.3-2.8,2-4.8,2c-3.4,0-5.4-2.4-5.4-5.1c0-4.3,3.9-6.4,9.8-6.4V406
			c0-0.9-0.5-2.1-3-2.1c-1.7,0-3.5,0.6-4.6,1.3l-1-3.3c1.2-0.6,3.4-1.5,6.5-1.5c5.5,0,7.3,3.3,7.3,7.2v5.8c0,1.6,0.1,3.1,0.2,4h-4.6
			V417.3z M299.7,409.4c-2.7,0-4.8,0.6-4.8,2.6c0,1.3,0.9,2,2,2c1.3,0,2.3-0.9,2.7-1.9c0.1-0.3,0.1-0.6,0.1-0.9L299.7,409.4
			L299.7,409.4z"/>
		<path fill="#333333" d="M308.2,406.1c0-2.4-0.1-4-0.1-5.5h4.5l0.2,3.1h0.1c0.9-2.4,2.9-3.4,4.5-3.4c0.5,0,0.7,0,1.1,0.1v4.9
			c-0.4-0.1-0.8-0.1-1.4-0.1c-1.9,0-3.2,1-3.5,2.6c-0.1,0.3-0.1,0.7-0.1,1.2v8.4h-5.2v-11.3L308.2,406.1L308.2,406.1z"/>
		<path fill="#333333" d="M333.1,416.9c-0.9,0.4-2.7,0.7-4.6,0.7c-5.4,0-8.8-3.3-8.8-8.5c0-4.9,3.3-8.8,9.5-8.8
			c1.4,0,2.9,0.2,3.9,0.6l-0.8,3.8c-0.6-0.3-1.5-0.5-2.9-0.5c-2.7,0-4.5,1.9-4.5,4.7c0,3.1,2,4.7,4.6,4.7c1.2,0,2.2-0.2,3-0.5
			L333.1,416.9z"/>
		<path fill="#333333" d="M335.4,393.1h5.2v9.5h0.1c0.5-0.7,1.2-1.3,2-1.7c0.7-0.4,1.7-0.6,2.7-0.6c3.3,0,5.8,2.3,5.8,7.3v9.7H346
			v-9.1c0-2.2-0.7-3.7-2.7-3.7c-1.4,0-2.2,0.9-2.6,1.8c-0.1,0.3-0.2,0.8-0.2,1.2v9.9h-5.2v-24.3L335.4,393.1L335.4,393.1z"/>
		<path fill="#333333" d="M362.2,417.3v-12.8H360v-3.8h2.2V400c0-2,0.6-4.2,2.1-5.6c1.3-1.2,3.1-1.7,4.6-1.7c1.2,0,2,0.1,2.8,0.3
			l-0.2,4c-0.4-0.1-1-0.2-1.7-0.2c-1.7,0-2.4,1.3-2.4,3v0.8h3.3v3.8h-3.3v12.8h-5.2L362.2,417.3L362.2,417.3z"/>
		<path fill="#333333" d="M389,408.8c0,6.1-4.3,8.9-8.8,8.9c-4.9,0-8.6-3.2-8.6-8.6s3.5-8.8,8.9-8.8
			C385.6,400.3,389,403.8,389,408.8z M377,409c0,2.9,1.2,5,3.4,5c2,0,3.3-2,3.3-5c0-2.5-1-5-3.3-5C377.9,404,377,406.5,377,409z"/>
		<path fill="#333333" d="M391.6,406.1c0-2.4-0.1-4-0.1-5.5h4.5l0.2,3.1h0.1c0.9-2.4,2.9-3.4,4.5-3.4c0.5,0,0.7,0,1.1,0.1v4.9
			c-0.4-0.1-0.8-0.1-1.4-0.1c-1.9,0-3.2,1-3.5,2.6c-0.1,0.3-0.1,0.7-0.1,1.2v8.4h-5.2v-11.3L391.6,406.1L391.6,406.1z"/>
		<path fill="#333333" d="M430.4,408.5c-0.1-2.8-0.2-6.1-0.2-9.4h-0.1c-0.7,2.9-1.7,6.2-2.5,8.9l-2.8,8.9h-4l-2.4-8.9
			c-0.7-2.7-1.5-5.9-2.1-8.9h-0.1c-0.1,3.1-0.2,6.6-0.4,9.5l-0.4,8.7h-4.8l1.5-22.9h6.9l2.2,7.6c0.7,2.7,1.4,5.5,1.9,8.2h0.1
			c0.6-2.7,1.4-5.7,2.2-8.2l2.4-7.6h6.8l1.3,22.9h-5.1L430.4,408.5z"/>
		<path fill="#333333" d="M444.5,394.4v8.8h8.5v-8.8h5.2v22.9H453v-9.6h-8.5v9.6h-5.2v-22.9H444.5z"/>
		<path fill="#333333" d="M462.3,394.7c1.7-0.3,4.1-0.5,6.9-0.5c3.4,0,5.8,0.5,7.4,1.8c1.4,1.1,2.1,2.7,2.1,4.8c0,2.9-2.1,4.9-4,5.6
			v0.1c1.6,0.6,2.5,2.2,3.1,4.3c0.7,2.6,1.4,5.6,1.9,6.5h-5.3c-0.4-0.6-0.9-2.5-1.6-5.3c-0.6-2.9-1.6-3.6-3.7-3.7h-1.6v9h-5.1
			L462.3,394.7L462.3,394.7z M467.4,404.5h2c2.6,0,4.1-1.3,4.1-3.3c0-2.1-1.4-3.2-3.8-3.2c-1.3,0-2,0.1-2.3,0.2L467.4,404.5
			L467.4,404.5z"/>
		<path fill="#333333" d="M487.8,411.4l-1.6,5.9h-5.4l7-22.9h6.8l7.1,22.9h-5.6l-1.8-5.9H487.8z M493.6,407.5l-1.4-4.9
			c-0.4-1.4-0.8-3.1-1.2-4.4l0,0c-0.3,1.4-0.7,3.1-1.1,4.4l-1.4,4.9H493.6z"/>
		<path fill="#333333" d="M516.3,417.3v-9.4l-7.2-13.5h5.9l2.3,5.5c0.7,1.7,1.2,2.9,1.8,4.4h0.1c0.5-1.4,1.1-2.8,1.7-4.4l2.3-5.5
			h5.8l-7.5,13.4v9.6h-5.2L516.3,417.3L516.3,417.3z"/>
		<path fill="#333333" d="M532.3,410.6c0.2,2.1,2.3,3.2,4.7,3.2c1.8,0,3.2-0.2,4.6-0.7l0.7,3.5c-1.7,0.7-3.8,1-6,1
			c-5.6,0-8.9-3.3-8.9-8.5c0-4.2,2.6-8.9,8.4-8.9c5.4,0,7.4,4.2,7.4,8.3c0,0.9-0.1,1.7-0.2,2h-10.7V410.6z M538.4,407.1
			c0-1.3-0.5-3.4-2.9-3.4c-2.2,0-3.1,2-3.2,3.4H538.4z"/>
		<path fill="#333333" d="M545.9,393.1h5.2v24.1h-5.2V393.1z"/>
		<path fill="#333333" d="M554.6,393.1h5.2v24.1h-5.2V393.1z"/>
		<path fill="#333333" d="M579.9,408.8c0,6.1-4.3,8.9-8.8,8.9c-4.9,0-8.6-3.2-8.6-8.6s3.5-8.8,8.9-8.8
			C576.5,400.3,579.9,403.8,579.9,408.8z M567.8,409c0,2.9,1.2,5,3.4,5c2,0,3.3-2,3.3-5c0-2.5-1-5-3.3-5
			C568.8,404,567.8,406.5,567.8,409z"/>
		<path fill="#333333" d="M585.6,400.7l1.3,6.8c0.3,1.7,0.7,3.6,1,5.5h0.1c0.3-1.9,0.8-3.8,1.2-5.4l1.8-6.8h4.1l1.7,6.6
			c0.4,1.9,0.9,3.7,1.2,5.6h0.1c0.2-1.9,0.6-3.8,1-5.7l1.4-6.6h5.1l-5.1,16.6h-4.9l-1.6-5.8c-0.4-1.6-0.7-3.1-1.1-5.2h-0.1
			c-0.3,2.1-0.6,3.6-1.1,5.2l-1.7,5.8h-4.9l-4.8-16.6H585.6z"/>
		<path fill="#333333" d="M631.1,416.6c-1,0.5-3.1,1-5.9,1c-7.9,0-12-4.9-12-11.5c0-7.8,5.6-12.2,12.5-12.2c2.7,0,4.7,0.5,5.6,1
			l-1.1,4.1c-1.1-0.4-2.5-0.8-4.4-0.8c-4.1,0-7.3,2.5-7.3,7.6c0,4.6,2.7,7.5,7.3,7.5c1.6,0,3.3-0.3,4.3-0.7L631.1,416.6z"/>
		<path fill="#333333" d="M643,417.3l-0.3-1.7h-0.1c-1.1,1.3-2.8,2-4.8,2c-3.4,0-5.4-2.4-5.4-5.1c0-4.3,3.9-6.4,9.8-6.4V406
			c0-0.9-0.5-2.1-3-2.1c-1.7,0-3.5,0.6-4.6,1.3l-1-3.3c1.2-0.6,3.4-1.5,6.5-1.5c5.5,0,7.3,3.3,7.3,7.2v5.8c0,1.6,0.1,3.1,0.2,4H643
			V417.3z M642.4,409.4c-2.7,0-4.8,0.6-4.8,2.6c0,1.3,0.9,2,2,2c1.3,0,2.3-0.9,2.7-1.9c0.1-0.3,0.1-0.6,0.1-0.9V409.4z"/>
		<path fill="#333333" d="M650.9,406.1c0-2.4-0.1-4-0.1-5.5h4.5l0.2,3.1h0.1c0.9-2.4,2.9-3.4,4.5-3.4c0.5,0,0.7,0,1.1,0.1v4.9
			c-0.4-0.1-0.8-0.1-1.4-0.1c-1.9,0-3.2,1-3.5,2.6c-0.1,0.3-0.1,0.7-0.1,1.2v8.4H651L650.9,406.1L650.9,406.1z"/>
		<path fill="#333333" d="M679.4,393.1v19.2c0,1.9,0.1,3.8,0.1,5H675l-0.2-2.4h-0.1c-1.1,1.9-3.1,2.8-5.2,2.8
			c-3.9,0-7.1-3.4-7.1-8.5c0-5.6,3.5-8.8,7.4-8.8c2,0,3.6,0.7,4.4,1.9h0.1v-9h5.1V393.1z M674.3,407.7c0-0.3,0-0.6-0.1-0.9
			c-0.3-1.4-1.4-2.5-3-2.5c-2.3,0-3.6,2.1-3.6,4.7c0,2.8,1.4,4.6,3.5,4.6c1.5,0,2.7-1,3-2.5c0.1-0.4,0.1-0.7,0.1-1.2L674.3,407.7
			L674.3,407.7z"/>
		<path fill="#333333" d="M695.1,396c0,1.4-1.1,2.6-2.8,2.6c-1.6,0-2.7-1.2-2.7-2.6c0-1.5,1.1-2.6,2.7-2.6
			C694,393.4,695.1,394.5,695.1,396z M689.8,417.3v-16.6h5.2v16.6H689.8z"/>
		<path fill="#333333" d="M698.5,406c0-2.1-0.1-3.8-0.1-5.3h4.5l0.2,2.3h0.1c0.7-1.1,2.4-2.7,5.1-2.7c3.4,0,5.9,2.2,5.9,7.1v9.9H709
			v-9.2c0-2.1-0.7-3.6-2.6-3.6c-1.4,0-2.3,1-2.6,1.9c-0.1,0.3-0.2,0.8-0.2,1.3v9.6h-5.2L698.5,406L698.5,406z"/>
		<path fill="#333333" d="M730.4,395.9v4.8h3.7v3.8h-3.7v6c0,2,0.5,2.9,2,2.9c0.6,0,1.2-0.1,1.5-0.1v3.9c-0.7,0.3-1.9,0.4-3.4,0.4
			c-1.7,0-3.1-0.6-3.9-1.4c-1-1-1.4-2.6-1.4-4.9v-6.8H723v-3.8h2.2v-3.6L730.4,395.9z"/>
		<path fill="#333333" d="M736.8,393.1h5.2v9.5h0.1c0.5-0.7,1.2-1.3,2-1.7c0.7-0.4,1.7-0.6,2.7-0.6c3.3,0,5.8,2.3,5.8,7.3v9.7h-5.2
			v-9.1c0-2.2-0.7-3.7-2.7-3.7c-1.4,0-2.2,0.9-2.6,1.8c-0.1,0.3-0.2,0.8-0.2,1.2v9.9h-5.2v-24.3L736.8,393.1L736.8,393.1z"/>
		<path fill="#333333" d="M760.1,410.6c0.2,2.1,2.3,3.2,4.7,3.2c1.8,0,3.2-0.2,4.6-0.7l0.7,3.5c-1.7,0.7-3.8,1-6,1
			c-5.6,0-8.9-3.3-8.9-8.5c0-4.2,2.6-8.9,8.4-8.9c5.4,0,7.4,4.2,7.4,8.3c0,0.9-0.1,1.7-0.2,2h-10.7V410.6z M766.2,407.1
			c0-1.3-0.5-3.4-2.9-3.4c-2.2,0-3.1,2-3.2,3.4H766.2z"/>
		<path fill="#333333" d="M799.6,416.2c-1.6,0.5-4.6,1.3-7.6,1.3c-4.2,0-7.2-1.1-9.3-3.1s-3.3-5-3.2-8.3c0-7.6,5.6-12,13.1-12
			c3,0,5.2,0.6,6.4,1.1l-1.1,4.1c-1.3-0.5-2.8-1-5.3-1c-4.3,0-7.6,2.4-7.6,7.4c0,4.7,3,7.5,7.2,7.5c1.2,0,2.1-0.1,2.5-0.3v-4.8h-3.5
			v-4h8.5v12.1L799.6,416.2L799.6,416.2z"/>
		<path fill="#333333" d="M819.6,408.8c0,6.1-4.3,8.9-8.8,8.9c-4.9,0-8.6-3.2-8.6-8.6s3.5-8.8,8.9-8.8
			C816.2,400.3,819.6,403.8,819.6,408.8z M807.5,409c0,2.9,1.2,5,3.4,5c2,0,3.3-2,3.3-5c0-2.5-1-5-3.3-5
			C808.4,404,807.5,406.5,807.5,409z"/>
		<path fill="#333333" d="M838.6,408.8c0,6.1-4.3,8.9-8.8,8.9c-4.9,0-8.6-3.2-8.6-8.6s3.5-8.8,8.9-8.8
			C835.2,400.3,838.6,403.8,838.6,408.8z M826.6,409c0,2.9,1.2,5,3.4,5c2,0,3.3-2,3.3-5c0-2.5-1-5-3.3-5
			C827.5,404,826.6,406.5,826.6,409z"/>
		<path fill="#333333" d="M857.3,400.7c-0.1,1.1-0.1,2.4-0.1,4.9v9.3c0,3.2-0.6,5.8-2.5,7.5c-1.8,1.6-4.3,2-6.8,2
			c-2.2,0-4.5-0.4-6-1.3l1-3.9c1.1,0.6,2.9,1.3,4.8,1.3c2.4,0,4.3-1.3,4.3-4.4V415l0,0c-1,1.4-2.6,2.2-4.5,2.2c-4.1,0-7-3.3-7-8.1
			c0-5.3,3.5-8.7,7.5-8.7c2.3,0,3.7,1,4.6,2.3h0.1l0.2-2L857.3,400.7L857.3,400.7z M852,407.4c0-0.3,0-0.7-0.1-1
			c-0.4-1.4-1.4-2.3-2.8-2.3c-1.9,0-3.4,1.7-3.4,4.7c0,2.5,1.2,4.4,3.4,4.4c1.3,0,2.4-0.9,2.7-2.1c0.1-0.4,0.2-0.9,0.2-1.4
			L852,407.4L852,407.4z"/>
		<path fill="#333333" d="M860.7,393.1h5.2v24.1h-5.2V393.1z"/>
		<path fill="#333333" d="M873.5,410.6c0.2,2.1,2.3,3.2,4.7,3.2c1.8,0,3.2-0.2,4.6-0.7l0.7,3.5c-1.7,0.7-3.8,1-6,1
			c-5.6,0-8.9-3.3-8.9-8.5c0-4.2,2.6-8.9,8.4-8.9c5.4,0,7.4,4.2,7.4,8.3c0,0.9-0.1,1.7-0.2,2h-10.7V410.6z M879.6,407.1
			c0-1.3-0.5-3.4-2.9-3.4c-2.2,0-3.1,2-3.2,3.4H879.6z"/>
		<path fill="#333333" d="M893.9,394.7c1.6-0.3,3.8-0.5,7-0.5s5.5,0.6,7,1.8c1.5,1.2,2.4,3.1,2.4,5.3s-0.7,4.1-2.1,5.4
			c-1.8,1.7-4.4,2.4-7.4,2.4c-0.7,0-1.3,0-1.8-0.1v8.2h-5.1L893.9,394.7L893.9,394.7z M899,405.1c0.4,0.1,1,0.1,1.7,0.1
			c2.8,0,4.5-1.4,4.5-3.7c0-2.1-1.5-3.4-4-3.4c-1.1,0-1.8,0.1-2.1,0.2v6.8H899z"/>
		<path fill="#333333" d="M912.5,393.1h5.2v24.1h-5.2V393.1z"/>
		<path fill="#333333" d="M930.7,417.3l-0.3-1.7h-0.1c-1.1,1.3-2.8,2-4.8,2c-3.4,0-5.4-2.4-5.4-5.1c0-4.3,3.9-6.4,9.8-6.4V406
			c0-0.9-0.5-2.1-3-2.1c-1.7,0-3.5,0.6-4.6,1.3l-1-3.3c1.2-0.6,3.4-1.5,6.5-1.5c5.5,0,7.3,3.3,7.3,7.2v5.8c0,1.6,0.1,3.1,0.2,4h-4.6
			L930.7,417.3L930.7,417.3z M930.1,409.4c-2.7,0-4.8,0.6-4.8,2.6c0,1.3,0.9,2,2,2c1.3,0,2.3-0.9,2.7-1.9c0.1-0.3,0.1-0.6,0.1-0.9
			V409.4z"/>
		<path fill="#333333" d="M941.7,400.7l2.5,8.2c0.3,1,0.6,2.2,0.8,3.1h0.1c0.2-0.9,0.5-2.1,0.7-3.1l2-8.2h5.5l-3.9,10.9
			c-2.4,6.6-4,9.2-5.8,10.9c-1.8,1.6-3.7,2.1-5,2.3l-1.1-4.4c0.6-0.1,1.5-0.4,2.2-0.9c0.8-0.4,1.6-1.2,2.1-2.1
			c0.2-0.2,0.3-0.5,0.3-0.7s0-0.4-0.2-0.8l-6.1-15.2L941.7,400.7L941.7,400.7z"/>
		<path fill="#333333" d="M978.3,408.8c0,6.1-4.3,8.9-8.8,8.9c-4.9,0-8.6-3.2-8.6-8.6s3.5-8.8,8.9-8.8
			C974.9,400.3,978.3,403.8,978.3,408.8z M966.2,409c0,2.9,1.2,5,3.4,5c2,0,3.3-2,3.3-5c0-2.5-1-5-3.3-5
			C967.2,404,966.2,406.5,966.2,409z"/>
		<path fill="#333333" d="M980.9,406.1c0-2.4-0.1-4-0.1-5.5h4.5l0.2,3.1h0.1c0.9-2.4,2.9-3.4,4.5-3.4c0.5,0,0.7,0,1.1,0.1v4.9
			c-0.4-0.1-0.8-0.1-1.4-0.1c-1.9,0-3.2,1-3.5,2.6c-0.1,0.3-0.1,0.7-0.1,1.2v8.4H981L980.9,406.1L980.9,406.1z"/>
		<path fill="#333333" d="M1005.6,411.4l-1.6,5.9h-5.4l7-22.9h6.8l7.1,22.9h-5.6l-1.8-5.9H1005.6z M1011.4,407.5l-1.4-4.9
			c-0.4-1.4-0.8-3.1-1.2-4.4h-0.1c-0.3,1.4-0.7,3.1-1.1,4.4l-1.4,4.9H1011.4z"/>
		<path fill="#333333" d="M1021.6,406.2c0-2.2-0.1-4-0.1-5.6h4.5l0.2,2.3h0.1c1.2-1.8,3.1-2.7,5.5-2.7c3.6,0,6.9,3.2,6.9,8.5
			c0,6.1-3.8,8.9-7.5,8.9c-2,0-3.6-0.8-4.3-1.9h-0.1v8.3h-5.2L1021.6,406.2L1021.6,406.2z M1026.7,410.1c0,0.4,0,0.8,0.1,1.1
			c0.3,1.4,1.5,2.4,3,2.4c2.2,0,3.6-1.9,3.6-4.7c0-2.7-1.2-4.7-3.5-4.7c-1.5,0-2.8,1.1-3.1,2.6c-0.1,0.3-0.1,0.6-0.1,0.9V410.1z"/>
		<path fill="#333333" d="M1041.3,406.2c0-2.2-0.1-4-0.1-5.6h4.5l0.2,2.3h0.1c1.2-1.8,3.1-2.7,5.5-2.7c3.6,0,6.9,3.2,6.9,8.5
			c0,6.1-3.8,8.9-7.5,8.9c-2,0-3.6-0.8-4.3-1.9h-0.1v8.3h-5.2V406.2z M1046.5,410.1c0,0.4,0,0.8,0.1,1.1c0.3,1.4,1.5,2.4,3,2.4
			c2.2,0,3.6-1.9,3.6-4.7c0-2.7-1.2-4.7-3.5-4.7c-1.5,0-2.8,1.1-3.1,2.6c-0.1,0.3-0.1,0.6-0.1,0.9V410.1z"/>
		<path fill="#333333" d="M1061.2,393.1h5.2v24.1h-5.2V393.1z"/>
		<path fill="#333333" d="M1074,410.6c0.2,2.1,2.3,3.2,4.7,3.2c1.8,0,3.2-0.2,4.6-0.7l0.7,3.5c-1.7,0.7-3.8,1-6,1
			c-5.6,0-8.9-3.3-8.9-8.5c0-4.2,2.6-8.9,8.4-8.9c5.4,0,7.4,4.2,7.4,8.3c0,0.9-0.1,1.7-0.2,2H1074V410.6z M1080.1,407.1
			c0-1.3-0.5-3.4-2.9-3.4c-2.2,0-3.1,2-3.2,3.4H1080.1z"/>
		<path fill="#333333" d="M1099.7,411.4l-1.6,5.9h-5.4l7-22.9h6.8l7.1,22.9h-5.6l-1.8-5.9H1099.7z M1105.5,407.5l-1.4-4.9
			c-0.4-1.4-0.8-3.1-1.2-4.4h-0.1c-0.3,1.4-0.7,3.1-1.1,4.4l-1.4,4.9H1105.5z"/>
		<path fill="#333333" d="M1115.7,406.2c0-2.2-0.1-4-0.1-5.6h4.5l0.2,2.3h0.1c1.2-1.8,3.1-2.7,5.5-2.7c3.6,0,6.9,3.2,6.9,8.5
			c0,6.1-3.8,8.9-7.5,8.9c-2,0-3.6-0.8-4.3-1.9h-0.1v8.3h-5.2V406.2z M1120.8,410.1c0,0.4,0,0.8,0.1,1.1c0.3,1.4,1.5,2.4,3,2.4
			c2.2,0,3.6-1.9,3.6-4.7c0-2.7-1.2-4.7-3.5-4.7c-1.5,0-2.8,1.1-3.1,2.6c-0.1,0.3-0.1,0.6-0.1,0.9V410.1z"/>
		<path fill="#333333" d="M1135.5,406.2c0-2.2-0.1-4-0.1-5.6h4.5l0.2,2.3h0.1c1.2-1.8,3.1-2.7,5.5-2.7c3.6,0,6.9,3.2,6.9,8.5
			c0,6.1-3.8,8.9-7.5,8.9c-2,0-3.6-0.8-4.3-1.9h-0.1v8.3h-5.2V406.2z M1140.6,410.1c0,0.4,0,0.8,0.1,1.1c0.3,1.4,1.5,2.4,3,2.4
			c2.2,0,3.6-1.9,3.6-4.7c0-2.7-1.2-4.7-3.5-4.7c-1.5,0-2.8,1.1-3.1,2.6c-0.1,0.3-0.1,0.6-0.1,0.9V410.1z"/>
		<path fill="#333333" d="M1162.4,411.9c1.4,0.7,3.5,1.4,5.7,1.4c2.4,0,3.6-1,3.6-2.5c0-1.4-1.1-2.2-3.8-3.2
			c-3.8-1.3-6.3-3.4-6.3-6.8c0-3.9,3.3-6.9,8.7-6.9c2.6,0,4.5,0.5,5.8,1.2l-1.2,4.2c-0.9-0.4-2.5-1.1-4.8-1.1c-2.2,0-3.3,1-3.3,2.2
			c0,1.5,1.3,2.1,4.2,3.2c4,1.5,6,3.6,6,6.8c0,3.8-3,7.1-9.2,7.1c-2.6,0-5.2-0.7-6.5-1.4L1162.4,411.9z"/>
		<path fill="#333333" d="M1185.1,395.9v4.8h3.7v3.8h-3.7v6c0,2,0.5,2.9,2,2.9c0.6,0,1.2-0.1,1.5-0.1v3.9c-0.7,0.3-1.9,0.4-3.4,0.4
			c-1.7,0-3.1-0.6-3.9-1.4c-1-1-1.4-2.6-1.4-4.9v-6.8h-2.2v-3.8h2.2v-3.6L1185.1,395.9z"/>
		<path fill="#333333" d="M1207.6,408.8c0,6.1-4.3,8.9-8.8,8.9c-4.9,0-8.6-3.2-8.6-8.6s3.5-8.8,8.9-8.8
			C1204.2,400.3,1207.6,403.8,1207.6,408.8z M1195.6,409c0,2.9,1.2,5,3.4,5c2,0,3.3-2,3.3-5c0-2.5-1-5-3.3-5
			C1196.5,404,1195.6,406.5,1195.6,409z"/>
		<path fill="#333333" d="M1210.2,406.1c0-2.4-0.1-4-0.1-5.5h4.5l0.2,3.1h0.1c0.8-2.4,2.9-3.4,4.5-3.4c0.5,0,0.7,0,1.1,0.1v4.9
			c-0.4-0.1-0.8-0.1-1.4-0.1c-1.9,0-3.2,1-3.5,2.6c-0.1,0.3-0.1,0.7-0.1,1.2v8.4h-5.2L1210.2,406.1L1210.2,406.1z"/>
		<path fill="#333333" d="M1226.5,410.6c0.2,2.1,2.3,3.2,4.7,3.2c1.8,0,3.2-0.2,4.6-0.7l0.7,3.5c-1.7,0.7-3.8,1-6,1
			c-5.6,0-8.9-3.3-8.9-8.5c0-4.2,2.6-8.9,8.4-8.9c5.4,0,7.4,4.2,7.4,8.3c0,0.9-0.1,1.7-0.2,2h-10.7V410.6z M1232.6,407.1
			c0-1.3-0.5-3.4-2.9-3.4c-2.2,0-3.1,2-3.2,3.4H1232.6z"/>
		<path fill="#333333" d="M1239.5,414.5c0-1.8,1.3-3.2,3.1-3.2s3,1.3,3,3.2c0,1.8-1.2,3.1-3.1,3.1
			C1240.7,417.7,1239.5,416.3,1239.5,414.5z"/>
		<path fill="#333333" d="M1260.4,411.4l-1.6,5.9h-5.4l7-22.9h6.8l7.1,22.9h-5.6l-1.8-5.9H1260.4z M1266.2,407.5l-1.4-4.9
			c-0.4-1.4-0.8-3.1-1.2-4.4h-0.1c-0.3,1.4-0.7,3.1-1.1,4.4l-1.4,4.9H1266.2z"/>
		<path fill="#333333" d="M1292.4,393.1v19.2c0,1.9,0.1,3.8,0.1,5h-4.6l-0.2-2.4h-0.1c-1.1,1.9-3.1,2.8-5.2,2.8
			c-3.9,0-7.1-3.4-7.1-8.5c0-5.6,3.5-8.8,7.4-8.8c2,0,3.6,0.7,4.4,1.9h0.1v-9h5.2L1292.4,393.1L1292.4,393.1z M1287.2,407.7
			c0-0.3,0-0.6-0.1-0.9c-0.3-1.4-1.4-2.5-3-2.5c-2.3,0-3.6,2.1-3.6,4.7c0,2.8,1.4,4.6,3.5,4.6c1.5,0,2.7-1,3-2.5
			c0.1-0.4,0.1-0.7,0.1-1.2L1287.2,407.7L1287.2,407.7z"/>
		<path fill="#333333" d="M1299.7,400.7l2.2,7.7c0.4,1.4,0.7,2.7,1,4h0.1c0.3-1.4,0.5-2.6,0.9-4l2.1-7.7h5.4l-6.2,16.6h-5.2
			l-6.1-16.6H1299.7z"/>
		<path fill="#333333" d="M1316.7,410.6c0.2,2.1,2.3,3.2,4.7,3.2c1.8,0,3.2-0.2,4.6-0.7l0.7,3.5c-1.7,0.7-3.8,1-6,1
			c-5.6,0-8.9-3.3-8.9-8.5c0-4.2,2.6-8.9,8.4-8.9c5.4,0,7.4,4.2,7.4,8.3c0,0.9-0.1,1.7-0.2,2h-10.7V410.6z M1322.8,407.1
			c0-1.3-0.5-3.4-2.9-3.4c-2.2,0-3.1,2-3.2,3.4H1322.8z"/>
		<path fill="#333333" d="M1330.2,406.1c0-2.4-0.1-4-0.1-5.5h4.5l0.2,3.1h0.1c0.8-2.4,2.9-3.4,4.5-3.4c0.5,0,0.7,0,1.1,0.1v4.9
			c-0.4-0.1-0.8-0.1-1.4-0.1c-1.9,0-3.2,1-3.5,2.6c-0.1,0.3-0.1,0.7-0.1,1.2v8.4h-5.2L1330.2,406.1L1330.2,406.1z"/>
		<path fill="#333333" d="M1342.6,412.8c1,0.6,2.9,1.3,4.5,1.3s2.2-0.5,2.2-1.4c0-0.8-0.5-1.3-2.4-1.9c-3.4-1.2-4.8-3-4.7-5
			c0-3.1,2.7-5.4,6.8-5.4c1.9,0,3.7,0.4,4.7,1l-0.9,3.6c-0.7-0.4-2.2-1-3.6-1c-1.3,0-2,0.5-2,1.4c0,0.8,0.6,1.2,2.7,1.9
			c3.2,1.1,4.5,2.7,4.5,5.1c0,3.1-2.4,5.4-7.2,5.4c-2.2,0-4.1-0.5-5.4-1.2L1342.6,412.8z"/>
		<path fill="#333333" d="M1360.8,410.6c0.2,2.1,2.3,3.2,4.7,3.2c1.8,0,3.2-0.2,4.6-0.7l0.7,3.5c-1.7,0.7-3.8,1-6,1
			c-5.6,0-8.9-3.3-8.9-8.5c0-4.2,2.6-8.9,8.4-8.9c5.4,0,7.4,4.2,7.4,8.3c0,0.9-0.1,1.7-0.2,2h-10.7V410.6z M1366.9,407.1
			c0-1.3-0.5-3.4-2.9-3.4c-2.2,0-3.1,2-3.2,3.4H1366.9z"/>
		<path fill="#333333" d="M1385,410.6c0.2,2.1,2.3,3.2,4.7,3.2c1.8,0,3.2-0.2,4.6-0.7l0.7,3.5c-1.7,0.7-3.8,1-6,1
			c-5.6,0-8.9-3.3-8.9-8.5c0-4.2,2.6-8.9,8.4-8.9c5.4,0,7.4,4.2,7.4,8.3c0,0.9-0.1,1.7-0.2,2H1385V410.6z M1391.1,407.1
			c0-1.3-0.5-3.4-2.9-3.4c-2.2,0-3.1,2-3.2,3.4H1391.1z"/>
		<path fill="#333333" d="M1401.8,400.7l2.2,7.7c0.4,1.4,0.7,2.7,1,4h0.1c0.3-1.4,0.5-2.6,0.9-4l2.1-7.7h5.4l-6.2,16.6h-5.2
			l-6.1-16.6H1401.8z"/>
		<path fill="#333333" d="M1418.7,410.6c0.2,2.1,2.3,3.2,4.7,3.2c1.8,0,3.2-0.2,4.6-0.7l0.7,3.5c-1.7,0.7-3.8,1-6,1
			c-5.6,0-8.9-3.3-8.9-8.5c0-4.2,2.6-8.9,8.4-8.9c5.4,0,7.4,4.2,7.4,8.3c0,0.9-0.1,1.7-0.2,2h-10.7V410.6z M1424.8,407.1
			c0-1.3-0.5-3.4-2.9-3.4c-2.2,0-3.1,2-3.2,3.4H1424.8z"/>
		<path fill="#333333" d="M1432.3,406c0-2.1-0.1-3.8-0.1-5.3h4.5l0.2,2.3h0.1c0.7-1.1,2.4-2.7,5.1-2.7c3.4,0,6,2.2,6,7.1v9.9h-5.2
			v-9.2c0-2.1-0.7-3.6-2.6-3.6c-1.4,0-2.3,1-2.6,1.9c-0.1,0.3-0.2,0.8-0.2,1.3v9.6h-5.2L1432.3,406L1432.3,406z"/>
		<path fill="#333333" d="M1457.2,395.9v4.8h3.7v3.8h-3.7v6c0,2,0.5,2.9,2,2.9c0.6,0,1.2-0.1,1.5-0.1v3.9c-0.7,0.3-1.9,0.4-3.4,0.4
			c-1.7,0-3.1-0.6-3.9-1.4c-1-1-1.4-2.6-1.4-4.9v-6.8h-2.2v-3.8h2.2v-3.6L1457.2,395.9z"/>
		<path fill="#333333" d="M1463.4,412.8c1,0.6,2.9,1.3,4.5,1.3s2.2-0.5,2.2-1.4c0-0.8-0.5-1.3-2.4-1.9c-3.4-1.2-4.8-3-4.7-5
			c0-3.1,2.7-5.4,6.8-5.4c1.9,0,3.7,0.4,4.7,1l-0.9,3.6c-0.7-0.4-2.2-1-3.6-1c-1.3,0-2,0.5-2,1.4c0,0.8,0.6,1.2,2.7,1.9
			c3.2,1.1,4.5,2.7,4.5,5.1c0,3.1-2.4,5.4-7.2,5.4c-2.2,0-4.1-0.5-5.4-1.2L1463.4,412.8z"/>
	</g>
	<g>
		<path fill="#333333" d="M221,459.5c1,0.6,2.9,1.3,4.5,1.3s2.2-0.5,2.2-1.4c0-0.8-0.5-1.3-2.4-1.9c-3.4-1.2-4.8-3-4.7-5
			c0-3.1,2.7-5.4,6.8-5.4c1.9,0,3.7,0.4,4.7,1l-0.9,3.6c-0.7-0.4-2.2-1-3.6-1c-1.3,0-2,0.5-2,1.4c0,0.8,0.6,1.2,2.7,1.9
			c3.2,1.1,4.5,2.7,4.5,5.1c0,3.1-2.4,5.4-7.2,5.4c-2.2,0-4.1-0.5-5.4-1.2L221,459.5z"/>
		<path fill="#333333" d="M235.3,439.9h5.2v9.5h0.1c0.5-0.7,1.2-1.3,2-1.7c0.7-0.4,1.7-0.6,2.7-0.6c3.3,0,5.8,2.3,5.8,7.3v9.7h-5.2
			V455c0-2.2-0.7-3.7-2.7-3.7c-1.4,0-2.2,0.9-2.6,1.8c-0.1,0.3-0.2,0.8-0.2,1.2v9.9h-5.2L235.3,439.9L235.3,439.9z"/>
		<path fill="#333333" d="M271.1,455.6c0,6.1-4.3,8.9-8.8,8.9c-4.9,0-8.6-3.2-8.6-8.6s3.5-8.8,8.9-8.8
			C267.7,447.1,271.1,450.6,271.1,455.6z M259.1,455.7c0,2.9,1.2,5,3.4,5c2,0,3.3-2,3.3-5c0-2.5-1-5-3.3-5
			C260,450.7,259.1,453.3,259.1,455.7z"/>
		<path fill="#333333" d="M289.4,458.7c0,2.2,0.1,3.9,0.1,5.3H285l-0.2-2.3h-0.1c-0.6,1-2.2,2.7-5.2,2.7c-3.4,0-5.8-2.1-5.8-7.2
			v-9.8h5.2v8.9c0,2.4,0.8,3.9,2.6,3.9c1.4,0,2.2-1,2.6-1.8c0.1-0.3,0.2-0.7,0.2-1.1v-9.9h5.2v11.3H289.4z"/>
		<path fill="#333333" d="M293,439.9h5.2V464H293V439.9z"/>
		<path fill="#333333" d="M317.9,439.9v19.2c0,1.9,0.1,3.8,0.1,5h-4.6l-0.2-2.4h-0.1c-1.1,1.9-3.1,2.8-5.2,2.8
			c-3.9,0-7.1-3.4-7.1-8.5c0-5.6,3.5-8.8,7.4-8.8c2,0,3.6,0.7,4.4,1.9h0.1v-9h5.2L317.9,439.9L317.9,439.9z M312.7,454.5
			c0-0.3,0-0.6-0.1-0.9c-0.3-1.4-1.4-2.5-3-2.5c-2.3,0-3.6,2.1-3.6,4.7c0,2.8,1.4,4.6,3.5,4.6c1.5,0,2.7-1,3-2.5
			c0.1-0.4,0.1-0.7,0.1-1.2v-2.2H312.7z"/>
		<path fill="#333333" d="M337.8,464.1l-0.3-1.7h-0.1c-1.1,1.3-2.8,2-4.8,2c-3.4,0-5.4-2.4-5.4-5.1c0-4.3,3.9-6.4,9.8-6.4v-0.2
			c0-0.9-0.5-2.1-3-2.1c-1.7,0-3.5,0.6-4.6,1.3l-1-3.3c1.2-0.6,3.4-1.5,6.5-1.5c5.5,0,7.3,3.3,7.3,7.2v5.8c0,1.6,0.1,3.1,0.2,4
			L337.8,464.1L337.8,464.1z M337.1,456.2c-2.7,0-4.8,0.6-4.8,2.6c0,1.3,0.9,2,2,2c1.3,0,2.3-0.9,2.7-1.9c0.1-0.3,0.1-0.6,0.1-0.9
			L337.1,456.2L337.1,456.2z"/>
		<path fill="#333333" d="M345.6,439.9h5.2V464h-5.2V439.9z"/>
		<path fill="#333333" d="M354.4,459.5c1,0.6,2.9,1.3,4.5,1.3s2.2-0.5,2.2-1.4c0-0.8-0.5-1.3-2.4-1.9c-3.4-1.2-4.8-3-4.7-5
			c0-3.1,2.7-5.4,6.8-5.4c1.9,0,3.7,0.4,4.7,1l-0.9,3.6c-0.7-0.4-2.2-1-3.6-1c-1.3,0-2,0.5-2,1.4c0,0.8,0.6,1.2,2.7,1.9
			c3.2,1.1,4.5,2.7,4.5,5.1c0,3.1-2.4,5.4-7.2,5.4c-2.2,0-4.1-0.5-5.4-1.2L354.4,459.5z"/>
		<path fill="#333333" d="M385,455.6c0,6.1-4.3,8.9-8.8,8.9c-4.9,0-8.6-3.2-8.6-8.6s3.5-8.8,8.9-8.8
			C381.6,447.1,385,450.6,385,455.6z M373,455.7c0,2.9,1.2,5,3.4,5c2,0,3.3-2,3.3-5c0-2.5-1-5-3.3-5
			C373.9,450.7,373,453.3,373,455.7z"/>
		<path fill="#333333" d="M394.3,464.1c0.1-1.1,0.1-3.1,0.1-5v-19.2h5.2v9.5h0.1c1-1.4,2.7-2.3,5-2.3c4,0,6.9,3.3,6.9,8.4
			c0,6-3.8,9-7.6,9c-1.9,0-3.8-0.7-5-2.7h-0.1l-0.2,2.3L394.3,464.1L394.3,464.1z M399.6,457c0,0.3,0,0.6,0.1,0.9
			c0.3,1.4,1.5,2.4,3,2.4c2.2,0,3.6-1.7,3.6-4.7c0-2.6-1.2-4.6-3.6-4.6c-1.4,0-2.7,1.1-3,2.5c-0.1,0.3-0.1,0.6-0.1,1V457z"/>
		<path fill="#333333" d="M418.3,457.4c0.2,2.1,2.3,3.2,4.7,3.2c1.8,0,3.2-0.2,4.6-0.7l0.7,3.5c-1.7,0.7-3.8,1-6,1
			c-5.6,0-8.9-3.3-8.9-8.5c0-4.2,2.6-8.9,8.4-8.9c5.4,0,7.4,4.2,7.4,8.3c0,0.9-0.1,1.7-0.2,2h-10.7V457.4z M424.4,453.9
			c0-1.3-0.5-3.4-2.9-3.4c-2.2,0-3.1,2-3.2,3.4H424.4z"/>
		<path fill="#333333" d="M438.5,452.9c0-2.4-0.1-4-0.1-5.5h4.5l0.2,3.1h0.1c0.9-2.4,2.9-3.4,4.5-3.4c0.5,0,0.7,0,1.1,0.1v4.9
			c-0.4-0.1-0.8-0.1-1.4-0.1c-1.9,0-3.2,1-3.5,2.6c-0.1,0.3-0.1,0.7-0.1,1.2v8.4h-5.2v-11.3L438.5,452.9L438.5,452.9z"/>
		<path fill="#333333" d="M454.8,457.4c0.2,2.1,2.3,3.2,4.7,3.2c1.8,0,3.2-0.2,4.6-0.7l0.7,3.5c-1.7,0.7-3.8,1-6,1
			c-5.6,0-8.9-3.3-8.9-8.5c0-4.2,2.6-8.9,8.4-8.9c5.4,0,7.4,4.2,7.4,8.3c0,0.9-0.1,1.7-0.2,2h-10.7V457.4z M460.9,453.9
			c0-1.3-0.5-3.4-2.9-3.4c-2.2,0-3.1,2-3.2,3.4H460.9z"/>
		<path fill="#333333" d="M468.4,453c0-2.2-0.1-4-0.1-5.6h4.5l0.2,2.3h0.1c1.2-1.8,3.1-2.7,5.5-2.7c3.6,0,6.9,3.2,6.9,8.5
			c0,6.1-3.8,8.9-7.5,8.9c-2,0-3.6-0.8-4.3-1.9h-0.1v8.3h-5.2V453z M473.6,456.9c0,0.4,0,0.8,0.1,1.1c0.3,1.4,1.5,2.4,3,2.4
			c2.2,0,3.6-1.9,3.6-4.7c0-2.7-1.2-4.7-3.5-4.7c-1.5,0-2.8,1.1-3.1,2.6c-0.1,0.3-0.1,0.6-0.1,0.9V456.9z"/>
		<path fill="#333333" d="M504.7,455.6c0,6.1-4.3,8.9-8.8,8.9c-4.9,0-8.6-3.2-8.6-8.6s3.5-8.8,8.9-8.8
			C501.3,447.1,504.7,450.6,504.7,455.6z M492.6,455.7c0,2.9,1.2,5,3.4,5c2,0,3.3-2,3.3-5c0-2.5-1-5-3.3-5
			C493.5,450.7,492.6,453.3,492.6,455.7z"/>
		<path fill="#333333" d="M507.3,452.9c0-2.4-0.1-4-0.1-5.5h4.5l0.2,3.1h0.1c0.9-2.4,2.9-3.4,4.5-3.4c0.5,0,0.7,0,1.1,0.1v4.9
			c-0.4-0.1-0.8-0.1-1.4-0.1c-1.9,0-3.2,1-3.5,2.6c-0.1,0.3-0.1,0.7-0.1,1.2v8.4h-5.2L507.3,452.9L507.3,452.9z"/>
		<path fill="#333333" d="M526,442.7v4.8h3.7v3.8H526v6c0,2,0.5,2.9,2,2.9c0.6,0,1.2-0.1,1.5-0.1v3.9c-0.7,0.3-1.9,0.4-3.4,0.4
			c-1.7,0-3.1-0.6-3.9-1.4c-1-1-1.4-2.6-1.4-4.9v-6.8h-2.2v-3.8h2.2v-3.6L526,442.7z"/>
		<path fill="#333333" d="M536.1,457.4c0.2,2.1,2.3,3.2,4.7,3.2c1.8,0,3.2-0.2,4.6-0.7l0.7,3.5c-1.7,0.7-3.8,1-6,1
			c-5.6,0-8.9-3.3-8.9-8.5c0-4.2,2.6-8.9,8.4-8.9c5.4,0,7.4,4.2,7.4,8.3c0,0.9-0.1,1.7-0.2,2h-10.7V457.4z M542.2,453.9
			c0-1.3-0.5-3.4-2.9-3.4c-2.2,0-3.1,2-3.2,3.4H542.2z"/>
		<path fill="#333333" d="M565.8,439.9v19.2c0,1.9,0.1,3.8,0.1,5h-4.6l-0.2-2.4H561c-1.1,1.9-3.1,2.8-5.2,2.8
			c-3.9,0-7.1-3.4-7.1-8.5c0-5.6,3.5-8.8,7.4-8.8c2,0,3.6,0.7,4.4,1.9h0.1v-9h5.2L565.8,439.9L565.8,439.9z M560.6,454.5
			c0-0.3,0-0.6-0.1-0.9c-0.3-1.4-1.4-2.5-3-2.5c-2.3,0-3.6,2.1-3.6,4.7c0,2.8,1.4,4.6,3.5,4.6c1.5,0,2.7-1,3-2.5
			c0.1-0.4,0.1-0.7,0.1-1.2L560.6,454.5L560.6,454.5z"/>
		<path fill="#333333" d="M581.9,442.7v4.8h3.7v3.8h-3.7v6c0,2,0.5,2.9,2,2.9c0.6,0,1.2-0.1,1.5-0.1v3.9c-0.7,0.3-1.9,0.4-3.4,0.4
			c-1.7,0-3.1-0.6-3.9-1.4c-1-1-1.4-2.6-1.4-4.9v-6.8h-2.2v-3.8h2.2v-3.6L581.9,442.7z"/>
		<path fill="#333333" d="M604.5,455.6c0,6.1-4.3,8.9-8.8,8.9c-4.9,0-8.6-3.2-8.6-8.6s3.5-8.8,8.9-8.8
			C601.1,447.1,604.5,450.6,604.5,455.6z M592.5,455.7c0,2.9,1.2,5,3.4,5c2,0,3.3-2,3.3-5c0-2.5-1-5-3.3-5
			C593.4,450.7,592.5,453.3,592.5,455.7z"/>
		<path fill="#333333" d="M618.5,441.2h5.2v14.5c0,6.5-3.1,8.8-8.2,8.8c-1.2,0-2.8-0.2-3.8-0.5l0.6-4.2c0.7,0.2,1.6,0.4,2.7,0.4
			c2.2,0,3.5-1,3.5-4.6V441.2z"/>
		<path fill="#333333" d="M636.6,464.1l-0.3-1.7h-0.1c-1.1,1.3-2.8,2-4.8,2c-3.4,0-5.4-2.4-5.4-5.1c0-4.3,3.9-6.4,9.8-6.4v-0.2
			c0-0.9-0.5-2.1-3-2.1c-1.7,0-3.5,0.6-4.6,1.3l-1-3.3c1.2-0.6,3.4-1.5,6.5-1.5c5.5,0,7.3,3.3,7.3,7.2v5.8c0,1.6,0.1,3.1,0.2,4
			L636.6,464.1L636.6,464.1z M636,456.2c-2.7,0-4.8,0.6-4.8,2.6c0,1.3,0.9,2,2,2c1.3,0,2.3-0.9,2.7-1.9c0.1-0.3,0.1-0.6,0.1-0.9
			V456.2z"/>
		<path fill="#333333" d="M644.5,452.7c0-2.1-0.1-3.8-0.1-5.3h4.5l0.2,2.3h0.1c0.7-1.1,2.4-2.7,5.1-2.7c3.4,0,5.9,2.2,5.9,7.1v9.9
			H655v-9.2c0-2.1-0.7-3.6-2.6-3.6c-1.4,0-2.3,1-2.6,1.9c-0.1,0.3-0.2,0.8-0.2,1.3v9.6h-5.2L644.5,452.7L644.5,452.7z"/>
		<path fill="#333333" d="M663.8,459.5c1,0.6,2.9,1.3,4.5,1.3s2.2-0.5,2.2-1.4c0-0.8-0.5-1.3-2.4-1.9c-3.4-1.2-4.8-3-4.7-5
			c0-3.1,2.7-5.4,6.8-5.4c1.9,0,3.7,0.4,4.7,1l-0.9,3.6c-0.7-0.4-2.2-1-3.6-1c-1.3,0-2,0.5-2,1.4c0,0.8,0.6,1.2,2.7,1.9
			c3.2,1.1,4.5,2.7,4.5,5.1c0,3.1-2.4,5.4-7.2,5.4c-2.2,0-4.1-0.5-5.4-1.2L663.8,459.5z"/>
		<path fill="#333333" d="M677.9,459.5c1,0.6,2.9,1.3,4.5,1.3s2.2-0.5,2.2-1.4c0-0.8-0.5-1.3-2.4-1.9c-3.4-1.2-4.8-3-4.7-5
			c0-3.1,2.7-5.4,6.8-5.4c1.9,0,3.7,0.4,4.7,1l-0.9,3.6c-0.7-0.4-2.2-1-3.6-1c-1.3,0-2,0.5-2,1.4c0,0.8,0.6,1.2,2.7,1.9
			c3.2,1.1,4.5,2.7,4.5,5.1c0,3.1-2.4,5.4-7.2,5.4c-2.2,0-4.1-0.5-5.4-1.2L677.9,459.5z"/>
		<path fill="#333333" d="M696,457.4c0.2,2.1,2.3,3.2,4.7,3.2c1.8,0,3.2-0.2,4.6-0.7l0.7,3.5c-1.7,0.7-3.8,1-6,1
			c-5.6,0-8.9-3.3-8.9-8.5c0-4.2,2.6-8.9,8.4-8.9c5.4,0,7.4,4.2,7.4,8.3c0,0.9-0.1,1.7-0.2,2H696V457.4z M702.1,453.9
			c0-1.3-0.5-3.4-2.9-3.4c-2.2,0-3.1,2-3.2,3.4H702.1z"/>
		<path fill="#333333" d="M709.6,452.7c0-2.1-0.1-3.8-0.1-5.3h4.5l0.2,2.3h0.1c0.7-1.1,2.4-2.7,5.1-2.7c3.4,0,5.9,2.2,5.9,7.1v9.9
			h-5.2v-9.2c0-2.1-0.7-3.6-2.6-3.6c-1.4,0-2.3,1-2.6,1.9c-0.1,0.3-0.2,0.8-0.2,1.3v9.6h-5.2L709.6,452.7L709.6,452.7z"/>
		<path fill="#333333" d="M737.2,453.4v3.4h-8.9v-3.4H737.2z"/>
		<path fill="#333333" d="M757.6,463.4c-1,0.5-3.1,1-5.9,1c-7.9,0-12-4.9-12-11.5c0-7.8,5.6-12.2,12.5-12.2c2.7,0,4.7,0.5,5.6,1
			l-1.1,4.1c-1.1-0.4-2.5-0.8-4.4-0.8c-4.1,0-7.3,2.5-7.3,7.6c0,4.6,2.7,7.5,7.3,7.5c1.6,0,3.3-0.3,4.3-0.7L757.6,463.4z"/>
		<path fill="#333333" d="M765.4,442.8c0,1.4-1.1,2.6-2.8,2.6c-1.6,0-2.7-1.2-2.7-2.6c0-1.5,1.1-2.6,2.7-2.6
			C764.3,440.2,765.4,441.3,765.4,442.8z M760.1,464.1v-16.6h5.2v16.6H760.1z"/>
		<path fill="#333333" d="M768.8,439.9h5.2V464h-5.2V439.9z"/>
		<path fill="#333333" d="M787.1,464.1l-0.3-1.7h-0.1c-1.1,1.3-2.8,2-4.8,2c-3.4,0-5.4-2.4-5.4-5.1c0-4.3,3.9-6.4,9.8-6.4v-0.2
			c0-0.9-0.5-2.1-3-2.1c-1.7,0-3.5,0.6-4.6,1.3l-1-3.3c1.2-0.6,3.4-1.5,6.5-1.5c5.5,0,7.3,3.3,7.3,7.2v5.8c0,1.6,0.1,3.1,0.2,4
			L787.1,464.1L787.1,464.1z M786.5,456.2c-2.7,0-4.8,0.6-4.8,2.6c0,1.3,0.9,2,2,2c1.3,0,2.3-0.9,2.7-1.9c0.1-0.3,0.1-0.6,0.1-0.9
			V456.2z"/>
		<path fill="#333333" d="M810.8,447.4c-0.1,1.1-0.1,2.4-0.1,4.9v9.3c0,3.2-0.6,5.8-2.5,7.5c-1.8,1.6-4.3,2-6.8,2
			c-2.2,0-4.5-0.4-6-1.3l1-3.9c1.1,0.6,2.9,1.3,4.8,1.3c2.4,0,4.3-1.3,4.3-4.4v-1.1h-0.1c-1,1.4-2.6,2.2-4.5,2.2c-4.1,0-7-3.3-7-8.1
			c0-5.3,3.5-8.7,7.5-8.7c2.3,0,3.7,1,4.6,2.3h0.1l0.2-2L810.8,447.4L810.8,447.4z M805.5,454.2c0-0.3,0-0.7-0.1-1
			c-0.4-1.4-1.4-2.3-2.8-2.3c-1.9,0-3.4,1.7-3.4,4.7c0,2.5,1.2,4.4,3.4,4.4c1.3,0,2.4-0.9,2.7-2.1c0.1-0.4,0.2-0.9,0.2-1.4
			L805.5,454.2L805.5,454.2z"/>
		<path fill="#333333" d="M821.2,441.2h5.2v18.6h9.1v4.4h-14.3V441.2z"/>
		<path fill="#333333" d="M842.9,442.8c0,1.4-1.1,2.6-2.8,2.6c-1.6,0-2.7-1.2-2.7-2.6c0-1.5,1.1-2.6,2.7-2.6
			C841.8,440.2,842.9,441.3,842.9,442.8z M837.6,464.1v-16.6h5.2v16.6H837.6z"/>
		<path fill="#333333" d="M846.3,452.7c0-2.1-0.1-3.8-0.1-5.3h4.4l0.2,2.2h0.1c0.7-1.1,2.2-2.6,5-2.6c2.1,0,3.8,1.1,4.6,2.8h0.1
			c0.6-0.8,1.4-1.5,2.1-2c0.9-0.5,1.9-0.8,3.2-0.8c3.2,0,5.6,2.2,5.6,7.2v9.8h-5v-9c0-2.4-0.8-3.8-2.4-3.8c-1.2,0-2,0.8-2.4,1.8
			c-0.1,0.4-0.2,0.9-0.2,1.3v9.7h-5v-9.3c0-2.1-0.7-3.5-2.4-3.5c-1.3,0-2.1,1-2.4,1.9c-0.2,0.4-0.2,0.9-0.2,1.3v9.7h-5v-11.4
			L846.3,452.7L846.3,452.7z"/>
		<path fill="#333333" d="M880.3,442.8c0,1.4-1.1,2.6-2.8,2.6c-1.6,0-2.7-1.2-2.7-2.6c0-1.5,1.1-2.6,2.7-2.6
			C879.2,440.2,880.2,441.3,880.3,442.8z M874.9,464.1v-16.6h5.2v16.6H874.9z"/>
		<path fill="#333333" d="M889.4,442.7v4.8h3.7v3.8h-3.7v6c0,2,0.5,2.9,2,2.9c0.6,0,1.2-0.1,1.5-0.1v3.9c-0.7,0.3-1.9,0.4-3.4,0.4
			c-1.7,0-3.1-0.6-3.9-1.4c-1-1-1.4-2.6-1.4-4.9v-6.8H882v-3.8h2.2v-3.6L889.4,442.7z"/>
		<path fill="#333333" d="M899.5,457.4c0.2,2.1,2.3,3.2,4.7,3.2c1.8,0,3.2-0.2,4.6-0.7l0.7,3.5c-1.7,0.7-3.8,1-6,1
			c-5.6,0-8.9-3.3-8.9-8.5c0-4.2,2.6-8.9,8.4-8.9c5.4,0,7.4,4.2,7.4,8.3c0,0.9-0.1,1.7-0.2,2h-10.7V457.4z M905.6,453.9
			c0-1.3-0.5-3.4-2.9-3.4c-2.2,0-3.1,2-3.2,3.4H905.6z"/>
		<path fill="#333333" d="M929.2,439.9v19.2c0,1.9,0.1,3.8,0.1,5h-4.6l-0.2-2.4h-0.1c-1.1,1.9-3.1,2.8-5.2,2.8
			c-3.9,0-7.1-3.4-7.1-8.5c0-5.6,3.5-8.8,7.4-8.8c2,0,3.6,0.7,4.4,1.9h0.1v-9h5.2L929.2,439.9L929.2,439.9z M924.1,454.5
			c0-0.3,0-0.6-0.1-0.9c-0.3-1.4-1.4-2.5-3-2.5c-2.3,0-3.6,2.1-3.6,4.7c0,2.8,1.4,4.6,3.5,4.6c1.5,0,2.7-1,3-2.5
			c0.1-0.4,0.1-0.7,0.1-1.2L924.1,454.5L924.1,454.5z"/>
		<path fill="#333333" d="M956,455.6c0,6.1-4.3,8.9-8.8,8.9c-4.9,0-8.6-3.2-8.6-8.6s3.5-8.8,8.9-8.8
			C952.6,447.1,956,450.6,956,455.6z M944,455.7c0,2.9,1.2,5,3.4,5c2,0,3.3-2,3.3-5c0-2.5-1-5-3.3-5
			C944.9,450.7,944,453.3,944,455.7z"/>
		<path fill="#333333" d="M958.7,452.7c0-2.1-0.1-3.8-0.1-5.3h4.5l0.2,2.3h0.1c0.7-1.1,2.4-2.7,5.1-2.7c3.4,0,5.9,2.2,5.9,7.1v9.9
			h-5.2v-9.2c0-2.1-0.7-3.6-2.6-3.6c-1.4,0-2.3,1-2.6,1.9c-0.1,0.3-0.2,0.8-0.2,1.3v9.6h-5.2L958.7,452.7L958.7,452.7z"/>
		<path fill="#333333" d="M1000.5,452.9c0,6.8-2.8,11.5-8.4,11.5c-5.7,0-8.2-5.1-8.3-11.4c0-6.4,2.7-11.5,8.4-11.5
			C998.2,441.6,1000.5,446.9,1000.5,452.9z M989,453.1c0,5.1,1.2,7.5,3.2,7.5s3.1-2.5,3.1-7.5c0-4.9-1.1-7.5-3.1-7.5
			C990.3,445.5,989,447.9,989,453.1z"/>
		<path fill="#333333" d="M1007.6,446.6L1007.6,446.6l-4.3,2l-0.9-3.9l5.8-2.7h4.3v22.1h-5v-17.5H1007.6z"/>
		<path fill="#333333" d="M1026.2,464.1v-5.3h-9.8v-3.4l8.4-13.5h6.3v13h2.7v3.9h-2.7v5.3H1026.2z M1026.2,454.9V450
			c0-1.3,0.1-2.7,0.2-4.1h-0.1c-0.7,1.4-1.3,2.7-2,4.1l-3,4.8v0.1H1026.2z"/>
		<path fill="#333333" d="M1036.7,460.3c0.6,0.1,1.2,0.1,2.2,0c1.6-0.1,3.2-0.5,4.4-1.4c1.4-1,2.4-2.4,2.8-4.1h-0.1
			c-1,1-2.4,1.6-4.4,1.6c-3.7,0-6.9-2.6-6.9-6.9s3.5-8,8.3-8c5.7,0,8.4,4.4,8.4,9.5c0,4.6-1.5,8-3.9,10.2c-2.1,1.9-5,3-8.4,3.1
			c-0.9,0.1-1.8,0-2.3,0L1036.7,460.3L1036.7,460.3z M1039.8,449.2c0,1.9,1,3.5,3.1,3.5c1.4,0,2.4-0.7,2.9-1.5
			c0.2-0.3,0.3-0.6,0.3-1.3c0-2.3-0.9-4.7-3.2-4.7C1041.1,445.4,1039.8,446.9,1039.8,449.2z"/>
		<path fill="#333333" d="M1062.6,464.1v-5.3h-9.8v-3.4l8.4-13.5h6.3v13h2.7v3.9h-2.7v5.3H1062.6z M1062.6,454.9V450
			c0-1.3,0.1-2.7,0.2-4.1h-0.1c-0.7,1.4-1.3,2.7-2,4.1l-3,4.8v0.1H1062.6z"/>
		<path fill="#333333" d="M1093.3,446.2h-8.6l-0.5,3.4c0.5-0.1,0.9-0.1,1.4-0.1c2.1,0,4.2,0.5,5.8,1.6c1.7,1.1,2.7,3,2.7,5.5
			c0,4.1-3.5,7.8-9.5,7.8c-2.7,0-4.9-0.6-6.2-1.3l0.9-3.9c1,0.5,3,1.1,5,1.1c2.1,0,4.4-1,4.4-3.4c0-2.3-1.8-3.7-6.2-3.7
			c-1.2,0-2.1,0.1-3,0.2l1.5-11.6h12.2L1093.3,446.2L1093.3,446.2z"/>
		<path fill="#333333" d="M1110.7,445.6c-0.6,0-1.2,0-2,0.1c-4.6,0.4-6.6,2.7-7.2,5.3h0.1c1.1-1.1,2.6-1.8,4.7-1.8
			c3.7,0,6.8,2.6,6.8,7.2c0,4.4-3.4,8-8.2,8c-5.9,0-8.8-4.4-8.8-9.7c0-4.1,1.5-7.6,3.9-9.8c2.2-2,5.1-3.1,8.5-3.3
			c1-0.1,1.6-0.1,2.1,0L1110.7,445.6L1110.7,445.6z M1107.8,456.7c0-2-1.1-3.8-3.3-3.8c-1.4,0-2.5,0.9-3.1,2
			c-0.1,0.3-0.2,0.7-0.2,1.3c0.1,2.3,1.2,4.5,3.6,4.5C1106.7,460.6,1107.8,459,1107.8,456.7z"/>
		<path fill="#333333" d="M1129.5,442v3.3l-9.1,18.8h-5.5l9.1-17.8v-0.1h-10.1V442H1129.5z"/>
		<path fill="#333333" d="M1138.9,464.1v-5.3h-9.8v-3.4l8.4-13.5h6.3v13h2.7v3.9h-2.7v5.3H1138.9z M1138.9,454.9V450
			c0-1.3,0.1-2.7,0.2-4.1h-0.1c-0.7,1.4-1.3,2.7-2,4.1l-3,4.8v0.1H1138.9z"/>
		<path fill="#333333" d="M1157.6,464.1v-5.3h-9.8v-3.4l8.4-13.5h6.3v13h2.7v3.9h-2.7v5.3H1157.6z M1157.6,454.9V450
			c0-1.3,0.1-2.7,0.2-4.1h-0.1c-0.7,1.4-1.3,2.7-2,4.1l-3,4.8v0.1H1157.6z"/>
		<path fill="#333333" d="M1181.5,442v3.3l-9.1,18.8h-5.5l9.1-17.8v-0.1h-10.1V442H1181.5z"/>
		<path fill="#333333" d="M1207.8,455.6c0,6.1-4.3,8.9-8.8,8.9c-4.9,0-8.6-3.2-8.6-8.6s3.5-8.8,8.9-8.8
			C1204.4,447.1,1207.8,450.6,1207.8,455.6z M1195.8,455.7c0,2.9,1.2,5,3.4,5c2,0,3.3-2,3.3-5c0-2.5-1-5-3.3-5
			C1196.7,450.7,1195.8,453.3,1195.8,455.7z"/>
		<path fill="#333333" d="M1210.5,452.9c0-2.4-0.1-4-0.1-5.5h4.5l0.2,3.1h0.1c0.8-2.4,2.9-3.4,4.5-3.4c0.5,0,0.7,0,1.1,0.1v4.9
			c-0.4-0.1-0.8-0.1-1.4-0.1c-1.9,0-3.2,1-3.5,2.6c-0.1,0.3-0.1,0.7-0.1,1.2v8.4h-5.2L1210.5,452.9L1210.5,452.9z"/>
		<path fill="#333333" d="M1239.1,464.1l-0.3-1.7h-0.1c-1.1,1.3-2.8,2-4.8,2c-3.4,0-5.4-2.4-5.4-5.1c0-4.3,3.9-6.4,9.8-6.4v-0.2
			c0-0.9-0.5-2.1-3-2.1c-1.7,0-3.5,0.6-4.6,1.3l-1-3.3c1.2-0.6,3.4-1.5,6.5-1.5c5.5,0,7.3,3.3,7.3,7.2v5.8c0,1.6,0.1,3.1,0.2,4
			L1239.1,464.1L1239.1,464.1z M1238.4,456.2c-2.7,0-4.8,0.6-4.8,2.6c0,1.3,0.9,2,2,2c1.3,0,2.3-0.9,2.7-1.9
			c0.1-0.3,0.1-0.6,0.1-0.9L1238.4,456.2L1238.4,456.2z"/>
		<path fill="#333333" d="M1252.6,442.7v4.8h3.7v3.8h-3.7v6c0,2,0.5,2.9,2,2.9c0.6,0,1.2-0.1,1.5-0.1v3.9c-0.7,0.3-1.9,0.4-3.4,0.4
			c-1.7,0-3.1-0.6-3.9-1.4c-1-1-1.4-2.6-1.4-4.9v-6.8h-2.2v-3.8h2.2v-3.6L1252.6,442.7z"/>
	</g>
	<g>
		<path fill="#CC0033" d="M1280.1,439.9v19.2c0,1.9,0.1,3.8,0.1,5h-4.6l-0.2-2.4h-0.1c-1.1,1.9-3.1,2.8-5.2,2.8
			c-3.9,0-7.1-3.4-7.1-8.5c0-5.6,3.5-8.8,7.4-8.8c2,0,3.6,0.7,4.4,1.9h0.1v-9h5.2L1280.1,439.9L1280.1,439.9z M1275,454.5
			c0-0.3,0-0.6-0.1-0.9c-0.3-1.4-1.4-2.5-3-2.5c-2.3,0-3.6,2.1-3.6,4.7c0,2.8,1.4,4.6,3.5,4.6c1.5,0,2.7-1,3-2.5
			c0.1-0.4,0.1-0.7,0.1-1.2L1275,454.5L1275,454.5z"/>
		<path fill="#CC0033" d="M1283.7,459.5c1,0.6,2.9,1.3,4.5,1.3s2.2-0.5,2.2-1.4c0-0.8-0.5-1.3-2.4-1.9c-3.4-1.2-4.8-3-4.7-5
			c0-3.1,2.7-5.4,6.8-5.4c1.9,0,3.7,0.4,4.7,1l-0.9,3.6c-0.7-0.4-2.2-1-3.6-1c-1.3,0-2,0.5-2,1.4c0,0.8,0.6,1.2,2.7,1.9
			c3.2,1.1,4.5,2.7,4.5,5.1c0,3.1-2.4,5.4-7.2,5.4c-2.2,0-4.1-0.5-5.4-1.2L1283.7,459.5z"/>
		<path fill="#CC0033" d="M1307.5,464.1l-0.3-1.7h-0.1c-1.1,1.3-2.8,2-4.8,2c-3.4,0-5.4-2.4-5.4-5.1c0-4.3,3.9-6.4,9.8-6.4v-0.2
			c0-0.9-0.5-2.1-3-2.1c-1.7,0-3.5,0.6-4.6,1.3l-1-3.3c1.2-0.6,3.4-1.5,6.5-1.5c5.5,0,7.3,3.3,7.3,7.2v5.8c0,1.6,0.1,3.1,0.2,4
			L1307.5,464.1L1307.5,464.1z M1306.9,456.2c-2.7,0-4.8,0.6-4.8,2.6c0,1.3,0.9,2,2,2c1.3,0,2.3-0.9,2.7-1.9
			c0.1-0.3,0.1-0.6,0.1-0.9L1306.9,456.2L1306.9,456.2z"/>
		<path fill="#CC0033" d="M1316,464.1v-12.8h-2.2v-3.8h2.2v-0.6c0-2,0.6-4.2,2.1-5.6c1.3-1.2,3.1-1.7,4.6-1.7c1.2,0,2,0.1,2.8,0.3
			l-0.2,4c-0.4-0.1-1-0.2-1.7-0.2c-1.7,0-2.4,1.3-2.4,3v0.8h3.3v3.8h-3.3v12.8L1316,464.1L1316,464.1z"/>
		<path fill="#CC0033" d="M1330.4,457.4c0.2,2.1,2.3,3.2,4.7,3.2c1.8,0,3.2-0.2,4.6-0.7l0.7,3.5c-1.7,0.7-3.8,1-6,1
			c-5.6,0-8.9-3.3-8.9-8.5c0-4.2,2.6-8.9,8.4-8.9c5.4,0,7.4,4.2,7.4,8.3c0,0.9-0.1,1.7-0.2,2h-10.7V457.4z M1336.5,453.9
			c0-1.3-0.5-3.4-2.9-3.4c-2.2,0-3.1,2-3.2,3.4H1336.5z"/>
		<path fill="#CC0033" d="M1349.6,442.7v4.8h3.7v3.8h-3.7v6c0,2,0.5,2.9,2,2.9c0.6,0,1.2-0.1,1.5-0.1v3.9c-0.7,0.3-1.9,0.4-3.4,0.4
			c-1.7,0-3.1-0.6-3.9-1.4c-1-1-1.4-2.6-1.4-4.9v-6.8h-2.2v-3.8h2.2v-3.6L1349.6,442.7z"/>
		<path fill="#CC0033" d="M1360.2,447.4l2.5,8.2c0.3,1,0.6,2.2,0.8,3.1h0.1c0.2-0.9,0.5-2.1,0.7-3.1l2-8.2h5.5l-3.9,10.9
			c-2.4,6.6-4,9.2-5.8,10.9c-1.8,1.6-3.7,2.1-5,2.3l-1.1-4.4c0.6-0.1,1.5-0.4,2.2-0.9c0.8-0.4,1.6-1.2,2.1-2.1
			c0.2-0.2,0.3-0.5,0.3-0.7s0-0.4-0.2-0.8l-6.1-15.2L1360.2,447.4L1360.2,447.4z"/>
		<path fill="#CC0033" d="M1389.3,466.4c-2,0.9-3.8,1.2-6.2,1.2c-5.6,0-10.6-4-10.6-10.7c0-6.9,5-13,12.7-13c6,0,10.3,4.1,10.3,9.8
			c0,5-2.8,8.1-6.5,8.1c-1.6,0-2.8-0.8-2.9-2.6h-0.1c-1.1,1.7-2.6,2.6-4.4,2.6c-2.2,0-3.8-1.6-3.8-4.4c0-4.1,3.1-7.9,8-7.9
			c1.5,0,3.2,0.4,4,0.9l-1,6.3c-0.3,2-0.1,2.9,0.9,3c1.5,0,3.3-1.8,3.3-5.7c0-4.4-2.9-7.9-8.1-7.9s-9.8,4.1-9.8,10.6
			c0,5.7,3.6,8.9,8.7,8.9c1.7,0,3.6-0.4,4.9-1.1L1389.3,466.4z M1386.3,452.3c-0.3-0.1-0.6-0.1-1.1-0.1c-2.2,0-4,2.2-4,4.8
			c0,1.3,0.6,2.1,1.7,2.1c1.3,0,2.6-1.6,2.9-3.6L1386.3,452.3z"/>
		<path fill="#CC0033" d="M1403.6,442.8c0,1.4-1.1,2.6-2.8,2.6c-1.6,0-2.7-1.2-2.7-2.6c0-1.5,1.1-2.6,2.7-2.6
			C1402.5,440.2,1403.6,441.3,1403.6,442.8z M1398.3,464.1v-16.6h5.2v16.6H1398.3z"/>
		<path fill="#CC0033" d="M1412.8,442.7v4.8h3.7v3.8h-3.7v6c0,2,0.5,2.9,2,2.9c0.6,0,1.2-0.1,1.5-0.1v3.9c-0.7,0.3-1.9,0.4-3.4,0.4
			c-1.7,0-3.1-0.6-3.9-1.4c-1-1-1.4-2.6-1.4-4.9v-6.8h-2.2v-3.8h2.2v-3.6L1412.8,442.7z"/>
		<path fill="#CC0033" d="M1419,459.5c1,0.6,2.9,1.3,4.5,1.3s2.2-0.5,2.2-1.4c0-0.8-0.5-1.3-2.4-1.9c-3.4-1.2-4.8-3-4.7-5
			c0-3.1,2.7-5.4,6.8-5.4c1.9,0,3.7,0.4,4.7,1l-0.9,3.6c-0.7-0.4-2.2-1-3.6-1c-1.3,0-2,0.5-2,1.4c0,0.8,0.6,1.2,2.7,1.9
			c3.2,1.1,4.5,2.7,4.5,5.1c0,3.1-2.4,5.4-7.2,5.4c-2.2,0-4.1-0.5-5.4-1.2L1419,459.5z"/>
		<path fill="#CC0033" d="M1433,461.3c0-1.8,1.3-3.2,3.1-3.2s3,1.3,3,3.2c0,1.8-1.2,3.1-3.1,3.1C1434.3,464.4,1433,463.1,1433,461.3
			z"/>
		<path fill="#CC0033" d="M1438.3,467.1c1.4-0.1,2.4-0.4,3.1-1.1c0.7-0.8,1-2.1,1-5.4v-13.2h5.2v14.4c0,3.6-0.8,5.8-2.3,7.3
			c-1.5,1.4-3.9,2-6.4,2L1438.3,467.1z M1447.7,442.8c0,1.4-1.1,2.6-2.8,2.6c-1.6,0-2.7-1.2-2.7-2.6c0-1.5,1.1-2.6,2.8-2.6
			C1446.6,440.2,1447.7,441.3,1447.7,442.8z"/>
		<path fill="#CC0033" d="M1451.1,452.7c0-2.1-0.1-3.8-0.1-5.3h4.5l0.2,2.3h0.1c0.7-1.1,2.4-2.7,5.1-2.7c3.4,0,6,2.2,6,7.1v9.9h-5.2
			v-9.2c0-2.1-0.7-3.6-2.6-3.6c-1.4,0-2.3,1-2.6,1.9c-0.1,0.3-0.2,0.8-0.2,1.3v9.6h-5.2L1451.1,452.7L1451.1,452.7z"/>
		<path fill="#CC0033" d="M1466.6,467.1c1.4-0.1,2.4-0.4,3.1-1.1c0.7-0.8,1-2.1,1-5.4v-13.2h5.2v14.4c0,3.6-0.8,5.8-2.3,7.3
			c-1.5,1.4-3.9,2-6.4,2L1466.6,467.1z M1476,442.8c0,1.4-1.1,2.6-2.8,2.6c-1.6,0-2.7-1.2-2.7-2.6c0-1.5,1.1-2.6,2.8-2.6
			C1475,440.2,1476,441.3,1476,442.8z"/>
		<path fill="#CC0033" d="M1479,461.3c0-1.8,1.3-3.2,3.1-3.2s3,1.3,3,3.2c0,1.8-1.2,3.1-3.1,3.1C1480.3,464.4,1479,463.1,1479,461.3
			z"/>
		<path fill="#CC0033" d="M1500.1,463.7c-0.9,0.4-2.7,0.7-4.6,0.7c-5.4,0-8.8-3.3-8.8-8.5c0-4.9,3.3-8.8,9.5-8.8
			c1.4,0,2.9,0.2,3.9,0.6l-0.8,3.8c-0.6-0.3-1.5-0.5-2.9-0.5c-2.7,0-4.5,1.9-4.5,4.7c0,3.1,2,4.7,4.6,4.7c1.2,0,2.2-0.2,3-0.5
			L1500.1,463.7z"/>
		<path fill="#CC0033" d="M1518.6,455.6c0,6.1-4.3,8.9-8.8,8.9c-4.9,0-8.6-3.2-8.6-8.6s3.5-8.8,8.9-8.8
			C1515.2,447.1,1518.6,450.6,1518.6,455.6z M1506.5,455.7c0,2.9,1.2,5,3.4,5c2,0,3.3-2,3.3-5c0-2.5-1-5-3.3-5
			C1507.5,450.7,1506.5,453.3,1506.5,455.7z"/>
		<path fill="#CC0033" d="M1521.2,452.7c0-2.1-0.1-3.8-0.1-5.3h4.4l0.2,2.2h0.1c0.7-1.1,2.2-2.6,5-2.6c2.1,0,3.8,1.1,4.6,2.8h0.1
			c0.6-0.8,1.4-1.5,2.1-2c0.9-0.5,1.9-0.8,3.2-0.8c3.2,0,5.6,2.2,5.6,7.2v9.8h-5v-9c0-2.4-0.8-3.8-2.4-3.8c-1.2,0-2,0.8-2.4,1.8
			c-0.1,0.4-0.2,0.9-0.2,1.3v9.7h-5v-9.3c0-2.1-0.7-3.5-2.4-3.5c-1.3,0-2.1,1-2.4,1.9c-0.2,0.4-0.2,0.9-0.2,1.3v9.7h-5v-11.4
			L1521.2,452.7L1521.2,452.7z"/>
	</g>
</g>
</svg>
