<?xml version="1.0" encoding="utf-8"?>
<!-- Generator: Adobe Illustrator 24.2.0, SVG Export Plug-In . SVG Version: 6.00 Build 0)  -->
<svg version="1.1" id="Layer_1" xmlns="http://www.w3.org/2000/svg" xmlns:xlink="http://www.w3.org/1999/xlink" x="0px" y="0px"
	 width="2048px" height="1536px" viewBox="0 0 2048 1536" enable-background="new 0 0 2048 1536" xml:space="preserve">
<rect x="140.5" y="140.5" fill="#FFFFFF" width="1767" height="1255"/>
<g id="close-btn">
	<path fill="#CC0033" d="M1878.5,172.1c0.7-0.7,0.5-1.5-0.6-2.5c-1-1-1.8-1.2-2.4-0.5l-29.2,29.2c-0.6,0.6-0.4,1.4,0.5,2.4
		c1,1,1.8,1.2,2.5,0.6L1878.5,172.1z"/>
	<path fill="#CC0033" d="M1849.4,169.1c-0.7-0.7-1.5-0.5-2.5,0.6c-1,1-1.2,1.8-0.5,2.4l29.2,29.2c0.6,0.6,1.4,0.4,2.4-0.5
		c1-1,1.2-1.8,0.6-2.5L1849.4,169.1z"/>
</g>
<g>
	<g>
		<path fill="#CC0033" d="M283.7,322v11h-4.1v-30.8h8.8c1.1,0,8.7,0.1,8.7,6.6v6.8c0,1.9-0.9,3.5-2.4,4.6c1.5,1,2.4,2.5,2.4,4.4v8.4
			h-4.2v-8.4c0-2-2.9-2.6-4.7-2.6H283.7z M292.8,308.8c0-1.9-2.8-2.6-4.5-2.6h-4.6V318h4.4c1.8,0,4.7-0.5,4.7-2.5V308.8z"/>
		<path fill="#CC0033" d="M305.4,315.3h13.1v4.5h-13.1c0,0.8,0,1.9,0,3c0,1.8,0,3.7,0.1,3.9c0.4,1.3,2.7,1.8,4.3,1.8h8.7v4.5h-8.7
			c-4,0-8.8-1.9-8.8-6.6v-24.2h17.5v4.4h-13.1V315.3z"/>
		<path fill="#CC0033" d="M340.1,302.2v4.3h-13.2v9.1H338v4.4h-11.1v2.8c0,3.3,0,8.9,0,10.3h-4.3v-30.8L340.1,302.2L340.1,302.2z"/>
		<path fill="#CC0033" d="M348.4,315.3h13.1v4.5h-13.1c0,0.8,0,1.9,0,3c0,1.8,0,3.7,0.1,3.9c0.4,1.3,2.7,1.8,4.3,1.8h8.7v4.5h-8.7
			c-4,0-8.8-1.9-8.8-6.6v-24.2h17.5v4.4h-13.1V315.3z"/>
		<path fill="#CC0033" d="M369.8,322v11h-4.1v-30.8h8.8c1.1,0,8.7,0.1,8.7,6.6v6.8c0,1.9-0.9,3.5-2.4,4.6c1.5,1,2.4,2.5,2.4,4.4v8.4
			H379v-8.4c0-2-2.9-2.6-4.7-2.6H369.8z M378.9,308.8c0-1.9-2.8-2.6-4.5-2.6h-4.6V318h4.4c1.8,0,4.7-0.5,4.7-2.5V308.8z"/>
		<path fill="#CC0033" d="M391.5,315.3h13.1v4.5h-13.1c0,0.8,0,1.9,0,3c0,1.8,0,3.7,0.1,3.9c0.4,1.3,2.7,1.8,4.3,1.8h8.7v4.5h-8.7
			c-4,0-8.8-1.9-8.8-6.6v-24.2h17.5v4.4h-13.1V315.3z"/>
		<path fill="#CC0033" d="M428.2,333h-3.7l-11.7-21.8V333h-4v-30.8h3.8l11.6,21.8v-21.8h4L428.2,333L428.2,333z"/>
		<path fill="#CC0033" d="M452.2,325.2c0.3,4.5-2.4,6.6-5.4,7.5l0,0c-1.2,0.4-2.9,0.5-4.4,0.5s-3.1-0.1-4.2-0.4
			c-3-0.9-5.6-3-5.6-6.2v-17.8c0-3.7,3-5.8,6.4-6.4c1.1-0.2,2.3-0.3,3.4-0.3c1.6,0,3.4,0.2,4.8,0.7c2.9,1,5.3,3,5,7.3h-4.4
			c0-2-0.4-2.6-1.9-3.2l-0.4-0.1c-0.9-0.2-1.8-0.3-2.9-0.3c-0.9,0-1.9,0-2.6,0.2c-1.5,0.2-2.9,1.1-2.9,2.1v17.8
			c0,0.9,1.1,1.6,2.3,1.9c0.9,0.2,2,0.3,3.1,0.3s2.2-0.1,3.1-0.4c1.2-0.4,2.2-1,2.2-3.1L452.2,325.2z"/>
		<path fill="#CC0033" d="M460.7,315.3h13.1v4.5h-13.1c0,0.8,0,1.9,0,3c0,1.8,0,3.7,0.1,3.9c0.4,1.3,2.7,1.8,4.3,1.8h8.7v4.5h-8.7
			c-4,0-8.8-1.9-8.8-6.6v-24.2h17.5v4.4h-13.1V315.3z"/>
		<path fill="#CC0033" d="M491.4,309.2c0.1-2.6-2.6-3.5-4.3-3.6c-1.7,0-3.5,0.2-4.6,1.4c-0.7,0.8-0.8,2.2-0.8,3.3
			c0,1,0.3,1.8,0.8,2.5c1,1.2,3,1.7,4.8,2.2c5.3,1.4,9.5,3.7,9.5,9.9c0,2.7-0.9,4.9-2.6,6.4c-1.8,1.5-4.8,2-7.2,2
			c-1.6,0-3.1-0.2-4.5-0.4c-3-0.6-5.3-2.9-4.9-7.6h4.1c0,1.4,0.2,3.2,2.2,3.7c1,0.2,2.1,0.4,3.1,0.4c1.5,0,3.1-0.2,4.3-1.2
			c1-0.7,1.3-2,1.4-3.3c0-3.6-3.3-5.2-6.3-6c-2.6-0.7-5.2-1.5-6.7-3.2c-1.4-1.5-2-3.4-2-5.5c0-2.3,0-4.4,2.2-6.2
			c1.6-1.6,4.8-2.4,7.4-2.4c3.1,0,8.5,2.2,8.4,7.5L491.4,309.2z"/>
	</g>
	<g>
		<path fill="#333333" d="M320.8,409.1L320.8,409.1l-3.2,1.7l-0.5-1.9l4-2.1h2.1V425h-2.4V409.1z"/>
		<path fill="#333333" d="M328,423.5c0-1,0.7-1.8,1.7-1.8s1.7,0.7,1.7,1.8c0,1-0.6,1.8-1.7,1.8S328,424.6,328,423.5z"/>
	</g>
	<g>
		<path fill="#333333" d="M352.3,406.4c1.2-0.2,2.7-0.4,4.7-0.4c2.4,0,4.2,0.6,5.3,1.6c1,0.9,1.7,2.3,1.7,3.9c0,1.7-0.5,3.1-1.5,4
			c-1.3,1.4-3.4,2.1-5.8,2.1c-0.7,0-1.4,0-2-0.2v7.6h-2.4L352.3,406.4L352.3,406.4z M354.7,415.5c0.5,0.1,1.2,0.2,2,0.2
			c2.9,0,4.7-1.4,4.7-4c0-2.5-1.8-3.7-4.5-3.7c-1.1,0-1.9,0.1-2.3,0.2L354.7,415.5L354.7,415.5z"/>
		<path fill="#333333" d="M377.5,421.3c0,1.4,0,2.6,0.1,3.7h-2.2l-0.1-2.2h-0.1c-0.6,1.1-2.1,2.5-4.5,2.5c-2.1,0-4.7-1.2-4.7-5.9
			v-7.9h2.5v7.5c0,2.6,0.8,4.3,3,4.3c1.7,0,2.8-1.1,3.2-2.2c0.1-0.4,0.2-0.8,0.2-1.3v-8.3h2.5v9.8H377.5z"/>
		<path fill="#333333" d="M380.9,405.1h2.5V425h-2.5V405.1z"/>
		<path fill="#333333" d="M389.5,407.6c0,0.8-0.6,1.5-1.6,1.5c-0.9,0-1.5-0.7-1.5-1.5c0-0.9,0.6-1.5,1.5-1.5
			C388.9,406.1,389.5,406.8,389.5,407.6z M386.8,425v-13.6h2.5V425H386.8z"/>
		<path fill="#333333" d="M404.4,405.1v16.4c0,1.2,0,2.6,0.1,3.5h-2.2l-0.1-2.4h-0.1c-0.8,1.5-2.4,2.7-4.6,2.7
			c-3.3,0-5.8-2.8-5.8-6.9c0-4.5,2.8-7.3,6.1-7.3c2.1,0,3.5,1,4.1,2.1h0.1v-8.1L404.4,405.1L404.4,405.1z M402,417
			c0-0.3,0-0.7-0.1-1c-0.4-1.6-1.7-2.9-3.6-2.9c-2.5,0-4.1,2.2-4.1,5.2c0,2.7,1.3,5,4,5c1.7,0,3.2-1.1,3.6-2.9
			c0.1-0.3,0.1-0.7,0.1-1.1V417H402z"/>
		<path fill="#333333" d="M420.2,418.1c0,5-3.5,7.2-6.7,7.2c-3.7,0-6.5-2.7-6.5-7c0-4.5,3-7.2,6.7-7.2
			C417.6,411.1,420.2,414,420.2,418.1z M409.5,418.3c0,3,1.7,5.2,4.1,5.2s4.1-2.2,4.1-5.3c0-2.3-1.1-5.2-4.1-5.2
			S409.5,415.7,409.5,418.3z"/>
		<path fill="#333333" d="M432.4,408.2h-5.7v-2.1h14v2.1h-5.8V425h-2.5V408.2z"/>
	</g>
	<g>
		<path fill="#333333" d="M455.6,424.2c-1,0.6-2.7,1.1-4.5,1.1c-3.6,0-5.2-2.4-5.2-5.4c0-4.1,3-8.7,7.4-8.7c2.6,0,4,1.5,4,3.5
			c0,3.6-4,4.5-9,4.4c-0.1,0.6,0,1.8,0.3,2.6c0.5,1.2,1.6,1.8,3,1.8c1.6,0,2.8-0.5,3.6-1L455.6,424.2z M453,413
			c-2.2,0-3.9,2.2-4.4,4.3c3.6,0,6.5-0.4,6.5-2.5C455.1,413.6,454.3,413,453,413z"/>
		<path fill="#333333" d="M464.1,407.8l-0.7,3.6h3.2l-0.4,1.8H463l-1.3,6.6c-0.1,0.8-0.3,1.5-0.3,2.2c0,0.8,0.4,1.3,1.3,1.3
			c0.4,0,0.8,0,1.1-0.1l-0.1,1.8c-0.4,0.2-1.1,0.3-1.8,0.3c-2.1,0-2.9-1.3-2.9-2.6c0-0.8,0.1-1.6,0.3-2.5l1.3-6.9h-2l0.4-1.8h1.9
			l0.6-3.1L464.1,407.8z"/>
		<path fill="#333333" d="M480.3,425c0-0.8,0.1-2.1,0.3-3.5h-0.1c-1.5,2.8-3.3,3.8-5.3,3.8c-2.4,0-3.9-1.9-3.9-4.5
			c0-4.7,3.5-9.7,9.4-9.7c1.3,0,2.7,0.2,3.6,0.5l-1.4,7.1c-0.4,2.4-0.6,4.8-0.6,6.3L480.3,425L480.3,425z M481.8,413.2
			c-0.3-0.1-0.8-0.2-1.6-0.2c-3.5,0-6.4,3.7-6.4,7.4c0,1.5,0.5,3,2.3,3c1.9,0,4.2-2.5,4.9-6.1L481.8,413.2z"/>
		<path fill="#333333" d="M485.3,425l3.8-19.9h2.3l-3.8,19.9H485.3z"/>
		<path fill="#333333" d="M490.8,423.7c0-1,0.7-1.9,1.8-1.9c1,0,1.6,0.7,1.6,1.7s-0.7,1.8-1.8,1.8
			C491.4,425.3,490.8,424.6,490.8,423.7z"/>
		<path fill="#333333" d="M501.6,425l3.6-18.9h2.5l4.3,10.7c0.8,2.1,1.3,3.6,1.7,5.3h0.1c0.1-1.7,0.3-3.3,0.8-5.9l1.9-10h2.2
			l-3.6,18.9h-2.3l-4.3-10.7c-0.9-2.3-1.3-3.7-1.8-5.4h-0.1c-0.2,1.8-0.5,3.6-1,6.2l-1.9,9.9h-2.1L501.6,425L501.6,425z"/>
		<path fill="#333333" d="M534.7,416.1h-6.9l-1.3,6.9h7.7l-0.4,2h-10.1l3.6-18.9h9.6l-0.4,2h-7.3l-1.1,6h6.9L534.7,416.1z"/>
		<path fill="#333333" d="M536.1,425l1.8-9.6c0.3-1.5,0.5-2.8,0.6-3.9h2.1l-0.3,2.7h0.1c1.2-1.9,3-3,5-3c1.6,0,3.4,0.9,3.4,3.8
			c0,0.6-0.1,1.5-0.3,2.2L547,425h-2.3l1.5-7.8c0.1-0.5,0.2-1.2,0.2-1.7c0-1.4-0.5-2.4-2.1-2.4c-1.7,0-4,2-4.6,5.3l-1.2,6.6H536.1z"
			/>
		<path fill="#333333" d="M550.4,428.1c0.8,0.5,2.2,0.9,3.6,0.9c2.3,0,4.1-1.2,4.9-4.8l0.4-2h-0.1c-1.2,1.9-2.8,2.9-4.7,2.9
			c-2.7,0-4.1-2.3-4.1-4.7c0-4.6,3.4-9.2,8.6-9.2c1.6,0,3.3,0.4,4.3,1l-2.1,11.2c-0.6,2.9-1.3,4.8-2.7,6c-1.3,1.2-3.2,1.5-4.7,1.5
			c-1.7,0-3.2-0.4-4.1-1L550.4,428.1z M560.8,413.5c-0.4-0.2-1.3-0.4-2.2-0.4c-3.4,0-5.7,3.5-5.7,6.9c0,1.5,0.5,3.2,2.6,3.2
			c2,0,4-2.5,4.5-5.2L560.8,413.5z"/>
		<path fill="#333333" d="M564.3,425l3.8-19.9h2.3l-3.8,19.9H564.3z"/>
		<path fill="#333333" d="M574.2,422.8c0.6,0.3,1.4,0.4,2.4,0.4c2,0,3.2-1,3.9-4.4l2.4-12.7h2.3l-2.5,13c-0.8,4.4-2.7,6.2-6.2,6.2
			c-1.1,0-2.3-0.3-2.8-0.5L574.2,422.8z"/>
		<path fill="#333333" d="M606,425l1.3-10.2c0.3-1.8,0.7-4.6,1-6.4h-0.1c-0.9,1.9-1.9,4.1-2.9,6.1l-5.6,10.4h-1.8l-1.4-10.2
			c-0.3-2.2-0.5-4.4-0.6-6.3h-0.1c-0.4,1.7-1,4.6-1.5,6.4l-2.6,10.2h-2.2l4.9-18.9h3L599,417c0.2,1.6,0.4,3.3,0.4,4.7h0.1
			c0.6-1.4,1.4-3.1,2.2-4.6l5.9-10.9h3l-2.4,18.9H606V425z"/>
		<path fill="#333333" d="M621.2,424.2c-1,0.6-2.7,1.1-4.5,1.1c-3.6,0-5.2-2.4-5.2-5.4c0-4.1,3-8.7,7.4-8.7c2.6,0,4,1.5,4,3.5
			c0,3.6-4,4.5-9,4.4c-0.1,0.6,0,1.8,0.3,2.6c0.5,1.2,1.6,1.8,3,1.8c1.6,0,2.8-0.5,3.6-1L621.2,424.2z M618.6,413
			c-2.2,0-3.9,2.2-4.4,4.3c3.6,0,6.5-0.4,6.5-2.5C620.7,413.6,619.8,413,618.6,413z"/>
		<path fill="#333333" d="M637.9,405.1l-3,15.6c-0.3,1.4-0.5,3-0.6,4.3h-2.1l0.4-2.7h-0.1c-1.2,1.9-2.9,3-4.9,3
			c-2.6,0-4.1-2.2-4.1-4.9c0-4.8,3.6-9.2,8.4-9.2c0.9,0,1.8,0.2,2.4,0.5l1.2-6.5L637.9,405.1L637.9,405.1z M634,413.6
			c-0.5-0.3-1.3-0.6-2.2-0.6c-3.2,0-5.8,3.4-5.8,7.1c0,1.6,0.6,3.3,2.5,3.3c1.8,0,3.9-2,4.5-5.1L634,413.6z"/>
	</g>
	<g>
		<path fill="#333333" d="M643.7,425v-1.5l1.9-1.9c4.6-4.4,6.7-6.8,6.8-9.5c0-1.8-0.9-3.6-3.6-3.6c-1.7,0-3,0.8-3.9,1.5l-0.8-1.7
			c1.3-1.1,3.1-1.8,5.2-1.8c3.9,0,5.6,2.7,5.6,5.3c0,3.4-2.4,6.1-6.3,9.8l-1.5,1.3v0.1h8.2v2L643.7,425L643.7,425z"/>
		<path fill="#333333" d="M669.2,415.7c0,6.2-2.3,9.6-6.3,9.6c-3.6,0-6-3.3-6-9.4s2.6-9.5,6.3-9.5
			C667,406.5,669.2,409.9,669.2,415.7z M659.3,416c0,4.7,1.5,7.4,3.7,7.4c2.5,0,3.7-2.9,3.7-7.6c0-4.5-1.1-7.4-3.7-7.4
			C660.8,408.4,659.3,411,659.3,416z"/>
		<path fill="#333333" d="M674.9,409.1L674.9,409.1l-3.2,1.7l-0.5-1.9l4-2.1h2.1V425h-2.4L674.9,409.1L674.9,409.1z"/>
		<path fill="#333333" d="M681.8,422.2c0.7,0.4,2.3,1.1,4,1.1c3.2,0,4.1-2,4.1-3.5c0-2.5-2.3-3.6-4.7-3.6h-1.4v-1.8h1.4
			c1.8,0,4.1-0.9,4.1-3.1c0-1.5-0.9-2.7-3.2-2.7c-1.5,0-2.9,0.6-3.6,1.2l-0.6-1.8c1-0.7,2.8-1.4,4.8-1.4c3.6,0,5.2,2.1,5.2,4.3
			c0,1.9-1.1,3.5-3.4,4.3v0.1c2.2,0.4,4.1,2.1,4.1,4.7c0,2.9-2.3,5.5-6.6,5.5c-2,0-3.8-0.6-4.7-1.2L681.8,422.2z"/>
		<path fill="#333333" d="M693.6,428.4c0.6-1.7,1.4-4.6,1.7-6.7l2.7-0.3c-0.7,2.4-1.9,5.5-2.7,6.8L693.6,428.4z M694.8,413.7
			c0-1,0.7-1.8,1.7-1.8s1.7,0.7,1.7,1.8c0,1-0.6,1.7-1.7,1.7C695.4,415.4,694.8,414.7,694.8,413.7z"/>
		<path fill="#333333" d="M706.2,422.2c0.7,0.4,2.3,1.1,4,1.1c3.2,0,4.1-2,4.1-3.5c0-2.5-2.3-3.6-4.7-3.6h-1.4v-1.8h1.4
			c1.8,0,4.1-0.9,4.1-3.1c0-1.5-0.9-2.7-3.2-2.7c-1.5,0-2.9,0.6-3.6,1.2l-0.6-1.8c1-0.7,2.8-1.4,4.8-1.4c3.6,0,5.2,2.1,5.2,4.3
			c0,1.9-1.1,3.5-3.4,4.3v0.1c2.2,0.4,4.1,2.1,4.1,4.7c0,2.9-2.3,5.5-6.6,5.5c-2,0-3.8-0.6-4.7-1.2L706.2,422.2z"/>
		<path fill="#333333" d="M729.5,408.5c-0.5,0-1.1,0-1.8,0.1c-3.9,0.6-5.9,3.5-6.3,6.5h0.1c0.9-1.1,2.4-2.1,4.4-2.1
			c3.2,0,5.5,2.3,5.5,5.9c0,3.3-2.3,6.4-6,6.4c-3.9,0-6.4-3-6.4-7.8c0-3.6,1.3-6.4,3.1-8.2c1.5-1.5,3.5-2.4,5.8-2.7
			c0.7-0.1,1.3-0.1,1.8-0.1v2L729.5,408.5L729.5,408.5z M728.8,419c0-2.6-1.5-4.2-3.8-4.2c-1.5,0-2.9,0.9-3.5,2.2
			c-0.2,0.3-0.3,0.6-0.3,1.1c0.1,3,1.4,5.2,4,5.2C727.4,423.4,728.8,421.6,728.8,419z"/>
		<path fill="#333333" d="M733.9,423.3c0.5,0.1,1.1,0,2-0.1c1.4-0.2,2.8-0.8,3.8-1.8c1.2-1.1,2.1-2.7,2.4-4.8H742
			c-1,1.2-2.5,2-4.3,2c-3.3,0-5.4-2.5-5.4-5.6c0-3.4,2.5-6.5,6.2-6.5s6,3,6,7.7c0,4-1.3,6.8-3.1,8.5c-1.4,1.4-3.3,2.2-5.3,2.4
			c-0.9,0.1-1.7,0.2-2.3,0.1L733.9,423.3L733.9,423.3z M734.8,412.8c0,2.3,1.4,3.9,3.5,3.9c1.7,0,2.9-0.8,3.6-1.9
			c0.1-0.2,0.2-0.5,0.2-0.9c0-3.1-1.1-5.5-3.7-5.5C736.3,408.4,734.8,410.2,734.8,412.8z"/>
		<path fill="#333333" d="M752.3,405.6c-2,2.7-3.5,6.4-3.5,11.5c0,5,1.5,8.6,3.5,11.4h-1.9c-1.8-2.3-3.7-5.9-3.7-11.4
			s1.9-9.1,3.7-11.5H752.3z"/>
		<path fill="#333333" d="M754,423.3c0.5,0.1,1.1,0,2-0.1c1.4-0.2,2.8-0.8,3.8-1.8c1.2-1.1,2.1-2.7,2.4-4.8h-0.1c-1,1.2-2.5,2-4.3,2
			c-3.3,0-5.4-2.5-5.4-5.6c0-3.4,2.5-6.5,6.2-6.5s6,3,6,7.7c0,4-1.3,6.8-3.1,8.5c-1.4,1.4-3.3,2.2-5.3,2.4c-0.9,0.1-1.7,0.2-2.3,0.1
			L754,423.3L754,423.3z M754.9,412.8c0,2.3,1.4,3.9,3.5,3.9c1.7,0,2.9-0.8,3.6-1.9c0.1-0.2,0.2-0.5,0.2-0.9c0-3.1-1.1-5.5-3.7-5.5
			C756.3,408.4,754.9,410.2,754.9,412.8z"/>
		<path fill="#333333" d="M764.9,428.4c2-2.8,3.5-6.4,3.5-11.5c0-5-1.5-8.6-3.5-11.4h1.9c1.8,2.3,3.7,5.9,3.7,11.4s-1.9,9-3.7,11.4
			h-1.9V428.4z"/>
		<path fill="#333333" d="M772.7,413.7c0-1,0.7-1.8,1.7-1.8s1.6,0.7,1.7,1.8c0,1-0.6,1.7-1.7,1.7
			C773.4,415.4,772.7,414.7,772.7,413.7z M772.7,423.6c0-1,0.7-1.8,1.7-1.8s1.6,0.7,1.7,1.8c0,1-0.6,1.7-1.7,1.7
			C773.4,425.3,772.7,424.6,772.7,423.6z"/>
		<path fill="#333333" d="M777.6,420.4c0-2.3,1.4-3.9,3.6-4.9v-0.1c-2-1-2.9-2.5-2.9-4.1c0-2.9,2.4-4.8,5.6-4.8
			c3.5,0,5.3,2.2,5.3,4.5c0,1.5-0.8,3.2-3,4.3v0.1c2.3,0.9,3.7,2.5,3.7,4.7c0,3.2-2.7,5.3-6.2,5.3
			C779.9,425.3,777.6,423,777.6,420.4z M787.4,420.3c0-2.2-1.5-3.3-4-4c-2.1,0.6-3.3,2-3.3,3.8c-0.1,1.8,1.3,3.5,3.6,3.5
			C785.9,423.5,787.4,422.1,787.4,420.3z M780.6,411.2c0,1.8,1.4,2.8,3.5,3.4c1.6-0.5,2.8-1.7,2.8-3.3c0-1.5-0.9-3-3.1-3
			C781.7,408.3,780.6,409.6,780.6,411.2z"/>
		<path fill="#333333" d="M803.8,415.7c0,6.2-2.3,9.6-6.3,9.6c-3.6,0-6-3.3-6-9.4s2.6-9.5,6.3-9.5
			C801.6,406.5,803.8,409.9,803.8,415.7z M793.9,416c0,4.7,1.5,7.4,3.7,7.4c2.5,0,3.7-2.9,3.7-7.6c0-4.5-1.1-7.4-3.7-7.4
			C795.5,408.4,793.9,411,793.9,416z"/>
		<path fill="#333333" d="M807,423.3c0.5,0.1,1.1,0,2-0.1c1.4-0.2,2.8-0.8,3.8-1.8c1.2-1.1,2.1-2.7,2.4-4.8h-0.1c-1,1.2-2.5,2-4.3,2
			c-3.3,0-5.4-2.5-5.4-5.6c0-3.4,2.5-6.5,6.2-6.5s6,3,6,7.7c0,4-1.3,6.8-3.1,8.5c-1.4,1.4-3.3,2.2-5.3,2.4c-0.9,0.1-1.7,0.2-2.3,0.1
			L807,423.3L807,423.3z M807.9,412.8c0,2.3,1.4,3.9,3.5,3.9c1.7,0,2.9-0.8,3.6-1.9c0.1-0.2,0.2-0.5,0.2-0.9c0-3.1-1.1-5.5-3.7-5.5
			C809.4,408.4,807.9,410.2,807.9,412.8z"/>
		<path fill="#333333" d="M832.1,417v1.7h-12.3V417H832.1z"/>
		<path fill="#333333" d="M834,420.4c0-2.3,1.4-3.9,3.6-4.9v-0.1c-2-1-2.9-2.5-2.9-4.1c0-2.9,2.4-4.8,5.6-4.8c3.5,0,5.3,2.2,5.3,4.5
			c0,1.5-0.8,3.2-3,4.3v0.1c2.3,0.9,3.7,2.5,3.7,4.7c0,3.2-2.7,5.3-6.2,5.3C836.3,425.3,834,423,834,420.4z M843.8,420.3
			c0-2.2-1.5-3.3-4-4c-2.1,0.6-3.3,2-3.3,3.8c-0.1,1.8,1.3,3.5,3.6,3.5C842.4,423.5,843.8,422.1,843.8,420.3z M837,411.2
			c0,1.8,1.4,2.8,3.5,3.4c1.6-0.5,2.8-1.7,2.8-3.3c0-1.5-0.9-3-3.1-3C838.1,408.3,837,409.6,837,411.2z"/>
		<path fill="#333333" d="M852,409.1L852,409.1l-3.2,1.7l-0.5-1.9l4-2.1h2.1V425H852V409.1z"/>
		<path fill="#333333" d="M858.7,420.4c0-2.3,1.4-3.9,3.6-4.9v-0.1c-2-1-2.9-2.5-2.9-4.1c0-2.9,2.4-4.8,5.6-4.8
			c3.5,0,5.3,2.2,5.3,4.5c0,1.5-0.8,3.2-3,4.3v0.1c2.3,0.9,3.7,2.5,3.7,4.7c0,3.2-2.7,5.3-6.2,5.3C861,425.3,858.7,423,858.7,420.4z
			 M868.5,420.3c0-2.2-1.5-3.3-4-4c-2.1,0.6-3.3,2-3.3,3.8c-0.1,1.8,1.3,3.5,3.6,3.5C867.1,423.5,868.5,422.1,868.5,420.3z
			 M861.7,411.2c0,1.8,1.4,2.8,3.5,3.4c1.6-0.5,2.8-1.7,2.8-3.3c0-1.5-0.9-3-3.1-3C862.8,408.3,861.7,409.6,861.7,411.2z"/>
		<path fill="#333333" d="M873.1,423.5c0-1,0.7-1.8,1.7-1.8s1.7,0.7,1.7,1.8c0,1-0.6,1.8-1.7,1.8
			C873.8,425.3,873.1,424.6,873.1,423.5z"/>
	</g>
	<g>
		<path fill="#333333" d="M315.4,481v-1.5l1.9-1.9c4.6-4.4,6.7-6.8,6.8-9.5c0-1.8-0.9-3.6-3.6-3.6c-1.7,0-3,0.8-3.9,1.5l-0.8-1.7
			c1.3-1.1,3.1-1.8,5.2-1.8c3.9,0,5.6,2.7,5.6,5.3c0,3.4-2.4,6.1-6.3,9.8l-1.5,1.3v0.1h8.2v2L315.4,481L315.4,481z"/>
		<path fill="#333333" d="M329.5,479.5c0-1,0.7-1.8,1.7-1.8s1.7,0.7,1.7,1.8c0,1-0.6,1.8-1.7,1.8
			C330.2,481.3,329.5,480.6,329.5,479.5z"/>
	</g>
	<g>
		<path fill="#333333" d="M352,478c1.1,0.7,2.7,1.2,4.4,1.2c2.5,0,3.9-1.3,3.9-3.2c0-1.8-1-2.8-3.6-3.8c-3.1-1.1-5-2.7-5-5.3
			c0-2.9,2.4-5.1,6.1-5.1c1.9,0,3.3,0.4,4.2,0.9l-0.7,2c-0.6-0.3-1.9-0.9-3.6-0.9c-2.6,0-3.6,1.5-3.6,2.8c0,1.8,1.1,2.6,3.8,3.6
			c3.2,1.2,4.8,2.8,4.8,5.5c0,2.9-2.2,5.4-6.6,5.4c-1.8,0-3.8-0.5-4.8-1.2L352,478z"/>
		<path fill="#333333" d="M377.8,474.1c0,5-3.5,7.2-6.7,7.2c-3.7,0-6.5-2.7-6.5-7c0-4.5,3-7.2,6.7-7.2
			C375.2,467.1,377.8,470,377.8,474.1z M367,474.3c0,3,1.7,5.2,4.1,5.2s4.1-2.2,4.1-5.3c0-2.3-1.1-5.2-4.1-5.2S367,471.7,367,474.3z
			"/>
		<path fill="#333333" d="M391.7,477.3c0,1.4,0,2.6,0.1,3.7h-2.2l-0.1-2.2h-0.1c-0.6,1.1-2.1,2.5-4.5,2.5c-2.1,0-4.7-1.2-4.7-5.9
			v-7.9h2.5v7.5c0,2.6,0.8,4.3,3,4.3c1.7,0,2.8-1.1,3.2-2.2c0.1-0.4,0.2-0.8,0.2-1.3v-8.3h2.5v9.8H391.7z"/>
		<path fill="#333333" d="M393.6,479.6l6.1-8c0.6-0.7,1.1-1.4,1.8-2.1v-0.1h-7.3v-2h10.3v1.5l-6,7.9c-0.6,0.8-1.1,1.4-1.7,2.1v0.1
			h7.9v2h-11L393.6,479.6L393.6,479.6z"/>
		<path fill="#333333" d="M414.5,481l-0.2-1.7h-0.1c-0.8,1.1-2.2,2-4.1,2c-2.7,0-4.1-1.9-4.1-3.9c0-3.3,2.9-5.1,8.1-5v-0.3
			c0-1.1-0.3-3.1-3.1-3.1c-1.3,0-2.6,0.4-3.5,1l-0.6-1.6c1.1-0.7,2.7-1.2,4.5-1.2c4.1,0,5.2,2.8,5.2,5.5v5.1c0,1.2,0.1,2.3,0.2,3.2
			H414.5z M414.2,474.1c-2.7-0.1-5.7,0.4-5.7,3.1c0,1.6,1.1,2.4,2.3,2.4c1.8,0,2.9-1.1,3.3-2.3c0.1-0.3,0.1-0.5,0.1-0.8L414.2,474.1
			L414.2,474.1z"/>
		<path fill="#333333" d="M426,462.4c1.2-0.3,3-0.4,4.7-0.4c2.6,0,4.3,0.5,5.5,1.5c1,0.8,1.5,2.1,1.5,3.6c0,2.5-1.6,4.1-3.6,4.8v0.1
			c1.5,0.5,2.3,1.8,2.8,3.8c0.6,2.6,1.1,4.5,1.5,5.2h-2.5c-0.3-0.5-0.7-2.2-1.3-4.5c-0.6-2.6-1.6-3.6-3.8-3.7h-2.3v8.2H426V462.4z
			 M428.5,471h2.5c2.6,0,4.3-1.4,4.3-3.6c0-2.4-1.8-3.5-4.3-3.5c-1.2,0-2,0.1-2.4,0.2v6.9H428.5z"/>
	</g>
	<g>
		<path fill="#333333" d="M454.8,480.2c-1,0.6-2.7,1.1-4.5,1.1c-3.6,0-5.2-2.4-5.2-5.4c0-4.1,3-8.7,7.4-8.7c2.6,0,4,1.5,4,3.5
			c0,3.6-4,4.5-9,4.4c-0.1,0.6,0,1.8,0.3,2.6c0.5,1.2,1.6,1.8,3,1.8c1.6,0,2.8-0.5,3.6-1L454.8,480.2z M452.2,469
			c-2.2,0-3.9,2.2-4.4,4.3c3.6,0,6.5-0.4,6.5-2.5C454.3,469.6,453.5,469,452.2,469z"/>
		<path fill="#333333" d="M463.3,463.8l-0.7,3.6h3.2l-0.4,1.8h-3.2l-1.3,6.6c-0.1,0.8-0.3,1.5-0.3,2.2c0,0.8,0.4,1.3,1.3,1.3
			c0.4,0,0.8,0,1.1-0.1l-0.1,1.8c-0.4,0.2-1.1,0.3-1.8,0.3c-2.1,0-2.9-1.3-2.9-2.6c0-0.8,0.1-1.6,0.3-2.5l1.3-6.9h-2l0.4-1.8h1.9
			l0.6-3.1L463.3,463.8z"/>
		<path fill="#333333" d="M479.5,481c0-0.8,0.1-2.1,0.3-3.5h-0.1c-1.5,2.8-3.3,3.8-5.3,3.8c-2.4,0-3.9-1.9-3.9-4.5
			c0-4.7,3.5-9.7,9.4-9.7c1.3,0,2.7,0.2,3.6,0.5l-1.4,7.1c-0.4,2.4-0.6,4.8-0.6,6.3L479.5,481L479.5,481z M481,469.2
			c-0.3-0.1-0.8-0.2-1.6-0.2c-3.5,0-6.4,3.7-6.4,7.4c0,1.5,0.5,3,2.3,3c1.9,0,4.2-2.5,4.9-6.1L481,469.2z"/>
		<path fill="#333333" d="M484.5,481l3.8-19.9h2.3l-3.8,19.9H484.5z"/>
		<path fill="#333333" d="M490,479.7c0-1,0.7-1.9,1.8-1.9c1,0,1.6,0.7,1.6,1.7s-0.7,1.8-1.8,1.8C490.6,481.3,490,480.6,490,479.7z"
			/>
	</g>
	<g>
		<path fill="#333333" d="M501.9,462.4c1.2-0.2,2.7-0.4,4.7-0.4c2.4,0,4.2,0.6,5.3,1.6c1,0.9,1.7,2.3,1.7,3.9c0,1.7-0.5,3.1-1.5,4
			c-1.3,1.4-3.4,2.1-5.8,2.1c-0.7,0-1.4,0-2-0.2v7.6h-2.4V462.4z M504.3,471.5c0.5,0.1,1.2,0.2,2,0.2c2.9,0,4.7-1.4,4.7-4
			c0-2.5-1.8-3.7-4.5-3.7c-1.1,0-1.9,0.1-2.3,0.2L504.3,471.5L504.3,471.5z"/>
		<path fill="#333333" d="M515.8,471.7c0-1.6,0-3-0.1-4.2h2.2l0.1,2.7h0.1c0.6-1.8,2.1-3,3.8-3c0.3,0,0.5,0,0.7,0.1v2.3
			c-0.3-0.1-0.5-0.1-0.8-0.1c-1.7,0-3,1.3-3.3,3.2c-0.1,0.3-0.1,0.7-0.1,1.1v7.2H516v-9.3L515.8,471.7L515.8,471.7z"/>
		<path fill="#333333" d="M525.6,474.7c0.1,3.3,2.2,4.7,4.6,4.7c1.8,0,2.8-0.3,3.8-0.7l0.4,1.8c-0.9,0.4-2.4,0.8-4.5,0.8
			c-4.2,0-6.7-2.7-6.7-6.8c0-4.1,2.4-7.3,6.4-7.3c4.4,0,5.6,3.9,5.6,6.4c0,0.5-0.1,0.9-0.1,1.1H525.6z M532.8,472.9
			c0-1.6-0.6-4-3.4-4c-2.5,0-3.6,2.3-3.8,4H532.8z"/>
		<path fill="#333333" d="M537.2,478.5c0.7,0.5,2,1,3.2,1c1.8,0,2.6-0.9,2.6-2c0-1.2-0.7-1.8-2.5-2.5c-2.4-0.9-3.6-2.2-3.6-3.8
			c0-2.2,1.8-4,4.7-4c1.4,0,2.6,0.4,3.3,0.8l-0.6,1.8c-0.5-0.3-1.5-0.8-2.8-0.8c-1.5,0-2.3,0.8-2.3,1.8c0,1.1,0.8,1.6,2.6,2.3
			c2.4,0.9,3.6,2.1,3.6,4.1c0,2.4-1.8,4.1-5.1,4.1c-1.5,0-2.9-0.4-3.8-0.9L537.2,478.5z"/>
		<path fill="#333333" d="M549.5,474.7c0.1,3.3,2.2,4.7,4.6,4.7c1.8,0,2.8-0.3,3.8-0.7l0.4,1.8c-0.9,0.4-2.4,0.8-4.5,0.8
			c-4.2,0-6.7-2.7-6.7-6.8c0-4.1,2.4-7.3,6.4-7.3c4.4,0,5.6,3.9,5.6,6.4c0,0.5-0.1,0.9-0.1,1.1H549.5z M556.7,472.9
			c0-1.6-0.6-4-3.4-4c-2.5,0-3.6,2.3-3.8,4H556.7z"/>
		<path fill="#333333" d="M561.6,471.1c0-1.4,0-2.5-0.1-3.7h2.2l0.1,2.2h0.1c0.7-1.3,2.2-2.5,4.5-2.5c1.9,0,4.8,1.1,4.8,5.8v8.1
			h-2.5v-7.8c0-2.2-0.8-4-3.1-4c-1.6,0-2.9,1.1-3.3,2.5c-0.1,0.3-0.2,0.7-0.2,1.1v8.1h-2.5V471.1z"/>
		<path fill="#333333" d="M579.2,463.6v3.9h3.5v1.9h-3.5v7.3c0,1.7,0.5,2.6,1.8,2.6c0.6,0,1.1-0.1,1.4-0.2l0.1,1.8
			c-0.5,0.2-1.2,0.3-2.2,0.3c-1.1,0-2.1-0.4-2.7-1c-0.7-0.7-1-1.9-1-3.5v-7.4h-2.1v-1.9h2.1v-3.2L579.2,463.6z"/>
		<path fill="#333333" d="M586,474.7c0.1,3.3,2.2,4.7,4.6,4.7c1.8,0,2.8-0.3,3.8-0.7l0.4,1.8c-0.9,0.4-2.4,0.8-4.5,0.8
			c-4.2,0-6.7-2.7-6.7-6.8c0-4.1,2.4-7.3,6.4-7.3c4.4,0,5.6,3.9,5.6,6.4c0,0.5-0.1,0.9-0.1,1.1H586z M593.2,472.9c0-1.6-0.6-4-3.4-4
			c-2.5,0-3.6,2.3-3.8,4H593.2z"/>
		<path fill="#333333" d="M610,461.1v16.4c0,1.2,0,2.6,0.1,3.5h-2.2l-0.1-2.4h-0.1c-0.8,1.5-2.4,2.7-4.6,2.7c-3.3,0-5.8-2.8-5.8-6.9
			c0-4.5,2.8-7.3,6.1-7.3c2.1,0,3.5,1,4.1,2.1h0.1v-8.1L610,461.1L610,461.1z M607.5,473c0-0.3,0-0.7-0.1-1
			c-0.4-1.6-1.7-2.9-3.6-2.9c-2.5,0-4.1,2.2-4.1,5.2c0,2.7,1.3,5,4,5c1.7,0,3.2-1.1,3.6-2.9c0.1-0.3,0.1-0.7,0.1-1.1L607.5,473
			L607.5,473z"/>
		<path fill="#333333" d="M627,481l-0.2-1.7h-0.1c-0.8,1.1-2.2,2-4.1,2c-2.7,0-4.1-1.9-4.1-3.9c0-3.3,2.9-5.1,8.1-5v-0.3
			c0-1.1-0.3-3.1-3.1-3.1c-1.3,0-2.6,0.4-3.5,1l-0.6-1.6c1.1-0.7,2.7-1.2,4.5-1.2c4.1,0,5.2,2.8,5.2,5.5v5.1c0,1.2,0.1,2.3,0.2,3.2
			H627z M626.7,474.1c-2.7-0.1-5.7,0.4-5.7,3.1c0,1.6,1.1,2.4,2.3,2.4c1.8,0,2.9-1.1,3.3-2.3c0.1-0.3,0.1-0.5,0.1-0.8L626.7,474.1
			L626.7,474.1z"/>
		<path fill="#333333" d="M635.2,463.6v3.9h3.5v1.9h-3.5v7.3c0,1.7,0.5,2.6,1.8,2.6c0.6,0,1.1-0.1,1.4-0.2l0.1,1.8
			c-0.5,0.2-1.2,0.3-2.2,0.3c-1.1,0-2.1-0.4-2.7-1c-0.7-0.7-1-1.9-1-3.5v-7.4h-2.1v-1.9h2.1v-3.2L635.2,463.6z"/>
		<path fill="#333333" d="M650,475.1l-2,5.9h-2.5l6.4-18.9h2.9l6.4,18.9h-2.6l-2-5.9H650z M656.2,473.2l-1.8-5.4
			c-0.4-1.2-0.7-2.4-1-3.4h-0.1c-0.3,1.1-0.6,2.3-1,3.4l-1.8,5.5h5.7L656.2,473.2L656.2,473.2z"/>
		<path fill="#333333" d="M663.3,471.1c0-1.4,0-2.5-0.1-3.7h2.2l0.1,2.2h0.1c0.8-1.3,2-2.5,4.3-2.5c1.8,0,3.2,1.1,3.8,2.7h0.1
			c0.4-0.8,1-1.3,1.5-1.8c0.8-0.6,1.7-1,3-1c1.8,0,4.5,1.2,4.5,5.9v8h-2.4v-7.7c0-2.6-1-4.2-2.9-4.2c-1.4,0-2.5,1-2.9,2.2
			c-0.1,0.3-0.2,0.8-0.2,1.2v8.4H672v-8.1c0-2.2-1-3.7-2.8-3.7c-1.5,0-2.7,1.2-3.1,2.5c-0.1,0.4-0.2,0.8-0.2,1.2v8.2h-2.4v-9.8
			L663.3,471.1L663.3,471.1z"/>
		<path fill="#333333" d="M687.6,474.7c0.1,3.3,2.2,4.7,4.6,4.7c1.8,0,2.8-0.3,3.8-0.7l0.4,1.8c-0.9,0.4-2.4,0.8-4.5,0.8
			c-4.2,0-6.7-2.7-6.7-6.8c0-4.1,2.4-7.3,6.4-7.3c4.4,0,5.6,3.9,5.6,6.4c0,0.5-0.1,0.9-0.1,1.1H687.6z M694.8,472.9
			c0-1.6-0.6-4-3.4-4c-2.5,0-3.6,2.3-3.8,4H694.8z"/>
		<path fill="#333333" d="M699.6,471.7c0-1.6,0-3-0.1-4.2h2.2l0.1,2.7h0.1c0.6-1.8,2.1-3,3.8-3c0.3,0,0.5,0,0.7,0.1v2.3
			c-0.3-0.1-0.5-0.1-0.8-0.1c-1.7,0-3,1.3-3.3,3.2c-0.1,0.3-0.1,0.7-0.1,1.1v7.2h-2.4v-9.3L699.6,471.7L699.6,471.7z"/>
		<path fill="#333333" d="M710.9,463.6c0,0.8-0.6,1.5-1.6,1.5c-0.9,0-1.5-0.7-1.5-1.5c0-0.9,0.6-1.5,1.5-1.5
			C710.4,462.1,710.9,462.8,710.9,463.6z M708.2,481v-13.6h2.5V481H708.2z"/>
		<path fill="#333333" d="M723.8,480.5c-0.6,0.3-2.1,0.8-3.9,0.8c-4.1,0-6.7-2.8-6.7-6.9c0-4.2,2.9-7.2,7.3-7.2
			c1.5,0,2.7,0.4,3.4,0.7l-0.6,1.9c-0.6-0.3-1.5-0.6-2.9-0.6c-3.1,0-4.8,2.3-4.8,5.1c0,3.1,2,5.1,4.7,5.1c1.4,0,2.3-0.4,3-0.7
			L723.8,480.5z"/>
		<path fill="#333333" d="M733.7,481l-0.2-1.7h-0.1c-0.8,1.1-2.2,2-4.1,2c-2.7,0-4.1-1.9-4.1-3.9c0-3.3,2.9-5.1,8.1-5v-0.3
			c0-1.1-0.3-3.1-3.1-3.1c-1.3,0-2.6,0.4-3.5,1l-0.6-1.6c1.1-0.7,2.7-1.2,4.5-1.2c4.1,0,5.2,2.8,5.2,5.5v5.1c0,1.2,0.1,2.3,0.2,3.2
			H733.7z M733.3,474.1c-2.7-0.1-5.7,0.4-5.7,3.1c0,1.6,1.1,2.4,2.3,2.4c1.8,0,2.9-1.1,3.3-2.3c0.1-0.3,0.1-0.5,0.1-0.8L733.3,474.1
			L733.3,474.1z"/>
		<path fill="#333333" d="M739,471.1c0-1.4,0-2.5-0.1-3.7h2.2l0.1,2.2h0.1c0.7-1.3,2.2-2.5,4.5-2.5c1.9,0,4.8,1.1,4.8,5.8v8.1H748
			v-7.8c0-2.2-0.8-4-3.1-4c-1.6,0-2.9,1.1-3.3,2.5c-0.1,0.3-0.2,0.7-0.2,1.1v8.1H739V471.1z"/>
		<path fill="#333333" d="M763.6,464.2h-5.7v-2.1h14v2.1H766V481h-2.5L763.6,464.2L763.6,464.2z"/>
		<path fill="#333333" d="M773.5,461.1h2.5v8.5h0.1c0.4-0.7,1-1.3,1.8-1.7c0.7-0.4,1.6-0.7,2.5-0.7c1.8,0,4.7,1.1,4.7,5.8v8.1h-2.5
			v-7.8c0-2.2-0.8-4-3.1-4c-1.6,0-2.9,1.1-3.3,2.5c-0.1,0.3-0.2,0.7-0.2,1.2v8.2h-2.5V461.1z"/>
		<path fill="#333333" d="M800.7,474.1c0,5-3.5,7.2-6.7,7.2c-3.7,0-6.5-2.7-6.5-7c0-4.5,3-7.2,6.7-7.2
			C798,467.1,800.7,470,800.7,474.1z M789.9,474.3c0,3,1.7,5.2,4.1,5.2c2.4,0,4.1-2.2,4.1-5.3c0-2.3-1.1-5.2-4.1-5.2
			S789.9,471.7,789.9,474.3z"/>
		<path fill="#333333" d="M803.2,471.7c0-1.6,0-3-0.1-4.2h2.2l0.1,2.7h0.1c0.6-1.8,2.1-3,3.8-3c0.3,0,0.5,0,0.7,0.1v2.3
			c-0.3-0.1-0.5-0.1-0.8-0.1c-1.7,0-3,1.3-3.3,3.2c-0.1,0.3-0.1,0.7-0.1,1.1v7.2h-2.4v-9.3L803.2,471.7L803.2,471.7z"/>
		<path fill="#333333" d="M819.4,481l-0.2-1.7h-0.1c-0.8,1.1-2.2,2-4.1,2c-2.7,0-4.1-1.9-4.1-3.9c0-3.3,2.9-5.1,8.1-5v-0.3
			c0-1.1-0.3-3.1-3.1-3.1c-1.3,0-2.6,0.4-3.5,1l-0.6-1.6c1.1-0.7,2.7-1.2,4.5-1.2c4.1,0,5.2,2.8,5.2,5.5v5.1c0,1.2,0.1,2.3,0.2,3.2
			H819.4z M819,474.1c-2.7-0.1-5.7,0.4-5.7,3.1c0,1.6,1.1,2.4,2.3,2.4c1.8,0,2.9-1.1,3.3-2.3c0.1-0.3,0.1-0.5,0.1-0.8L819,474.1
			L819,474.1z"/>
		<path fill="#333333" d="M834.4,480.5c-0.6,0.3-2.1,0.8-3.9,0.8c-4.1,0-6.7-2.8-6.7-6.9c0-4.2,2.9-7.2,7.3-7.2
			c1.5,0,2.7,0.4,3.4,0.7l-0.6,1.9c-0.6-0.3-1.5-0.6-2.9-0.6c-3.1,0-4.8,2.3-4.8,5.1c0,3.1,2,5.1,4.7,5.1c1.4,0,2.3-0.4,3-0.7
			L834.4,480.5z"/>
		<path fill="#333333" d="M839.2,463.6c0,0.8-0.6,1.5-1.6,1.5c-0.9,0-1.5-0.7-1.5-1.5c0-0.9,0.6-1.5,1.5-1.5
			C838.6,462.1,839.2,462.8,839.2,463.6z M836.5,481v-13.6h2.5V481H836.5z"/>
		<path fill="#333333" d="M852.1,480.5c-0.6,0.3-2.1,0.8-3.9,0.8c-4.1,0-6.7-2.8-6.7-6.9c0-4.2,2.9-7.2,7.3-7.2
			c1.5,0,2.7,0.4,3.4,0.7l-0.6,1.9c-0.6-0.3-1.5-0.6-2.9-0.6c-3.1,0-4.8,2.3-4.8,5.1c0,3.1,2,5.1,4.7,5.1c1.4,0,2.3-0.4,3-0.7
			L852.1,480.5z"/>
		<path fill="#333333" d="M860.1,478c1.1,0.7,2.7,1.2,4.4,1.2c2.5,0,3.9-1.3,3.9-3.2c0-1.8-1-2.8-3.6-3.8c-3.1-1.1-5-2.7-5-5.3
			c0-2.9,2.4-5.1,6.1-5.1c1.9,0,3.3,0.4,4.2,0.9l-0.7,2c-0.6-0.3-1.9-0.9-3.6-0.9c-2.6,0-3.6,1.5-3.6,2.8c0,1.8,1.1,2.6,3.8,3.6
			c3.2,1.2,4.8,2.8,4.8,5.5c0,2.9-2.2,5.4-6.6,5.4c-1.8,0-3.8-0.5-4.8-1.2L860.1,478z"/>
		<path fill="#333333" d="M885.9,474.1c0,5-3.5,7.2-6.7,7.2c-3.7,0-6.5-2.7-6.5-7c0-4.5,3-7.2,6.7-7.2
			C883.3,467.1,885.9,470,885.9,474.1z M875.2,474.3c0,3,1.7,5.2,4.1,5.2c2.4,0,4.1-2.2,4.1-5.3c0-2.3-1.1-5.2-4.1-5.2
			S875.2,471.7,875.2,474.3z"/>
		<path fill="#333333" d="M898.3,480.5c-0.6,0.3-2.1,0.8-3.9,0.8c-4.1,0-6.7-2.8-6.7-6.9c0-4.2,2.9-7.2,7.3-7.2
			c1.5,0,2.7,0.4,3.4,0.7l-0.6,1.9c-0.6-0.3-1.5-0.6-2.9-0.6c-3.1,0-4.8,2.3-4.8,5.1c0,3.1,2,5.1,4.7,5.1c1.4,0,2.3-0.4,3-0.7
			L898.3,480.5z"/>
		<path fill="#333333" d="M903.1,463.6c0,0.8-0.6,1.5-1.6,1.5c-0.9,0-1.5-0.7-1.5-1.5c0-0.9,0.6-1.5,1.5-1.5
			C902.5,462.1,903.1,462.8,903.1,463.6z M900.4,481v-13.6h2.5V481H900.4z"/>
		<path fill="#333333" d="M907.7,474.7c0.1,3.3,2.2,4.7,4.6,4.7c1.8,0,2.8-0.3,3.8-0.7l0.4,1.8c-0.9,0.4-2.4,0.8-4.5,0.8
			c-4.2,0-6.7-2.7-6.7-6.8c0-4.1,2.4-7.3,6.4-7.3c4.4,0,5.6,3.9,5.6,6.4c0,0.5-0.1,0.9-0.1,1.1H907.7z M914.9,472.9
			c0-1.6-0.6-4-3.4-4c-2.5,0-3.6,2.3-3.8,4H914.9z"/>
		<path fill="#333333" d="M922.8,463.6v3.9h3.5v1.9h-3.5v7.3c0,1.7,0.5,2.6,1.8,2.6c0.6,0,1.1-0.1,1.4-0.2l0.1,1.8
			c-0.5,0.2-1.2,0.3-2.2,0.3c-1.1,0-2.1-0.4-2.7-1c-0.7-0.7-1-1.9-1-3.5v-7.4h-2.1v-1.9h2.1v-3.2L922.8,463.6z"/>
		<path fill="#333333" d="M930.2,467.4l3,8c0.3,0.9,0.6,2,0.9,2.8h0.1c0.3-0.8,0.5-1.8,0.9-2.8l2.7-8h2.6l-3.7,9.7
			c-1.8,4.6-3,7-4.6,8.5c-1.2,1.1-2.4,1.5-3,1.6l-0.6-2.1c0.6-0.2,1.4-0.6,2.2-1.2c0.7-0.5,1.5-1.5,2.1-2.7c0.1-0.3,0.2-0.4,0.2-0.6
			s-0.1-0.3-0.2-0.6l-5-12.5L930.2,467.4L930.2,467.4z"/>
		<path fill="#333333" d="M950.4,462.1V481H948v-18.9H950.4z"/>
		<path fill="#333333" d="M953.9,471.1c0-1.4,0-2.5-0.1-3.7h2.2l0.1,2.2h0.1c0.7-1.3,2.2-2.5,4.5-2.5c1.9,0,4.8,1.1,4.8,5.8v8.1H963
			v-7.8c0-2.2-0.8-4-3.1-4c-1.6,0-2.9,1.1-3.3,2.5c-0.1,0.3-0.2,0.7-0.2,1.1v8.1h-2.5V471.1z"/>
		<path fill="#333333" d="M971.5,463.6v3.9h3.5v1.9h-3.5v7.3c0,1.7,0.5,2.6,1.8,2.6c0.6,0,1.1-0.1,1.4-0.2l0.1,1.8
			c-0.5,0.2-1.2,0.3-2.2,0.3c-1.1,0-2.1-0.4-2.7-1c-0.7-0.7-1-1.9-1-3.5v-7.4H967v-1.9h2.1v-3.2L971.5,463.6z"/>
		<path fill="#333333" d="M978.3,474.7c0.1,3.3,2.2,4.7,4.6,4.7c1.8,0,2.8-0.3,3.8-0.7l0.4,1.8c-0.9,0.4-2.4,0.8-4.5,0.8
			c-4.2,0-6.7-2.7-6.7-6.8c0-4.1,2.4-7.3,6.4-7.3c4.4,0,5.6,3.9,5.6,6.4c0,0.5-0.1,0.9-0.1,1.1H978.3z M985.6,472.9
			c0-1.6-0.6-4-3.4-4c-2.5,0-3.6,2.3-3.8,4H985.6z"/>
		<path fill="#333333" d="M990.4,471.7c0-1.6,0-3-0.1-4.2h2.2l0.1,2.7h0.1c0.6-1.8,2.1-3,3.8-3c0.3,0,0.5,0,0.7,0.1v2.3
			c-0.3-0.1-0.5-0.1-0.8-0.1c-1.7,0-3,1.3-3.3,3.2c-0.1,0.3-0.1,0.7-0.1,1.1v7.2h-2.4v-9.3L990.4,471.7L990.4,471.7z"/>
		<path fill="#333333" d="M999,471.1c0-1.4,0-2.5-0.1-3.7h2.2l0.1,2.2h0.1c0.7-1.3,2.2-2.5,4.5-2.5c1.9,0,4.8,1.1,4.8,5.8v8.1h-2.5
			v-7.8c0-2.2-0.8-4-3.1-4c-1.6,0-2.9,1.1-3.3,2.5c-0.1,0.3-0.2,0.7-0.2,1.1v8.1H999V471.1z"/>
		<path fill="#333333" d="M1021.4,481l-0.2-1.7h-0.1c-0.8,1.1-2.2,2-4.1,2c-2.7,0-4.1-1.9-4.1-3.9c0-3.3,2.9-5.1,8.1-5v-0.3
			c0-1.1-0.3-3.1-3.1-3.1c-1.3,0-2.6,0.4-3.5,1l-0.6-1.6c1.1-0.7,2.7-1.2,4.5-1.2c4.1,0,5.2,2.8,5.2,5.5v5.1c0,1.2,0.1,2.3,0.2,3.2
			H1021.4z M1021,474.1c-2.7-0.1-5.7,0.4-5.7,3.1c0,1.6,1.1,2.4,2.3,2.4c1.8,0,2.9-1.1,3.3-2.3c0.1-0.3,0.1-0.5,0.1-0.8L1021,474.1
			L1021,474.1z"/>
		<path fill="#333333" d="M1029.5,463.6v3.9h3.5v1.9h-3.5v7.3c0,1.7,0.5,2.6,1.8,2.6c0.6,0,1.1-0.1,1.4-0.2l0.1,1.8
			c-0.5,0.2-1.2,0.3-2.2,0.3c-1.1,0-2.1-0.4-2.7-1c-0.7-0.7-1-1.9-1-3.5v-7.4h-2.1v-1.9h2.1v-3.2L1029.5,463.6z"/>
		<path fill="#333333" d="M1037.8,463.6c0,0.8-0.6,1.5-1.6,1.5c-0.9,0-1.5-0.7-1.5-1.5c0-0.9,0.6-1.5,1.5-1.5
			C1037.2,462.1,1037.8,462.8,1037.8,463.6z M1035.1,481v-13.6h2.5V481H1035.1z"/>
		<path fill="#333333" d="M1053.3,474.1c0,5-3.5,7.2-6.7,7.2c-3.7,0-6.5-2.7-6.5-7c0-4.5,3-7.2,6.7-7.2
			C1050.7,467.1,1053.3,470,1053.3,474.1z M1042.5,474.3c0,3,1.7,5.2,4.1,5.2s4.1-2.2,4.1-5.3c0-2.3-1.1-5.2-4.1-5.2
			C1043.8,469,1042.5,471.7,1042.5,474.3z"/>
		<path fill="#333333" d="M1055.8,471.1c0-1.4,0-2.5-0.1-3.7h2.2l0.1,2.2h0.1c0.7-1.3,2.2-2.5,4.5-2.5c1.9,0,4.8,1.1,4.8,5.8v8.1
			h-2.5v-7.8c0-2.2-0.8-4-3.1-4c-1.6,0-2.9,1.1-3.3,2.5c-0.1,0.3-0.2,0.7-0.2,1.1v8.1h-2.5V471.1z"/>
		<path fill="#333333" d="M1078.2,481l-0.2-1.7h-0.1c-0.8,1.1-2.2,2-4.1,2c-2.7,0-4.1-1.9-4.1-3.9c0-3.3,2.9-5.1,8.1-5v-0.3
			c0-1.1-0.3-3.1-3.1-3.1c-1.3,0-2.6,0.4-3.5,1l-0.6-1.6c1.1-0.7,2.7-1.2,4.5-1.2c4.1,0,5.2,2.8,5.2,5.5v5.1c0,1.2,0.1,2.3,0.2,3.2
			H1078.2z M1077.8,474.1c-2.7-0.1-5.7,0.4-5.7,3.1c0,1.6,1.1,2.4,2.3,2.4c1.8,0,2.9-1.1,3.3-2.3c0.1-0.3,0.1-0.5,0.1-0.8
			L1077.8,474.1L1077.8,474.1z"/>
		<path fill="#333333" d="M1083.5,461.1h2.5V481h-2.5V461.1z"/>
		<path fill="#333333" d="M1108.8,480.4c-0.9,0.4-2.7,0.9-5,0.9c-5.3,0-9.3-3.4-9.3-9.5c0-5.9,4-9.9,9.9-9.9c2.4,0,3.8,0.5,4.5,0.8
			l-0.6,2c-0.9-0.4-2.2-0.8-3.8-0.8c-4.4,0-7.4,2.8-7.4,7.8c0,4.6,2.7,7.6,7.3,7.6c1.5,0,3-0.3,4-0.8L1108.8,480.4z"/>
		<path fill="#333333" d="M1123,474.1c0,5-3.5,7.2-6.7,7.2c-3.7,0-6.5-2.7-6.5-7c0-4.5,3-7.2,6.7-7.2
			C1120.4,467.1,1123,470,1123,474.1z M1112.3,474.3c0,3,1.7,5.2,4.1,5.2s4.1-2.2,4.1-5.3c0-2.3-1.1-5.2-4.1-5.2
			C1113.5,469,1112.3,471.7,1112.3,474.3z"/>
		<path fill="#333333" d="M1125.6,471.1c0-1.4,0-2.5-0.1-3.7h2.2l0.1,2.2h0.1c0.7-1.3,2.2-2.5,4.5-2.5c1.9,0,4.8,1.1,4.8,5.8v8.1
			h-2.5v-7.8c0-2.2-0.8-4-3.1-4c-1.6,0-2.9,1.1-3.3,2.5c-0.1,0.3-0.2,0.7-0.2,1.1v8.1h-2.5V471.1z"/>
		<path fill="#333333" d="M1152.2,467.4c-0.1,1-0.1,2.1-0.1,3.7v7.9c0,3.1-0.6,5-1.9,6.2s-3.2,1.6-4.9,1.6c-1.6,0-3.4-0.4-4.5-1.1
			l0.6-1.9c0.9,0.6,2.3,1.1,4,1.1c2.5,0,4.4-1.3,4.4-4.7v-1.5h-0.1c-0.8,1.3-2.2,2.3-4.3,2.3c-3.4,0-5.8-2.9-5.8-6.6
			c0-4.6,3-7.2,6.1-7.2c2.4,0,3.6,1.2,4.2,2.4h0.1l0.1-2h2.1L1152.2,467.4L1152.2,467.4z M1149.6,472.8c0-0.4,0-0.8-0.1-1.1
			c-0.4-1.4-1.7-2.6-3.4-2.6c-2.4,0-4,2-4,5.1c0,2.7,1.3,4.9,4,4.9c1.5,0,2.9-1,3.4-2.5c0.1-0.4,0.2-0.9,0.2-1.3L1149.6,472.8
			L1149.6,472.8z"/>
		<path fill="#333333" d="M1155.5,471.7c0-1.6,0-3-0.1-4.2h2.2l0.1,2.7h0.1c0.6-1.8,2.1-3,3.8-3c0.3,0,0.5,0,0.7,0.1v2.3
			c-0.3-0.1-0.5-0.1-0.8-0.1c-1.7,0-3,1.3-3.3,3.2c-0.1,0.3-0.1,0.7-0.1,1.1v7.2h-2.4v-9.3L1155.5,471.7L1155.5,471.7z"/>
		<path fill="#333333" d="M1165.3,474.7c0.1,3.3,2.2,4.7,4.6,4.7c1.8,0,2.8-0.3,3.8-0.7l0.4,1.8c-0.9,0.4-2.4,0.8-4.5,0.8
			c-4.2,0-6.7-2.7-6.7-6.8c0-4.1,2.4-7.3,6.4-7.3c4.4,0,5.6,3.9,5.6,6.4c0,0.5-0.1,0.9-0.1,1.1H1165.3z M1172.5,472.9
			c0-1.6-0.6-4-3.4-4c-2.5,0-3.6,2.3-3.8,4H1172.5z"/>
		<path fill="#333333" d="M1176.9,478.5c0.7,0.5,2,1,3.2,1c1.8,0,2.6-0.9,2.6-2c0-1.2-0.7-1.8-2.5-2.5c-2.4-0.9-3.6-2.2-3.6-3.8
			c0-2.2,1.8-4,4.7-4c1.4,0,2.6,0.4,3.3,0.8l-0.6,1.8c-0.5-0.3-1.5-0.8-2.8-0.8c-1.5,0-2.3,0.8-2.3,1.8c0,1.1,0.8,1.6,2.6,2.3
			c2.4,0.9,3.6,2.1,3.6,4.1c0,2.4-1.8,4.1-5.1,4.1c-1.5,0-2.9-0.4-3.8-0.9L1176.9,478.5z"/>
		<path fill="#333333" d="M1187.2,478.5c0.7,0.5,2,1,3.2,1c1.8,0,2.6-0.9,2.6-2c0-1.2-0.7-1.8-2.5-2.5c-2.4-0.9-3.6-2.2-3.6-3.8
			c0-2.2,1.8-4,4.7-4c1.4,0,2.6,0.4,3.3,0.8l-0.6,1.8c-0.5-0.3-1.5-0.8-2.8-0.8c-1.5,0-2.3,0.8-2.3,1.8c0,1.1,0.8,1.6,2.6,2.3
			c2.4,0.9,3.6,2.1,3.6,4.1c0,2.4-1.8,4.1-5.1,4.1c-1.5,0-2.9-0.4-3.8-0.9L1187.2,478.5z"/>
		<path fill="#333333" d="M1196.1,484.4c0.6-1.7,1.4-4.6,1.7-6.7l2.7-0.3c-0.7,2.4-1.9,5.5-2.7,6.8L1196.1,484.4z M1197.3,469.7
			c0-1,0.7-1.8,1.7-1.8s1.7,0.7,1.7,1.8c0,1-0.6,1.7-1.7,1.7C1198,471.4,1197.3,470.7,1197.3,469.7z"/>
		<path fill="#333333" d="M1213.4,465.1L1213.4,465.1l-3.2,1.7l-0.5-1.9l4-2.1h2.1V481h-2.4V465.1z"/>
		<path fill="#333333" d="M1221.4,479.3c0.5,0.1,1.1,0,2-0.1c1.4-0.2,2.8-0.8,3.8-1.8c1.2-1.1,2.1-2.7,2.4-4.8h-0.1
			c-1,1.2-2.5,2-4.3,2c-3.3,0-5.4-2.5-5.4-5.6c0-3.4,2.5-6.5,6.2-6.5s6,3,6,7.7c0,4-1.3,6.8-3.1,8.5c-1.4,1.4-3.3,2.2-5.3,2.4
			c-0.9,0.1-1.7,0.2-2.3,0.1v-1.9L1221.4,479.3L1221.4,479.3z M1222.3,468.8c0,2.3,1.4,3.9,3.5,3.9c1.7,0,2.9-0.8,3.6-1.9
			c0.1-0.2,0.2-0.5,0.2-0.9c0-3.1-1.1-5.5-3.7-5.5C1223.8,464.4,1222.3,466.2,1222.3,468.8z"/>
		<path fill="#333333" d="M1246.5,473v1.7h-12.3V473H1246.5z"/>
		<path fill="#333333" d="M1246.6,481v-1.5l1.9-1.9c4.6-4.4,6.7-6.8,6.8-9.5c0-1.8-0.9-3.6-3.6-3.6c-1.7,0-3,0.8-3.9,1.5l-0.8-1.7
			c1.3-1.1,3.1-1.8,5.2-1.8c3.9,0,5.6,2.7,5.6,5.3c0,3.4-2.4,6.1-6.3,9.8l-1.5,1.3v0.1h8.2v2L1246.6,481L1246.6,481z"/>
		<path fill="#333333" d="M1267.1,481v-5h-8.5v-1.6l8.1-11.6h2.7v11.3h2.5v1.9h-2.5v5L1267.1,481L1267.1,481z M1267.1,474.1V468
			c0-1,0-1.9,0.1-2.9h-0.1c-0.6,1.1-1,1.8-1.5,2.7l-4.5,6.2v0.1L1267.1,474.1L1267.1,474.1z"/>
		<path fill="#333333" d="M1296,472.7c-0.1-2.6-0.3-5.8-0.3-8.1h-0.1c-0.6,2.2-1.4,4.6-2.4,7.2l-3.3,9.2h-1.8l-3.1-9
			c-0.9-2.7-1.7-5.1-2.2-7.3h-0.1c-0.1,2.4-0.2,5.5-0.4,8.3l-0.5,8.1h-2.3l1.3-18.9h3.1l3.2,9.1c0.8,2.3,1.4,4.4,1.9,6.4h0.1
			c0.5-1.9,1.1-4,2-6.4l3.4-9.1h3.1l1.2,18.9h-2.4L1296,472.7z"/>
		<path fill="#333333" d="M1309.5,481l-0.2-1.7h-0.1c-0.8,1.1-2.2,2-4.1,2c-2.7,0-4.1-1.9-4.1-3.9c0-3.3,2.9-5.1,8.1-5v-0.3
			c0-1.1-0.3-3.1-3.1-3.1c-1.3,0-2.6,0.4-3.5,1l-0.6-1.6c1.1-0.7,2.7-1.2,4.5-1.2c4.1,0,5.2,2.8,5.2,5.5v5.1c0,1.2,0.1,2.3,0.2,3.2
			H1309.5z M1309.2,474.1c-2.7-0.1-5.7,0.4-5.7,3.1c0,1.6,1.1,2.4,2.3,2.4c1.8,0,2.9-1.1,3.3-2.3c0.1-0.3,0.1-0.5,0.1-0.8
			L1309.2,474.1L1309.2,474.1z"/>
		<path fill="#333333" d="M1315.4,467.4l3,8c0.3,0.9,0.6,2,0.9,2.8h0.1c0.3-0.8,0.5-1.8,0.9-2.8l2.7-8h2.6l-3.7,9.7
			c-1.8,4.6-3,7-4.6,8.5c-1.2,1.1-2.4,1.5-3,1.6l-0.6-2.1c0.6-0.2,1.4-0.6,2.2-1.2c0.7-0.5,1.5-1.5,2.1-2.7c0.1-0.3,0.2-0.4,0.2-0.6
			s-0.1-0.3-0.2-0.6l-5-12.5L1315.4,467.4L1315.4,467.4z"/>
		<path fill="#333333" d="M1332.3,481v-1.5l1.9-1.9c4.6-4.4,6.7-6.8,6.8-9.5c0-1.8-0.9-3.6-3.6-3.6c-1.7,0-3,0.8-3.9,1.5l-0.8-1.7
			c1.3-1.1,3.1-1.8,5.2-1.8c3.9,0,5.6,2.7,5.6,5.3c0,3.4-2.4,6.1-6.3,9.8l-1.5,1.3v0.1h8.2v2L1332.3,481L1332.3,481z"/>
		<path fill="#333333" d="M1357.8,471.7c0,6.2-2.3,9.6-6.3,9.6c-3.6,0-6-3.3-6-9.4s2.6-9.5,6.3-9.5
			C1355.6,462.5,1357.8,465.9,1357.8,471.7z M1347.9,472c0,4.7,1.5,7.4,3.7,7.4c2.5,0,3.7-2.9,3.7-7.6c0-4.5-1.1-7.4-3.7-7.4
			C1349.4,464.4,1347.9,467,1347.9,472z"/>
		<path fill="#333333" d="M1363.5,465.1L1363.5,465.1l-3.2,1.7l-0.5-1.9l4-2.1h2.1V481h-2.4V465.1z"/>
		<path fill="#333333" d="M1381.3,462.8v1.6l-7.9,16.6h-2.5l7.9-16.1v-0.1h-8.9v-2H1381.3z"/>
		<path fill="#333333" d="M1381.2,484.4c0.6-1.7,1.4-4.6,1.7-6.7l2.7-0.3c-0.7,2.4-1.9,5.5-2.7,6.8L1381.2,484.4z M1382.4,469.7
			c0-1,0.7-1.8,1.7-1.8s1.7,0.7,1.7,1.8c0,1-0.6,1.7-1.7,1.7C1383,471.4,1382.4,470.7,1382.4,469.7z"/>
		<path fill="#333333" d="M1397.1,481l-4.8-18.9h2.6l2.2,9.5c0.6,2.4,1.1,4.7,1.4,6.5h0.1c0.3-1.9,0.9-4.1,1.5-6.6l2.5-9.5h2.5
			l2.3,9.6c0.5,2.2,1,4.5,1.3,6.5h0.1c0.4-2.1,0.9-4.2,1.5-6.5l2.5-9.5h2.5L1410,481h-2.5l-2.4-9.8c-0.6-2.4-1-4.3-1.2-6.2h-0.1
			c-0.3,1.9-0.8,3.7-1.5,6.2l-2.7,9.8H1397.1z"/>
		<path fill="#333333" d="M1423.9,481l-0.2-1.7h-0.1c-0.8,1.1-2.2,2-4.1,2c-2.7,0-4.1-1.9-4.1-3.9c0-3.3,2.9-5.1,8.1-5v-0.3
			c0-1.1-0.3-3.1-3.1-3.1c-1.3,0-2.6,0.4-3.5,1l-0.6-1.6c1.1-0.7,2.7-1.2,4.5-1.2c4.1,0,5.2,2.8,5.2,5.5v5.1c0,1.2,0.1,2.3,0.2,3.2
			H1423.9z M1423.5,474.1c-2.7-0.1-5.7,0.4-5.7,3.1c0,1.6,1.1,2.4,2.3,2.4c1.8,0,2.9-1.1,3.3-2.3c0.1-0.3,0.1-0.5,0.1-0.8
			L1423.5,474.1L1423.5,474.1z"/>
		<path fill="#333333" d="M1428.7,478.5c0.7,0.5,2,1,3.2,1c1.8,0,2.6-0.9,2.6-2c0-1.2-0.7-1.8-2.5-2.5c-2.4-0.9-3.6-2.2-3.6-3.8
			c0-2.2,1.8-4,4.7-4c1.4,0,2.6,0.4,3.3,0.8l-0.6,1.8c-0.5-0.3-1.5-0.8-2.8-0.8c-1.5,0-2.3,0.8-2.3,1.8c0,1.1,0.8,1.6,2.6,2.3
			c2.4,0.9,3.6,2.1,3.6,4.1c0,2.4-1.8,4.1-5.1,4.1c-1.5,0-2.9-0.4-3.8-0.9L1428.7,478.5z"/>
		<path fill="#333333" d="M1439.4,461.1h2.5v8.5h0.1c0.4-0.7,1-1.3,1.8-1.7c0.7-0.4,1.6-0.7,2.5-0.7c1.8,0,4.7,1.1,4.7,5.8v8.1h-2.5
			v-7.8c0-2.2-0.8-4-3.1-4c-1.6,0-2.9,1.1-3.3,2.5c-0.1,0.3-0.2,0.7-0.2,1.2v8.2h-2.5V461.1z"/>
		<path fill="#333333" d="M1457,463.6c0,0.8-0.6,1.5-1.6,1.5c-0.9,0-1.5-0.7-1.5-1.5c0-0.9,0.6-1.5,1.5-1.5
			C1456.4,462.1,1457,462.8,1457,463.6z M1454.2,481v-13.6h2.5V481H1454.2z"/>
		<path fill="#333333" d="M1460.1,471.1c0-1.4,0-2.5-0.1-3.7h2.2l0.1,2.2h0.1c0.7-1.3,2.2-2.5,4.5-2.5c1.9,0,4.8,1.1,4.8,5.8v8.1
			h-2.5v-7.8c0-2.2-0.8-4-3.1-4c-1.6,0-2.9,1.1-3.3,2.5c-0.1,0.3-0.2,0.7-0.2,1.1v8.1h-2.5V471.1z"/>
		<path fill="#333333" d="M1486.7,467.4c-0.1,1-0.1,2.1-0.1,3.7v7.9c0,3.1-0.6,5-1.9,6.2s-3.2,1.6-4.9,1.6c-1.6,0-3.4-0.4-4.5-1.1
			l0.6-1.9c0.9,0.6,2.3,1.1,4,1.1c2.5,0,4.4-1.3,4.4-4.7v-1.5h-0.1c-0.8,1.3-2.2,2.3-4.3,2.3c-3.4,0-5.8-2.9-5.8-6.6
			c0-4.6,3-7.2,6.1-7.2c2.4,0,3.6,1.2,4.2,2.4h0.1l0.1-2h2.1L1486.7,467.4L1486.7,467.4z M1484.1,472.8c0-0.4,0-0.8-0.1-1.1
			c-0.4-1.4-1.7-2.6-3.4-2.6c-2.4,0-4,2-4,5.1c0,2.7,1.3,4.9,4,4.9c1.5,0,2.9-1,3.4-2.5c0.1-0.4,0.2-0.9,0.2-1.3L1484.1,472.8
			L1484.1,472.8z"/>
		<path fill="#333333" d="M1493.1,463.6v3.9h3.5v1.9h-3.5v7.3c0,1.7,0.5,2.6,1.8,2.6c0.6,0,1.1-0.1,1.4-0.2l0.1,1.8
			c-0.5,0.2-1.2,0.3-2.2,0.3c-1.1,0-2.1-0.4-2.7-1c-0.7-0.7-1-1.9-1-3.5v-7.4h-2.1v-1.9h2.1v-3.2L1493.1,463.6z"/>
		<path fill="#333333" d="M1510.7,474.1c0,5-3.5,7.2-6.7,7.2c-3.7,0-6.5-2.7-6.5-7c0-4.5,3-7.2,6.7-7.2
			C1508.1,467.1,1510.7,470,1510.7,474.1z M1500,474.3c0,3,1.7,5.2,4.1,5.2s4.1-2.2,4.1-5.3c0-2.3-1.1-5.2-4.1-5.2
			C1501.3,469,1500,471.7,1500,474.3z"/>
		<path fill="#333333" d="M1513.3,471.1c0-1.4,0-2.5-0.1-3.7h2.2l0.1,2.2h0.1c0.7-1.3,2.2-2.5,4.5-2.5c1.9,0,4.8,1.1,4.8,5.8v8.1
			h-2.5v-7.8c0-2.2-0.8-4-3.1-4c-1.6,0-2.9,1.1-3.3,2.5c-0.1,0.3-0.2,0.7-0.2,1.1v8.1h-2.5V471.1z"/>
		<path fill="#333333" d="M1534.3,462.4c1.5-0.2,3.2-0.4,5.2-0.4c3.5,0,6,0.8,7.6,2.4c1.7,1.5,2.7,3.7,2.7,6.8c0,3.1-1,5.6-2.7,7.3
			c-1.8,1.8-4.7,2.7-8.3,2.7c-1.7,0-3.2-0.1-4.4-0.2L1534.3,462.4L1534.3,462.4z M1536.8,479.1c0.6,0.1,1.5,0.1,2.5,0.1
			c5.2,0,8-2.9,8-8c0-4.5-2.5-7.3-7.6-7.3c-1.3,0-2.2,0.1-2.9,0.3V479.1z"/>
		<path fill="#333333" d="M1565.8,480.4c-0.9,0.4-2.7,0.9-5,0.9c-5.3,0-9.3-3.4-9.3-9.5c0-5.9,4-9.9,9.9-9.9c2.4,0,3.8,0.5,4.5,0.8
			l-0.6,2c-0.9-0.4-2.2-0.8-3.8-0.8c-4.4,0-7.4,2.8-7.4,7.8c0,4.6,2.7,7.6,7.3,7.6c1.5,0,3-0.3,4-0.8L1565.8,480.4z"/>
		<path fill="#333333" d="M1567,484.4c0.6-1.7,1.4-4.6,1.7-6.7l2.7-0.3c-0.6,2.4-1.9,5.5-2.7,6.8L1567,484.4z"/>
		<path fill="#333333" d="M1582.3,462.1v11.2c0,4.2,1.9,6,4.4,6c2.8,0,4.6-1.8,4.6-6v-11.2h2.5v11c0,5.8-3.1,8.2-7.1,8.2
			c-3.9,0-6.8-2.2-6.8-8.1v-11.1H1582.3z"/>
		<path fill="#333333" d="M1596.7,478c1.1,0.7,2.7,1.2,4.4,1.2c2.5,0,3.9-1.3,3.9-3.2c0-1.8-1-2.8-3.6-3.8c-3.1-1.1-5-2.7-5-5.3
			c0-2.9,2.4-5.1,6.1-5.1c1.9,0,3.3,0.4,4.2,0.9l-0.7,2c-0.6-0.3-1.9-0.9-3.6-0.9c-2.6,0-3.6,1.5-3.6,2.8c0,1.8,1.1,2.6,3.8,3.6
			c3.2,1.2,4.8,2.8,4.8,5.5c0,2.9-2.2,5.4-6.6,5.4c-1.8,0-3.8-0.5-4.8-1.2L1596.7,478z"/>
		<path fill="#333333" d="M1612.9,475.1l-2,5.9h-2.5l6.4-18.9h2.9l6.4,18.9h-2.6l-2-5.9H1612.9z M1619.1,473.2l-1.8-5.4
			c-0.4-1.2-0.7-2.4-1-3.4h-0.1c-0.3,1.1-0.6,2.3-1,3.4l-1.8,5.5h5.7L1619.1,473.2L1619.1,473.2z"/>
	</g>
	<g>
		<path fill="#333333" d="M357.6,497.6c-2,2.7-3.5,6.4-3.5,11.5c0,5,1.5,8.6,3.5,11.4h-1.9c-1.8-2.3-3.7-5.9-3.7-11.4
			c0-5.5,1.9-9.1,3.7-11.5H357.6z"/>
		<path fill="#333333" d="M359.4,498.4c1.2-0.2,2.7-0.4,4.7-0.4c2.4,0,4.2,0.6,5.3,1.6c1,0.9,1.7,2.3,1.7,3.9c0,1.7-0.5,3.1-1.5,4
			c-1.3,1.4-3.4,2.1-5.8,2.1c-0.7,0-1.4,0-2-0.2v7.6h-2.4L359.4,498.4L359.4,498.4z M361.8,507.5c0.5,0.1,1.2,0.2,2,0.2
			c2.9,0,4.7-1.4,4.7-4c0-2.5-1.8-3.7-4.5-3.7c-1.1,0-1.9,0.1-2.3,0.2L361.8,507.5L361.8,507.5z"/>
		<path fill="#333333" d="M385.3,510.1c0,5-3.5,7.2-6.7,7.2c-3.7,0-6.5-2.7-6.5-7c0-4.5,3-7.2,6.7-7.2
			C382.7,503.1,385.3,506,385.3,510.1z M374.6,510.3c0,3,1.7,5.2,4.1,5.2s4.1-2.2,4.1-5.3c0-2.3-1.1-5.2-4.1-5.2
			S374.6,507.7,374.6,510.3z"/>
		<path fill="#333333" d="M387.3,514.5c0.7,0.5,2,1,3.2,1c1.8,0,2.6-0.9,2.6-2c0-1.2-0.7-1.8-2.5-2.5c-2.4-0.9-3.6-2.2-3.6-3.8
			c0-2.2,1.8-4,4.7-4c1.4,0,2.6,0.4,3.3,0.8l-0.6,1.8c-0.5-0.3-1.5-0.8-2.8-0.8c-1.5,0-2.3,0.8-2.3,1.8c0,1.1,0.8,1.6,2.6,2.3
			c2.4,0.9,3.6,2.1,3.6,4.1c0,2.4-1.8,4.1-5.1,4.1c-1.5,0-2.9-0.4-3.8-0.9L387.3,514.5z"/>
		<path fill="#333333" d="M401.3,499.6v3.9h3.5v1.9h-3.5v7.3c0,1.7,0.5,2.6,1.8,2.6c0.6,0,1.1-0.1,1.4-0.2l0.1,1.8
			c-0.5,0.2-1.2,0.3-2.2,0.3c-1.1,0-2.1-0.4-2.7-1c-0.7-0.7-1-1.9-1-3.5v-7.4h-2.1v-1.9h2.1v-3.2L401.3,499.6z"/>
		<path fill="#333333" d="M408.2,510.7c0.1,3.3,2.2,4.7,4.6,4.7c1.8,0,2.8-0.3,3.8-0.7l0.4,1.8c-0.9,0.4-2.4,0.8-4.5,0.8
			c-4.2,0-6.7-2.7-6.7-6.8c0-4.1,2.4-7.3,6.4-7.3c4.4,0,5.6,3.9,5.6,6.4c0,0.5-0.1,0.9-0.1,1.1H408.2z M415.4,508.9
			c0-1.6-0.6-4-3.4-4c-2.5,0-3.6,2.3-3.8,4H415.4z"/>
		<path fill="#333333" d="M420.2,507.7c0-1.6,0-3-0.1-4.2h2.2l0.1,2.7h0.1c0.6-1.8,2.1-3,3.8-3c0.3,0,0.5,0,0.7,0.1v2.3
			c-0.3-0.1-0.5-0.1-0.8-0.1c-1.7,0-3,1.3-3.3,3.2c-0.1,0.3-0.1,0.7-0.1,1.1v7.2h-2.4v-9.3H420.2z"/>
		<path fill="#333333" d="M434.8,507.1c0-1.4,0-2.5-0.1-3.7h2.2l0.1,2.2h0.1c0.7-1.3,2.2-2.5,4.5-2.5c1.9,0,4.8,1.1,4.8,5.8v8.1
			h-2.5v-7.8c0-2.2-0.8-4-3.1-4c-1.6,0-2.9,1.1-3.3,2.5c-0.1,0.3-0.2,0.7-0.2,1.1v8.1h-2.5V507.1z"/>
		<path fill="#333333" d="M462,510.1c0,5-3.5,7.2-6.7,7.2c-3.7,0-6.5-2.7-6.5-7c0-4.5,3-7.2,6.7-7.2C459.4,503.1,462,506,462,510.1z
			 M451.3,510.3c0,3,1.7,5.2,4.1,5.2s4.1-2.2,4.1-5.3c0-2.3-1.1-5.2-4.1-5.2S451.3,507.7,451.3,510.3z"/>
		<path fill="#333333" d="M463.6,515.6c0-1,0.7-1.8,1.7-1.8s1.7,0.7,1.7,1.8c0,1-0.6,1.8-1.7,1.8
			C464.2,517.3,463.6,516.6,463.6,515.6z"/>
		<path fill="#333333" d="M485,500.5c-0.5,0-1.1,0-1.8,0.1c-3.9,0.6-5.9,3.5-6.3,6.5h0.1c0.9-1.1,2.4-2.1,4.4-2.1
			c3.2,0,5.5,2.3,5.5,5.9c0,3.3-2.3,6.4-6,6.4c-3.9,0-6.4-3-6.4-7.8c0-3.6,1.3-6.4,3.1-8.2c1.5-1.5,3.5-2.4,5.8-2.7
			c0.7-0.1,1.3-0.1,1.8-0.1v2L485,500.5L485,500.5z M484.3,511c0-2.6-1.5-4.2-3.8-4.2c-1.5,0-2.9,0.9-3.5,2.2
			c-0.2,0.3-0.3,0.6-0.3,1.1c0.1,3,1.4,5.2,4,5.2C482.9,515.4,484.3,513.6,484.3,511z"/>
		<path fill="#333333" d="M488.3,512.4c0-2.3,1.4-3.9,3.6-4.9v-0.1c-2-1-2.9-2.5-2.9-4.1c0-2.9,2.4-4.8,5.6-4.8
			c3.5,0,5.3,2.2,5.3,4.5c0,1.5-0.8,3.2-3,4.3v0.1c2.3,0.9,3.7,2.5,3.7,4.7c0,3.2-2.7,5.3-6.2,5.3
			C490.6,517.3,488.3,515,488.3,512.4z M498.1,512.3c0-2.2-1.5-3.3-4-4c-2.1,0.6-3.3,2-3.3,3.8c-0.1,1.8,1.3,3.5,3.6,3.5
			C496.7,515.5,498.1,514.2,498.1,512.3z M491.4,503.2c0,1.8,1.4,2.8,3.5,3.4c1.6-0.5,2.8-1.7,2.8-3.3c0-1.5-0.9-3-3.1-3
			C492.5,500.3,491.4,501.6,491.4,503.2z"/>
		<path fill="#333333" d="M502.5,514.2c0.7,0.4,2.3,1.1,4,1.1c3.2,0,4.1-2,4.1-3.5c0-2.5-2.3-3.6-4.7-3.6h-1.4v-1.8h1.4
			c1.8,0,4.1-0.9,4.1-3.1c0-1.5-0.9-2.7-3.2-2.7c-1.5,0-2.9,0.6-3.6,1.2l-0.6-1.8c1-0.7,2.8-1.4,4.8-1.4c3.6,0,5.2,2.1,5.2,4.3
			c0,1.9-1.1,3.5-3.4,4.3v0.1c2.2,0.4,4.1,2.1,4.1,4.7c0,2.9-2.3,5.5-6.6,5.5c-2,0-3.8-0.6-4.7-1.2L502.5,514.2z"/>
		<path fill="#333333" d="M527.6,507.7c0,6.2-2.3,9.6-6.3,9.6c-3.6,0-6-3.3-6-9.4s2.6-9.5,6.3-9.5
			C525.4,498.5,527.6,501.9,527.6,507.7z M517.7,508c0,4.7,1.5,7.4,3.7,7.4c2.5,0,3.7-2.9,3.7-7.6c0-4.5-1.1-7.4-3.7-7.4
			C519.3,500.4,517.7,503,517.7,508z"/>
		<path fill="#333333" d="M528.1,520.4c2-2.8,3.5-6.4,3.5-11.5c0-5-1.5-8.6-3.5-11.4h1.9c1.8,2.3,3.7,5.9,3.7,11.4s-1.9,9-3.7,11.4
			L528.1,520.4L528.1,520.4z"/>
		<path fill="#333333" d="M535.7,515.6c0-1,0.7-1.8,1.7-1.8s1.7,0.7,1.7,1.8c0,1-0.6,1.8-1.7,1.8
			C536.3,517.3,535.7,516.6,535.7,515.6z"/>
	</g>
	<g>
		<path fill="#333333" d="M316.1,570.2c0.7,0.4,2.3,1.1,4,1.1c3.2,0,4.1-2,4.1-3.5c0-2.5-2.3-3.6-4.7-3.6h-1.4v-1.8h1.4
			c1.8,0,4.1-0.9,4.1-3.1c0-1.5-0.9-2.7-3.2-2.7c-1.5,0-2.9,0.6-3.6,1.2l-0.6-1.8c1-0.7,2.8-1.4,4.8-1.4c3.6,0,5.2,2.1,5.2,4.3
			c0,1.9-1.1,3.5-3.4,4.3v0.1c2.2,0.4,4.1,2.1,4.1,4.7c0,2.9-2.3,5.5-6.6,5.5c-2,0-3.8-0.6-4.7-1.2L316.1,570.2z"/>
		<path fill="#333333" d="M329.2,571.6c0-1,0.7-1.8,1.7-1.8s1.7,0.7,1.7,1.8c0,1-0.6,1.8-1.7,1.8
			C329.9,573.3,329.2,572.6,329.2,571.6z"/>
	</g>
	<g>
		<path fill="#333333" d="M368.5,563.4c0,6.5-3.9,9.9-8.8,9.9c-5,0-8.5-3.9-8.5-9.6c0-6,3.7-9.9,8.8-9.9
			C365.1,553.8,368.5,557.8,368.5,563.4z M353.8,563.7c0,4,2.2,7.6,6,7.6c3.9,0,6-3.6,6-7.8c0-3.8-2-7.7-6-7.7
			C355.9,555.8,353.8,559.5,353.8,563.7z"/>
		<path fill="#333333" d="M371.2,554.4c1.2-0.2,2.7-0.4,4.7-0.4c2.4,0,4.2,0.6,5.3,1.6c1,0.9,1.7,2.3,1.7,3.9c0,1.7-0.5,3.1-1.5,4
			c-1.3,1.4-3.4,2.1-5.8,2.1c-0.7,0-1.4,0-2-0.2v7.6h-2.4L371.2,554.4L371.2,554.4z M373.6,563.5c0.5,0.1,1.2,0.2,2,0.2
			c2.9,0,4.7-1.4,4.7-4c0-2.5-1.8-3.7-4.5-3.7c-1.1,0-1.9,0.1-2.3,0.2L373.6,563.5L373.6,563.5z"/>
		<path fill="#333333" d="M385,570c1.1,0.7,2.7,1.2,4.4,1.2c2.5,0,3.9-1.3,3.9-3.2c0-1.8-1-2.8-3.6-3.8c-3.1-1.1-5-2.7-5-5.3
			c0-2.9,2.4-5.1,6.1-5.1c1.9,0,3.3,0.4,4.2,0.9l-0.7,2c-0.6-0.3-1.9-0.9-3.6-0.9c-2.6,0-3.6,1.5-3.6,2.8c0,1.8,1.1,2.6,3.8,3.6
			c3.2,1.2,4.8,2.8,4.8,5.5c0,2.9-2.2,5.4-6.6,5.4c-1.8,0-3.8-0.5-4.8-1.2L385,570z"/>
		<path fill="#333333" d="M400.4,554.1v11.2c0,4.2,1.9,6,4.4,6c2.8,0,4.6-1.8,4.6-6v-11.2h2.5v11c0,5.8-3.1,8.2-7.1,8.2
			c-3.9,0-6.8-2.2-6.8-8.1v-11.1L400.4,554.1L400.4,554.1z"/>
		<path fill="#333333" d="M431.2,564.7c-0.1-2.6-0.3-5.8-0.3-8.1h-0.1c-0.6,2.2-1.4,4.6-2.4,7.2l-3.3,9.2h-1.8l-3.1-9
			c-0.9-2.7-1.7-5.1-2.2-7.3l0,0c-0.1,2.4-0.2,5.5-0.4,8.3l-0.5,8.1h-2.3l1.3-18.9h3.1l3.2,9.1c0.8,2.3,1.4,4.4,1.9,6.4h0.1
			c0.5-1.9,1.1-4,2-6.4l3.4-9.1h3.1l1.2,18.9h-2.4L431.2,564.7z"/>
		<path fill="#333333" d="M439.7,554.1V573h-2.4v-18.9H439.7z"/>
		<path fill="#333333" d="M447.1,556.2h-5.7v-2.1h14v2.1h-5.8V573h-2.5V556.2z"/>
		<path fill="#333333" d="M462.6,570c1.1,0.7,2.7,1.2,4.4,1.2c2.5,0,3.9-1.3,3.9-3.2c0-1.8-1-2.8-3.6-3.8c-3.1-1.1-5-2.7-5-5.3
			c0-2.9,2.4-5.1,6.1-5.1c1.9,0,3.3,0.4,4.2,0.9l-0.7,2c-0.6-0.3-1.9-0.9-3.6-0.9c-2.6,0-3.6,1.5-3.6,2.8c0,1.8,1.1,2.6,3.8,3.6
			c3.2,1.2,4.8,2.8,4.8,5.5c0,2.9-2.2,5.4-6.6,5.4c-1.8,0-3.8-0.5-4.8-1.2L462.6,570z"/>
		<path fill="#333333" d="M487.1,569.3c0,1.4,0,2.6,0.1,3.7H485l-0.1-2.2h-0.1c-0.6,1.1-2.1,2.5-4.5,2.5c-2.1,0-4.7-1.2-4.7-5.9
			v-7.9h2.5v7.5c0,2.6,0.8,4.3,3,4.3c1.7,0,2.8-1.1,3.2-2.2c0.1-0.4,0.2-0.8,0.2-1.3v-8.3h2.5v9.8L487.1,569.3L487.1,569.3z"/>
		<path fill="#333333" d="M490.5,563.1c0-1.4,0-2.5-0.1-3.7h2.2l0.1,2.2h0.1c0.8-1.3,2-2.5,4.3-2.5c1.8,0,3.2,1.1,3.8,2.7h0.1
			c0.4-0.8,1-1.3,1.5-1.8c0.8-0.6,1.7-1,3-1c1.8,0,4.5,1.2,4.5,5.9v8h-2.4v-7.7c0-2.6-1-4.2-2.9-4.2c-1.4,0-2.5,1-2.9,2.2
			c-0.1,0.3-0.2,0.8-0.2,1.2v8.4H499v-8.1c0-2.2-1-3.7-2.8-3.7c-1.5,0-2.7,1.2-3.1,2.5c-0.1,0.4-0.2,0.8-0.2,1.2v8.2h-2.4V563.1z"/>
		<path fill="#333333" d="M513.2,563.1c0-1.4,0-2.5-0.1-3.7h2.2l0.1,2.2h0.1c0.8-1.3,2-2.5,4.3-2.5c1.8,0,3.2,1.1,3.8,2.7h0.1
			c0.4-0.8,1-1.3,1.5-1.8c0.8-0.6,1.7-1,3-1c1.8,0,4.5,1.2,4.5,5.9v8h-2.4v-7.7c0-2.6-1-4.2-2.9-4.2c-1.4,0-2.5,1-2.9,2.2
			c-0.1,0.3-0.2,0.8-0.2,1.2v8.4h-2.4v-8.1c0-2.2-1-3.7-2.8-3.7c-1.5,0-2.7,1.2-3.1,2.5c-0.1,0.4-0.2,0.8-0.2,1.2v8.2h-2.4v-9.8
			L513.2,563.1L513.2,563.1z"/>
		<path fill="#333333" d="M543.4,573l-0.2-1.7h-0.1c-0.8,1.1-2.2,2-4.1,2c-2.7,0-4.1-1.9-4.1-3.9c0-3.3,2.9-5.1,8.1-5v-0.3
			c0-1.1-0.3-3.1-3.1-3.1c-1.3,0-2.6,0.4-3.5,1l-0.6-1.6c1.1-0.7,2.7-1.2,4.5-1.2c4.1,0,5.2,2.8,5.2,5.5v5.1c0,1.2,0.1,2.3,0.2,3.2
			H543.4z M543,566.1c-2.7-0.1-5.7,0.4-5.7,3.1c0,1.6,1.1,2.4,2.3,2.4c1.8,0,2.9-1.1,3.3-2.3c0.1-0.3,0.1-0.5,0.1-0.8L543,566.1
			L543,566.1z"/>
		<path fill="#333333" d="M548.7,563.7c0-1.6,0-3-0.1-4.2h2.2l0.1,2.7h0.1c0.6-1.8,2.1-3,3.8-3c0.3,0,0.5,0,0.7,0.1v2.3
			c-0.3-0.1-0.5-0.1-0.8-0.1c-1.7,0-3,1.3-3.3,3.2c-0.1,0.3-0.1,0.7-0.1,1.1v7.2h-2.4v-9.3H548.7z"/>
		<path fill="#333333" d="M559,559.5l3,8c0.3,0.9,0.6,2,0.9,2.8h0.1c0.3-0.8,0.5-1.8,0.9-2.8l2.7-8h2.6l-3.7,9.7
			c-1.8,4.6-3,7-4.6,8.5c-1.2,1.1-2.4,1.5-3,1.6l-0.6-2.1c0.6-0.2,1.4-0.6,2.2-1.2c0.7-0.5,1.5-1.5,2.1-2.7c0.1-0.3,0.2-0.4,0.2-0.6
			s-0.1-0.3-0.2-0.6l-5-12.5h2.4L559,559.5L559,559.5z"/>
		<path fill="#333333" d="M589,566.1c0,5-3.5,7.2-6.7,7.2c-3.7,0-6.5-2.7-6.5-7c0-4.5,3-7.2,6.7-7.2C586.4,559.1,589,562,589,566.1z
			 M578.3,566.3c0,3,1.7,5.2,4.1,5.2c2.4,0,4.1-2.2,4.1-5.3c0-2.3-1.1-5.2-4.1-5.2S578.3,563.7,578.3,566.3z"/>
		<path fill="#333333" d="M591.7,573v-11.7h-1.9v-1.9h1.9v-0.6c0-1.9,0.4-3.6,1.6-4.7c0.9-0.9,2.2-1.3,3.3-1.3
			c0.9,0,1.6,0.2,2.1,0.4l-0.3,1.9c-0.4-0.2-0.9-0.3-1.6-0.3c-2.1,0-2.6,1.8-2.6,3.9v0.7h3.3v1.9h-3.3V573H591.7z"/>
		<path fill="#333333" d="M605.2,554.4c1.2-0.2,2.7-0.4,4.7-0.4c2.4,0,4.2,0.6,5.3,1.6c1,0.9,1.7,2.3,1.7,3.9c0,1.7-0.5,3.1-1.5,4
			c-1.3,1.4-3.4,2.1-5.8,2.1c-0.7,0-1.4,0-2-0.2v7.6h-2.4V554.4z M607.6,563.5c0.5,0.1,1.2,0.2,2,0.2c2.9,0,4.7-1.4,4.7-4
			c0-2.5-1.8-3.7-4.5-3.7c-1.1,0-1.9,0.1-2.3,0.2L607.6,563.5L607.6,563.5z"/>
		<path fill="#333333" d="M619,563.7c0-1.6,0-3-0.1-4.2h2.2l0.1,2.7h0.1c0.6-1.8,2.1-3,3.8-3c0.3,0,0.5,0,0.7,0.1v2.3
			c-0.3-0.1-0.5-0.1-0.8-0.1c-1.7,0-3,1.3-3.3,3.2c-0.1,0.3-0.1,0.7-0.1,1.1v7.2H619V563.7z"/>
		<path fill="#333333" d="M639.7,566.1c0,5-3.5,7.2-6.7,7.2c-3.7,0-6.5-2.7-6.5-7c0-4.5,3-7.2,6.7-7.2
			C637.1,559.1,639.7,562,639.7,566.1z M629,566.3c0,3,1.7,5.2,4.1,5.2c2.4,0,4.1-2.2,4.1-5.3c0-2.3-1.1-5.2-4.1-5.2
			S629,563.7,629,566.3z"/>
		<path fill="#333333" d="M654.2,553.1v16.4c0,1.2,0,2.6,0.1,3.5h-2.2l-0.1-2.4h-0.1c-0.8,1.5-2.4,2.7-4.6,2.7
			c-3.3,0-5.8-2.8-5.8-6.9c0-4.5,2.8-7.3,6.1-7.3c2.1,0,3.5,1,4.1,2.1h0.1v-8.1H654.2z M651.7,565c0-0.3,0-0.7-0.1-1
			c-0.4-1.6-1.7-2.9-3.6-2.9c-2.5,0-4.1,2.2-4.1,5.2c0,2.7,1.3,5,4,5c1.7,0,3.2-1.1,3.6-2.9c0.1-0.3,0.1-0.7,0.1-1.1L651.7,565
			L651.7,565z"/>
		<path fill="#333333" d="M668.8,569.3c0,1.4,0,2.6,0.1,3.7h-2.2l-0.1-2.2h-0.1c-0.6,1.1-2.1,2.5-4.5,2.5c-2.1,0-4.7-1.2-4.7-5.9
			v-7.9h2.5v7.5c0,2.6,0.8,4.3,3,4.3c1.7,0,2.8-1.1,3.2-2.2c0.1-0.4,0.2-0.8,0.2-1.3v-8.3h2.5L668.8,569.3L668.8,569.3z"/>
		<path fill="#333333" d="M682,572.5c-0.6,0.3-2.1,0.8-3.9,0.8c-4.1,0-6.7-2.8-6.7-6.9c0-4.2,2.9-7.2,7.3-7.2c1.5,0,2.7,0.4,3.4,0.7
			l-0.6,1.9c-0.6-0.3-1.5-0.6-2.9-0.6c-3.1,0-4.8,2.3-4.8,5.1c0,3.1,2,5.1,4.7,5.1c1.4,0,2.3-0.4,3-0.7L682,572.5z"/>
		<path fill="#333333" d="M687.9,555.6v3.9h3.5v1.9h-3.5v7.3c0,1.7,0.5,2.6,1.8,2.6c0.6,0,1.1-0.1,1.4-0.2l0.1,1.8
			c-0.5,0.2-1.2,0.3-2.2,0.3c-1.1,0-2.1-0.4-2.7-1c-0.7-0.7-1-1.9-1-3.5v-7.4h-2.1v-1.9h2.1v-3.2L687.9,555.6z"/>
		<path fill="#333333" d="M712.8,572.4c-0.9,0.4-2.7,0.9-5,0.9c-5.3,0-9.3-3.4-9.3-9.5c0-5.9,4-9.9,9.9-9.9c2.4,0,3.8,0.5,4.5,0.8
			l-0.6,2c-0.9-0.4-2.2-0.8-3.8-0.8c-4.4,0-7.4,2.8-7.4,7.8c0,4.6,2.7,7.6,7.3,7.6c1.5,0,3-0.3,4-0.8L712.8,572.4z"/>
		<path fill="#333333" d="M715,553.1h2.5v8.5h0.1c0.4-0.7,1-1.3,1.8-1.7c0.7-0.4,1.6-0.7,2.5-0.7c1.8,0,4.7,1.1,4.7,5.8v8.1H724
			v-7.8c0-2.2-0.8-4-3.1-4c-1.6,0-2.9,1.1-3.3,2.5c-0.1,0.3-0.2,0.7-0.2,1.2v8.2H715V553.1z"/>
		<path fill="#333333" d="M737.3,573l-0.2-1.7H737c-0.8,1.1-2.2,2-4.1,2c-2.7,0-4.1-1.9-4.1-3.9c0-3.3,2.9-5.1,8.1-5v-0.3
			c0-1.1-0.3-3.1-3.1-3.1c-1.3,0-2.6,0.4-3.5,1l-0.6-1.6c1.1-0.7,2.7-1.2,4.5-1.2c4.1,0,5.2,2.8,5.2,5.5v5.1c0,1.2,0.1,2.3,0.2,3.2
			H737.3z M737,566.1c-2.7-0.1-5.7,0.4-5.7,3.1c0,1.6,1.1,2.4,2.3,2.4c1.8,0,2.9-1.1,3.3-2.3c0.1-0.3,0.1-0.5,0.1-0.8L737,566.1
			L737,566.1z"/>
		<path fill="#333333" d="M742.6,563.7c0-1.6,0-3-0.1-4.2h2.2l0.1,2.7h0.1c0.6-1.8,2.1-3,3.8-3c0.3,0,0.5,0,0.7,0.1v2.3
			c-0.3-0.1-0.5-0.1-0.8-0.1c-1.7,0-3,1.3-3.3,3.2c-0.1,0.3-0.1,0.7-0.1,1.1v7.2h-2.4v-9.3H742.6z"/>
		<path fill="#333333" d="M758.7,573l-0.2-1.7h-0.1c-0.8,1.1-2.2,2-4.1,2c-2.7,0-4.1-1.9-4.1-3.9c0-3.3,2.9-5.1,8.1-5v-0.3
			c0-1.1-0.3-3.1-3.1-3.1c-1.3,0-2.6,0.4-3.5,1l-0.6-1.6c1.1-0.7,2.7-1.2,4.5-1.2c4.1,0,5.2,2.8,5.2,5.5v5.1c0,1.2,0.1,2.3,0.2,3.2
			H758.7z M758.3,566.1c-2.7-0.1-5.7,0.4-5.7,3.1c0,1.6,1.1,2.4,2.3,2.4c1.8,0,2.9-1.1,3.3-2.3c0.1-0.3,0.1-0.5,0.1-0.8L758.3,566.1
			L758.3,566.1z"/>
		<path fill="#333333" d="M773.7,572.5c-0.6,0.3-2.1,0.8-3.9,0.8c-4.1,0-6.7-2.8-6.7-6.9c0-4.2,2.9-7.2,7.3-7.2
			c1.5,0,2.7,0.4,3.4,0.7l-0.6,1.9c-0.6-0.3-1.5-0.6-2.9-0.6c-3.1,0-4.8,2.3-4.8,5.1c0,3.1,2,5.1,4.7,5.1c1.4,0,2.3-0.4,3-0.7
			L773.7,572.5z"/>
		<path fill="#333333" d="M779.6,555.6v3.9h3.5v1.9h-3.5v7.3c0,1.7,0.5,2.6,1.8,2.6c0.6,0,1.1-0.1,1.4-0.2l0.1,1.8
			c-0.5,0.2-1.2,0.3-2.2,0.3c-1.1,0-2.1-0.4-2.7-1c-0.7-0.7-1-1.9-1-3.5v-7.4h-2.1v-1.9h2.1v-3.2L779.6,555.6z"/>
		<path fill="#333333" d="M786.4,566.7c0.1,3.3,2.2,4.7,4.6,4.7c1.8,0,2.8-0.3,3.8-0.7l0.4,1.8c-0.9,0.4-2.4,0.8-4.5,0.8
			c-4.2,0-6.7-2.7-6.7-6.8s2.4-7.3,6.4-7.3c4.4,0,5.6,3.9,5.6,6.4c0,0.5-0.1,0.9-0.1,1.1H786.4z M793.6,564.9c0-1.6-0.6-4-3.4-4
			c-2.5,0-3.6,2.3-3.8,4H793.6z"/>
		<path fill="#333333" d="M798.5,563.7c0-1.6,0-3-0.1-4.2h2.2l0.1,2.7h0.1c0.6-1.8,2.1-3,3.8-3c0.3,0,0.5,0,0.7,0.1v2.3
			c-0.3-0.1-0.5-0.1-0.8-0.1c-1.7,0-3,1.3-3.3,3.2c-0.1,0.3-0.1,0.7-0.1,1.1v7.2h-2.4v-9.3H798.5z"/>
		<path fill="#333333" d="M809.8,555.6c0,0.8-0.6,1.5-1.6,1.5c-0.9,0-1.5-0.7-1.5-1.5c0-0.9,0.6-1.5,1.5-1.5
			C809.2,554.1,809.8,554.8,809.8,555.6z M807,573v-13.6h2.5V573H807z"/>
		<path fill="#333333" d="M812.5,570.5c0.7,0.5,2,1,3.2,1c1.8,0,2.6-0.9,2.6-2c0-1.2-0.7-1.8-2.5-2.5c-2.4-0.9-3.6-2.2-3.6-3.8
			c0-2.2,1.8-4,4.7-4c1.4,0,2.6,0.4,3.3,0.8l-0.6,1.8c-0.5-0.3-1.5-0.8-2.8-0.8c-1.5,0-2.3,0.8-2.3,1.8c0,1.1,0.8,1.6,2.6,2.3
			c2.4,0.9,3.6,2.1,3.6,4.1c0,2.4-1.8,4.1-5.1,4.1c-1.5,0-2.9-0.4-3.8-0.9L812.5,570.5z"/>
		<path fill="#333333" d="M826.5,555.6v3.9h3.5v1.9h-3.5v7.3c0,1.7,0.5,2.6,1.8,2.6c0.6,0,1.1-0.1,1.4-0.2l0.1,1.8
			c-0.5,0.2-1.2,0.3-2.2,0.3c-1.1,0-2.1-0.4-2.7-1c-0.7-0.7-1-1.9-1-3.5v-7.4H822v-1.9h2.1v-3.2L826.5,555.6z"/>
		<path fill="#333333" d="M834.8,555.6c0,0.8-0.6,1.5-1.6,1.5c-0.9,0-1.5-0.7-1.5-1.5c0-0.9,0.6-1.5,1.5-1.5
			C834.2,554.1,834.8,554.8,834.8,555.6z M832,573v-13.6h2.5V573H832z"/>
		<path fill="#333333" d="M847.6,572.5c-0.6,0.3-2.1,0.8-3.9,0.8c-4.1,0-6.7-2.8-6.7-6.9c0-4.2,2.9-7.2,7.3-7.2
			c1.5,0,2.7,0.4,3.4,0.7l-0.6,1.9c-0.6-0.3-1.5-0.6-2.9-0.6c-3.1,0-4.8,2.3-4.8,5.1c0,3.1,2,5.1,4.7,5.1c1.4,0,2.3-0.4,3-0.7
			L847.6,572.5z"/>
		<path fill="#333333" d="M849.8,570.5c0.7,0.5,2,1,3.2,1c1.8,0,2.6-0.9,2.6-2c0-1.2-0.7-1.8-2.5-2.5c-2.4-0.9-3.6-2.2-3.6-3.8
			c0-2.2,1.8-4,4.7-4c1.4,0,2.6,0.4,3.3,0.8l-0.6,1.8c-0.5-0.3-1.5-0.8-2.8-0.8c-1.5,0-2.3,0.8-2.3,1.8c0,1.1,0.8,1.6,2.6,2.3
			c2.4,0.9,3.6,2.1,3.6,4.1c0,2.4-1.8,4.1-5.1,4.1c-1.5,0-2.9-0.4-3.8-0.9L849.8,570.5z"/>
		<path fill="#333333" d="M859.1,576.5c0.6-1.7,1.4-4.6,1.7-6.7l2.7-0.3c-0.6,2.4-1.9,5.5-2.7,6.8L859.1,576.5z"/>
		<path fill="#333333" d="M875.1,567.1l-2,5.9h-2.5l6.4-18.9h2.9l6.4,18.9h-2.6l-2-5.9H875.1z M881.3,565.2l-1.8-5.4
			c-0.4-1.2-0.7-2.4-1-3.4h-0.1c-0.3,1.1-0.6,2.3-1,3.4l-1.8,5.5L881.3,565.2L881.3,565.2z"/>
		<path fill="#333333" d="M888.4,563.9c0-1.7-0.1-3.1-0.1-4.4h2.2l0.1,2.3h0.1c1-1.7,2.6-2.6,4.8-2.6c3.3,0,5.7,2.8,5.7,6.9
			c0,4.9-3,7.3-6.2,7.3c-1.8,0-3.4-0.8-4.2-2.1h-0.1v7.4h-2.4v-14.8L888.4,563.9L888.4,563.9z M890.8,567.5c0,0.4,0.1,0.7,0.1,1
			c0.4,1.7,1.9,2.9,3.7,2.9c2.6,0,4.1-2.1,4.1-5.2c0-2.7-1.4-5-4-5c-1.7,0-3.2,1.2-3.7,3.1c-0.1,0.3-0.2,0.7-0.2,1L890.8,567.5
			L890.8,567.5z"/>
		<path fill="#333333" d="M903.8,563.7c0-1.6,0-3-0.1-4.2h2.2l0.1,2.7h0.1c0.6-1.8,2.1-3,3.8-3c0.3,0,0.5,0,0.7,0.1v2.3
			c-0.3-0.1-0.5-0.1-0.8-0.1c-1.7,0-3,1.3-3.3,3.2c-0.1,0.3-0.1,0.7-0.1,1.1v7.2H904v-9.3H903.8z"/>
		<path fill="#333333" d="M915.1,555.6c0,0.8-0.6,1.5-1.6,1.5c-0.9,0-1.5-0.7-1.5-1.5c0-0.9,0.6-1.5,1.5-1.5
			C914.5,554.1,915.1,554.8,915.1,555.6z M912.3,573v-13.6h2.5V573H912.3z"/>
		<path fill="#333333" d="M918.2,553.1h2.5V573h-2.5V553.1z"/>
		<path fill="#333333" d="M929.4,573v-1.5l1.9-1.9c4.6-4.4,6.7-6.8,6.8-9.5c0-1.8-0.9-3.6-3.6-3.6c-1.7,0-3,0.8-3.9,1.5l-0.8-1.7
			c1.3-1.1,3.1-1.8,5.2-1.8c3.9,0,5.6,2.7,5.6,5.3c0,3.4-2.4,6.1-6.3,9.8l-1.5,1.3v0.1h8.2v2L929.4,573L929.4,573z"/>
		<path fill="#333333" d="M954.9,563.7c0,6.2-2.3,9.6-6.3,9.6c-3.6,0-6-3.3-6-9.4c0-6.1,2.6-9.5,6.3-9.5
			C952.7,554.5,954.9,557.9,954.9,563.7z M945,564c0,4.7,1.5,7.4,3.7,7.4c2.5,0,3.7-2.9,3.7-7.6c0-4.5-1.1-7.4-3.7-7.4
			C946.6,556.4,945,559,945,564z"/>
		<path fill="#333333" d="M955.7,573v-1.5l1.9-1.9c4.6-4.4,6.7-6.8,6.8-9.5c0-1.8-0.9-3.6-3.6-3.6c-1.7,0-3,0.8-3.9,1.5l-0.8-1.7
			c1.3-1.1,3.1-1.8,5.2-1.8c3.9,0,5.6,2.7,5.6,5.3c0,3.4-2.4,6.1-6.3,9.8l-1.5,1.3v0.1h8.2v2L955.7,573L955.7,573z"/>
		<path fill="#333333" d="M973.4,557.1L973.4,557.1l-3.2,1.7l-0.5-1.9l4-2.1h2.1V573h-2.4L973.4,557.1L973.4,557.1z"/>
		<path fill="#333333" d="M980.5,571.6c0-1,0.7-1.8,1.7-1.8s1.7,0.7,1.7,1.8c0,1-0.6,1.8-1.7,1.8
			C981.2,573.3,980.5,572.6,980.5,571.6z"/>
	</g>
	<g>
		<path fill="#333333" d="M323.1,629v-5h-8.5v-1.6l8.1-11.6h2.7v11.3h2.5v1.9h-2.5v5L323.1,629L323.1,629z M323.1,622.1V616
			c0-1,0-1.9,0.1-2.9h-0.1c-0.6,1.1-1,1.8-1.5,2.7l-4.5,6.2v0.1H323.1z"/>
		<path fill="#333333" d="M329.4,627.6c0-1,0.7-1.8,1.7-1.8s1.7,0.7,1.7,1.8c0,1-0.6,1.8-1.7,1.8
			C330.1,629.3,329.4,628.6,329.4,627.6z"/>
	</g>
	<g>
		<path fill="#333333" d="M366.7,628.2c-1.1,0.4-3.2,1-5.8,1c-2.9,0-5.2-0.7-7.1-2.5c-1.6-1.6-2.6-4.1-2.6-7c0-5.6,3.9-9.7,10.2-9.7
			c2.2,0,3.9,0.5,4.7,0.9l-0.6,2c-1-0.4-2.3-0.8-4.2-0.8c-4.6,0-7.6,2.9-7.6,7.6c0,4.8,2.9,7.6,7.3,7.6c1.6,0,2.7-0.2,3.2-0.5v-5.6
			h-3.8v-2h6.2L366.7,628.2L366.7,628.2z"/>
		<path fill="#333333" d="M377.4,629l-0.2-1.7h-0.1c-0.8,1.1-2.2,2-4.1,2c-2.7,0-4.1-1.9-4.1-3.9c0-3.3,2.9-5.1,8.1-5v-0.3
			c0-1.1-0.3-3.1-3.1-3.1c-1.3,0-2.6,0.4-3.5,1l-0.6-1.6c1.1-0.7,2.7-1.2,4.5-1.2c4.1,0,5.2,2.8,5.2,5.5v5.1c0,1.2,0.1,2.3,0.2,3.2
			H377.4z M377.1,622.1c-2.7-0.1-5.7,0.4-5.7,3.1c0,1.6,1.1,2.4,2.3,2.4c1.8,0,2.9-1.1,3.3-2.3c0.1-0.3,0.1-0.5,0.1-0.8L377.1,622.1
			L377.1,622.1z"/>
		<path fill="#333333" d="M382.8,609.1h2.5V629h-2.5V609.1z"/>
		<path fill="#333333" d="M391.4,611.6c0,0.8-0.6,1.5-1.6,1.5c-0.9,0-1.5-0.7-1.5-1.5c0-0.9,0.6-1.5,1.5-1.5
			C390.8,610.1,391.4,610.8,391.4,611.6z M388.6,629v-13.6h2.5V629H388.6z"/>
		<path fill="#333333" d="M395.9,622.7c0.1,3.3,2.2,4.7,4.6,4.7c1.8,0,2.8-0.3,3.8-0.7l0.4,1.8c-0.9,0.4-2.4,0.8-4.5,0.8
			c-4.2,0-6.7-2.7-6.7-6.8s2.4-7.3,6.4-7.3c4.4,0,5.6,3.9,5.6,6.4c0,0.5-0.1,0.9-0.1,1.1H395.9z M403.2,620.9c0-1.6-0.6-4-3.4-4
			c-2.5,0-3.6,2.3-3.8,4H403.2z M399,609.6l2.5,4h-1.8l-3.4-4H399z"/>
		<path fill="#333333" d="M414.1,629v-18.9h2.7l6,9.5c1.4,2.2,2.5,4.2,3.4,6.1h0.1c-0.2-2.5-0.3-4.8-0.3-7.8V610h2.3v19h-2.5l-6-9.6
			c-1.3-2.1-2.6-4.3-3.5-6.3h-0.1c0.1,2.4,0.2,4.6,0.2,7.8v8.1H414.1z"/>
	</g>
	<g>
		<path fill="#333333" d="M446.2,628.2c-1,0.6-2.7,1.1-4.5,1.1c-3.6,0-5.2-2.4-5.2-5.4c0-4.1,3-8.7,7.4-8.7c2.6,0,4,1.5,4,3.5
			c0,3.6-4,4.5-9,4.4c-0.1,0.6,0,1.8,0.3,2.6c0.5,1.2,1.6,1.8,3,1.8c1.6,0,2.8-0.5,3.6-1L446.2,628.2z M443.6,617
			c-2.2,0-3.9,2.2-4.4,4.3c3.6,0,6.5-0.4,6.5-2.5C445.7,617.6,444.9,617,443.6,617z"/>
		<path fill="#333333" d="M454.7,611.8l-0.7,3.6h3.2l-0.4,1.8h-3.2l-1.3,6.6c-0.1,0.8-0.3,1.5-0.3,2.2c0,0.8,0.4,1.3,1.3,1.3
			c0.4,0,0.8,0,1.1-0.1l-0.1,1.8c-0.4,0.2-1.1,0.3-1.8,0.3c-2.1,0-2.9-1.3-2.9-2.6c0-0.8,0.1-1.6,0.3-2.5l1.3-6.9h-2l0.4-1.8h1.9
			l0.6-3.1L454.7,611.8z"/>
		<path fill="#333333" d="M470.9,629c0-0.8,0.1-2.1,0.3-3.5h-0.1c-1.5,2.8-3.3,3.8-5.3,3.8c-2.4,0-3.9-1.9-3.9-4.5
			c0-4.7,3.5-9.7,9.4-9.7c1.3,0,2.7,0.2,3.6,0.5l-1.4,7.1c-0.4,2.4-0.6,4.8-0.6,6.3L470.9,629L470.9,629z M472.4,617.2
			c-0.3-0.1-0.8-0.2-1.6-0.2c-3.5,0-6.4,3.7-6.4,7.4c0,1.5,0.5,3,2.3,3c1.9,0,4.2-2.5,4.9-6.1L472.4,617.2z"/>
		<path fill="#333333" d="M475.9,629l3.8-19.9h2.3l-3.8,19.9H475.9z"/>
		<path fill="#333333" d="M481.4,627.7c0-1,0.7-1.9,1.8-1.9c1,0,1.6,0.7,1.6,1.7s-0.7,1.8-1.8,1.8
			C482,629.3,481.4,628.6,481.4,627.7z"/>
		<path fill="#333333" d="M503,620.1h-6.9l-1.3,6.9h7.7l-0.4,2H492l3.6-18.9h9.6l-0.4,2h-7.3l-1.1,6h6.9L503,620.1z"/>
		<path fill="#333333" d="M517.5,615.5l-1.8,9.6c-0.3,1.5-0.5,2.8-0.6,3.9H513l0.4-2.5h-0.1c-1.2,1.8-3,2.9-4.8,2.9
			c-1.7,0-3.6-0.8-3.6-3.9c0-0.6,0.1-1.4,0.3-2.3l1.5-7.7h2.3l-1.4,7.6c-0.2,0.8-0.3,1.4-0.3,2c0,1.4,0.6,2.4,2.2,2.4
			c1.7,0,3.8-2,4.4-5l1.3-6.9L517.5,615.5L517.5,615.5z"/>
		<path fill="#333333" d="M518.4,629l1.7-8.7c0.3-1.8,0.6-3.6,0.7-4.8h2c-0.1,1-0.2,1.9-0.4,2.9h0.1c0.9-1.8,2.3-3.2,4.1-3.2
			c0.2,0,0.5,0,0.6,0.1l-0.4,2.3c-0.1,0-0.4-0.1-0.6-0.1c-2,0-3.8,2.4-4.4,5.6l-1.1,6L518.4,629L518.4,629z"/>
		<path fill="#333333" d="M537.9,610.1l-1.5,8h8.7l1.5-8h2.4l-3.6,18.9H543l1.7-8.9H536l-1.7,8.9H532l3.6-18.9H537.9z"/>
		<path fill="#333333" d="M558.7,628.2c-1,0.6-2.7,1.1-4.5,1.1c-3.6,0-5.2-2.4-5.2-5.4c0-4.1,3-8.7,7.4-8.7c2.6,0,4,1.5,4,3.5
			c0,3.6-4,4.5-9,4.4c-0.1,0.6,0,1.8,0.3,2.6c0.5,1.2,1.6,1.8,3,1.8c1.6,0,2.8-0.5,3.6-1L558.7,628.2z M556.1,617
			c-2.2,0-3.9,2.2-4.4,4.3c3.6,0,6.5-0.4,6.5-2.5C558.2,617.6,557.3,617,556.1,617z"/>
		<path fill="#333333" d="M570,629c0-0.8,0.1-2.1,0.3-3.5h-0.1c-1.5,2.8-3.3,3.8-5.3,3.8c-2.4,0-3.9-1.9-3.9-4.5
			c0-4.7,3.5-9.7,9.4-9.7c1.3,0,2.7,0.2,3.6,0.5l-1.4,7.1c-0.4,2.4-0.6,4.8-0.6,6.3L570,629L570,629z M571.5,617.2
			c-0.3-0.1-0.8-0.2-1.6-0.2c-3.5,0-6.4,3.7-6.4,7.4c0,1.5,0.5,3,2.3,3c1.9,0,4.2-2.5,4.9-6.1L571.5,617.2z"/>
		<path fill="#333333" d="M575,629l1.7-8.7c0.3-1.8,0.6-3.6,0.7-4.8h2c-0.1,1-0.2,1.9-0.4,2.9h0.1c0.9-1.8,2.3-3.2,4.1-3.2
			c0.2,0,0.5,0,0.6,0.1l-0.4,2.3c-0.1,0-0.4-0.1-0.6-0.1c-2,0-3.8,2.4-4.4,5.6l-1.1,6L575,629L575,629z"/>
		<path fill="#333333" d="M590,611.8l-0.7,3.6h3.2l-0.4,1.8h-3.2l-1.3,6.6c-0.1,0.8-0.3,1.5-0.3,2.2c0,0.8,0.4,1.3,1.3,1.3
			c0.4,0,0.8,0,1.1-0.1l-0.1,1.8c-0.4,0.2-1.1,0.3-1.8,0.3c-2.1,0-2.9-1.3-2.9-2.6c0-0.8,0.1-1.6,0.3-2.5l1.3-6.9h-2l0.4-1.8h1.9
			l0.6-3.1L590,611.8z"/>
		<path fill="#333333" d="M596.1,626.9c0.6,0.3,1.4,0.4,2.4,0.4c2,0,3.2-1,3.9-4.4l2.4-12.7h2.3l-2.5,13c-0.8,4.4-2.7,6.2-6.2,6.2
			c-1.1,0-2.3-0.3-2.8-0.5L596.1,626.9z"/>
	</g>
	<g>
		<path fill="#333333" d="M612.1,629v-1.5l1.9-1.9c4.6-4.4,6.7-6.8,6.8-9.5c0-1.8-0.9-3.6-3.6-3.6c-1.7,0-3,0.8-3.9,1.5l-0.8-1.7
			c1.3-1.1,3.1-1.8,5.2-1.8c3.9,0,5.6,2.7,5.6,5.3c0,3.4-2.4,6.1-6.3,9.8l-1.5,1.3v0.1h8.2v2L612.1,629L612.1,629z"/>
		<path fill="#333333" d="M637.6,619.7c0,6.2-2.3,9.6-6.3,9.6c-3.6,0-6-3.3-6-9.4c0-6.1,2.6-9.5,6.3-9.5
			C635.4,610.5,637.6,613.9,637.6,619.7z M627.7,620c0,4.7,1.5,7.4,3.7,7.4c2.5,0,3.7-2.9,3.7-7.6c0-4.5-1.1-7.4-3.7-7.4
			C629.3,612.4,627.7,615,627.7,620z"/>
		<path fill="#333333" d="M643.3,613.1L643.3,613.1l-3.2,1.7l-0.5-1.9l4-2.1h2.1V629h-2.4L643.3,613.1L643.3,613.1z"/>
		<path fill="#333333" d="M660.6,612.5c-0.5,0-1.1,0-1.8,0.1c-3.9,0.6-5.9,3.5-6.3,6.5h0.1c0.9-1.1,2.4-2.1,4.4-2.1
			c3.2,0,5.5,2.3,5.5,5.9c0,3.3-2.3,6.4-6,6.4c-3.9,0-6.4-3-6.4-7.8c0-3.6,1.3-6.4,3.1-8.2c1.5-1.5,3.5-2.4,5.8-2.7
			c0.7-0.1,1.3-0.1,1.8-0.1v2L660.6,612.5L660.6,612.5z M659.9,623c0-2.6-1.5-4.2-3.8-4.2c-1.5,0-2.9,0.9-3.5,2.2
			c-0.2,0.3-0.3,0.6-0.3,1.1c0.1,3,1.4,5.2,4,5.2C658.5,627.4,659.9,625.6,659.9,623z"/>
		<path fill="#333333" d="M662.9,632.5c0.6-1.7,1.4-4.6,1.7-6.7l2.7-0.3c-0.7,2.4-1.9,5.5-2.7,6.8L662.9,632.5z M664.1,617.7
			c0-1,0.7-1.8,1.7-1.8s1.7,0.7,1.7,1.8c0,1-0.6,1.7-1.7,1.7C664.8,619.4,664.1,618.7,664.1,617.7z"/>
		<path fill="#333333" d="M675.5,626.2c0.7,0.4,2.3,1.1,4,1.1c3.2,0,4.1-2,4.1-3.5c0-2.5-2.3-3.6-4.7-3.6h-1.4v-1.8h1.4
			c1.8,0,4.1-0.9,4.1-3.1c0-1.5-0.9-2.7-3.2-2.7c-1.5,0-2.9,0.6-3.6,1.2l-0.6-1.8c1-0.7,2.8-1.4,4.8-1.4c3.6,0,5.2,2.1,5.2,4.3
			c0,1.9-1.1,3.5-3.4,4.3v0.1c2.2,0.4,4.1,2.1,4.1,4.7c0,2.9-2.3,5.5-6.6,5.5c-2,0-3.8-0.6-4.7-1.2L675.5,626.2z"/>
		<path fill="#333333" d="M699.5,610.8v1.6l-7.9,16.6H689l7.9-16.1v-0.1H688v-2H699.5z"/>
		<path fill="#333333" d="M700.4,617.7c0-1,0.7-1.8,1.7-1.8s1.6,0.7,1.7,1.8c0,1-0.6,1.7-1.7,1.7S700.4,618.7,700.4,617.7z
			 M700.4,627.6c0-1,0.7-1.8,1.7-1.8s1.6,0.7,1.7,1.8c0,1-0.6,1.7-1.7,1.7S700.4,628.6,700.4,627.6z"/>
		<path fill="#333333" d="M716,612.5c-0.5,0-1.1,0-1.8,0.1c-3.9,0.6-5.9,3.5-6.3,6.5h0.1c0.9-1.1,2.4-2.1,4.4-2.1
			c3.2,0,5.5,2.3,5.5,5.9c0,3.3-2.3,6.4-6,6.4c-3.9,0-6.4-3-6.4-7.8c0-3.6,1.3-6.4,3.1-8.2c1.5-1.5,3.5-2.4,5.8-2.7
			c0.7-0.1,1.3-0.1,1.8-0.1v2L716,612.5L716,612.5z M715.3,623c0-2.6-1.5-4.2-3.8-4.2c-1.5,0-2.9,0.9-3.5,2.2
			c-0.2,0.3-0.3,0.6-0.3,1.1c0.1,3,1.4,5.2,4,5.2C713.9,627.4,715.3,625.6,715.3,623z"/>
		<path fill="#333333" d="M730.2,610.8v1.6l-7.9,16.6h-2.5l7.9-16.1v-0.1h-8.9v-2H730.2z"/>
		<path fill="#333333" d="M742.8,621.1v1.7h-12.3v-1.7H742.8z"/>
		<path fill="#333333" d="M747.8,613.1L747.8,613.1l-3.2,1.7l-0.5-1.9l4-2.1h2.1V629h-2.4L747.8,613.1L747.8,613.1z"/>
		<path fill="#333333" d="M758.6,613.1L758.6,613.1l-3.2,1.7l-0.5-1.9l4-2.1h2.1V629h-2.4L758.6,613.1L758.6,613.1z"/>
		<path fill="#333333" d="M766.6,627.3c0.5,0.1,1.1,0,2-0.1c1.4-0.2,2.8-0.8,3.8-1.8c1.2-1.1,2.1-2.7,2.4-4.8h-0.1
			c-1,1.2-2.5,2-4.3,2c-3.3,0-5.4-2.5-5.4-5.6c0-3.4,2.5-6.5,6.2-6.5s6,3,6,7.7c0,4-1.3,6.8-3.1,8.5c-1.4,1.4-3.3,2.2-5.3,2.4
			c-0.9,0.1-1.7,0.2-2.3,0.1L766.6,627.3L766.6,627.3z M767.5,616.8c0,2.3,1.4,3.9,3.5,3.9c1.7,0,2.9-0.8,3.6-1.9
			c0.1-0.2,0.2-0.5,0.2-0.9c0-3.1-1.1-5.5-3.7-5.5C768.9,612.4,767.5,614.2,767.5,616.8z"/>
		<path fill="#333333" d="M778.2,627.6c0-1,0.7-1.8,1.7-1.8s1.7,0.7,1.7,1.8c0,1-0.6,1.8-1.7,1.8
			C778.9,629.3,778.2,628.6,778.2,627.6z"/>
	</g>
	<g>
		<path fill="#333333" d="M326.4,668.9h-6.9l-0.7,4.7c0.4-0.1,0.8-0.1,1.5-0.1c1.4,0,2.8,0.3,3.9,1c1.4,0.8,2.6,2.4,2.6,4.7
			c0,3.6-2.8,6.2-6.8,6.2c-2,0-3.7-0.6-4.5-1.1l0.6-1.9c0.8,0.4,2.2,1,3.9,1c2.3,0,4.3-1.5,4.3-3.9s-1.6-4-5.2-4
			c-1,0-1.8,0.1-2.5,0.2l1.2-8.7h8.7v1.9L326.4,668.9L326.4,668.9z"/>
		<path fill="#333333" d="M329.1,683.6c0-1,0.7-1.8,1.7-1.8s1.7,0.7,1.7,1.8c0,1-0.6,1.8-1.7,1.8
			C329.8,685.3,329.1,684.6,329.1,683.6z"/>
	</g>
	<g>
		<path fill="#333333" d="M366.8,684.2c-1.1,0.4-3.2,1-5.8,1c-2.9,0-5.2-0.7-7.1-2.5c-1.6-1.6-2.6-4.1-2.6-7c0-5.6,3.9-9.7,10.2-9.7
			c2.2,0,3.9,0.5,4.7,0.9l-0.6,2c-1-0.4-2.3-0.8-4.2-0.8c-4.6,0-7.6,2.9-7.6,7.6c0,4.8,2.9,7.6,7.3,7.6c1.6,0,2.7-0.2,3.2-0.5v-5.6
			h-3.8v-2h6.2L366.8,684.2L366.8,684.2z"/>
		<path fill="#333333" d="M377.5,685l-0.2-1.7h-0.1c-0.8,1.1-2.2,2-4.1,2c-2.7,0-4.1-1.9-4.1-3.9c0-3.3,2.9-5.1,8.1-5v-0.3
			c0-1.1-0.3-3.1-3.1-3.1c-1.3,0-2.6,0.4-3.5,1l-0.6-1.6c1.1-0.7,2.7-1.2,4.5-1.2c4.1,0,5.2,2.8,5.2,5.5v5.1c0,1.2,0.1,2.3,0.2,3.2
			H377.5z M377.1,678.1c-2.7-0.1-5.7,0.4-5.7,3.1c0,1.6,1.1,2.4,2.3,2.4c1.8,0,2.9-1.1,3.3-2.3c0.1-0.3,0.1-0.5,0.1-0.8L377.1,678.1
			L377.1,678.1z"/>
		<path fill="#333333" d="M382.8,665.1h2.5V685h-2.5V665.1z"/>
		<path fill="#333333" d="M391.4,667.6c0,0.8-0.6,1.5-1.6,1.5c-0.9,0-1.5-0.7-1.5-1.5c0-0.9,0.6-1.5,1.5-1.5
			C390.8,666.1,391.4,666.8,391.4,667.6z M388.6,685v-13.6h2.5V685H388.6z"/>
		<path fill="#333333" d="M396,678.7c0.1,3.3,2.2,4.7,4.6,4.7c1.8,0,2.8-0.3,3.8-0.7l0.4,1.8c-0.9,0.4-2.4,0.8-4.5,0.8
			c-4.2,0-6.7-2.7-6.7-6.8s2.4-7.3,6.4-7.3c4.4,0,5.6,3.9,5.6,6.4c0,0.5-0.1,0.9-0.1,1.1H396z M403.2,676.9c0-1.6-0.6-4-3.4-4
			c-2.5,0-3.6,2.3-3.8,4H403.2z M399.1,665.6l2.5,4h-1.8l-3.4-4H399.1z"/>
		<path fill="#333333" d="M414.1,685v-18.9h2.7l6,9.5c1.4,2.2,2.5,4.2,3.4,6.1h0.1c-0.2-2.5-0.3-4.8-0.3-7.8V666h2.3v19h-2.5l-6-9.6
			c-1.3-2.1-2.6-4.3-3.5-6.3h-0.1c0.1,2.4,0.2,4.6,0.2,7.8v8.1H414.1z"/>
	</g>
	<g>
		<path fill="#333333" d="M445.4,684.2c-1,0.6-2.7,1.1-4.5,1.1c-3.6,0-5.2-2.4-5.2-5.4c0-4.1,3-8.7,7.4-8.7c2.6,0,4,1.5,4,3.5
			c0,3.6-4,4.5-9,4.4c-0.1,0.6,0,1.8,0.3,2.6c0.5,1.2,1.6,1.8,3,1.8c1.6,0,2.8-0.5,3.6-1L445.4,684.2z M442.8,673
			c-2.2,0-3.9,2.2-4.4,4.3c3.6,0,6.5-0.4,6.5-2.5C444.9,673.6,444.1,673,442.8,673z"/>
		<path fill="#333333" d="M453.9,667.8l-0.7,3.6h3.2l-0.4,1.8h-3.2l-1.3,6.6c-0.1,0.8-0.3,1.5-0.3,2.2c0,0.8,0.4,1.3,1.3,1.3
			c0.4,0,0.8,0,1.1-0.1l-0.1,1.8c-0.4,0.2-1.1,0.3-1.8,0.3c-2.1,0-2.9-1.3-2.9-2.6c0-0.8,0.1-1.6,0.3-2.5l1.3-6.9h-2l0.4-1.8h1.9
			l0.6-3.1L453.9,667.8z"/>
		<path fill="#333333" d="M470.1,685c0-0.8,0.1-2.1,0.3-3.5h-0.1c-1.5,2.8-3.3,3.8-5.3,3.8c-2.4,0-3.9-1.9-3.9-4.5
			c0-4.7,3.5-9.7,9.4-9.7c1.3,0,2.7,0.2,3.6,0.5l-1.4,7.1c-0.4,2.4-0.6,4.8-0.6,6.3L470.1,685L470.1,685z M471.7,673.2
			c-0.3-0.1-0.8-0.2-1.6-0.2c-3.5,0-6.4,3.7-6.4,7.4c0,1.5,0.5,3,2.3,3c1.9,0,4.2-2.5,4.9-6.1L471.7,673.2z"/>
		<path fill="#333333" d="M475.2,685l3.8-19.9h2.3l-3.8,19.9H475.2z"/>
		<path fill="#333333" d="M480.6,683.7c0-1,0.7-1.9,1.8-1.9c1,0,1.6,0.7,1.6,1.7s-0.7,1.8-1.8,1.8
			C481.2,685.3,480.6,684.6,480.6,683.7z"/>
		<path fill="#333333" d="M502.3,676.1h-6.9l-1.3,6.9h7.7l-0.4,2h-10.1l3.6-18.9h9.6l-0.4,2h-7.3l-1.1,6h6.9L502.3,676.1z"/>
		<path fill="#333333" d="M516.7,671.5l-1.8,9.6c-0.3,1.5-0.5,2.8-0.6,3.9h-2.1l0.4-2.5h-0.1c-1.2,1.8-3,2.9-4.8,2.9
			c-1.7,0-3.6-0.8-3.6-3.9c0-0.6,0.1-1.4,0.3-2.3l1.5-7.7h2.3l-1.4,7.6c-0.2,0.8-0.3,1.4-0.3,2c0,1.4,0.6,2.4,2.2,2.4
			c1.7,0,3.8-2,4.4-5l1.3-6.9L516.7,671.5L516.7,671.5z"/>
		<path fill="#333333" d="M517.6,685l1.7-8.7c0.3-1.8,0.6-3.6,0.7-4.8h2c-0.1,1-0.2,1.9-0.4,2.9h0.1c0.9-1.8,2.3-3.2,4.1-3.2
			c0.2,0,0.5,0,0.6,0.1l-0.4,2.3c-0.1,0-0.4-0.1-0.6-0.1c-2,0-3.8,2.4-4.4,5.6l-1.1,6L517.6,685L517.6,685z"/>
		<path fill="#333333" d="M537.1,666.1l-1.5,8h8.7l1.5-8h2.4l-3.6,18.9h-2.3l1.7-8.9h-8.7l-1.7,8.9h-2.3l3.6-18.9H537.1z"/>
		<path fill="#333333" d="M557.9,684.2c-1,0.6-2.7,1.1-4.5,1.1c-3.6,0-5.2-2.4-5.2-5.4c0-4.1,3-8.7,7.4-8.7c2.6,0,4,1.5,4,3.5
			c0,3.6-4,4.5-9,4.4c-0.1,0.6,0,1.8,0.3,2.6c0.5,1.2,1.6,1.8,3,1.8c1.6,0,2.8-0.5,3.6-1L557.9,684.2z M555.3,673
			c-2.2,0-3.9,2.2-4.4,4.3c3.6,0,6.5-0.4,6.5-2.5C557.4,673.6,556.5,673,555.3,673z"/>
		<path fill="#333333" d="M569.2,685c0-0.8,0.1-2.1,0.3-3.5h-0.1c-1.5,2.8-3.3,3.8-5.3,3.8c-2.4,0-3.9-1.9-3.9-4.5
			c0-4.7,3.5-9.7,9.4-9.7c1.3,0,2.7,0.2,3.6,0.5l-1.4,7.1c-0.4,2.4-0.6,4.8-0.6,6.3L569.2,685L569.2,685z M570.7,673.2
			c-0.3-0.1-0.8-0.2-1.6-0.2c-3.5,0-6.4,3.7-6.4,7.4c0,1.5,0.5,3,2.3,3c1.9,0,4.2-2.5,4.9-6.1L570.7,673.2z"/>
		<path fill="#333333" d="M574.2,685l1.7-8.7c0.3-1.8,0.6-3.6,0.7-4.8h2c-0.1,1-0.2,1.9-0.4,2.9h0.1c0.9-1.8,2.3-3.2,4.1-3.2
			c0.2,0,0.5,0,0.6,0.1l-0.4,2.3c-0.1,0-0.4-0.1-0.6-0.1c-2,0-3.8,2.4-4.4,5.6l-1.1,6L574.2,685L574.2,685z"/>
		<path fill="#333333" d="M589.2,667.8l-0.7,3.6h3.2l-0.4,1.8h-3.2l-1.3,6.6c-0.1,0.8-0.3,1.5-0.3,2.2c0,0.8,0.4,1.3,1.3,1.3
			c0.4,0,0.8,0,1.1-0.1l-0.1,1.8c-0.4,0.2-1.1,0.3-1.8,0.3c-2.1,0-2.9-1.3-2.9-2.6c0-0.8,0.1-1.6,0.3-2.5l1.3-6.9h-2l0.4-1.8h1.9
			l0.6-3.1L589.2,667.8z"/>
		<path fill="#333333" d="M595.3,682.9c0.6,0.3,1.4,0.4,2.4,0.4c2,0,3.2-1,3.9-4.4l2.4-12.7h2.3l-2.5,13c-0.8,4.4-2.7,6.2-6.2,6.2
			c-1.1,0-2.3-0.3-2.8-0.5L595.3,682.9z"/>
	</g>
	<g>
		<path fill="#333333" d="M612.2,685v-1.5l1.9-1.9c4.6-4.4,6.7-6.8,6.8-9.5c0-1.8-0.9-3.6-3.6-3.6c-1.7,0-3,0.8-3.9,1.5l-0.8-1.7
			c1.3-1.1,3.1-1.8,5.2-1.8c3.9,0,5.6,2.7,5.6,5.3c0,3.4-2.4,6.1-6.3,9.8l-1.5,1.3v0.1h8.2v2L612.2,685L612.2,685z"/>
		<path fill="#333333" d="M637.7,675.7c0,6.2-2.3,9.6-6.3,9.6c-3.6,0-6-3.3-6-9.4c0-6.1,2.6-9.5,6.3-9.5
			C635.5,666.5,637.7,669.9,637.7,675.7z M627.8,676c0,4.7,1.5,7.4,3.7,7.4c2.5,0,3.7-2.9,3.7-7.6c0-4.5-1.1-7.4-3.7-7.4
			C629.3,668.4,627.8,671,627.8,676z"/>
		<path fill="#333333" d="M643.4,669.1L643.4,669.1l-3.2,1.7l-0.5-1.9l4-2.1h2.1V685h-2.4L643.4,669.1L643.4,669.1z"/>
		<path fill="#333333" d="M661.2,666.8v1.6l-7.9,16.6h-2.5l7.9-16.1v-0.1h-8.9v-2H661.2z"/>
		<path fill="#333333" d="M661.1,688.5c0.6-1.7,1.4-4.6,1.7-6.7l2.7-0.3c-0.7,2.4-1.9,5.5-2.7,6.8L661.1,688.5z M662.3,673.7
			c0-1,0.7-1.8,1.7-1.8s1.7,0.7,1.7,1.8c0,1-0.6,1.7-1.7,1.7C662.9,675.4,662.3,674.7,662.3,673.7z"/>
		<path fill="#333333" d="M673.7,682.2c0.7,0.4,2.3,1.1,4,1.1c3.2,0,4.1-2,4.1-3.5c0-2.5-2.3-3.6-4.7-3.6h-1.4v-1.8h1.4
			c1.8,0,4.1-0.9,4.1-3.1c0-1.5-0.9-2.7-3.2-2.7c-1.5,0-2.9,0.6-3.6,1.2l-0.6-1.8c1-0.7,2.8-1.4,4.8-1.4c3.6,0,5.2,2.1,5.2,4.3
			c0,1.9-1.1,3.5-3.4,4.3v0.1c2.2,0.4,4.1,2.1,4.1,4.7c0,2.9-2.3,5.5-6.6,5.5c-2,0-3.8-0.6-4.7-1.2L673.7,682.2z"/>
		<path fill="#333333" d="M686.4,680.4c0-2.3,1.4-3.9,3.6-4.9v-0.1c-2-1-2.9-2.5-2.9-4.1c0-2.9,2.4-4.8,5.6-4.8
			c3.5,0,5.3,2.2,5.3,4.5c0,1.5-0.8,3.2-3,4.3v0.1c2.3,0.9,3.7,2.5,3.7,4.7c0,3.2-2.7,5.3-6.2,5.3
			C688.7,685.3,686.4,683,686.4,680.4z M696.2,680.3c0-2.2-1.5-3.3-4-4c-2.1,0.6-3.3,2-3.3,3.8c-0.1,1.8,1.3,3.5,3.6,3.5
			C694.7,683.5,696.2,682.2,696.2,680.3z M689.4,671.2c0,1.8,1.4,2.8,3.5,3.4c1.6-0.5,2.8-1.7,2.8-3.3c0-1.5-0.9-3-3.1-3
			C690.5,668.3,689.4,669.6,689.4,671.2z"/>
		<path fill="#333333" d="M706.4,665.6c-2,2.7-3.5,6.4-3.5,11.5c0,5,1.5,8.6,3.5,11.4h-1.9c-1.8-2.3-3.7-5.9-3.7-11.4
			s1.9-9.1,3.7-11.5H706.4z"/>
		<path fill="#333333" d="M711.5,669.1L711.5,669.1l-3.2,1.7l-0.5-1.9l4-2.1h2.1V685h-2.4L711.5,669.1L711.5,669.1z"/>
		<path fill="#333333" d="M728.8,668.9h-6.9l-0.7,4.7c0.4-0.1,0.8-0.1,1.5-0.1c1.4,0,2.8,0.3,3.9,1c1.4,0.8,2.6,2.4,2.6,4.7
			c0,3.6-2.8,6.2-6.8,6.2c-2,0-3.7-0.6-4.5-1.1l0.6-1.9c0.8,0.4,2.2,1,3.9,1c2.3,0,4.3-1.5,4.3-3.9s-1.6-4-5.2-4
			c-1,0-1.8,0.1-2.5,0.2l1.2-8.7h8.7L728.8,668.9L728.8,668.9z"/>
		<path fill="#333333" d="M730.4,688.4c2-2.8,3.5-6.4,3.5-11.5c0-5-1.5-8.6-3.5-11.4h1.9c1.8,2.3,3.7,5.9,3.7,11.4s-1.9,9-3.7,11.4
			L730.4,688.4L730.4,688.4z"/>
		<path fill="#333333" d="M738.1,673.7c0-1,0.7-1.8,1.7-1.8s1.6,0.7,1.7,1.8c0,1-0.6,1.7-1.7,1.7
			C738.8,675.4,738.1,674.7,738.1,673.7z M738.1,683.6c0-1,0.7-1.8,1.7-1.8s1.6,0.7,1.7,1.8c0,1-0.6,1.7-1.7,1.7
			C738.8,685.3,738.1,684.6,738.1,683.6z"/>
		<path fill="#333333" d="M746.6,669.1L746.6,669.1l-3.2,1.7l-0.5-1.9l4-2.1h2.1V685h-2.4L746.6,669.1L746.6,669.1z"/>
		<path fill="#333333" d="M757.4,669.1L757.4,669.1l-3.2,1.7l-0.5-1.9l4-2.1h2.1V685h-2.4L757.4,669.1L757.4,669.1z"/>
		<path fill="#333333" d="M771.6,685v-5h-8.5v-1.6l8.1-11.6h2.7v11.3h2.5v1.9H774v5L771.6,685L771.6,685z M771.6,678.1V672
			c0-1,0-1.9,0.1-2.9h-0.1c-0.6,1.1-1,1.8-1.5,2.7l-4.5,6.2v0.1H771.6z"/>
		<path fill="#333333" d="M788.4,666.8v1.6l-7.9,16.6H778l7.9-16.1v-0.1H777v-2H788.4z"/>
		<path fill="#333333" d="M800.9,677.1v1.7h-12.3v-1.7H800.9z"/>
		<path fill="#333333" d="M806,669.1L806,669.1l-3.2,1.7l-0.5-1.9l4-2.1h2.1V685H806V669.1z"/>
		<path fill="#333333" d="M816.7,669.1L816.7,669.1l-3.2,1.7l-0.5-1.9l4-2.1h2.1V685h-2.4L816.7,669.1L816.7,669.1z"/>
		<path fill="#333333" d="M834,668.9h-7l-0.7,4.7c0.4-0.1,0.8-0.1,1.5-0.1c1.4,0,2.8,0.3,3.9,1c1.4,0.8,2.6,2.4,2.6,4.7
			c0,3.6-2.8,6.2-6.8,6.2c-2,0-3.7-0.6-4.5-1.1l0.6-1.9c0.8,0.4,2.2,1,3.9,1c2.3,0,4.3-1.5,4.3-3.9s-1.6-4-5.2-4
			c-1,0-1.8,0.1-2.5,0.2l1.2-8.7h8.7V668.9z"/>
		<path fill="#333333" d="M846.8,668.9h-6.9l-0.7,4.7c0.4-0.1,0.8-0.1,1.5-0.1c1.4,0,2.8,0.3,3.9,1c1.4,0.8,2.6,2.4,2.6,4.7
			c0,3.6-2.8,6.2-6.8,6.2c-2,0-3.7-0.6-4.5-1.1l0.6-1.9c0.8,0.4,2.2,1,3.9,1c2.3,0,4.3-1.5,4.3-3.9s-1.6-4-5.2-4
			c-1,0-1.8,0.1-2.5,0.2l1.2-8.7h8.7L846.8,668.9L846.8,668.9z"/>
		<path fill="#333333" d="M849.5,683.6c0-1,0.7-1.8,1.7-1.8s1.7,0.7,1.7,1.8c0,1-0.6,1.8-1.7,1.8
			C850.1,685.3,849.5,684.6,849.5,683.6z"/>
	</g>
	<g>
		<path fill="#333333" d="M325.9,724.5c-0.5,0-1.1,0-1.8,0.1c-3.9,0.6-5.9,3.5-6.3,6.5h0.1c0.9-1.1,2.4-2.1,4.4-2.1
			c3.2,0,5.5,2.3,5.5,5.9c0,3.3-2.3,6.4-6,6.4c-3.9,0-6.4-3-6.4-7.8c0-3.6,1.3-6.4,3.1-8.2c1.5-1.5,3.5-2.4,5.8-2.7
			c0.7-0.1,1.3-0.1,1.8-0.1v2L325.9,724.5L325.9,724.5z M325.2,735c0-2.6-1.5-4.2-3.8-4.2c-1.5,0-2.9,0.9-3.5,2.2
			c-0.2,0.3-0.3,0.6-0.3,1.1c0.1,3,1.4,5.2,4,5.2C323.8,739.4,325.2,737.6,325.2,735z"/>
		<path fill="#333333" d="M329.6,739.6c0-1,0.7-1.8,1.7-1.8s1.7,0.7,1.7,1.8c0,1-0.6,1.8-1.7,1.8
			C330.3,741.3,329.6,740.6,329.6,739.6z"/>
	</g>
	<g>
		<path fill="#333333" d="M352.4,722.4c1.2-0.2,2.7-0.4,4.7-0.4c2.4,0,4.2,0.6,5.3,1.6c1,0.9,1.7,2.3,1.7,3.9c0,1.7-0.5,3.1-1.5,4
			c-1.3,1.4-3.4,2.1-5.8,2.1c-0.7,0-1.4,0-2-0.2v7.6h-2.4L352.4,722.4L352.4,722.4z M354.9,731.5c0.5,0.1,1.2,0.2,2,0.2
			c2.9,0,4.7-1.4,4.7-4c0-2.5-1.8-3.7-4.5-3.7c-1.1,0-1.9,0.1-2.3,0.2L354.9,731.5L354.9,731.5z"/>
		<path fill="#333333" d="M377.7,737.3c0,1.4,0,2.6,0.1,3.7h-2.2l-0.1-2.2h-0.1c-0.6,1.1-2.1,2.5-4.5,2.5c-2.1,0-4.7-1.2-4.7-5.9
			v-7.9h2.5v7.5c0,2.6,0.8,4.3,3,4.3c1.7,0,2.8-1.1,3.2-2.2c0.1-0.4,0.2-0.8,0.2-1.3v-8.3h2.5v9.8L377.7,737.3L377.7,737.3z"/>
		<path fill="#333333" d="M381,721.1h2.5V741H381V721.1z"/>
		<path fill="#333333" d="M389.6,723.6c0,0.8-0.6,1.5-1.6,1.5c-0.9,0-1.5-0.7-1.5-1.5c0-0.9,0.6-1.5,1.5-1.5
			C389.1,722.1,389.6,722.8,389.6,723.6z M386.9,741v-13.6h2.5V741H386.9z"/>
		<path fill="#333333" d="M404.6,721.1v16.4c0,1.2,0,2.6,0.1,3.5h-2.2l-0.1-2.4h-0.1c-0.8,1.5-2.4,2.7-4.6,2.7
			c-3.3,0-5.8-2.8-5.8-6.9c0-4.5,2.8-7.3,6.1-7.3c2.1,0,3.5,1,4.1,2.1h0.1v-8.1H404.6z M402.1,733c0-0.3,0-0.7-0.1-1
			c-0.4-1.6-1.7-2.9-3.6-2.9c-2.5,0-4.1,2.2-4.1,5.2c0,2.7,1.3,5,4,5c1.7,0,3.2-1.1,3.6-2.9c0.1-0.3,0.1-0.7,0.1-1.1V733H402.1z"/>
		<path fill="#333333" d="M420.4,734.1c0,5-3.5,7.2-6.7,7.2c-3.7,0-6.5-2.7-6.5-7c0-4.5,3-7.2,6.7-7.2
			C417.7,727.1,420.4,730,420.4,734.1z M409.6,734.3c0,3,1.7,5.2,4.1,5.2s4.1-2.2,4.1-5.3c0-2.3-1.1-5.2-4.1-5.2
			S409.6,731.7,409.6,734.3z"/>
		<path fill="#333333" d="M432.6,724.2h-5.7v-2.1h14v2.1H435V741h-2.5v-16.8H432.6z"/>
	</g>
	<g>
		<path fill="#333333" d="M456.6,740.2c-1,0.6-2.7,1.1-4.5,1.1c-3.6,0-5.2-2.4-5.2-5.4c0-4.1,3-8.7,7.4-8.7c2.6,0,4,1.5,4,3.5
			c0,3.6-4,4.5-9,4.4c-0.1,0.6,0,1.8,0.3,2.6c0.5,1.2,1.6,1.8,3,1.8c1.6,0,2.8-0.5,3.6-1L456.6,740.2z M454,729
			c-2.2,0-3.9,2.2-4.4,4.3c3.6,0,6.5-0.4,6.5-2.5C456.1,729.6,455.2,729,454,729z"/>
		<path fill="#333333" d="M465,723.8l-0.7,3.6h3.2l-0.4,1.8H464l-1.3,6.6c-0.1,0.8-0.3,1.5-0.3,2.2c0,0.8,0.4,1.3,1.3,1.3
			c0.4,0,0.8,0,1.1-0.1l-0.1,1.8c-0.4,0.2-1.1,0.3-1.8,0.3c-2.1,0-2.9-1.3-2.9-2.6c0-0.8,0.1-1.6,0.3-2.5l1.3-6.9h-2l0.4-1.8h1.9
			l0.6-3.1L465,723.8z"/>
		<path fill="#333333" d="M481.3,741c0-0.8,0.1-2.1,0.3-3.5h-0.1c-1.5,2.8-3.3,3.8-5.3,3.8c-2.4,0-3.9-1.9-3.9-4.5
			c0-4.7,3.5-9.7,9.4-9.7c1.3,0,2.7,0.2,3.6,0.5l-1.4,7.1c-0.4,2.4-0.6,4.8-0.6,6.3L481.3,741L481.3,741z M482.8,729.2
			c-0.3-0.1-0.8-0.2-1.6-0.2c-3.5,0-6.4,3.7-6.4,7.4c0,1.5,0.5,3,2.3,3c1.9,0,4.2-2.5,4.9-6.1L482.8,729.2z"/>
		<path fill="#333333" d="M486.3,741l3.8-19.9h2.3l-3.8,19.9H486.3z"/>
		<path fill="#333333" d="M491.8,739.7c0-1,0.7-1.9,1.8-1.9c1,0,1.6,0.7,1.6,1.7s-0.7,1.8-1.8,1.8
			C492.4,741.3,491.8,740.6,491.8,739.7z"/>
		<path fill="#333333" d="M502.5,741l3.6-18.9h2.5l4.3,10.7c0.8,2.1,1.3,3.6,1.7,5.3h0.1c0.1-1.7,0.3-3.3,0.8-5.9l1.9-10h2.2
			L516,741h-2.3l-4.3-10.7c-0.9-2.3-1.3-3.7-1.8-5.4h-0.1c-0.2,1.8-0.5,3.6-1,6.2l-1.9,9.9H502.5z"/>
		<path fill="#333333" d="M535.7,732.1h-6.9l-1.3,6.9h7.7l-0.4,2h-10.1l3.6-18.9h9.6l-0.4,2h-7.3l-1.1,6h6.9L535.7,732.1z"/>
		<path fill="#333333" d="M537,741l1.8-9.6c0.3-1.5,0.5-2.8,0.6-3.9h2.1l-0.3,2.7h0.1c1.2-1.9,3-3,5-3c1.6,0,3.4,0.9,3.4,3.8
			c0,0.6-0.1,1.5-0.3,2.2L548,741h-2.3l1.5-7.8c0.1-0.5,0.2-1.2,0.2-1.7c0-1.4-0.5-2.4-2.1-2.4c-1.7,0-4,2-4.6,5.3l-1.2,6.6L537,741
			L537,741z"/>
		<path fill="#333333" d="M551.4,744.1c0.8,0.5,2.2,0.9,3.6,0.9c2.3,0,4.1-1.2,4.9-4.8l0.4-2h-0.1c-1.2,1.9-2.8,2.9-4.7,2.9
			c-2.7,0-4.1-2.3-4.1-4.7c0-4.6,3.4-9.2,8.6-9.2c1.6,0,3.3,0.4,4.3,1l-2.1,11.2c-0.6,2.9-1.3,4.8-2.7,6c-1.3,1.2-3.2,1.5-4.7,1.5
			c-1.7,0-3.2-0.4-4.1-1L551.4,744.1z M561.8,729.5c-0.4-0.2-1.3-0.4-2.2-0.4c-3.4,0-5.7,3.5-5.7,6.9c0,1.5,0.5,3.2,2.6,3.2
			c2,0,4-2.5,4.5-5.2L561.8,729.5z"/>
		<path fill="#333333" d="M565.3,741l3.8-19.9h2.3l-3.8,19.9H565.3z"/>
		<path fill="#333333" d="M575.1,738.9c0.6,0.3,1.4,0.4,2.4,0.4c2,0,3.2-1,3.9-4.4l2.4-12.7h2.3l-2.5,13c-0.8,4.4-2.7,6.2-6.2,6.2
			c-1.1,0-2.3-0.3-2.8-0.5L575.1,738.9z"/>
	</g>
	<g>
		<path fill="#333333" d="M607.4,741l1.3-10.2c0.3-1.8,0.7-4.6,1-6.4h-0.1c-0.9,1.9-1.9,4.1-2.9,6.1l-5.6,10.4h-1.8l-1.4-10.2
			c-0.3-2.2-0.5-4.4-0.6-6.3h-0.1c-0.4,1.7-1,4.6-1.5,6.4l-2.6,10.2h-2.2l4.9-18.9h3l1.5,10.8c0.2,1.6,0.4,3.3,0.4,4.7h0.1
			c0.6-1.4,1.4-3.1,2.2-4.6l5.9-10.9h3l-2.4,18.9H607.4z"/>
		<path fill="#333333" d="M622.6,740.2c-1,0.6-2.7,1.1-4.5,1.1c-3.6,0-5.2-2.4-5.2-5.4c0-4.1,3-8.7,7.4-8.7c2.6,0,4,1.5,4,3.5
			c0,3.6-4,4.5-9,4.4c-0.1,0.6,0,1.8,0.3,2.6c0.5,1.2,1.6,1.8,3,1.8c1.6,0,2.8-0.5,3.6-1L622.6,740.2z M620,729
			c-2.2,0-3.9,2.2-4.4,4.3c3.6,0,6.5-0.4,6.5-2.5C622.1,729.6,621.3,729,620,729z"/>
		<path fill="#333333" d="M639.4,721.1l-3,15.6c-0.3,1.4-0.5,3-0.6,4.3h-2.1l0.4-2.7H634c-1.2,1.9-2.9,3-4.9,3
			c-2.6,0-4.1-2.2-4.1-4.9c0-4.8,3.6-9.2,8.4-9.2c0.9,0,1.8,0.2,2.4,0.5l1.2-6.5L639.4,721.1L639.4,721.1z M635.5,729.6
			c-0.5-0.3-1.3-0.6-2.2-0.6c-3.2,0-5.8,3.4-5.8,7.1c0,1.6,0.6,3.3,2.5,3.3c1.8,0,3.9-2,4.5-5.1L635.5,729.6z"/>
	</g>
	<g>
		<path fill="#333333" d="M645.5,741v-1.5l1.9-1.9c4.6-4.4,6.7-6.8,6.8-9.5c0-1.8-0.9-3.6-3.6-3.6c-1.7,0-3,0.8-3.9,1.5l-0.8-1.7
			c1.3-1.1,3.1-1.8,5.2-1.8c3.9,0,5.6,2.7,5.6,5.3c0,3.4-2.4,6.1-6.3,9.8l-1.5,1.3v0.1h8.2v2L645.5,741L645.5,741z"/>
		<path fill="#333333" d="M671,731.7c0,6.2-2.3,9.6-6.3,9.6c-3.6,0-6-3.3-6-9.4c0-6.1,2.6-9.5,6.3-9.5
			C668.8,722.5,671,725.9,671,731.7z M661.1,732c0,4.7,1.5,7.4,3.7,7.4c2.5,0,3.7-2.9,3.7-7.6c0-4.5-1.1-7.4-3.7-7.4
			C662.6,724.4,661.1,727,661.1,732z"/>
		<path fill="#333333" d="M676.7,725.1L676.7,725.1l-3.2,1.7l-0.5-1.9l4-2.1h2.1V741h-2.4L676.7,725.1L676.7,725.1z"/>
		<path fill="#333333" d="M683.6,738.2c0.7,0.4,2.3,1.1,4,1.1c3.2,0,4.1-2,4.1-3.5c0-2.5-2.3-3.6-4.7-3.6h-1.4v-1.8h1.4
			c1.8,0,4.1-0.9,4.1-3.1c0-1.5-0.9-2.7-3.2-2.7c-1.5,0-2.9,0.6-3.6,1.2l-0.6-1.8c1-0.7,2.8-1.4,4.8-1.4c3.6,0,5.2,2.1,5.2,4.3
			c0,1.9-1.1,3.5-3.4,4.3v0.1c2.2,0.4,4.1,2.1,4.1,4.7c0,2.9-2.3,5.5-6.6,5.5c-2,0-3.8-0.6-4.7-1.2L683.6,738.2z"/>
		<path fill="#333333" d="M695.4,744.5c0.6-1.7,1.4-4.6,1.7-6.7l2.7-0.3c-0.7,2.4-1.9,5.5-2.7,6.8L695.4,744.5z M696.6,729.7
			c0-1,0.7-1.8,1.7-1.8s1.7,0.7,1.7,1.8c0,1-0.6,1.7-1.7,1.7C697.3,731.4,696.6,730.7,696.6,729.7z"/>
		<path fill="#333333" d="M708,738.2c0.7,0.4,2.3,1.1,4,1.1c3.2,0,4.1-2,4.1-3.5c0-2.5-2.3-3.6-4.7-3.6H710v-1.8h1.4
			c1.8,0,4.1-0.9,4.1-3.1c0-1.5-0.9-2.7-3.2-2.7c-1.5,0-2.9,0.6-3.6,1.2l-0.6-1.8c1-0.7,2.8-1.4,4.8-1.4c3.6,0,5.2,2.1,5.2,4.3
			c0,1.9-1.1,3.5-3.4,4.3v0.1c2.2,0.4,4.1,2.1,4.1,4.7c0,2.9-2.3,5.5-6.6,5.5c-2,0-3.8-0.6-4.7-1.2L708,738.2z"/>
		<path fill="#333333" d="M731.3,724.5c-0.5,0-1.1,0-1.8,0.1c-3.9,0.6-5.9,3.5-6.3,6.5h0.1c0.9-1.1,2.4-2.1,4.4-2.1
			c3.2,0,5.5,2.3,5.5,5.9c0,3.3-2.3,6.4-6,6.4c-3.9,0-6.4-3-6.4-7.8c0-3.6,1.3-6.4,3.1-8.2c1.5-1.5,3.5-2.4,5.8-2.7
			c0.7-0.1,1.3-0.1,1.8-0.1v2L731.3,724.5L731.3,724.5z M730.6,735c0-2.6-1.5-4.2-3.8-4.2c-1.5,0-2.9,0.9-3.5,2.2
			c-0.2,0.3-0.3,0.6-0.3,1.1c0.1,3,1.4,5.2,4,5.2C729.2,739.4,730.6,737.6,730.6,735z"/>
		<path fill="#333333" d="M735.7,739.3c0.5,0.1,1.1,0,2-0.1c1.4-0.2,2.8-0.8,3.8-1.8c1.2-1.1,2.1-2.7,2.4-4.8h-0.1
			c-1,1.2-2.5,2-4.3,2c-3.3,0-5.4-2.5-5.4-5.6c0-3.4,2.5-6.5,6.2-6.5s6,3,6,7.7c0,4-1.3,6.8-3.1,8.5c-1.4,1.4-3.3,2.2-5.3,2.4
			c-0.9,0.1-1.7,0.2-2.3,0.1L735.7,739.3L735.7,739.3z M736.6,728.8c0,2.3,1.4,3.9,3.5,3.9c1.7,0,2.9-0.8,3.6-1.9
			c0.1-0.2,0.2-0.5,0.2-0.9c0-3.1-1.1-5.5-3.7-5.5C738.1,724.4,736.6,726.2,736.6,728.8z"/>
		<path fill="#333333" d="M754.1,721.6c-2,2.7-3.5,6.4-3.5,11.5c0,5,1.5,8.6,3.5,11.4h-1.9c-1.8-2.3-3.7-5.9-3.7-11.4
			s1.9-9.1,3.7-11.5H754.1z"/>
		<path fill="#333333" d="M755.8,739.3c0.5,0.1,1.1,0,2-0.1c1.4-0.2,2.8-0.8,3.8-1.8c1.2-1.1,2.1-2.7,2.4-4.8h-0.1
			c-1,1.2-2.5,2-4.3,2c-3.3,0-5.4-2.5-5.4-5.6c0-3.4,2.5-6.5,6.2-6.5s6,3,6,7.7c0,4-1.3,6.8-3.1,8.5c-1.4,1.4-3.3,2.2-5.3,2.4
			c-0.9,0.1-1.7,0.2-2.3,0.1L755.8,739.3L755.8,739.3z M756.7,728.8c0,2.3,1.4,3.9,3.5,3.9c1.7,0,2.9-0.8,3.6-1.9
			c0.1-0.2,0.2-0.5,0.2-0.9c0-3.1-1.1-5.5-3.7-5.5C758.1,724.4,756.7,726.2,756.7,728.8z"/>
		<path fill="#333333" d="M766.7,744.4c2-2.8,3.5-6.4,3.5-11.5c0-5-1.5-8.6-3.5-11.4h1.9c1.8,2.3,3.7,5.9,3.7,11.4s-1.9,9-3.7,11.4
			L766.7,744.4L766.7,744.4z"/>
		<path fill="#333333" d="M774.5,729.7c0-1,0.7-1.8,1.7-1.8s1.6,0.7,1.7,1.8c0,1-0.6,1.7-1.7,1.7
			C775.2,731.4,774.5,730.7,774.5,729.7z M774.5,739.6c0-1,0.7-1.8,1.7-1.8s1.6,0.7,1.7,1.8c0,1-0.6,1.7-1.7,1.7
			C775.2,741.3,774.5,740.6,774.5,739.6z"/>
		<path fill="#333333" d="M779.4,736.4c0-2.3,1.4-3.9,3.6-4.9v-0.1c-2-1-2.9-2.5-2.9-4.1c0-2.9,2.4-4.8,5.6-4.8
			c3.5,0,5.3,2.2,5.3,4.5c0,1.5-0.8,3.2-3,4.3v0.1c2.3,0.9,3.7,2.5,3.7,4.7c0,3.2-2.7,5.3-6.2,5.3
			C781.7,741.3,779.4,739,779.4,736.4z M789.2,736.3c0-2.2-1.5-3.3-4-4c-2.1,0.6-3.3,2-3.3,3.8c-0.1,1.8,1.3,3.5,3.6,3.5
			C787.7,739.5,789.2,738.2,789.2,736.3z M782.4,727.2c0,1.8,1.4,2.8,3.5,3.4c1.6-0.5,2.8-1.7,2.8-3.3c0-1.5-0.9-3-3.1-3
			C783.5,724.3,782.4,725.6,782.4,727.2z"/>
		<path fill="#333333" d="M805.6,731.7c0,6.2-2.3,9.6-6.3,9.6c-3.6,0-6-3.3-6-9.4c0-6.1,2.6-9.5,6.3-9.5
			C803.5,722.5,805.6,725.9,805.6,731.7z M795.8,732c0,4.7,1.5,7.4,3.7,7.4c2.5,0,3.7-2.9,3.7-7.6c0-4.5-1.1-7.4-3.7-7.4
			C797.3,724.4,795.8,727,795.8,732z"/>
		<path fill="#333333" d="M808.8,739.3c0.5,0.1,1.1,0,2-0.1c1.4-0.2,2.8-0.8,3.8-1.8c1.2-1.1,2.1-2.7,2.4-4.8h-0.1
			c-1,1.2-2.5,2-4.3,2c-3.3,0-5.4-2.5-5.4-5.6c0-3.4,2.5-6.5,6.2-6.5s6,3,6,7.7c0,4-1.3,6.8-3.1,8.5c-1.4,1.4-3.3,2.2-5.3,2.4
			c-0.9,0.1-1.7,0.2-2.3,0.1L808.8,739.3L808.8,739.3z M809.7,728.8c0,2.3,1.4,3.9,3.5,3.9c1.7,0,2.9-0.8,3.6-1.9
			c0.1-0.2,0.2-0.5,0.2-0.9c0-3.1-1.1-5.5-3.7-5.5C811.2,724.4,809.7,726.2,809.7,728.8z"/>
		<path fill="#333333" d="M833.9,733.1v1.7h-12.3v-1.7H833.9z"/>
		<path fill="#333333" d="M835.8,736.4c0-2.3,1.4-3.9,3.6-4.9v-0.1c-2-1-2.9-2.5-2.9-4.1c0-2.9,2.4-4.8,5.6-4.8
			c3.5,0,5.3,2.2,5.3,4.5c0,1.5-0.8,3.2-3,4.3v0.1c2.3,0.9,3.7,2.5,3.7,4.7c0,3.2-2.7,5.3-6.2,5.3
			C838.1,741.3,835.8,739,835.8,736.4z M845.6,736.3c0-2.2-1.5-3.3-4-4c-2.1,0.6-3.3,2-3.3,3.8c-0.1,1.8,1.3,3.5,3.6,3.5
			C844.2,739.5,845.6,738.2,845.6,736.3z M838.8,727.2c0,1.8,1.4,2.8,3.5,3.4c1.6-0.5,2.8-1.7,2.8-3.3c0-1.5-0.9-3-3.1-3
			C839.9,724.3,838.8,725.6,838.8,727.2z"/>
		<path fill="#333333" d="M853.9,725.1L853.9,725.1l-3.2,1.7l-0.5-1.9l4-2.1h2.1V741h-2.4L853.9,725.1L853.9,725.1z"/>
		<path fill="#333333" d="M860.5,736.4c0-2.3,1.4-3.9,3.6-4.9v-0.1c-2-1-2.9-2.5-2.9-4.1c0-2.9,2.4-4.8,5.6-4.8
			c3.5,0,5.3,2.2,5.3,4.5c0,1.5-0.8,3.2-3,4.3v0.1c2.3,0.9,3.7,2.5,3.7,4.7c0,3.2-2.7,5.3-6.2,5.3
			C862.8,741.3,860.5,739,860.5,736.4z M870.3,736.3c0-2.2-1.5-3.3-4-4c-2.1,0.6-3.3,2-3.3,3.8c-0.1,1.8,1.3,3.5,3.6,3.5
			C868.9,739.5,870.3,738.2,870.3,736.3z M863.5,727.2c0,1.8,1.4,2.8,3.5,3.4c1.6-0.5,2.8-1.7,2.8-3.3c0-1.5-0.9-3-3.1-3
			C864.6,724.3,863.5,725.6,863.5,727.2z"/>
		<path fill="#333333" d="M886.6,721.6c-2,2.7-3.5,6.4-3.5,11.5c0,5,1.5,8.6,3.5,11.4h-1.9c-1.8-2.3-3.7-5.9-3.7-11.4
			s1.9-9.1,3.7-11.5H886.6z"/>
		<path fill="#333333" d="M887.6,738.5c0.7,0.5,2,1,3.2,1c1.8,0,2.6-0.9,2.6-2c0-1.2-0.7-1.8-2.5-2.5c-2.4-0.9-3.6-2.2-3.6-3.8
			c0-2.2,1.8-4,4.7-4c1.4,0,2.6,0.4,3.3,0.8l-0.6,1.8c-0.5-0.3-1.5-0.8-2.8-0.8c-1.5,0-2.3,0.8-2.3,1.8c0,1.1,0.8,1.6,2.6,2.3
			c2.4,0.9,3.6,2.1,3.6,4.1c0,2.4-1.8,4.1-5.1,4.1c-1.5,0-2.9-0.4-3.8-0.9L887.6,738.5z"/>
		<path fill="#333333" d="M909.5,737.3c0,1.4,0,2.6,0.1,3.7h-2.2l-0.1-2.2h-0.1c-0.6,1.1-2.1,2.5-4.5,2.5c-2.1,0-4.7-1.2-4.7-5.9
			v-7.9h2.5v7.5c0,2.6,0.8,4.3,3,4.3c1.7,0,2.8-1.1,3.2-2.2c0.1-0.4,0.2-0.8,0.2-1.3v-8.3h2.5L909.5,737.3L909.5,737.3z"/>
		<path fill="#333333" d="M912.9,731.9c0-1.7-0.1-3.1-0.1-4.4h2.2l0.1,2.3h0.1c1-1.7,2.6-2.6,4.8-2.6c3.3,0,5.7,2.8,5.7,6.9
			c0,4.9-3,7.3-6.2,7.3c-1.8,0-3.4-0.8-4.2-2.1h-0.1v7.4h-2.4v-14.8L912.9,731.9L912.9,731.9z M915.4,735.5c0,0.4,0.1,0.7,0.1,1
			c0.4,1.7,1.9,2.9,3.7,2.9c2.6,0,4.1-2.1,4.1-5.2c0-2.7-1.4-5-4-5c-1.7,0-3.2,1.2-3.7,3.1c-0.1,0.3-0.2,0.7-0.2,1L915.4,735.5
			L915.4,735.5z"/>
		<path fill="#333333" d="M928.3,731.9c0-1.7-0.1-3.1-0.1-4.4h2.2l0.1,2.3h0.1c1-1.7,2.6-2.6,4.8-2.6c3.3,0,5.7,2.8,5.7,6.9
			c0,4.9-3,7.3-6.2,7.3c-1.8,0-3.4-0.8-4.2-2.1h-0.1v7.4h-2.4v-14.8L928.3,731.9L928.3,731.9z M930.7,735.5c0,0.4,0.1,0.7,0.1,1
			c0.4,1.7,1.9,2.9,3.7,2.9c2.6,0,4.1-2.1,4.1-5.2c0-2.7-1.4-5-4-5c-1.7,0-3.2,1.2-3.7,3.1c-0.1,0.3-0.2,0.7-0.2,1L930.7,735.5
			L930.7,735.5z"/>
		<path fill="#333333" d="M943.7,721.1h2.5V741h-2.5V721.1z"/>
		<path fill="#333333" d="M951.1,734.7c0.1,3.3,2.2,4.7,4.6,4.7c1.8,0,2.8-0.3,3.8-0.7l0.4,1.8c-0.9,0.4-2.4,0.8-4.5,0.8
			c-4.2,0-6.7-2.7-6.7-6.8s2.4-7.3,6.4-7.3c4.4,0,5.6,3.9,5.6,6.4c0,0.5-0.1,0.9-0.1,1.1H951.1z M958.3,732.9c0-1.6-0.6-4-3.4-4
			c-2.5,0-3.6,2.3-3.8,4H958.3z"/>
		<path fill="#333333" d="M963.2,731.1c0-1.4,0-2.5-0.1-3.7h2.2l0.1,2.2h0.1c0.8-1.3,2-2.5,4.3-2.5c1.8,0,3.2,1.1,3.8,2.7h0.1
			c0.4-0.8,1-1.3,1.5-1.8c0.8-0.6,1.7-1,3-1c1.8,0,4.5,1.2,4.5,5.9v8h-2.4v-7.7c0-2.6-1-4.2-2.9-4.2c-1.4,0-2.5,1-2.9,2.2
			c-0.1,0.3-0.2,0.8-0.2,1.2v8.4h-2.4v-8.1c0-2.2-1-3.7-2.8-3.7c-1.5,0-2.7,1.2-3.1,2.5c-0.1,0.4-0.2,0.8-0.2,1.2v8.2h-2.4v-9.8
			L963.2,731.1L963.2,731.1z"/>
		<path fill="#333333" d="M987.4,734.7c0.1,3.3,2.2,4.7,4.6,4.7c1.8,0,2.8-0.3,3.8-0.7l0.4,1.8c-0.9,0.4-2.4,0.8-4.5,0.8
			c-4.2,0-6.7-2.7-6.7-6.8s2.4-7.3,6.4-7.3c4.4,0,5.6,3.9,5.6,6.4c0,0.5-0.1,0.9-0.1,1.1H987.4z M994.6,732.9c0-1.6-0.6-4-3.4-4
			c-2.5,0-3.6,2.3-3.8,4H994.6z"/>
		<path fill="#333333" d="M999.5,731.1c0-1.4,0-2.5-0.1-3.7h2.2l0.1,2.2h0.1c0.7-1.3,2.2-2.5,4.5-2.5c1.9,0,4.8,1.1,4.8,5.8v8.1
			h-2.5v-7.8c0-2.2-0.8-4-3.1-4c-1.6,0-2.9,1.1-3.3,2.5c-0.1,0.3-0.2,0.7-0.2,1.1v8.1h-2.5V731.1z"/>
		<path fill="#333333" d="M1017.1,723.6v3.9h3.5v1.9h-3.5v7.3c0,1.7,0.5,2.6,1.8,2.6c0.6,0,1.1-0.1,1.4-0.2l0.1,1.8
			c-0.5,0.2-1.2,0.3-2.2,0.3c-1.1,0-2.1-0.4-2.7-1c-0.7-0.7-1-1.9-1-3.5v-7.4h-2.1v-1.9h2.1v-3.2L1017.1,723.6z"/>
		<path fill="#333333" d="M1030.5,741l-0.2-1.7h-0.1c-0.8,1.1-2.2,2-4.1,2c-2.7,0-4.1-1.9-4.1-3.9c0-3.3,2.9-5.1,8.1-5v-0.3
			c0-1.1-0.3-3.1-3.1-3.1c-1.3,0-2.6,0.4-3.5,1l-0.6-1.6c1.1-0.7,2.7-1.2,4.5-1.2c4.1,0,5.2,2.8,5.2,5.5v5.1c0,1.2,0.1,2.3,0.2,3.2
			H1030.5z M1030.1,734.1c-2.7-0.1-5.7,0.4-5.7,3.1c0,1.6,1.1,2.4,2.3,2.4c1.8,0,2.9-1.1,3.3-2.3c0.1-0.3,0.1-0.5,0.1-0.8
			L1030.1,734.1L1030.1,734.1z"/>
		<path fill="#333333" d="M1035.8,731.7c0-1.6,0-3-0.1-4.2h2.2l0.1,2.7h0.1c0.6-1.8,2.1-3,3.8-3c0.3,0,0.5,0,0.7,0.1v2.3
			c-0.3-0.1-0.5-0.1-0.8-0.1c-1.7,0-3,1.3-3.3,3.2c-0.1,0.3-0.1,0.7-0.1,1.1v7.2h-2.4v-9.3H1035.8z"/>
		<path fill="#333333" d="M1046.1,727.5l3,8c0.3,0.9,0.6,2,0.9,2.8h0.1c0.3-0.8,0.5-1.8,0.9-2.8l2.7-8h2.6l-3.7,9.7
			c-1.8,4.6-3,7-4.6,8.5c-1.2,1.1-2.4,1.5-3,1.6l-0.6-2.1c0.6-0.2,1.4-0.6,2.2-1.2c0.7-0.5,1.5-1.5,2.1-2.7c0.1-0.3,0.2-0.4,0.2-0.6
			s-0.1-0.3-0.2-0.6l-5-12.5h2.4V727.5z"/>
		<path fill="#333333" d="M1071.4,741l-0.2-1.7h-0.1c-0.8,1.1-2.2,2-4.1,2c-2.7,0-4.1-1.9-4.1-3.9c0-3.3,2.9-5.1,8.1-5v-0.3
			c0-1.1-0.3-3.1-3.1-3.1c-1.3,0-2.6,0.4-3.5,1l-0.6-1.6c1.1-0.7,2.7-1.2,4.5-1.2c4.1,0,5.2,2.8,5.2,5.5v5.1c0,1.2,0.1,2.3,0.2,3.2
			H1071.4z M1071,734.1c-2.7-0.1-5.7,0.4-5.7,3.1c0,1.6,1.1,2.4,2.3,2.4c1.8,0,2.9-1.1,3.3-2.3c0.1-0.3,0.1-0.5,0.1-0.8L1071,734.1
			L1071,734.1z"/>
		<path fill="#333333" d="M1076.6,731.9c0-1.7-0.1-3.1-0.1-4.4h2.2l0.1,2.3h0.1c1-1.7,2.6-2.6,4.8-2.6c3.3,0,5.7,2.8,5.7,6.9
			c0,4.9-3,7.3-6.2,7.3c-1.8,0-3.4-0.8-4.2-2.1h-0.1v7.4h-2.4L1076.6,731.9L1076.6,731.9z M1079.1,735.5c0,0.4,0.1,0.7,0.1,1
			c0.4,1.7,1.9,2.9,3.7,2.9c2.6,0,4.1-2.1,4.1-5.2c0-2.7-1.4-5-4-5c-1.7,0-3.2,1.2-3.7,3.1c-0.1,0.3-0.2,0.7-0.2,1V735.5z"/>
		<path fill="#333333" d="M1092,731.9c0-1.7-0.1-3.1-0.1-4.4h2.2l0.1,2.3h0.1c1-1.7,2.6-2.6,4.8-2.6c3.3,0,5.7,2.8,5.7,6.9
			c0,4.9-3,7.3-6.2,7.3c-1.8,0-3.4-0.8-4.2-2.1h-0.1v7.4h-2.4L1092,731.9L1092,731.9z M1094.5,735.5c0,0.4,0.1,0.7,0.1,1
			c0.4,1.7,1.9,2.9,3.7,2.9c2.6,0,4.1-2.1,4.1-5.2c0-2.7-1.4-5-4-5c-1.7,0-3.2,1.2-3.7,3.1c-0.1,0.3-0.2,0.7-0.2,1V735.5z"/>
		<path fill="#333333" d="M1109,734.7c0.1,3.3,2.2,4.7,4.6,4.7c1.8,0,2.8-0.3,3.8-0.7l0.4,1.8c-0.9,0.4-2.4,0.8-4.5,0.8
			c-4.2,0-6.7-2.7-6.7-6.8s2.4-7.3,6.4-7.3c4.4,0,5.6,3.9,5.6,6.4c0,0.5-0.1,0.9-0.1,1.1H1109z M1116.2,732.9c0-1.6-0.6-4-3.4-4
			c-2.5,0-3.6,2.3-3.8,4H1116.2z"/>
		<path fill="#333333" d="M1121,731.1c0-1.4,0-2.5-0.1-3.7h2.2l0.1,2.2h0.1c0.7-1.3,2.2-2.5,4.5-2.5c1.9,0,4.8,1.1,4.8,5.8v8.1h-2.5
			v-7.8c0-2.2-0.8-4-3.1-4c-1.6,0-2.9,1.1-3.3,2.5c-0.1,0.3-0.2,0.7-0.2,1.1v8.1h-2.5V731.1z"/>
		<path fill="#333333" d="M1147.7,721.1v16.4c0,1.2,0,2.6,0.1,3.5h-2.2l-0.1-2.4h-0.1c-0.8,1.5-2.4,2.7-4.6,2.7
			c-3.3,0-5.8-2.8-5.8-6.9c0-4.5,2.8-7.3,6.1-7.3c2.1,0,3.5,1,4.1,2.1h0.1v-8.1H1147.7z M1145.2,733c0-0.3,0-0.7-0.1-1
			c-0.4-1.6-1.7-2.9-3.6-2.9c-2.5,0-4.1,2.2-4.1,5.2c0,2.7,1.3,5,4,5c1.7,0,3.2-1.1,3.6-2.9c0.1-0.3,0.1-0.7,0.1-1.1L1145.2,733
			L1145.2,733z"/>
		<path fill="#333333" d="M1153.8,723.6c0,0.8-0.6,1.5-1.6,1.5c-0.9,0-1.5-0.7-1.5-1.5c0-0.9,0.6-1.5,1.5-1.5
			C1153.2,722.1,1153.8,722.8,1153.8,723.6z M1151.1,741v-13.6h2.5V741H1151.1z"/>
		<path fill="#333333" d="M1158.3,727.5l1.9,2.9c0.5,0.8,0.9,1.5,1.4,2.2h0.1c0.4-0.8,0.9-1.5,1.3-2.2l1.9-2.9h2.7l-4.6,6.6l4.8,7
			h-2.8l-2-3.1c-0.5-0.8-1-1.5-1.5-2.4h-0.1c-0.4,0.8-0.9,1.5-1.4,2.4l-2,3.1h-2.7l4.8-6.9l-4.6-6.6L1158.3,727.5L1158.3,727.5z"/>
		<path fill="#333333" d="M1167.9,744.4c2-2.8,3.5-6.4,3.5-11.5c0-5-1.5-8.6-3.5-11.4h1.9c1.8,2.3,3.7,5.9,3.7,11.4s-1.9,9-3.7,11.4
			L1167.9,744.4L1167.9,744.4z"/>
		<path fill="#333333" d="M1175.5,739.6c0-1,0.7-1.8,1.7-1.8s1.7,0.7,1.7,1.8c0,1-0.6,1.8-1.7,1.8
			C1176.1,741.3,1175.5,740.6,1175.5,739.6z"/>
	</g>
</g>
</svg>
