<?xml version="1.0" encoding="utf-8"?>
<!-- Generator: Adobe Illustrator 24.2.0, SVG Export Plug-In . SVG Version: 6.00 Build 0)  -->
<svg version="1.1" id="Layer_1" xmlns="http://www.w3.org/2000/svg" xmlns:xlink="http://www.w3.org/1999/xlink" x="0px" y="0px"
	 width="2048px" height="1536px" viewBox="0 0 2048 1536" enable-background="new 0 0 2048 1536" xml:space="preserve">
<rect x="140.5" y="140.5" fill="#FFFFFF" width="1767" height="1255"/>
<g>
	<path fill="#CC0033" d="M1878.5,172.1c0.7-0.7,0.5-1.5-0.6-2.5c-1-1-1.8-1.2-2.4-0.5l-29.2,29.2c-0.6,0.6-0.4,1.4,0.5,2.4
		c1,1,1.8,1.2,2.5,0.6L1878.5,172.1z"/>
	<path fill="#CC0033" d="M1849.4,169.1c-0.7-0.7-1.5-0.5-2.5,0.6c-1,1-1.2,1.8-0.5,2.4l29.2,29.2c0.6,0.6,1.4,0.4,2.4-0.5
		c1-1,1.2-1.8,0.6-2.5L1849.4,169.1z"/>
</g>
<g>
	<g>
		<path fill="#CC0033" d="M283.7,322v11h-4.1v-30.8h8.8c1.1,0,8.7,0.1,8.7,6.6v6.8c0,1.9-0.9,3.5-2.4,4.6c1.5,1,2.4,2.5,2.4,4.4v8.4
			h-4.2v-8.4c0-2-2.9-2.6-4.7-2.6H283.7z M292.8,308.8c0-1.9-2.8-2.6-4.5-2.6h-4.6V318h4.4c1.8,0,4.7-0.5,4.7-2.5V308.8z"/>
		<path fill="#CC0033" d="M305.4,315.3h13.1v4.5h-13.1c0,0.8,0,1.9,0,3c0,1.8,0,3.7,0.1,3.9c0.4,1.3,2.7,1.8,4.3,1.8h8.7v4.5l-8.7,0
			c-4,0-8.8-1.9-8.8-6.6v-24.2h17.5v4.4h-13.1V315.3z"/>
		<path fill="#CC0033" d="M340.1,302.2v4.3h-13.2v9.1H338v4.4h-11.1v2.8c0,3.3,0,8.9,0,10.3h-4.3v-30.8H340.1z"/>
		<path fill="#CC0033" d="M348.4,315.3h13.1v4.5h-13.1c0,0.8,0,1.9,0,3c0,1.8,0,3.7,0.1,3.9c0.4,1.3,2.7,1.8,4.3,1.8h8.7v4.5l-8.7,0
			c-4,0-8.8-1.9-8.8-6.6v-24.2h17.5v4.4h-13.1V315.3z"/>
		<path fill="#CC0033" d="M369.8,322v11h-4.1v-30.8h8.8c1.1,0,8.7,0.1,8.7,6.6v6.8c0,1.9-0.9,3.5-2.4,4.6c1.5,1,2.4,2.5,2.4,4.4v8.4
			h-4.2v-8.4c0-2-2.9-2.6-4.7-2.6H369.8z M378.9,308.8c0-1.9-2.8-2.6-4.5-2.6h-4.6V318h4.4c1.8,0,4.7-0.5,4.7-2.5V308.8z"/>
		<path fill="#CC0033" d="M391.5,315.3h13.1v4.5h-13.1c0,0.8,0,1.9,0,3c0,1.8,0,3.7,0.1,3.9c0.4,1.3,2.7,1.8,4.3,1.8h8.7v4.5l-8.7,0
			c-4,0-8.8-1.9-8.8-6.6v-24.2h17.5v4.4h-13.1V315.3z"/>
		<path fill="#CC0033" d="M428.2,333h-3.7l-11.7-21.8V333h-4v-30.8h3.8l11.6,21.8v-21.8h4V333z"/>
		<path fill="#CC0033" d="M452.2,325.2c0.3,4.5-2.4,6.6-5.4,7.5h0c-1.2,0.4-2.9,0.5-4.4,0.5c-1.5,0-3.1-0.1-4.2-0.4
			c-3-0.9-5.6-3-5.6-6.2v-17.8c0-3.7,3-5.8,6.4-6.4c1.1-0.2,2.3-0.3,3.4-0.3c1.6,0,3.4,0.2,4.8,0.7c2.9,1,5.3,3,5,7.3l-4.4,0
			c0-2-0.4-2.6-1.9-3.2l-0.4-0.1c-0.9-0.2-1.8-0.3-2.9-0.3c-0.9,0-1.9,0-2.6,0.2c-1.5,0.2-2.9,1.1-2.9,2.1v17.8
			c0,0.9,1.1,1.6,2.3,1.9c0.9,0.2,2,0.3,3.1,0.3c1.1,0,2.2-0.1,3.1-0.4c1.2-0.4,2.2-1,2.2-3.1L452.2,325.2z"/>
		<path fill="#CC0033" d="M460.7,315.3h13.1v4.5h-13.1c0,0.8,0,1.9,0,3c0,1.8,0,3.7,0.1,3.9c0.4,1.3,2.7,1.8,4.3,1.8h8.7v4.5l-8.7,0
			c-4,0-8.8-1.9-8.8-6.6v-24.2h17.5v4.4h-13.1V315.3z"/>
		<path fill="#CC0033" d="M491.4,309.2c0.1-2.6-2.6-3.5-4.3-3.6c-1.7,0-3.5,0.2-4.6,1.4c-0.7,0.8-0.8,2.2-0.8,3.3
			c0,1,0.3,1.8,0.8,2.5c1,1.2,3,1.7,4.8,2.2c5.3,1.4,9.5,3.7,9.5,9.9c0,2.7-0.9,4.9-2.6,6.4c-1.8,1.5-4.8,2-7.2,2
			c-1.6,0-3.1-0.2-4.5-0.4c-3-0.6-5.3-2.9-4.9-7.6l4.1,0c0,1.4,0.2,3.2,2.2,3.7c1,0.2,2.1,0.4,3.1,0.4c1.5,0,3.1-0.2,4.3-1.2
			c1-0.7,1.3-2,1.4-3.3c0-3.6-3.3-5.2-6.3-6c-2.6-0.7-5.2-1.5-6.7-3.2c-1.4-1.5-2-3.4-2-5.5c0-2.3,0-4.4,2.2-6.2
			c1.6-1.6,4.8-2.4,7.4-2.4c3.1,0,8.5,2.2,8.4,7.5L491.4,309.2z"/>
	</g>
	<g>
		<path fill="#333333" d="M320.8,409.1L320.8,409.1l-3.2,1.7l-0.5-1.9l4-2.1h2.1V425h-2.4V409.1z"/>
		<path fill="#333333" d="M328,423.5c0-1,0.7-1.8,1.7-1.8c1,0,1.7,0.7,1.7,1.8c0,1-0.6,1.8-1.7,1.8C328.6,425.3,328,424.6,328,423.5
			z"/>
	</g>
	<g>
		<path fill="#333333" d="M356.2,406.1h2.4v12.6c0,5-2.5,6.6-5.7,6.6c-0.9,0-2-0.2-2.6-0.4l0.4-2c0.5,0.2,1.2,0.4,2,0.4
			c2.2,0,3.5-1,3.5-4.7V406.1z"/>
		<path fill="#333333" d="M369.4,425l-0.2-1.7h-0.1c-0.8,1.1-2.2,2-4.1,2c-2.7,0-4.1-1.9-4.1-3.9c0-3.3,2.9-5.1,8.1-5v-0.3
			c0-1.1-0.3-3.1-3.1-3.1c-1.3,0-2.6,0.4-3.5,1l-0.6-1.6c1.1-0.7,2.7-1.2,4.5-1.2c4.1,0,5.2,2.8,5.2,5.5v5.1c0,1.2,0.1,2.3,0.2,3.2
			H369.4z M369,418.1c-2.7-0.1-5.7,0.4-5.7,3.1c0,1.6,1.1,2.4,2.3,2.4c1.8,0,2.9-1.1,3.3-2.3c0.1-0.3,0.1-0.5,0.1-0.8V418.1z"/>
		<path fill="#333333" d="M374.7,415.1c0-1.4,0-2.5-0.1-3.7h2.2l0.1,2.2h0.1c0.7-1.3,2.2-2.5,4.5-2.5c1.9,0,4.8,1.1,4.8,5.8v8.1
			h-2.5v-7.8c0-2.2-0.8-4-3.1-4c-1.6,0-2.9,1.1-3.3,2.5c-0.1,0.3-0.2,0.7-0.2,1.1v8.1h-2.5V415.1z"/>
		<path fill="#333333" d="M389.1,422.5c0.7,0.5,2,1,3.2,1c1.8,0,2.6-0.9,2.6-2c0-1.2-0.7-1.8-2.5-2.5c-2.4-0.9-3.6-2.2-3.6-3.8
			c0-2.2,1.8-4,4.7-4c1.4,0,2.6,0.4,3.3,0.8l-0.6,1.8c-0.5-0.3-1.5-0.8-2.8-0.8c-1.5,0-2.3,0.8-2.3,1.8c0,1.1,0.8,1.6,2.6,2.3
			c2.4,0.9,3.6,2.1,3.6,4.1c0,2.4-1.8,4.1-5.1,4.1c-1.5,0-2.9-0.4-3.8-0.9L389.1,422.5z"/>
		<path fill="#333333" d="M407.6,425l-0.2-1.7h-0.1c-0.8,1.1-2.2,2-4.1,2c-2.7,0-4.1-1.9-4.1-3.9c0-3.3,2.9-5.1,8.1-5v-0.3
			c0-1.1-0.3-3.1-3.1-3.1c-1.3,0-2.6,0.4-3.5,1l-0.6-1.6c1.1-0.7,2.7-1.2,4.5-1.2c4.1,0,5.2,2.8,5.2,5.5v5.1c0,1.2,0.1,2.3,0.2,3.2
			H407.6z M407.2,418.1c-2.7-0.1-5.7,0.4-5.7,3.1c0,1.6,1.1,2.4,2.3,2.4c1.8,0,2.9-1.1,3.3-2.3c0.1-0.3,0.1-0.5,0.1-0.8V418.1z"/>
		<path fill="#333333" d="M419.1,406.4c1.2-0.2,2.7-0.4,4.7-0.4c2.4,0,4.2,0.6,5.3,1.6c1,0.9,1.7,2.3,1.7,3.9c0,1.7-0.5,3.1-1.5,4
			c-1.3,1.4-3.4,2.1-5.8,2.1c-0.7,0-1.4,0-2-0.2v7.6h-2.4V406.4z M421.5,415.5c0.5,0.1,1.2,0.2,2,0.2c2.9,0,4.7-1.4,4.7-4
			c0-2.5-1.8-3.7-4.5-3.7c-1.1,0-1.9,0.1-2.3,0.2V415.5z"/>
		<path fill="#333333" d="M428.3,428.4c0.6-1.7,1.4-4.6,1.7-6.7l2.7-0.3c-0.6,2.4-1.9,5.5-2.7,6.8L428.3,428.4z"/>
		<path fill="#333333" d="M441.2,406.4c1.2-0.2,2.7-0.4,4.7-0.4c2.4,0,4.2,0.6,5.3,1.6c1,0.9,1.7,2.3,1.7,3.9c0,1.7-0.5,3.1-1.5,4
			c-1.3,1.4-3.4,2.1-5.8,2.1c-0.7,0-1.4,0-2-0.2v7.6h-2.4V406.4z M443.6,415.5c0.5,0.1,1.2,0.2,2,0.2c2.9,0,4.7-1.4,4.7-4
			c0-2.5-1.8-3.7-4.5-3.7c-1.1,0-1.9,0.1-2.3,0.2V415.5z"/>
		<path fill="#333333" d="M466.4,421.3c0,1.4,0,2.6,0.1,3.7h-2.2l-0.1-2.2h-0.1c-0.6,1.1-2.1,2.5-4.5,2.5c-2.1,0-4.7-1.2-4.7-5.9
			v-7.9h2.5v7.5c0,2.6,0.8,4.3,3,4.3c1.7,0,2.8-1.1,3.2-2.2c0.1-0.4,0.2-0.8,0.2-1.3v-8.3h2.5V421.3z"/>
		<path fill="#333333" d="M469.8,405.1h2.5V425h-2.5V405.1z"/>
		<path fill="#333333" d="M478.4,407.6c0,0.8-0.6,1.5-1.6,1.5c-0.9,0-1.5-0.7-1.5-1.5c0-0.9,0.6-1.5,1.5-1.5
			C477.8,406.1,478.4,406.8,478.4,407.6z M475.6,425v-13.6h2.5V425H475.6z"/>
		<path fill="#333333" d="M493.3,405.1v16.4c0,1.2,0,2.6,0.1,3.5h-2.2l-0.1-2.4H491c-0.8,1.5-2.4,2.7-4.6,2.7
			c-3.3,0-5.8-2.8-5.8-6.9c0-4.5,2.8-7.3,6.1-7.3c2.1,0,3.5,1,4.1,2.1h0.1v-8.1H493.3z M490.8,417c0-0.3,0-0.7-0.1-1
			c-0.4-1.6-1.7-2.9-3.6-2.9c-2.5,0-4.1,2.2-4.1,5.2c0,2.7,1.3,5,4,5c1.7,0,3.2-1.1,3.6-2.9c0.1-0.3,0.1-0.7,0.1-1.1V417z"/>
		<path fill="#333333" d="M509.1,418.1c0,5-3.5,7.2-6.7,7.2c-3.7,0-6.5-2.7-6.5-7c0-4.5,3-7.2,6.7-7.2
			C506.5,411.1,509.1,414,509.1,418.1z M498.3,418.3c0,3,1.7,5.2,4.1,5.2c2.4,0,4.1-2.2,4.1-5.3c0-2.3-1.1-5.2-4.1-5.2
			S498.3,415.7,498.3,418.3z"/>
		<path fill="#333333" d="M521.3,408.2h-5.7v-2.1h14v2.1h-5.8V425h-2.5V408.2z"/>
		<path fill="#333333" d="M528.7,423.5c0-1,0.7-1.8,1.7-1.8c1,0,1.7,0.7,1.7,1.8c0,1-0.6,1.8-1.7,1.8
			C529.3,425.3,528.7,424.6,528.7,423.5z"/>
	</g>
	<g>
		<path fill="#333333" d="M542.7,419l-3,6h-2.5l9.8-18.9h2.7l2.6,18.9H550l-0.8-6H542.7z M549.1,417.2l-0.7-5.5
			c-0.1-1-0.3-2.4-0.3-3.5h-0.1c-0.5,1.1-1,2.3-1.5,3.4l-2.8,5.5H549.1z"/>
		<path fill="#333333" d="M554.1,425l1.8-9.6c0.3-1.5,0.5-2.8,0.6-3.9h2l-0.4,2.5h0.1c1.3-1.9,3-2.9,4.8-2.9c2.1,0,3.1,1.3,3.2,3
			c1.2-2,2.9-3,5-3c1.6,0,3.3,1,3.3,3.6c0,0.6-0.1,1.5-0.2,2.3l-1.5,8h-2.3l1.5-7.8c0.1-0.5,0.2-1.2,0.2-1.8c0-1.4-0.5-2.4-2-2.4
			c-1.7,0-3.7,2-4.2,5l-1.3,6.9h-2.2l1.5-8c0.1-0.6,0.2-1.1,0.2-1.7c0-1.1-0.3-2.3-2-2.3s-3.8,2.2-4.3,5.1l-1.3,6.8H554.1z"/>
		<path fill="#333333" d="M580.1,422.8c0.6,0.3,1.4,0.4,2.4,0.4c2,0,3.2-1,3.9-4.4l2.4-12.7h2.3l-2.5,13c-0.8,4.4-2.7,6.2-6.2,6.2
			c-1.1,0-2.3-0.3-2.8-0.5L580.1,422.8z"/>
		<path fill="#333333" d="M609.2,424.4c-1.1,0.5-2.8,0.9-4.9,0.9c-4.8,0-7.6-3-7.6-7.8c0-3.6,1.4-6.9,4-9.1c1.9-1.7,4.3-2.5,7.1-2.5
			c2.1,0,3.6,0.5,4.1,0.9l-0.8,1.9c-0.7-0.4-2-0.8-3.7-0.8c-2,0-3.9,0.8-5.4,2.1c-1.8,1.7-2.9,4.3-2.9,7.2c0,3.4,1.5,6.2,5.7,6.2
			c1.4,0,3-0.3,4-0.8L609.2,424.4z"/>
		<path fill="#333333" d="M619.6,425c0-0.8,0.1-2.1,0.3-3.5h-0.1c-1.5,2.8-3.3,3.8-5.3,3.8c-2.4,0-3.9-1.9-3.9-4.5
			c0-4.7,3.5-9.7,9.4-9.7c1.3,0,2.7,0.2,3.6,0.5l-1.4,7.1c-0.4,2.4-0.6,4.8-0.6,6.3H619.6z M621.1,413.2c-0.3-0.1-0.8-0.2-1.6-0.2
			c-3.5,0-6.4,3.7-6.4,7.4c0,1.5,0.5,3,2.3,3c1.9,0,4.2-2.5,4.9-6.1L621.1,413.2z"/>
		<path fill="#333333" d="M624.6,425l1.7-8.7c0.3-1.8,0.6-3.6,0.7-4.8h2c-0.1,1-0.2,1.9-0.4,2.9h0.1c0.9-1.8,2.3-3.2,4.1-3.2
			c0.2,0,0.5,0,0.6,0.1l-0.4,2.3c-0.1,0-0.4-0.1-0.6-0.1c-2,0-3.8,2.4-4.4,5.6l-1.1,6H624.6z"/>
		<path fill="#333333" d="M646.9,405.1l-3,15.6c-0.3,1.4-0.5,3-0.6,4.3h-2.1l0.4-2.7h-0.1c-1.2,1.9-2.9,3-4.9,3
			c-2.6,0-4.1-2.2-4.1-4.9c0-4.8,3.6-9.2,8.4-9.2c0.9,0,1.8,0.2,2.4,0.5l1.2-6.5H646.9z M643,413.6c-0.5-0.3-1.3-0.6-2.2-0.6
			c-3.2,0-5.8,3.4-5.8,7.1c0,1.6,0.6,3.3,2.5,3.3c1.8,0,3.9-2,4.5-5.1L643,413.6z"/>
		<path fill="#333333" d="M646.6,425l2.6-13.6h2.3l-2.6,13.6H646.6z M649.6,407.7c0-0.9,0.7-1.6,1.5-1.6c0.8,0,1.4,0.6,1.4,1.5
			c0,0.9-0.7,1.6-1.6,1.6C650.1,409.1,649.6,408.5,649.6,407.7z"/>
		<path fill="#333333" d="M665.3,416.8c0,4.2-3,8.5-7.5,8.5c-3.4,0-5.3-2.5-5.3-5.6c0-4.5,3.1-8.6,7.5-8.6
			C663.7,411.1,665.3,413.9,665.3,416.8z M654.9,419.7c0,2.2,1.2,3.8,3.2,3.8c2.7,0,4.8-3.5,4.8-6.7c0-1.6-0.7-3.8-3.2-3.8
			C656.8,413,654.9,416.5,654.9,419.7z"/>
		<path fill="#333333" d="M669.2,411.4l1.2,7.7c0.2,1.5,0.4,2.6,0.4,3.3h0.1c0.3-0.7,0.6-1.6,1.4-3.2l4.1-7.9h2.5l-7.5,13.6h-2.3
			l-2.4-13.6H669.2z"/>
		<path fill="#333333" d="M686.7,425c0-0.8,0.1-2.1,0.3-3.5H687c-1.5,2.8-3.3,3.8-5.3,3.8c-2.4,0-3.9-1.9-3.9-4.5
			c0-4.7,3.5-9.7,9.4-9.7c1.3,0,2.7,0.2,3.6,0.5l-1.4,7.1c-0.4,2.4-0.6,4.8-0.6,6.3H686.7z M688.2,413.2c-0.3-0.1-0.8-0.2-1.6-0.2
			c-3.5,0-6.4,3.7-6.4,7.4c0,1.5,0.5,3,2.3,3c1.9,0,4.2-2.5,4.9-6.1L688.2,413.2z"/>
		<path fill="#333333" d="M691.6,422.6c0.6,0.4,1.8,0.8,2.9,0.8c1.6,0,2.6-1,2.6-2.2c0-1.1-0.5-1.7-1.9-2.5
			c-1.6-0.9-2.4-2.1-2.4-3.4c0-2.4,2-4.2,4.9-4.2c1.2,0,2.3,0.3,2.8,0.7l-0.6,1.8c-0.5-0.3-1.3-0.6-2.4-0.6c-1.4,0-2.4,0.9-2.4,2
			c0,1,0.6,1.6,1.8,2.3c1.5,0.9,2.5,2,2.5,3.6c0,2.9-2.3,4.5-5.2,4.5c-1.5,0-2.7-0.4-3.4-0.9L691.6,422.6z"/>
		<path fill="#333333" d="M710.4,424.5c-0.7,0.3-2.1,0.8-3.9,0.8c-3.5,0-5.2-2.4-5.2-5.2c0-4.6,3.4-8.9,8.3-8.9
			c1.3,0,2.4,0.4,2.8,0.6l-0.7,1.8c-0.5-0.3-1.3-0.5-2.3-0.5c-3.5,0-5.7,3.5-5.7,6.7c0,2.2,1.1,3.6,3.4,3.6c1.4,0,2.4-0.4,3.1-0.8
			L710.4,424.5z"/>
		<path fill="#333333" d="M721.2,406.4c1.4-0.3,3-0.4,4.7-0.4c3.2,0,5.5,0.9,6.9,2.5c1,1.1,1.8,2.7,1.8,5.1c0,3.4-1.4,6.8-3.8,8.9
			c-2.2,1.8-4.9,2.6-8.5,2.6c-1.7,0-3.4-0.1-4.6-0.2L721.2,406.4z M720.3,423.1c0.8,0.1,1.7,0.1,2.4,0.1c3,0,5.2-0.9,6.7-2.5
			c1.7-1.7,2.6-4.3,2.6-6.9c0-3.4-1.7-5.9-6.4-5.9c-0.8,0-1.9,0.1-2.6,0.2L720.3,423.1z"/>
		<path fill="#333333" d="M735.2,425l1.7-8.7c0.3-1.8,0.6-3.6,0.7-4.8h2c-0.1,1-0.2,1.9-0.4,2.9h0.1c0.9-1.8,2.3-3.2,4.1-3.2
			c0.2,0,0.5,0,0.6,0.1l-0.4,2.3c-0.1,0-0.4-0.1-0.6-0.1c-2,0-3.8,2.4-4.4,5.6l-1.1,6H735.2z"/>
		<path fill="#333333" d="M756.7,411.4l-1.8,9.6c-0.3,1.5-0.5,2.8-0.6,3.9h-2.1l0.4-2.5h-0.1c-1.2,1.8-3,2.9-4.8,2.9
			c-1.7,0-3.6-0.8-3.6-3.9c0-0.6,0.1-1.4,0.3-2.3l1.5-7.7h2.3l-1.4,7.6c-0.2,0.8-0.3,1.4-0.3,2c0,1.4,0.6,2.4,2.2,2.4
			c1.7,0,3.8-2,4.4-5l1.3-6.9H756.7z"/>
		<path fill="#333333" d="M757.6,428.1c0.8,0.5,2.2,0.9,3.6,0.9c2.3,0,4.1-1.2,4.9-4.8l0.4-2h-0.1c-1.2,1.9-2.8,2.9-4.7,2.9
			c-2.7,0-4.1-2.3-4.1-4.7c0-4.6,3.4-9.2,8.6-9.2c1.6,0,3.3,0.4,4.3,1l-2.1,11.2c-0.6,2.9-1.3,4.8-2.7,6c-1.3,1.2-3.2,1.5-4.7,1.5
			c-1.7,0-3.2-0.4-4.1-1L757.6,428.1z M768,413.5c-0.4-0.2-1.3-0.4-2.2-0.4c-3.4,0-5.7,3.5-5.7,6.9c0,1.5,0.5,3.2,2.6,3.2
			c2,0,4-2.5,4.5-5.2L768,413.5z"/>
		<path fill="#333333" d="M771.3,422.6c0.6,0.4,1.8,0.8,2.9,0.8c1.6,0,2.6-1,2.6-2.2c0-1.1-0.5-1.7-1.9-2.5
			c-1.6-0.9-2.4-2.1-2.4-3.4c0-2.4,2-4.2,4.9-4.2c1.2,0,2.3,0.3,2.8,0.7l-0.6,1.8c-0.5-0.3-1.3-0.6-2.4-0.6c-1.4,0-2.4,0.9-2.4,2
			c0,1,0.6,1.6,1.8,2.3c1.5,0.9,2.5,2,2.5,3.6c0,2.9-2.3,4.5-5.2,4.5c-1.5,0-2.7-0.4-3.4-0.9L771.3,422.6z"/>
	</g>
	<g>
		<path fill="#333333" d="M787.2,425v-1.5l1.9-1.9c4.6-4.4,6.7-6.8,6.8-9.5c0-1.8-0.9-3.6-3.6-3.6c-1.7,0-3,0.8-3.9,1.5l-0.8-1.7
			c1.3-1.1,3.1-1.8,5.2-1.8c3.9,0,5.6,2.7,5.6,5.3c0,3.4-2.4,6.1-6.3,9.8l-1.5,1.3v0.1h8.2v2H787.2z"/>
		<path fill="#333333" d="M812.7,415.7c0,6.2-2.3,9.6-6.3,9.6c-3.6,0-6-3.3-6-9.4c0-6.1,2.6-9.5,6.3-9.5
			C810.5,406.5,812.7,409.9,812.7,415.7z M802.8,416c0,4.7,1.5,7.4,3.7,7.4c2.5,0,3.7-2.9,3.7-7.6c0-4.5-1.1-7.4-3.7-7.4
			C804.4,408.4,802.8,411,802.8,416z"/>
		<path fill="#333333" d="M818.4,409.1L818.4,409.1l-3.2,1.7l-0.5-1.9l4-2.1h2.1V425h-2.4V409.1z"/>
		<path fill="#333333" d="M825,420.4c0-2.3,1.4-3.9,3.6-4.9l0-0.1c-2-1-2.9-2.5-2.9-4.1c0-2.9,2.4-4.8,5.6-4.8
			c3.5,0,5.3,2.2,5.3,4.5c0,1.5-0.8,3.2-3,4.3v0.1c2.3,0.9,3.7,2.5,3.7,4.7c0,3.2-2.7,5.3-6.2,5.3C827.3,425.3,825,423,825,420.4z
			 M834.8,420.3c0-2.2-1.5-3.3-4-4c-2.1,0.6-3.3,2-3.3,3.8c-0.1,1.8,1.3,3.5,3.6,3.5C833.4,423.5,834.8,422.1,834.8,420.3z
			 M828,411.2c0,1.8,1.4,2.8,3.5,3.4c1.6-0.5,2.8-1.7,2.8-3.3c0-1.5-0.9-3-3.1-3C829.2,408.3,828,409.6,828,411.2z"/>
		<path fill="#333333" d="M838,428.4c0.6-1.7,1.4-4.6,1.7-6.7l2.7-0.3c-0.7,2.4-1.9,5.5-2.7,6.8L838,428.4z M839.2,413.7
			c0-1,0.7-1.8,1.7-1.8c1,0,1.7,0.7,1.7,1.8c0,1-0.6,1.7-1.7,1.7C839.9,415.4,839.2,414.7,839.2,413.7z"/>
		<path fill="#333333" d="M855.3,409.1L855.3,409.1l-3.2,1.7l-0.5-1.9l4-2.1h2.1V425h-2.4V409.1z"/>
		<path fill="#333333" d="M862,420.4c0-2.3,1.4-3.9,3.6-4.9l0-0.1c-2-1-2.9-2.5-2.9-4.1c0-2.9,2.4-4.8,5.6-4.8
			c3.5,0,5.3,2.2,5.3,4.5c0,1.5-0.8,3.2-3,4.3v0.1c2.3,0.9,3.7,2.5,3.7,4.7c0,3.2-2.7,5.3-6.2,5.3C864.3,425.3,862,423,862,420.4z
			 M871.8,420.3c0-2.2-1.5-3.3-4-4c-2.1,0.6-3.3,2-3.3,3.8c-0.1,1.8,1.3,3.5,3.6,3.5C870.3,423.5,871.8,422.1,871.8,420.3z
			 M865,411.2c0,1.8,1.4,2.8,3.5,3.4c1.6-0.5,2.8-1.7,2.8-3.3c0-1.5-0.9-3-3.1-3C866.1,408.3,865,409.6,865,411.2z"/>
		<path fill="#333333" d="M882,405.6c-2,2.7-3.5,6.4-3.5,11.5c0,5,1.5,8.6,3.5,11.4h-1.9c-1.8-2.3-3.7-5.9-3.7-11.4
			c0-5.5,1.9-9.1,3.7-11.5H882z"/>
		<path fill="#333333" d="M887.1,409.1L887.1,409.1l-3.2,1.7l-0.5-1.9l4-2.1h2.1V425h-2.4V409.1z"/>
		<path fill="#333333" d="M892.6,428.4c2-2.8,3.5-6.4,3.5-11.5c0-5-1.5-8.6-3.5-11.4h1.9c1.8,2.3,3.7,5.9,3.7,11.4
			c0,5.5-1.9,9-3.7,11.4H892.6z"/>
		<path fill="#333333" d="M900.4,413.7c0-1,0.7-1.8,1.7-1.8c1,0,1.6,0.7,1.7,1.8c0,1-0.6,1.7-1.7,1.7
			C901.1,415.4,900.4,414.7,900.4,413.7z M900.4,423.6c0-1,0.7-1.8,1.7-1.8c1,0,1.6,0.7,1.7,1.8c0,1-0.6,1.7-1.7,1.7
			C901.1,425.3,900.4,424.6,900.4,423.6z"/>
		<path fill="#333333" d="M908.8,409.1L908.8,409.1l-3.2,1.7l-0.5-1.9l4-2.1h2.1V425h-2.4V409.1z"/>
		<path fill="#333333" d="M928,417v1.7h-12.3V417H928z"/>
		<path fill="#333333" d="M933.1,409.1L933.1,409.1l-3.2,1.7l-0.5-1.9l4-2.1h2.1V425h-2.4V409.1z"/>
		<path fill="#333333" d="M943.8,409.1L943.8,409.1l-3.2,1.7l-0.5-1.9l4-2.1h2.1V425h-2.4V409.1z"/>
		<path fill="#333333" d="M951,423.5c0-1,0.7-1.8,1.7-1.8c1,0,1.7,0.7,1.7,1.8c0,1-0.6,1.8-1.7,1.8C951.7,425.3,951,424.6,951,423.5
			z"/>
	</g>
	<g>
		<path fill="#333333" d="M315.4,481v-1.5l1.9-1.9c4.6-4.4,6.7-6.8,6.8-9.5c0-1.8-0.9-3.6-3.6-3.6c-1.7,0-3,0.8-3.9,1.5l-0.8-1.7
			c1.3-1.1,3.1-1.8,5.2-1.8c3.9,0,5.6,2.7,5.6,5.3c0,3.4-2.4,6.1-6.3,9.8l-1.5,1.3v0.1h8.2v2H315.4z"/>
		<path fill="#333333" d="M329.5,479.5c0-1,0.7-1.8,1.7-1.8c1,0,1.7,0.7,1.7,1.8c0,1-0.6,1.8-1.7,1.8
			C330.2,481.3,329.5,480.6,329.5,479.5z"/>
	</g>
	<g>
		<path fill="#333333" d="M352.3,462.4c1.2-0.2,2.7-0.4,4.7-0.4c2.4,0,4.2,0.6,5.3,1.6c1,0.9,1.7,2.3,1.7,3.9c0,1.7-0.5,3.1-1.5,4
			c-1.3,1.4-3.4,2.1-5.8,2.1c-0.7,0-1.4,0-2-0.2v7.6h-2.4V462.4z M354.8,471.5c0.5,0.1,1.2,0.2,2,0.2c2.9,0,4.7-1.4,4.7-4
			c0-2.5-1.8-3.7-4.5-3.7c-1.1,0-1.9,0.1-2.3,0.2V471.5z"/>
		<path fill="#333333" d="M377.6,477.3c0,1.4,0,2.6,0.1,3.7h-2.2l-0.1-2.2h-0.1c-0.6,1.1-2.1,2.5-4.5,2.5c-2.1,0-4.7-1.2-4.7-5.9
			v-7.9h2.5v7.5c0,2.6,0.8,4.3,3,4.3c1.7,0,2.8-1.1,3.2-2.2c0.1-0.4,0.2-0.8,0.2-1.3v-8.3h2.5V477.3z"/>
		<path fill="#333333" d="M380.9,461.1h2.5V481h-2.5V461.1z"/>
		<path fill="#333333" d="M389.5,463.6c0,0.8-0.6,1.5-1.6,1.5c-0.9,0-1.5-0.7-1.5-1.5c0-0.9,0.6-1.5,1.5-1.5
			C388.9,462.1,389.5,462.8,389.5,463.6z M386.8,481v-13.6h2.5V481H386.8z"/>
		<path fill="#333333" d="M404.5,461.1v16.4c0,1.2,0,2.6,0.1,3.5h-2.2l-0.1-2.4h-0.1c-0.8,1.5-2.4,2.7-4.6,2.7
			c-3.3,0-5.8-2.8-5.8-6.9c0-4.5,2.8-7.3,6.1-7.3c2.1,0,3.5,1,4.1,2.1h0.1v-8.1H404.5z M402,473c0-0.3,0-0.7-0.1-1
			c-0.4-1.6-1.7-2.9-3.6-2.9c-2.5,0-4.1,2.2-4.1,5.2c0,2.7,1.3,5,4,5c1.7,0,3.2-1.1,3.6-2.9c0.1-0.3,0.1-0.7,0.1-1.1V473z"/>
		<path fill="#333333" d="M420.2,474.1c0,5-3.5,7.2-6.7,7.2c-3.7,0-6.5-2.7-6.5-7c0-4.5,3-7.2,6.7-7.2
			C417.6,467.1,420.2,470,420.2,474.1z M409.5,474.3c0,3,1.7,5.2,4.1,5.2c2.4,0,4.1-2.2,4.1-5.3c0-2.3-1.1-5.2-4.1-5.2
			S409.5,471.7,409.5,474.3z"/>
		<path fill="#333333" d="M432.5,464.2h-5.7v-2.1h14v2.1h-5.8V481h-2.5V464.2z"/>
	</g>
	<g>
		<path fill="#333333" d="M456.5,480.2c-1,0.6-2.7,1.1-4.5,1.1c-3.6,0-5.2-2.4-5.2-5.4c0-4.1,3-8.7,7.4-8.7c2.6,0,4,1.5,4,3.5
			c0,3.6-4,4.5-9,4.4c-0.1,0.6,0,1.8,0.3,2.6c0.5,1.2,1.6,1.8,3,1.8c1.6,0,2.8-0.5,3.6-1L456.5,480.2z M453.9,469
			c-2.2,0-3.9,2.2-4.4,4.3c3.6,0,6.5-0.4,6.5-2.5C455.9,469.6,455.1,469,453.9,469z"/>
		<path fill="#333333" d="M464.9,463.8l-0.7,3.6h3.2l-0.4,1.8h-3.2l-1.3,6.6c-0.1,0.8-0.3,1.5-0.3,2.2c0,0.8,0.4,1.3,1.3,1.3
			c0.4,0,0.8,0,1.1-0.1l-0.1,1.8c-0.4,0.2-1.1,0.3-1.8,0.3c-2.1,0-2.9-1.3-2.9-2.6c0-0.8,0.1-1.6,0.3-2.5l1.3-6.9h-2l0.4-1.8h1.9
			l0.6-3.1L464.9,463.8z"/>
		<path fill="#333333" d="M481.2,481c0-0.8,0.1-2.1,0.3-3.5h-0.1c-1.5,2.8-3.3,3.8-5.3,3.8c-2.4,0-3.9-1.9-3.9-4.5
			c0-4.7,3.5-9.7,9.4-9.7c1.3,0,2.7,0.2,3.6,0.5l-1.4,7.1c-0.4,2.4-0.6,4.8-0.6,6.3H481.2z M482.7,469.2c-0.3-0.1-0.8-0.2-1.6-0.2
			c-3.5,0-6.4,3.7-6.4,7.4c0,1.5,0.5,3,2.3,3c1.9,0,4.2-2.5,4.9-6.1L482.7,469.2z"/>
		<path fill="#333333" d="M486.2,481l3.8-19.9h2.3l-3.8,19.9H486.2z"/>
		<path fill="#333333" d="M491.6,479.7c0-1,0.7-1.9,1.8-1.9c1,0,1.6,0.7,1.6,1.7c0,1-0.7,1.8-1.8,1.8
			C492.3,481.3,491.6,480.6,491.6,479.7z"/>
		<path fill="#333333" d="M502.4,481l3.6-18.9h2.5l4.3,10.7c0.8,2.1,1.3,3.6,1.7,5.3l0.1,0c0.1-1.7,0.3-3.3,0.8-5.9l1.9-10h2.2
			l-3.6,18.9h-2.3l-4.3-10.7c-0.9-2.3-1.3-3.7-1.8-5.4l-0.1,0c-0.2,1.8-0.5,3.6-1,6.2l-1.9,9.9H502.4z"/>
		<path fill="#333333" d="M535.6,472.1h-6.9l-1.3,6.9h7.7l-0.4,2h-10.1l3.6-18.9h9.6l-0.4,2h-7.3l-1.1,6h6.9L535.6,472.1z"/>
		<path fill="#333333" d="M536.9,481l1.8-9.6c0.3-1.5,0.5-2.8,0.6-3.9h2.1l-0.3,2.7h0.1c1.2-1.9,3-3,5-3c1.6,0,3.4,0.9,3.4,3.8
			c0,0.6-0.1,1.5-0.3,2.2l-1.5,7.9h-2.3l1.5-7.8c0.1-0.5,0.2-1.2,0.2-1.7c0-1.4-0.5-2.4-2.1-2.4c-1.7,0-4,2-4.6,5.3l-1.2,6.6H536.9z
			"/>
		<path fill="#333333" d="M551.3,484.1c0.8,0.5,2.2,0.9,3.6,0.9c2.3,0,4.1-1.2,4.9-4.8l0.4-2h-0.1c-1.2,1.9-2.8,2.9-4.7,2.9
			c-2.7,0-4.1-2.3-4.1-4.7c0-4.6,3.4-9.2,8.6-9.2c1.6,0,3.3,0.4,4.3,1l-2.1,11.2c-0.6,2.9-1.3,4.8-2.7,6c-1.3,1.2-3.2,1.5-4.7,1.5
			c-1.7,0-3.2-0.4-4.1-1L551.3,484.1z M561.7,469.5c-0.4-0.2-1.3-0.4-2.2-0.4c-3.4,0-5.7,3.5-5.7,6.9c0,1.5,0.5,3.2,2.6,3.2
			c2,0,4-2.5,4.5-5.2L561.7,469.5z"/>
		<path fill="#333333" d="M565.2,481l3.8-19.9h2.3l-3.8,19.9H565.2z"/>
		<path fill="#333333" d="M575,478.8c0.6,0.3,1.4,0.4,2.4,0.4c2,0,3.2-1,3.9-4.4l2.4-12.7h2.3l-2.5,13c-0.8,4.4-2.7,6.2-6.2,6.2
			c-1.1,0-2.3-0.3-2.8-0.5L575,478.8z"/>
		<path fill="#333333" d="M606.8,481l1.3-10.2c0.3-1.8,0.7-4.6,1-6.4h-0.1c-0.9,1.9-1.9,4.1-2.9,6.1l-5.6,10.4h-1.8l-1.4-10.2
			c-0.3-2.2-0.5-4.4-0.6-6.3h-0.1c-0.4,1.7-1,4.6-1.5,6.4l-2.6,10.2h-2.2l4.9-18.9h3l1.5,10.8c0.2,1.6,0.4,3.3,0.4,4.7h0.1
			c0.6-1.4,1.4-3.1,2.2-4.6l5.9-10.9h3L609,481H606.8z"/>
		<path fill="#333333" d="M622,480.2c-1,0.6-2.7,1.1-4.5,1.1c-3.6,0-5.2-2.4-5.2-5.4c0-4.1,3-8.7,7.4-8.7c2.6,0,4,1.5,4,3.5
			c0,3.6-4,4.5-9,4.4c-0.1,0.6,0,1.8,0.3,2.6c0.5,1.2,1.6,1.8,3,1.8c1.6,0,2.8-0.5,3.6-1L622,480.2z M619.4,469
			c-2.2,0-3.9,2.2-4.4,4.3c3.6,0,6.5-0.4,6.5-2.5C621.5,469.6,620.6,469,619.4,469z"/>
		<path fill="#333333" d="M638.7,461.1l-3,15.6c-0.3,1.4-0.5,3-0.6,4.3H633l0.4-2.7h-0.1c-1.2,1.9-2.9,3-4.9,3
			c-2.6,0-4.1-2.2-4.1-4.9c0-4.8,3.6-9.2,8.4-9.2c0.9,0,1.8,0.2,2.4,0.5l1.2-6.5H638.7z M634.8,469.6c-0.5-0.3-1.3-0.6-2.2-0.6
			c-3.2,0-5.8,3.4-5.8,7.1c0,1.6,0.6,3.3,2.5,3.3c1.8,0,3.9-2,4.5-5.1L634.8,469.6z"/>
	</g>
	<g>
		<path fill="#333333" d="M644.5,481v-1.5l1.9-1.9c4.6-4.4,6.7-6.8,6.8-9.5c0-1.8-0.9-3.6-3.6-3.6c-1.7,0-3,0.8-3.9,1.5l-0.8-1.7
			c1.3-1.1,3.1-1.8,5.2-1.8c3.9,0,5.6,2.7,5.6,5.3c0,3.4-2.4,6.1-6.3,9.8l-1.5,1.3v0.1h8.2v2H644.5z"/>
		<path fill="#333333" d="M670,471.7c0,6.2-2.3,9.6-6.3,9.6c-3.6,0-6-3.3-6-9.4c0-6.1,2.6-9.5,6.3-9.5
			C667.8,462.5,670,465.9,670,471.7z M660.1,472c0,4.7,1.5,7.4,3.7,7.4c2.5,0,3.7-2.9,3.7-7.6c0-4.5-1.1-7.4-3.7-7.4
			C661.7,464.4,660.1,467,660.1,472z"/>
		<path fill="#333333" d="M675.7,465.1L675.7,465.1l-3.2,1.7l-0.5-1.9l4-2.1h2.1V481h-2.4V465.1z"/>
		<path fill="#333333" d="M682.7,478.2c0.7,0.4,2.3,1.1,4,1.1c3.2,0,4.1-2,4.1-3.5c0-2.5-2.3-3.6-4.7-3.6h-1.4v-1.8h1.4
			c1.8,0,4.1-0.9,4.1-3.1c0-1.5-0.9-2.7-3.2-2.7c-1.5,0-2.9,0.6-3.6,1.2l-0.6-1.8c1-0.7,2.8-1.4,4.8-1.4c3.6,0,5.2,2.1,5.2,4.3
			c0,1.9-1.1,3.5-3.4,4.3v0.1c2.2,0.4,4.1,2.1,4.1,4.7c0,2.9-2.3,5.5-6.6,5.5c-2,0-3.8-0.6-4.7-1.2L682.7,478.2z"/>
		<path fill="#333333" d="M694.4,484.4c0.6-1.7,1.4-4.6,1.7-6.7l2.7-0.3c-0.7,2.4-1.9,5.5-2.7,6.8L694.4,484.4z M695.6,469.7
			c0-1,0.7-1.8,1.7-1.8c1,0,1.7,0.7,1.7,1.8c0,1-0.6,1.7-1.7,1.7C696.3,471.4,695.6,470.7,695.6,469.7z"/>
		<path fill="#333333" d="M707,478.2c0.7,0.4,2.3,1.1,4,1.1c3.2,0,4.1-2,4.1-3.5c0-2.5-2.3-3.6-4.7-3.6h-1.4v-1.8h1.4
			c1.8,0,4.1-0.9,4.1-3.1c0-1.5-0.9-2.7-3.2-2.7c-1.5,0-2.9,0.6-3.6,1.2l-0.6-1.8c1-0.7,2.8-1.4,4.8-1.4c3.6,0,5.2,2.1,5.2,4.3
			c0,1.9-1.1,3.5-3.4,4.3v0.1c2.2,0.4,4.1,2.1,4.1,4.7c0,2.9-2.3,5.5-6.6,5.5c-2,0-3.8-0.6-4.7-1.2L707,478.2z"/>
		<path fill="#333333" d="M730.4,464.5c-0.5,0-1.1,0-1.8,0.1c-3.9,0.6-5.9,3.5-6.3,6.5h0.1c0.9-1.1,2.4-2.1,4.4-2.1
			c3.2,0,5.5,2.3,5.5,5.9c0,3.3-2.3,6.4-6,6.4c-3.9,0-6.4-3-6.4-7.8c0-3.6,1.3-6.4,3.1-8.2c1.5-1.5,3.5-2.4,5.8-2.7
			c0.7-0.1,1.3-0.1,1.8-0.1V464.5z M729.7,475c0-2.6-1.5-4.2-3.8-4.2c-1.5,0-2.9,0.9-3.5,2.2c-0.2,0.3-0.3,0.6-0.3,1.1
			c0.1,3,1.4,5.2,4,5.2C728.2,479.4,729.7,477.6,729.7,475z"/>
		<path fill="#333333" d="M734.8,479.3c0.5,0.1,1.1,0,2-0.1c1.4-0.2,2.8-0.8,3.8-1.8c1.2-1.1,2.1-2.7,2.4-4.8h-0.1
			c-1,1.2-2.5,2-4.3,2c-3.3,0-5.4-2.5-5.4-5.6c0-3.4,2.5-6.5,6.2-6.5c3.7,0,6,3,6,7.7c0,4-1.3,6.8-3.1,8.5c-1.4,1.4-3.3,2.2-5.3,2.4
			c-0.9,0.1-1.7,0.2-2.3,0.1V479.3z M735.7,468.8c0,2.3,1.4,3.9,3.5,3.9c1.7,0,2.9-0.8,3.6-1.9c0.1-0.2,0.2-0.5,0.2-0.9
			c0-3.1-1.1-5.5-3.7-5.5C737.1,464.4,735.7,466.2,735.7,468.8z"/>
		<path fill="#333333" d="M753.2,461.6c-2,2.7-3.5,6.4-3.5,11.5c0,5,1.5,8.6,3.5,11.4h-1.9c-1.8-2.3-3.7-5.9-3.7-11.4
			c0-5.5,1.9-9.1,3.7-11.5H753.2z"/>
		<path fill="#333333" d="M754.8,479.3c0.5,0.1,1.1,0,2-0.1c1.4-0.2,2.8-0.8,3.8-1.8c1.2-1.1,2.1-2.7,2.4-4.8H763
			c-1,1.2-2.5,2-4.3,2c-3.3,0-5.4-2.5-5.4-5.6c0-3.4,2.5-6.5,6.2-6.5c3.7,0,6,3,6,7.7c0,4-1.3,6.8-3.1,8.5c-1.4,1.4-3.3,2.2-5.3,2.4
			c-0.9,0.1-1.7,0.2-2.3,0.1V479.3z M755.7,468.8c0,2.3,1.4,3.9,3.5,3.9c1.7,0,2.9-0.8,3.6-1.9c0.1-0.2,0.2-0.5,0.2-0.9
			c0-3.1-1.1-5.5-3.7-5.5C757.2,464.4,755.7,466.2,755.7,468.8z"/>
		<path fill="#333333" d="M765.8,484.4c2-2.8,3.5-6.4,3.5-11.5c0-5-1.5-8.6-3.5-11.4h1.9c1.8,2.3,3.7,5.9,3.7,11.4
			c0,5.5-1.9,9-3.7,11.4H765.8z"/>
		<path fill="#333333" d="M773.6,469.7c0-1,0.7-1.8,1.7-1.8c1,0,1.6,0.7,1.7,1.8c0,1-0.6,1.7-1.7,1.7
			C774.3,471.4,773.6,470.7,773.6,469.7z M773.6,479.6c0-1,0.7-1.8,1.7-1.8c1,0,1.6,0.7,1.7,1.8c0,1-0.6,1.7-1.7,1.7
			C774.3,481.3,773.6,480.6,773.6,479.6z"/>
		<path fill="#333333" d="M778.4,476.4c0-2.3,1.4-3.9,3.6-4.9l0-0.1c-2-1-2.9-2.5-2.9-4.1c0-2.9,2.4-4.8,5.6-4.8
			c3.5,0,5.3,2.2,5.3,4.5c0,1.5-0.8,3.2-3,4.3v0.1c2.3,0.9,3.7,2.5,3.7,4.7c0,3.2-2.7,5.3-6.2,5.3
			C780.7,481.3,778.4,479,778.4,476.4z M788.2,476.3c0-2.2-1.5-3.3-4-4c-2.1,0.6-3.3,2-3.3,3.8c-0.1,1.8,1.3,3.5,3.6,3.5
			C786.8,479.5,788.2,478.1,788.2,476.3z M781.5,467.2c0,1.8,1.4,2.8,3.5,3.4c1.6-0.5,2.8-1.7,2.8-3.3c0-1.5-0.9-3-3.1-3
			C782.6,464.3,781.5,465.6,781.5,467.2z"/>
		<path fill="#333333" d="M804.7,471.7c0,6.2-2.3,9.6-6.3,9.6c-3.6,0-6-3.3-6-9.4c0-6.1,2.6-9.5,6.3-9.5
			C802.5,462.5,804.7,465.9,804.7,471.7z M794.8,472c0,4.7,1.5,7.4,3.7,7.4c2.5,0,3.7-2.9,3.7-7.6c0-4.5-1.1-7.4-3.7-7.4
			C796.4,464.4,794.8,467,794.8,472z"/>
		<path fill="#333333" d="M807.9,479.3c0.5,0.1,1.1,0,2-0.1c1.4-0.2,2.8-0.8,3.8-1.8c1.2-1.1,2.1-2.7,2.4-4.8H816
			c-1,1.2-2.5,2-4.3,2c-3.3,0-5.4-2.5-5.4-5.6c0-3.4,2.5-6.5,6.2-6.5c3.7,0,6,3,6,7.7c0,4-1.3,6.8-3.1,8.5c-1.4,1.4-3.3,2.2-5.3,2.4
			c-0.9,0.1-1.7,0.2-2.3,0.1V479.3z M808.8,468.8c0,2.3,1.4,3.9,3.5,3.9c1.7,0,2.9-0.8,3.6-1.9c0.1-0.2,0.2-0.5,0.2-0.9
			c0-3.1-1.1-5.5-3.7-5.5C810.3,464.4,808.8,466.2,808.8,468.8z"/>
		<path fill="#333333" d="M832.9,473v1.7h-12.3V473H832.9z"/>
		<path fill="#333333" d="M834.9,476.4c0-2.3,1.4-3.9,3.6-4.9l0-0.1c-2-1-2.9-2.5-2.9-4.1c0-2.9,2.4-4.8,5.6-4.8
			c3.5,0,5.3,2.2,5.3,4.5c0,1.5-0.8,3.2-3,4.3v0.1c2.3,0.9,3.7,2.5,3.7,4.7c0,3.2-2.7,5.3-6.2,5.3
			C837.1,481.3,834.9,479,834.9,476.4z M844.7,476.3c0-2.2-1.5-3.3-4-4c-2.1,0.6-3.3,2-3.3,3.8c-0.1,1.8,1.3,3.5,3.6,3.5
			C843.2,479.5,844.7,478.1,844.7,476.3z M837.9,467.2c0,1.8,1.4,2.8,3.5,3.4c1.6-0.5,2.8-1.7,2.8-3.3c0-1.5-0.9-3-3.1-3
			C839,464.3,837.9,465.6,837.9,467.2z"/>
		<path fill="#333333" d="M852.9,465.1L852.9,465.1l-3.2,1.7l-0.5-1.9l4-2.1h2.1V481h-2.4V465.1z"/>
		<path fill="#333333" d="M859.5,476.4c0-2.3,1.4-3.9,3.6-4.9l0-0.1c-2-1-2.9-2.5-2.9-4.1c0-2.9,2.4-4.8,5.6-4.8
			c3.5,0,5.3,2.2,5.3,4.5c0,1.5-0.8,3.2-3,4.3v0.1c2.3,0.9,3.7,2.5,3.7,4.7c0,3.2-2.7,5.3-6.2,5.3
			C861.8,481.3,859.5,479,859.5,476.4z M869.3,476.3c0-2.2-1.5-3.3-4-4c-2.1,0.6-3.3,2-3.3,3.8c-0.1,1.8,1.3,3.5,3.6,3.5
			C867.9,479.5,869.3,478.1,869.3,476.3z M862.6,467.2c0,1.8,1.4,2.8,3.5,3.4c1.6-0.5,2.8-1.7,2.8-3.3c0-1.5-0.9-3-3.1-3
			C863.7,464.3,862.6,465.6,862.6,467.2z"/>
		<path fill="#333333" d="M874,479.5c0-1,0.7-1.8,1.7-1.8c1,0,1.7,0.7,1.7,1.8c0,1-0.6,1.8-1.7,1.8C874.6,481.3,874,480.6,874,479.5
			z"/>
	</g>
	<g>
		<path fill="#333333" d="M316.1,534.2c0.7,0.4,2.3,1.1,4,1.1c3.2,0,4.1-2,4.1-3.5c0-2.5-2.3-3.6-4.7-3.6h-1.4v-1.8h1.4
			c1.8,0,4.1-0.9,4.1-3.1c0-1.5-0.9-2.7-3.2-2.7c-1.5,0-2.9,0.6-3.6,1.2l-0.6-1.8c1-0.7,2.8-1.4,4.8-1.4c3.6,0,5.2,2.1,5.2,4.3
			c0,1.9-1.1,3.5-3.4,4.3v0.1c2.2,0.4,4.1,2.1,4.1,4.7c0,2.9-2.3,5.5-6.6,5.5c-2,0-3.8-0.6-4.7-1.2L316.1,534.2z"/>
		<path fill="#333333" d="M329.2,535.5c0-1,0.7-1.8,1.7-1.8c1,0,1.7,0.7,1.7,1.8c0,1-0.6,1.8-1.7,1.8
			C329.9,537.3,329.2,536.6,329.2,535.5z"/>
	</g>
	<g>
		<path fill="#333333" d="M368.5,527.4c0,6.5-3.9,9.9-8.8,9.9c-5,0-8.5-3.9-8.5-9.6c0-6,3.7-9.9,8.8-9.9
			C365.1,517.8,368.5,521.8,368.5,527.4z M353.8,527.7c0,4,2.2,7.6,6,7.6c3.9,0,6-3.6,6-7.8c0-3.8-2-7.7-6-7.7
			C355.9,519.8,353.8,523.5,353.8,527.7z"/>
		<path fill="#333333" d="M371.2,518.4c1.2-0.2,2.7-0.4,4.7-0.4c2.4,0,4.2,0.6,5.3,1.6c1,0.9,1.7,2.3,1.7,3.9c0,1.7-0.5,3.1-1.5,4
			c-1.3,1.4-3.4,2.1-5.8,2.1c-0.7,0-1.4,0-2-0.2v7.6h-2.4V518.4z M373.6,527.5c0.5,0.1,1.2,0.2,2,0.2c2.9,0,4.7-1.4,4.7-4
			c0-2.5-1.8-3.7-4.5-3.7c-1.1,0-1.9,0.1-2.3,0.2V527.5z"/>
		<path fill="#333333" d="M385,534c1.1,0.7,2.7,1.2,4.4,1.2c2.5,0,3.9-1.3,3.9-3.2c0-1.8-1-2.8-3.6-3.8c-3.1-1.1-5-2.7-5-5.3
			c0-2.9,2.4-5.1,6.1-5.1c1.9,0,3.3,0.4,4.2,0.9l-0.7,2c-0.6-0.3-1.9-0.9-3.6-0.9c-2.6,0-3.6,1.5-3.6,2.8c0,1.8,1.1,2.6,3.8,3.6
			c3.2,1.2,4.8,2.8,4.8,5.5c0,2.9-2.2,5.4-6.6,5.4c-1.8,0-3.8-0.5-4.8-1.2L385,534z"/>
		<path fill="#333333" d="M400.4,518.1v11.2c0,4.2,1.9,6,4.4,6c2.8,0,4.6-1.8,4.6-6v-11.2h2.5v11c0,5.8-3.1,8.2-7.1,8.2
			c-3.9,0-6.8-2.2-6.8-8.1v-11.1H400.4z"/>
		<path fill="#333333" d="M431.2,528.7c-0.1-2.6-0.3-5.8-0.3-8.1h-0.1c-0.6,2.2-1.4,4.6-2.4,7.2l-3.3,9.2h-1.8l-3.1-9
			c-0.9-2.7-1.7-5.1-2.2-7.3H418c-0.1,2.4-0.2,5.5-0.4,8.3l-0.5,8.1h-2.3l1.3-18.9h3.1l3.2,9.1c0.8,2.3,1.4,4.4,1.9,6.4h0.1
			c0.5-1.9,1.1-4,2-6.4l3.4-9.1h3.1l1.2,18.9h-2.4L431.2,528.7z"/>
		<path fill="#333333" d="M439.7,518.1V537h-2.4v-18.9H439.7z"/>
		<path fill="#333333" d="M447.1,520.2h-5.7v-2.1h14v2.1h-5.8V537h-2.5V520.2z"/>
		<path fill="#333333" d="M462.6,534c1.1,0.7,2.7,1.2,4.4,1.2c2.5,0,3.9-1.3,3.9-3.2c0-1.8-1-2.8-3.6-3.8c-3.1-1.1-5-2.7-5-5.3
			c0-2.9,2.4-5.1,6.1-5.1c1.9,0,3.3,0.4,4.2,0.9l-0.7,2c-0.6-0.3-1.9-0.9-3.6-0.9c-2.6,0-3.6,1.5-3.6,2.8c0,1.8,1.1,2.6,3.8,3.6
			c3.2,1.2,4.8,2.8,4.8,5.5c0,2.9-2.2,5.4-6.6,5.4c-1.8,0-3.8-0.5-4.8-1.2L462.6,534z"/>
		<path fill="#333333" d="M487.1,533.3c0,1.4,0,2.6,0.1,3.7h-2.2l-0.1-2.2h-0.1c-0.6,1.1-2.1,2.5-4.5,2.5c-2.1,0-4.7-1.2-4.7-5.9
			v-7.9h2.5v7.5c0,2.6,0.8,4.3,3,4.3c1.7,0,2.8-1.1,3.2-2.2c0.1-0.4,0.2-0.8,0.2-1.3v-8.3h2.5V533.3z"/>
		<path fill="#333333" d="M490.6,527.1c0-1.4,0-2.5-0.1-3.7h2.2l0.1,2.2h0.1c0.8-1.3,2-2.5,4.3-2.5c1.8,0,3.2,1.1,3.8,2.7h0.1
			c0.4-0.8,1-1.3,1.5-1.8c0.8-0.6,1.7-1,3-1c1.8,0,4.5,1.2,4.5,5.9v8h-2.4v-7.7c0-2.6-1-4.2-2.9-4.2c-1.4,0-2.5,1-2.9,2.2
			c-0.1,0.3-0.2,0.8-0.2,1.2v8.4H499v-8.1c0-2.2-1-3.7-2.8-3.7c-1.5,0-2.7,1.2-3.1,2.5c-0.1,0.4-0.2,0.8-0.2,1.2v8.2h-2.4V527.1z"/>
		<path fill="#333333" d="M513.2,527.1c0-1.4,0-2.5-0.1-3.7h2.2l0.1,2.2h0.1c0.8-1.3,2-2.5,4.3-2.5c1.8,0,3.2,1.1,3.8,2.7h0.1
			c0.4-0.8,1-1.3,1.5-1.8c0.8-0.6,1.7-1,3-1c1.8,0,4.5,1.2,4.5,5.9v8h-2.4v-7.7c0-2.6-1-4.2-2.9-4.2c-1.4,0-2.5,1-2.9,2.2
			c-0.1,0.3-0.2,0.8-0.2,1.2v8.4h-2.4v-8.1c0-2.2-1-3.7-2.8-3.7c-1.5,0-2.7,1.2-3.1,2.5c-0.1,0.4-0.2,0.8-0.2,1.2v8.2h-2.4V527.1z"
			/>
		<path fill="#333333" d="M543.4,537l-0.2-1.7h-0.1c-0.8,1.1-2.2,2-4.1,2c-2.7,0-4.1-1.9-4.1-3.9c0-3.3,2.9-5.1,8.1-5v-0.3
			c0-1.1-0.3-3.1-3.1-3.1c-1.3,0-2.6,0.4-3.5,1l-0.6-1.6c1.1-0.7,2.7-1.2,4.5-1.2c4.1,0,5.2,2.8,5.2,5.5v5.1c0,1.2,0.1,2.3,0.2,3.2
			H543.4z M543,530.1c-2.7-0.1-5.7,0.4-5.7,3.1c0,1.6,1.1,2.4,2.3,2.4c1.8,0,2.9-1.1,3.3-2.3c0.1-0.3,0.1-0.5,0.1-0.8V530.1z"/>
		<path fill="#333333" d="M548.7,527.7c0-1.6,0-3-0.1-4.2h2.2l0.1,2.7h0.1c0.6-1.8,2.1-3,3.8-3c0.3,0,0.5,0,0.7,0.1v2.3
			c-0.3-0.1-0.5-0.1-0.8-0.1c-1.7,0-3,1.3-3.3,3.2c-0.1,0.3-0.1,0.7-0.1,1.1v7.2h-2.4V527.7z"/>
		<path fill="#333333" d="M559,523.4l3,8c0.3,0.9,0.6,2,0.9,2.8h0.1c0.3-0.8,0.5-1.8,0.9-2.8l2.7-8h2.6l-3.7,9.7
			c-1.8,4.6-3,7-4.6,8.5c-1.2,1.1-2.4,1.5-3,1.6l-0.6-2.1c0.6-0.2,1.4-0.6,2.2-1.2c0.7-0.5,1.5-1.5,2.1-2.7c0.1-0.3,0.2-0.4,0.2-0.6
			s-0.1-0.3-0.2-0.6l-5-12.5H559z"/>
		<path fill="#333333" d="M589,530.1c0,5-3.5,7.2-6.7,7.2c-3.7,0-6.5-2.7-6.5-7c0-4.5,3-7.2,6.7-7.2C586.4,523.1,589,526,589,530.1z
			 M578.3,530.3c0,3,1.7,5.2,4.1,5.2c2.4,0,4.1-2.2,4.1-5.3c0-2.3-1.1-5.2-4.1-5.2S578.3,527.7,578.3,530.3z"/>
		<path fill="#333333" d="M591.7,537v-11.7h-1.9v-1.9h1.9v-0.6c0-1.9,0.4-3.6,1.6-4.7c0.9-0.9,2.2-1.3,3.3-1.3
			c0.9,0,1.6,0.2,2.1,0.4l-0.3,1.9c-0.4-0.2-0.9-0.3-1.6-0.3c-2.1,0-2.6,1.8-2.6,3.9v0.7h3.3v1.9h-3.3V537H591.7z"/>
		<path fill="#333333" d="M605.2,518.4c1.2-0.2,2.7-0.4,4.7-0.4c2.4,0,4.2,0.6,5.3,1.6c1,0.9,1.7,2.3,1.7,3.9c0,1.7-0.5,3.1-1.5,4
			c-1.3,1.4-3.4,2.1-5.8,2.1c-0.7,0-1.4,0-2-0.2v7.6h-2.4V518.4z M607.6,527.5c0.5,0.1,1.2,0.2,2,0.2c2.9,0,4.7-1.4,4.7-4
			c0-2.5-1.8-3.7-4.5-3.7c-1.1,0-1.9,0.1-2.3,0.2V527.5z"/>
		<path fill="#333333" d="M619,527.7c0-1.6,0-3-0.1-4.2h2.2l0.1,2.7h0.1c0.6-1.8,2.1-3,3.8-3c0.3,0,0.5,0,0.7,0.1v2.3
			c-0.3-0.1-0.5-0.1-0.8-0.1c-1.7,0-3,1.3-3.3,3.2c-0.1,0.3-0.1,0.7-0.1,1.1v7.2H619V527.7z"/>
		<path fill="#333333" d="M639.7,530.1c0,5-3.5,7.2-6.7,7.2c-3.7,0-6.5-2.7-6.5-7c0-4.5,3-7.2,6.7-7.2
			C637.1,523.1,639.7,526,639.7,530.1z M629,530.3c0,3,1.7,5.2,4.1,5.2c2.4,0,4.1-2.2,4.1-5.3c0-2.3-1.1-5.2-4.1-5.2
			S629,527.7,629,530.3z"/>
		<path fill="#333333" d="M654.2,517.1v16.4c0,1.2,0,2.6,0.1,3.5h-2.2l-0.1-2.4h-0.1c-0.8,1.5-2.4,2.7-4.6,2.7
			c-3.3,0-5.8-2.8-5.8-6.9c0-4.5,2.8-7.3,6.1-7.3c2.1,0,3.5,1,4.1,2.1h0.1v-8.1H654.2z M651.7,529c0-0.3,0-0.7-0.1-1
			c-0.4-1.6-1.7-2.9-3.6-2.9c-2.5,0-4.1,2.2-4.1,5.2c0,2.7,1.3,5,4,5c1.7,0,3.2-1.1,3.6-2.9c0.1-0.3,0.1-0.7,0.1-1.1V529z"/>
		<path fill="#333333" d="M668.8,533.3c0,1.4,0,2.6,0.1,3.7h-2.2l-0.1-2.2h-0.1c-0.6,1.1-2.1,2.5-4.5,2.5c-2.1,0-4.7-1.2-4.7-5.9
			v-7.9h2.5v7.5c0,2.6,0.8,4.3,3,4.3c1.7,0,2.8-1.1,3.2-2.2c0.1-0.4,0.2-0.8,0.2-1.3v-8.3h2.5V533.3z"/>
		<path fill="#333333" d="M682,536.5c-0.6,0.3-2.1,0.8-3.9,0.8c-4.1,0-6.7-2.8-6.7-6.9c0-4.2,2.9-7.2,7.3-7.2c1.5,0,2.7,0.4,3.4,0.7
			l-0.6,1.9c-0.6-0.3-1.5-0.6-2.9-0.6c-3.1,0-4.8,2.3-4.8,5.1c0,3.1,2,5.1,4.7,5.1c1.4,0,2.3-0.4,3-0.7L682,536.5z"/>
		<path fill="#333333" d="M687.9,519.6v3.9h3.5v1.9h-3.5v7.3c0,1.7,0.5,2.6,1.8,2.6c0.6,0,1.1-0.1,1.4-0.2l0.1,1.8
			c-0.5,0.2-1.2,0.3-2.2,0.3c-1.1,0-2.1-0.4-2.7-1c-0.7-0.7-1-1.9-1-3.5v-7.4h-2.1v-1.9h2.1v-3.2L687.9,519.6z"/>
		<path fill="#333333" d="M712.8,536.4c-0.9,0.4-2.7,0.9-5,0.9c-5.3,0-9.3-3.4-9.3-9.5c0-5.9,4-9.9,9.9-9.9c2.4,0,3.8,0.5,4.5,0.8
			l-0.6,2c-0.9-0.4-2.2-0.8-3.8-0.8c-4.4,0-7.4,2.8-7.4,7.8c0,4.6,2.7,7.6,7.3,7.6c1.5,0,3-0.3,4-0.8L712.8,536.4z"/>
		<path fill="#333333" d="M715,517.1h2.5v8.5h0.1c0.4-0.7,1-1.3,1.8-1.7c0.7-0.4,1.6-0.7,2.5-0.7c1.8,0,4.7,1.1,4.7,5.8v8.1H724
			v-7.8c0-2.2-0.8-4-3.1-4c-1.6,0-2.9,1.1-3.3,2.5c-0.1,0.3-0.2,0.7-0.2,1.2v8.2H715V517.1z"/>
		<path fill="#333333" d="M737.3,537l-0.2-1.7H737c-0.8,1.1-2.2,2-4.1,2c-2.7,0-4.1-1.9-4.1-3.9c0-3.3,2.9-5.1,8.1-5v-0.3
			c0-1.1-0.3-3.1-3.1-3.1c-1.3,0-2.6,0.4-3.5,1l-0.6-1.6c1.1-0.7,2.7-1.2,4.5-1.2c4.1,0,5.2,2.8,5.2,5.5v5.1c0,1.2,0.1,2.3,0.2,3.2
			H737.3z M737,530.1c-2.7-0.1-5.7,0.4-5.7,3.1c0,1.6,1.1,2.4,2.3,2.4c1.8,0,2.9-1.1,3.3-2.3c0.1-0.3,0.1-0.5,0.1-0.8V530.1z"/>
		<path fill="#333333" d="M742.6,527.7c0-1.6,0-3-0.1-4.2h2.2l0.1,2.7h0.1c0.6-1.8,2.1-3,3.8-3c0.3,0,0.5,0,0.7,0.1v2.3
			c-0.3-0.1-0.5-0.1-0.8-0.1c-1.7,0-3,1.3-3.3,3.2c-0.1,0.3-0.1,0.7-0.1,1.1v7.2h-2.4V527.7z"/>
		<path fill="#333333" d="M758.7,537l-0.2-1.7h-0.1c-0.8,1.1-2.2,2-4.1,2c-2.7,0-4.1-1.9-4.1-3.9c0-3.3,2.9-5.1,8.1-5v-0.3
			c0-1.1-0.3-3.1-3.1-3.1c-1.3,0-2.6,0.4-3.5,1l-0.6-1.6c1.1-0.7,2.7-1.2,4.5-1.2c4.1,0,5.2,2.8,5.2,5.5v5.1c0,1.2,0.1,2.3,0.2,3.2
			H758.7z M758.4,530.1c-2.7-0.1-5.7,0.4-5.7,3.1c0,1.6,1.1,2.4,2.3,2.4c1.8,0,2.9-1.1,3.3-2.3c0.1-0.3,0.1-0.5,0.1-0.8V530.1z"/>
		<path fill="#333333" d="M773.8,536.5c-0.6,0.3-2.1,0.8-3.9,0.8c-4.1,0-6.7-2.8-6.7-6.9c0-4.2,2.9-7.2,7.3-7.2
			c1.5,0,2.7,0.4,3.4,0.7l-0.6,1.9c-0.6-0.3-1.5-0.6-2.9-0.6c-3.1,0-4.8,2.3-4.8,5.1c0,3.1,2,5.1,4.7,5.1c1.4,0,2.3-0.4,3-0.7
			L773.8,536.5z"/>
		<path fill="#333333" d="M779.6,519.6v3.9h3.5v1.9h-3.5v7.3c0,1.7,0.5,2.6,1.8,2.6c0.6,0,1.1-0.1,1.4-0.2l0.1,1.8
			c-0.5,0.2-1.2,0.3-2.2,0.3c-1.1,0-2.1-0.4-2.7-1c-0.7-0.7-1-1.9-1-3.5v-7.4h-2.1v-1.9h2.1v-3.2L779.6,519.6z"/>
		<path fill="#333333" d="M786.4,530.7c0.1,3.3,2.2,4.7,4.6,4.7c1.8,0,2.8-0.3,3.8-0.7l0.4,1.8c-0.9,0.4-2.4,0.8-4.5,0.8
			c-4.2,0-6.7-2.7-6.7-6.8c0-4.1,2.4-7.3,6.4-7.3c4.4,0,5.6,3.9,5.6,6.4c0,0.5-0.1,0.9-0.1,1.1H786.4z M793.7,528.9
			c0-1.6-0.6-4-3.4-4c-2.5,0-3.6,2.3-3.8,4H793.7z"/>
		<path fill="#333333" d="M798.5,527.7c0-1.6,0-3-0.1-4.2h2.2l0.1,2.7h0.1c0.6-1.8,2.1-3,3.8-3c0.3,0,0.5,0,0.7,0.1v2.3
			c-0.3-0.1-0.5-0.1-0.8-0.1c-1.7,0-3,1.3-3.3,3.2c-0.1,0.3-0.1,0.7-0.1,1.1v7.2h-2.4V527.7z"/>
		<path fill="#333333" d="M809.8,519.6c0,0.8-0.6,1.5-1.6,1.5c-0.9,0-1.5-0.7-1.5-1.5c0-0.9,0.6-1.5,1.5-1.5
			C809.2,518.1,809.8,518.8,809.8,519.6z M807.1,537v-13.6h2.5V537H807.1z"/>
		<path fill="#333333" d="M812.5,534.5c0.7,0.5,2,1,3.2,1c1.8,0,2.6-0.9,2.6-2c0-1.2-0.7-1.8-2.5-2.5c-2.4-0.9-3.6-2.2-3.6-3.8
			c0-2.2,1.8-4,4.7-4c1.4,0,2.6,0.4,3.3,0.8l-0.6,1.8c-0.5-0.3-1.5-0.8-2.8-0.8c-1.5,0-2.3,0.8-2.3,1.8c0,1.1,0.8,1.6,2.6,2.3
			c2.4,0.9,3.6,2.1,3.6,4.1c0,2.4-1.8,4.1-5.1,4.1c-1.5,0-2.9-0.4-3.8-0.9L812.5,534.5z"/>
		<path fill="#333333" d="M826.5,519.6v3.9h3.5v1.9h-3.5v7.3c0,1.7,0.5,2.6,1.8,2.6c0.6,0,1.1-0.1,1.4-0.2l0.1,1.8
			c-0.5,0.2-1.2,0.3-2.2,0.3c-1.1,0-2.1-0.4-2.7-1c-0.7-0.7-1-1.9-1-3.5v-7.4H822v-1.9h2.1v-3.2L826.5,519.6z"/>
		<path fill="#333333" d="M834.8,519.6c0,0.8-0.6,1.5-1.6,1.5c-0.9,0-1.5-0.7-1.5-1.5c0-0.9,0.6-1.5,1.5-1.5
			C834.2,518.1,834.8,518.8,834.8,519.6z M832,537v-13.6h2.5V537H832z"/>
		<path fill="#333333" d="M847.6,536.5c-0.6,0.3-2.1,0.8-3.9,0.8c-4.1,0-6.7-2.8-6.7-6.9c0-4.2,2.9-7.2,7.3-7.2
			c1.5,0,2.7,0.4,3.4,0.7l-0.6,1.9c-0.6-0.3-1.5-0.6-2.9-0.6c-3.1,0-4.8,2.3-4.8,5.1c0,3.1,2,5.1,4.7,5.1c1.4,0,2.3-0.4,3-0.7
			L847.6,536.5z"/>
		<path fill="#333333" d="M849.8,534.5c0.7,0.5,2,1,3.2,1c1.8,0,2.6-0.9,2.6-2c0-1.2-0.7-1.8-2.5-2.5c-2.4-0.9-3.6-2.2-3.6-3.8
			c0-2.2,1.8-4,4.7-4c1.4,0,2.6,0.4,3.3,0.8l-0.6,1.8c-0.5-0.3-1.5-0.8-2.8-0.8c-1.5,0-2.3,0.8-2.3,1.8c0,1.1,0.8,1.6,2.6,2.3
			c2.4,0.9,3.6,2.1,3.6,4.1c0,2.4-1.8,4.1-5.1,4.1c-1.5,0-2.9-0.4-3.8-0.9L849.8,534.5z"/>
		<path fill="#333333" d="M859.2,540.4c0.6-1.7,1.4-4.6,1.7-6.7l2.7-0.3c-0.6,2.4-1.9,5.5-2.7,6.8L859.2,540.4z"/>
		<path fill="#333333" d="M875.1,531.1l-2,5.9h-2.5l6.4-18.9h2.9l6.4,18.9h-2.6l-2-5.9H875.1z M881.3,529.2l-1.8-5.4
			c-0.4-1.2-0.7-2.4-1-3.4h-0.1c-0.3,1.1-0.6,2.3-1,3.4l-1.8,5.5H881.3z"/>
		<path fill="#333333" d="M888.4,527.9c0-1.7-0.1-3.1-0.1-4.4h2.2l0.1,2.3h0.1c1-1.7,2.6-2.6,4.8-2.6c3.3,0,5.7,2.8,5.7,6.9
			c0,4.9-3,7.3-6.2,7.3c-1.8,0-3.4-0.8-4.2-2.1h-0.1v7.4h-2.4V527.9z M890.9,531.5c0,0.4,0.1,0.7,0.1,1c0.4,1.7,1.9,2.9,3.7,2.9
			c2.6,0,4.1-2.1,4.1-5.2c0-2.7-1.4-5-4-5c-1.7,0-3.2,1.2-3.7,3.1c-0.1,0.3-0.2,0.7-0.2,1V531.5z"/>
		<path fill="#333333" d="M903.8,527.7c0-1.6,0-3-0.1-4.2h2.2l0.1,2.7h0.1c0.6-1.8,2.1-3,3.8-3c0.3,0,0.5,0,0.7,0.1v2.3
			c-0.3-0.1-0.5-0.1-0.8-0.1c-1.7,0-3,1.3-3.3,3.2c-0.1,0.3-0.1,0.7-0.1,1.1v7.2h-2.4V527.7z"/>
		<path fill="#333333" d="M915.1,519.6c0,0.8-0.6,1.5-1.6,1.5c-0.9,0-1.5-0.7-1.5-1.5c0-0.9,0.6-1.5,1.5-1.5
			C914.5,518.1,915.1,518.8,915.1,519.6z M912.4,537v-13.6h2.5V537H912.4z"/>
		<path fill="#333333" d="M918.2,517.1h2.5V537h-2.5V517.1z"/>
		<path fill="#333333" d="M929.4,537v-1.5l1.9-1.9c4.6-4.4,6.7-6.8,6.8-9.5c0-1.8-0.9-3.6-3.6-3.6c-1.7,0-3,0.8-3.9,1.5l-0.8-1.7
			c1.3-1.1,3.1-1.8,5.2-1.8c3.9,0,5.6,2.7,5.6,5.3c0,3.4-2.4,6.1-6.3,9.8l-1.5,1.3v0.1h8.2v2H929.4z"/>
		<path fill="#333333" d="M954.9,527.7c0,6.2-2.3,9.6-6.3,9.6c-3.6,0-6-3.3-6-9.4c0-6.1,2.6-9.5,6.3-9.5
			C952.7,518.5,954.9,521.9,954.9,527.7z M945,528c0,4.7,1.5,7.4,3.7,7.4c2.5,0,3.7-2.9,3.7-7.6c0-4.5-1.1-7.4-3.7-7.4
			C946.6,520.4,945,523,945,528z"/>
		<path fill="#333333" d="M955.7,537v-1.5l1.9-1.9c4.6-4.4,6.7-6.8,6.8-9.5c0-1.8-0.9-3.6-3.6-3.6c-1.7,0-3,0.8-3.9,1.5l-0.8-1.7
			c1.3-1.1,3.1-1.8,5.2-1.8c3.9,0,5.6,2.7,5.6,5.3c0,3.4-2.4,6.1-6.3,9.8l-1.5,1.3v0.1h8.2v2H955.7z"/>
		<path fill="#333333" d="M973.4,521.1L973.4,521.1l-3.2,1.7l-0.5-1.9l4-2.1h2.1V537h-2.4V521.1z"/>
		<path fill="#333333" d="M980.5,535.5c0-1,0.7-1.8,1.7-1.8c1,0,1.7,0.7,1.7,1.8c0,1-0.6,1.8-1.7,1.8
			C981.2,537.3,980.5,536.6,980.5,535.5z"/>
	</g>
	<g>
		<path fill="#333333" d="M323.1,593v-5h-8.5v-1.6l8.1-11.6h2.7v11.3h2.5v1.9h-2.5v5H323.1z M323.1,586.1V580c0-1,0-1.9,0.1-2.9
			h-0.1c-0.6,1.1-1,1.8-1.5,2.7l-4.5,6.2v0.1H323.1z"/>
		<path fill="#333333" d="M329.4,591.5c0-1,0.7-1.8,1.7-1.8c1,0,1.7,0.7,1.7,1.8c0,1-0.6,1.8-1.7,1.8
			C330.1,593.3,329.4,592.6,329.4,591.5z"/>
	</g>
	<g>
		<path fill="#333333" d="M352,590c1.1,0.7,2.7,1.2,4.4,1.2c2.5,0,3.9-1.3,3.9-3.2c0-1.8-1-2.8-3.6-3.8c-3.1-1.1-5-2.7-5-5.3
			c0-2.9,2.4-5.1,6.1-5.1c1.9,0,3.3,0.4,4.2,0.9l-0.7,2c-0.6-0.3-1.9-0.9-3.6-0.9c-2.6,0-3.6,1.5-3.6,2.8c0,1.8,1.1,2.6,3.8,3.6
			c3.2,1.2,4.8,2.8,4.8,5.5c0,2.9-2.2,5.4-6.6,5.4c-1.8,0-3.8-0.5-4.8-1.2L352,590z"/>
		<path fill="#333333" d="M368,575.6c0,0.8-0.6,1.5-1.6,1.5c-0.9,0-1.5-0.7-1.5-1.5c0-0.9,0.6-1.5,1.5-1.5
			C367.4,574.1,368,574.8,368,575.6z M365.3,593v-13.6h2.5V593H365.3z"/>
		<path fill="#333333" d="M374.1,575.6v3.9h3.5v1.9h-3.5v7.3c0,1.7,0.5,2.6,1.8,2.6c0.6,0,1.1-0.1,1.4-0.2l0.1,1.8
			c-0.5,0.2-1.2,0.3-2.2,0.3c-1.1,0-2.1-0.4-2.7-1c-0.7-0.7-1-1.9-1-3.5v-7.4h-2.1v-1.9h2.1v-3.2L374.1,575.6z"/>
		<path fill="#333333" d="M379.6,593c0.1-0.9,0.1-2.3,0.1-3.5v-16.4h2.4v8.5h0.1c0.9-1.5,2.4-2.5,4.6-2.5c3.4,0,5.7,2.8,5.7,6.9
			c0,4.8-3.1,7.3-6.1,7.3c-2,0-3.5-0.8-4.5-2.5h-0.1l-0.1,2.2H379.6z M382.1,587.6c0,0.3,0.1,0.6,0.1,0.9c0.5,1.7,1.9,2.9,3.7,2.9
			c2.6,0,4.1-2.1,4.1-5.2c0-2.7-1.4-5-4-5c-1.7,0-3.2,1.1-3.8,3c-0.1,0.3-0.1,0.6-0.1,1V587.6z"/>
		<path fill="#333333" d="M407.5,586.1c0,5-3.5,7.2-6.7,7.2c-3.7,0-6.5-2.7-6.5-7c0-4.5,3-7.2,6.7-7.2
			C404.8,579.1,407.5,582,407.5,586.1z M396.7,586.3c0,3,1.7,5.2,4.1,5.2c2.4,0,4.1-2.2,4.1-5.3c0-2.3-1.1-5.2-4.1-5.2
			S396.7,583.7,396.7,586.3z"/>
		<path fill="#333333" d="M410,583.1c0-1.4,0-2.5-0.1-3.7h2.2l0.1,2.2h0.1c0.7-1.3,2.2-2.5,4.5-2.5c1.9,0,4.8,1.1,4.8,5.8v8.1h-2.5
			v-7.8c0-2.2-0.8-4-3.1-4c-1.6,0-2.9,1.1-3.3,2.5c-0.1,0.3-0.2,0.7-0.2,1.1v8.1H410V583.1z"/>
		<path fill="#333333" d="M447.2,583.4c0,6.5-3.9,9.9-8.8,9.9c-5,0-8.5-3.9-8.5-9.6c0-6,3.7-9.9,8.8-9.9
			C443.9,573.8,447.2,577.8,447.2,583.4z M432.6,583.7c0,4,2.2,7.6,6,7.6c3.9,0,6-3.6,6-7.8c0-3.8-2-7.7-6-7.7
			C434.6,575.8,432.6,579.5,432.6,583.7z"/>
	</g>
	<g>
		<path fill="#333333" d="M464.1,592.2c-1,0.6-2.7,1.1-4.5,1.1c-3.6,0-5.2-2.4-5.2-5.4c0-4.1,3-8.7,7.4-8.7c2.6,0,4,1.5,4,3.5
			c0,3.6-4,4.5-9,4.4c-0.1,0.6,0,1.8,0.3,2.6c0.5,1.2,1.6,1.8,3,1.8c1.6,0,2.8-0.5,3.6-1L464.1,592.2z M461.5,581
			c-2.2,0-3.9,2.2-4.4,4.3c3.6,0,6.5-0.4,6.5-2.5C463.6,581.6,462.7,581,461.5,581z"/>
		<path fill="#333333" d="M472.5,575.8l-0.7,3.6h3.2l-0.4,1.8h-3.2l-1.3,6.6c-0.1,0.8-0.3,1.5-0.3,2.2c0,0.8,0.4,1.3,1.3,1.3
			c0.4,0,0.8,0,1.1-0.1l-0.1,1.8c-0.4,0.2-1.1,0.3-1.8,0.3c-2.1,0-2.9-1.3-2.9-2.6c0-0.8,0.1-1.6,0.3-2.5l1.3-6.9h-2l0.4-1.8h1.9
			l0.6-3.1L472.5,575.8z"/>
		<path fill="#333333" d="M488.8,593c0-0.8,0.1-2.1,0.3-3.5H489c-1.5,2.8-3.3,3.8-5.3,3.8c-2.4,0-3.9-1.9-3.9-4.5
			c0-4.7,3.5-9.7,9.4-9.7c1.3,0,2.7,0.2,3.6,0.5l-1.4,7.1c-0.4,2.4-0.6,4.8-0.6,6.3H488.8z M490.3,581.2c-0.3-0.1-0.8-0.2-1.6-0.2
			c-3.5,0-6.4,3.7-6.4,7.4c0,1.5,0.5,3,2.3,3c1.9,0,4.2-2.5,4.9-6.1L490.3,581.2z"/>
		<path fill="#333333" d="M493.8,593l3.8-19.9h2.3l-3.8,19.9H493.8z"/>
		<path fill="#333333" d="M499.3,591.7c0-1,0.7-1.9,1.8-1.9c1,0,1.6,0.7,1.6,1.7c0,1-0.7,1.8-1.8,1.8
			C499.9,593.3,499.3,592.6,499.3,591.7z"/>
		<path fill="#333333" d="M520.9,584.1H514l-1.3,6.9h7.7l-0.4,2H510l3.6-18.9h9.6l-0.4,2h-7.3l-1.1,6h6.9L520.9,584.1z"/>
		<path fill="#333333" d="M535.3,579.4l-1.8,9.6c-0.3,1.5-0.5,2.8-0.6,3.9h-2.1l0.4-2.5h-0.1c-1.2,1.8-3,2.9-4.8,2.9
			c-1.7,0-3.6-0.8-3.6-3.9c0-0.6,0.1-1.4,0.3-2.3l1.5-7.7h2.3l-1.4,7.6c-0.2,0.8-0.3,1.4-0.3,2c0,1.4,0.6,2.4,2.2,2.4
			c1.7,0,3.8-2,4.4-5l1.3-6.9H535.3z"/>
		<path fill="#333333" d="M536.2,593l1.7-8.7c0.3-1.8,0.6-3.6,0.7-4.8h2c-0.1,1-0.2,1.9-0.4,2.9h0.1c0.9-1.8,2.3-3.2,4.1-3.2
			c0.2,0,0.5,0,0.6,0.1l-0.4,2.3c-0.1,0-0.4-0.1-0.6-0.1c-2,0-3.8,2.4-4.4,5.6l-1.1,6H536.2z"/>
		<path fill="#333333" d="M553.4,574.4c1.1-0.3,2.7-0.4,4.1-0.4c1.9,0,3.5,0.4,4.5,1.4c0.9,0.8,1.4,1.8,1.4,3.1
			c0,2.7-2.1,4.8-4.5,5.5l0,0.1c1.3,0.4,2,1.8,2.1,3.8c0.2,2.6,0.3,4.4,0.6,5.2h-2.4c-0.1-0.4-0.3-2.4-0.4-4.6
			c-0.1-2.6-1.1-3.7-3-3.7h-2.1l-1.5,8.2h-2.3L553.4,574.4z M554,583h2.1c2.9,0,4.8-1.9,4.8-4.2c0-2-1.5-2.9-3.6-2.9
			c-0.9,0-1.5,0.1-2,0.2L554,583z"/>
		<path fill="#333333" d="M573.5,592.2c-1,0.6-2.7,1.1-4.5,1.1c-3.6,0-5.2-2.4-5.2-5.4c0-4.1,3-8.7,7.4-8.7c2.6,0,4,1.5,4,3.5
			c0,3.6-4,4.5-9,4.4c-0.1,0.6,0,1.8,0.3,2.6c0.5,1.2,1.6,1.8,3,1.8c1.6,0,2.8-0.5,3.6-1L573.5,592.2z M570.9,581
			c-2.2,0-3.9,2.2-4.4,4.3c3.6,0,6.5-0.4,6.5-2.5C573,581.6,572.1,581,570.9,581z"/>
		<path fill="#333333" d="M575.8,590.6c0.6,0.4,1.8,0.8,2.9,0.8c1.6,0,2.6-1,2.6-2.2c0-1.1-0.5-1.7-1.9-2.5
			c-1.6-0.9-2.4-2.1-2.4-3.4c0-2.4,2-4.2,4.9-4.2c1.2,0,2.3,0.3,2.8,0.7l-0.6,1.8c-0.5-0.3-1.3-0.6-2.4-0.6c-1.4,0-2.4,0.9-2.4,2
			c0,1,0.6,1.6,1.8,2.3c1.5,0.9,2.5,2,2.5,3.6c0,2.9-2.3,4.5-5.2,4.5c-1.5,0-2.7-0.4-3.4-0.9L575.8,590.6z"/>
		<path fill="#333333" d="M584,598.5l2.7-14.3c0.3-1.6,0.6-3.4,0.8-4.8h2.1l-0.4,2.5h0.1c1.2-1.8,3-2.9,4.9-2.9
			c2.9,0,4.2,2.4,4.2,4.9c0,4.8-3.4,9.3-7.9,9.3c-1.5,0-2.4-0.3-2.9-0.6h-0.1l-1.1,5.9H584z M587.8,590.7c0.6,0.5,1.5,0.8,2.6,0.8
			c3,0,5.5-3.7,5.5-7.3c0-1.4-0.6-3.1-2.6-3.1c-1.8,0-4.1,2.1-4.8,5.9L587.8,590.7z"/>
		<path fill="#333333" d="M599.3,593l2.6-13.6h2.3l-2.6,13.6H599.3z M602.3,575.7c0-0.9,0.7-1.6,1.5-1.6c0.8,0,1.4,0.6,1.4,1.5
			c0,0.9-0.7,1.6-1.6,1.6C602.9,577.1,602.3,576.5,602.3,575.7z"/>
		<path fill="#333333" d="M605.1,593l1.7-8.7c0.3-1.8,0.6-3.6,0.7-4.8h2c-0.1,1-0.2,1.9-0.4,2.9h0.1c0.9-1.8,2.3-3.2,4.1-3.2
			c0.2,0,0.5,0,0.6,0.1l-0.4,2.3c-0.1,0-0.4-0.1-0.6-0.1c-2,0-3.8,2.4-4.4,5.6l-1.1,6H605.1z"/>
		<path fill="#333333" d="M617.4,590.8c0.6,0.3,1.4,0.4,2.4,0.4c2,0,3.2-1,3.9-4.4l2.4-12.7h2.3l-2.5,13c-0.8,4.4-2.7,6.2-6.2,6.2
			c-1.1,0-2.3-0.3-2.8-0.5L617.4,590.8z"/>
	</g>
	<g>
		<path fill="#333333" d="M634.3,593v-1.5l1.9-1.9c4.6-4.4,6.7-6.8,6.8-9.5c0-1.8-0.9-3.6-3.6-3.6c-1.7,0-3,0.8-3.9,1.5l-0.8-1.7
			c1.3-1.1,3.1-1.8,5.2-1.8c3.9,0,5.6,2.7,5.6,5.3c0,3.4-2.4,6.1-6.3,9.8l-1.5,1.3v0.1h8.2v2H634.3z"/>
		<path fill="#333333" d="M659.8,583.7c0,6.2-2.3,9.6-6.3,9.6c-3.6,0-6-3.3-6-9.4c0-6.1,2.6-9.5,6.3-9.5
			C657.6,574.5,659.8,577.9,659.8,583.7z M649.9,584c0,4.7,1.5,7.4,3.7,7.4c2.5,0,3.7-2.9,3.7-7.6c0-4.5-1.1-7.4-3.7-7.4
			C651.5,576.4,649.9,579,649.9,584z"/>
		<path fill="#333333" d="M660.6,593v-1.5l1.9-1.9c4.6-4.4,6.7-6.8,6.8-9.5c0-1.8-0.9-3.6-3.6-3.6c-1.7,0-3,0.8-3.9,1.5l-0.8-1.7
			c1.3-1.1,3.1-1.8,5.2-1.8c3.9,0,5.6,2.7,5.6,5.3c0,3.4-2.4,6.1-6.3,9.8l-1.5,1.3v0.1h8.2v2H660.6z"/>
		<path fill="#333333" d="M686.2,583.7c0,6.2-2.3,9.6-6.3,9.6c-3.6,0-6-3.3-6-9.4c0-6.1,2.6-9.5,6.3-9.5
			C684,574.5,686.2,577.9,686.2,583.7z M676.3,584c0,4.7,1.5,7.4,3.7,7.4c2.5,0,3.7-2.9,3.7-7.6c0-4.5-1.1-7.4-3.7-7.4
			C677.8,576.4,676.3,579,676.3,584z"/>
		<path fill="#333333" d="M687,596.4c0.6-1.7,1.4-4.6,1.7-6.7l2.7-0.3c-0.7,2.4-1.9,5.5-2.7,6.8L687,596.4z M688.2,581.7
			c0-1,0.7-1.8,1.7-1.8c1,0,1.7,0.7,1.7,1.8c0,1-0.6,1.7-1.7,1.7C688.9,583.4,688.2,582.7,688.2,581.7z"/>
		<path fill="#333333" d="M709.9,576.9h-6.9l-0.7,4.7c0.4-0.1,0.8-0.1,1.5-0.1c1.4,0,2.8,0.3,3.9,1c1.4,0.8,2.6,2.4,2.6,4.7
			c0,3.6-2.8,6.2-6.8,6.2c-2,0-3.7-0.6-4.5-1.1l0.6-1.9c0.8,0.4,2.2,1,3.9,1c2.3,0,4.3-1.5,4.3-3.9c0-2.4-1.6-4-5.2-4
			c-1,0-1.8,0.1-2.5,0.2l1.2-8.7h8.7V576.9z"/>
		<path fill="#333333" d="M722.9,576.5c-0.5,0-1.1,0-1.8,0.1c-3.9,0.6-5.9,3.5-6.3,6.5h0.1c0.9-1.1,2.4-2.1,4.4-2.1
			c3.2,0,5.5,2.3,5.5,5.9c0,3.3-2.3,6.4-6,6.4c-3.9,0-6.4-3-6.4-7.8c0-3.6,1.3-6.4,3.1-8.2c1.5-1.5,3.5-2.4,5.8-2.7
			c0.7-0.1,1.3-0.1,1.8-0.1V576.5z M722.2,587c0-2.6-1.5-4.2-3.8-4.2c-1.5,0-2.9,0.9-3.5,2.2c-0.2,0.3-0.3,0.6-0.3,1.1
			c0.1,3,1.4,5.2,4,5.2C720.8,591.4,722.2,589.6,722.2,587z"/>
		<path fill="#333333" d="M726.4,581.7c0-1,0.7-1.8,1.7-1.8c1,0,1.6,0.7,1.7,1.8c0,1-0.6,1.7-1.7,1.7
			C727,583.4,726.4,582.7,726.4,581.7z M726.4,591.6c0-1,0.7-1.8,1.7-1.8c1,0,1.6,0.7,1.7,1.8c0,1-0.6,1.7-1.7,1.7
			C727,593.3,726.4,592.6,726.4,591.6z"/>
		<path fill="#333333" d="M731.4,593v-1.5l1.9-1.9c4.6-4.4,6.7-6.8,6.8-9.5c0-1.8-0.9-3.6-3.6-3.6c-1.7,0-3,0.8-3.9,1.5l-0.8-1.7
			c1.3-1.1,3.1-1.8,5.2-1.8c3.9,0,5.6,2.7,5.6,5.3c0,3.4-2.4,6.1-6.3,9.8l-1.5,1.3v0.1h8.2v2H731.4z"/>
		<path fill="#333333" d="M756.9,583.7c0,6.2-2.3,9.6-6.3,9.6c-3.6,0-6-3.3-6-9.4c0-6.1,2.6-9.5,6.3-9.5
			C754.7,574.5,756.9,577.9,756.9,583.7z M747,584c0,4.7,1.5,7.4,3.7,7.4c2.5,0,3.7-2.9,3.7-7.6c0-4.5-1.1-7.4-3.7-7.4
			C748.6,576.4,747,579,747,584z"/>
		<path fill="#333333" d="M771.2,583.7c0,6.2-2.3,9.6-6.3,9.6c-3.6,0-6-3.3-6-9.4c0-6.1,2.6-9.5,6.3-9.5
			C769,574.5,771.2,577.9,771.2,583.7z M761.3,584c0,4.7,1.5,7.4,3.7,7.4c2.5,0,3.7-2.9,3.7-7.6c0-4.5-1.1-7.4-3.7-7.4
			C762.8,576.4,761.3,579,761.3,584z"/>
		<path fill="#333333" d="M785.4,583.7c0,6.2-2.3,9.6-6.3,9.6c-3.6,0-6-3.3-6-9.4c0-6.1,2.6-9.5,6.3-9.5
			C783.2,574.5,785.4,577.9,785.4,583.7z M775.5,584c0,4.7,1.5,7.4,3.7,7.4c2.5,0,3.7-2.9,3.7-7.6c0-4.5-1.1-7.4-3.7-7.4
			C777.1,576.4,775.5,579,775.5,584z"/>
		<path fill="#333333" d="M797.8,576.5c-0.5,0-1.1,0-1.8,0.1c-3.9,0.6-5.9,3.5-6.3,6.5h0.1c0.9-1.1,2.4-2.1,4.4-2.1
			c3.2,0,5.5,2.3,5.5,5.9c0,3.3-2.3,6.4-6,6.4c-3.9,0-6.4-3-6.4-7.8c0-3.6,1.3-6.4,3.1-8.2c1.5-1.5,3.5-2.4,5.8-2.7
			c0.7-0.1,1.3-0.1,1.8-0.1V576.5z M797.1,587c0-2.6-1.5-4.2-3.8-4.2c-1.5,0-2.9,0.9-3.5,2.2c-0.2,0.3-0.3,0.6-0.3,1.1
			c0.1,3,1.4,5.2,4,5.2C795.6,591.4,797.1,589.6,797.1,587z"/>
		<path fill="#333333" d="M812,574.8v1.6L804,593h-2.5l7.9-16.1v-0.1h-8.9v-2H812z"/>
		<path fill="#333333" d="M814.1,590.2c0.7,0.4,2.3,1.1,4,1.1c3.2,0,4.1-2,4.1-3.5c0-2.5-2.3-3.6-4.7-3.6h-1.4v-1.8h1.4
			c1.8,0,4.1-0.9,4.1-3.1c0-1.5-0.9-2.7-3.2-2.7c-1.5,0-2.9,0.6-3.6,1.2l-0.6-1.8c1-0.7,2.8-1.4,4.8-1.4c3.6,0,5.2,2.1,5.2,4.3
			c0,1.9-1.1,3.5-3.4,4.3v0.1c2.2,0.4,4.1,2.1,4.1,4.7c0,2.9-2.3,5.5-6.6,5.5c-2,0-3.8-0.6-4.7-1.2L814.1,590.2z"/>
		<path fill="#333333" d="M827.2,591.5c0-1,0.7-1.8,1.7-1.8c1,0,1.7,0.7,1.7,1.8c0,1-0.6,1.8-1.7,1.8
			C827.9,593.3,827.2,592.6,827.2,591.5z"/>
	</g>
</g>
</svg>
