<?xml version="1.0" encoding="utf-8"?>
<!-- Generator: Adobe Illustrator 24.2.0, SVG Export Plug-In . SVG Version: 6.00 Build 0)  -->
<svg version="1.1" id="Layer_1" xmlns="http://www.w3.org/2000/svg" xmlns:xlink="http://www.w3.org/1999/xlink" x="0px" y="0px"
	 width="2048px" height="1536px" viewBox="0 0 2048 1536" enable-background="new 0 0 2048 1536" xml:space="preserve">
<rect x="140.5" y="140.5" fill="#FFFFFF" width="1767" height="1255"/>
<g>
	<path fill="#CC0033" d="M1878.5,172.1c0.7-0.7,0.5-1.5-0.6-2.5c-1-1-1.8-1.2-2.4-0.5l-29.2,29.2c-0.6,0.6-0.4,1.4,0.5,2.4
		c1,1,1.8,1.2,2.5,0.6L1878.5,172.1z"/>
	<path fill="#CC0033" d="M1849.4,169.1c-0.7-0.7-1.5-0.5-2.5,0.6c-1,1-1.2,1.8-0.5,2.4l29.2,29.2c0.6,0.6,1.4,0.4,2.4-0.5
		c1-1,1.2-1.8,0.6-2.5L1849.4,169.1z"/>
</g>
<g>
	<g>
		<path fill="#CC0033" d="M283.7,322v11h-4.1v-30.8h8.8c1.1,0,8.7,0.1,8.7,6.6v6.8c0,1.9-0.9,3.5-2.4,4.6c1.5,1,2.4,2.5,2.4,4.4v8.4
			h-4.2v-8.4c0-2-2.9-2.6-4.7-2.6H283.7z M292.8,308.8c0-1.9-2.8-2.6-4.5-2.6h-4.6V318h4.4c1.8,0,4.7-0.5,4.7-2.5V308.8z"/>
		<path fill="#CC0033" d="M305.4,315.3h13.1v4.5h-13.1c0,0.8,0,1.9,0,3c0,1.8,0,3.7,0.1,3.9c0.4,1.3,2.7,1.8,4.3,1.8h8.7v4.5l-8.7,0
			c-4,0-8.8-1.9-8.8-6.6v-24.2h17.5v4.4h-13.1V315.3z"/>
		<path fill="#CC0033" d="M340.1,302.2v4.3h-13.2v9.1H338v4.4h-11.1v2.8c0,3.3,0,8.9,0,10.3h-4.3v-30.8H340.1z"/>
		<path fill="#CC0033" d="M348.4,315.3h13.1v4.5h-13.1c0,0.8,0,1.9,0,3c0,1.8,0,3.7,0.1,3.9c0.4,1.3,2.7,1.8,4.3,1.8h8.7v4.5l-8.7,0
			c-4,0-8.8-1.9-8.8-6.6v-24.2h17.5v4.4h-13.1V315.3z"/>
		<path fill="#CC0033" d="M369.8,322v11h-4.1v-30.8h8.8c1.1,0,8.7,0.1,8.7,6.6v6.8c0,1.9-0.9,3.5-2.4,4.6c1.5,1,2.4,2.5,2.4,4.4v8.4
			h-4.2v-8.4c0-2-2.9-2.6-4.7-2.6H369.8z M378.9,308.8c0-1.9-2.8-2.6-4.5-2.6h-4.6V318h4.4c1.8,0,4.7-0.5,4.7-2.5V308.8z"/>
		<path fill="#CC0033" d="M391.5,315.3h13.1v4.5h-13.1c0,0.8,0,1.9,0,3c0,1.8,0,3.7,0.1,3.9c0.4,1.3,2.7,1.8,4.3,1.8h8.7v4.5l-8.7,0
			c-4,0-8.8-1.9-8.8-6.6v-24.2h17.5v4.4h-13.1V315.3z"/>
		<path fill="#CC0033" d="M428.2,333h-3.7l-11.7-21.8V333h-4v-30.8h3.8l11.6,21.8v-21.8h4V333z"/>
		<path fill="#CC0033" d="M452.2,325.2c0.3,4.5-2.4,6.6-5.4,7.5h0c-1.2,0.4-2.9,0.5-4.4,0.5c-1.5,0-3.1-0.1-4.2-0.4
			c-3-0.9-5.6-3-5.6-6.2v-17.8c0-3.7,3-5.8,6.4-6.4c1.1-0.2,2.3-0.3,3.4-0.3c1.6,0,3.4,0.2,4.8,0.7c2.9,1,5.3,3,5,7.3l-4.4,0
			c0-2-0.4-2.6-1.9-3.2l-0.4-0.1c-0.9-0.2-1.8-0.3-2.9-0.3c-0.9,0-1.9,0-2.6,0.2c-1.5,0.2-2.9,1.1-2.9,2.1v17.8
			c0,0.9,1.1,1.6,2.3,1.9c0.9,0.2,2,0.3,3.1,0.3c1.1,0,2.2-0.1,3.1-0.4c1.2-0.4,2.2-1,2.2-3.1L452.2,325.2z"/>
		<path fill="#CC0033" d="M460.7,315.3h13.1v4.5h-13.1c0,0.8,0,1.9,0,3c0,1.8,0,3.7,0.1,3.9c0.4,1.3,2.7,1.8,4.3,1.8h8.7v4.5l-8.7,0
			c-4,0-8.8-1.9-8.8-6.6v-24.2h17.5v4.4h-13.1V315.3z"/>
		<path fill="#CC0033" d="M491.4,309.2c0.1-2.6-2.6-3.5-4.3-3.6c-1.7,0-3.5,0.2-4.6,1.4c-0.7,0.8-0.8,2.2-0.8,3.3
			c0,1,0.3,1.8,0.8,2.5c1,1.2,3,1.7,4.8,2.2c5.3,1.4,9.5,3.7,9.5,9.9c0,2.7-0.9,4.9-2.6,6.4c-1.8,1.5-4.8,2-7.2,2
			c-1.6,0-3.1-0.2-4.5-0.4c-3-0.6-5.3-2.9-4.9-7.6l4.1,0c0,1.4,0.2,3.2,2.2,3.7c1,0.2,2.1,0.4,3.1,0.4c1.5,0,3.1-0.2,4.3-1.2
			c1-0.7,1.3-2,1.4-3.3c0-3.6-3.3-5.2-6.3-6c-2.6-0.7-5.2-1.5-6.7-3.2c-1.4-1.5-2-3.4-2-5.5c0-2.3,0-4.4,2.2-6.2
			c1.6-1.6,4.8-2.4,7.4-2.4c3.1,0,8.5,2.2,8.4,7.5L491.4,309.2z"/>
	</g>
	<g>
		<path fill="#333333" d="M320.8,409.1L320.8,409.1l-3.2,1.7l-0.5-1.9l4-2.1h2.1V425h-2.4V409.1z"/>
		<path fill="#333333" d="M327.8,423.5c0-1,0.7-1.8,1.7-1.8c1,0,1.7,0.7,1.7,1.8c0,1-0.6,1.8-1.7,1.8
			C328.5,425.3,327.8,424.6,327.8,423.5z"/>
	</g>
	<g>
		<path fill="#333333" d="M356.2,406.1h2.4v12.6c0,5-2.5,6.6-5.7,6.6c-0.9,0-2-0.2-2.6-0.4l0.4-2c0.5,0.2,1.2,0.4,2,0.4
			c2.2,0,3.5-1,3.5-4.7V406.1z"/>
		<path fill="#333333" d="M369.2,425l-0.2-1.7H369c-0.8,1.1-2.2,2-4.1,2c-2.7,0-4.1-1.9-4.1-3.9c0-3.3,2.9-5.1,8.1-5v-0.3
			c0-1.1-0.3-3.1-3.1-3.1c-1.3,0-2.6,0.4-3.5,1l-0.6-1.6c1.1-0.7,2.7-1.2,4.5-1.2c4.1,0,5.2,2.8,5.2,5.5v5.1c0,1.2,0.1,2.3,0.2,3.2
			H369.2z M368.9,418.1c-2.7-0.1-5.7,0.4-5.7,3.1c0,1.6,1.1,2.4,2.3,2.4c1.8,0,2.9-1.1,3.3-2.3c0.1-0.3,0.1-0.5,0.1-0.8V418.1z"/>
		<path fill="#333333" d="M374.4,415.1c0-1.4,0-2.5-0.1-3.7h2.2l0.1,2.2h0.1c0.7-1.3,2.2-2.5,4.5-2.5c1.9,0,4.8,1.1,4.8,5.8v8.1
			h-2.5v-7.8c0-2.2-0.8-4-3.1-4c-1.6,0-2.9,1.1-3.3,2.5c-0.1,0.3-0.2,0.7-0.2,1.1v8.1h-2.5V415.1z"/>
		<path fill="#333333" d="M388.6,422.5c0.7,0.5,2,1,3.2,1c1.8,0,2.6-0.9,2.6-2c0-1.2-0.7-1.8-2.5-2.5c-2.4-0.9-3.6-2.2-3.6-3.8
			c0-2.2,1.8-4,4.7-4c1.4,0,2.6,0.4,3.3,0.8l-0.6,1.8c-0.5-0.3-1.5-0.8-2.8-0.8c-1.5,0-2.3,0.8-2.3,1.8c0,1.1,0.8,1.6,2.6,2.3
			c2.4,0.9,3.6,2.1,3.6,4.1c0,2.4-1.8,4.1-5.1,4.1c-1.5,0-2.9-0.4-3.8-0.9L388.6,422.5z"/>
		<path fill="#333333" d="M407,425l-0.2-1.7h-0.1c-0.8,1.1-2.2,2-4.1,2c-2.7,0-4.1-1.9-4.1-3.9c0-3.3,2.9-5.1,8.1-5v-0.3
			c0-1.1-0.3-3.1-3.1-3.1c-1.3,0-2.6,0.4-3.5,1l-0.6-1.6c1.1-0.7,2.7-1.2,4.5-1.2c4.1,0,5.2,2.8,5.2,5.5v5.1c0,1.2,0.1,2.3,0.2,3.2
			H407z M406.7,418.1c-2.7-0.1-5.7,0.4-5.7,3.1c0,1.6,1.1,2.4,2.3,2.4c1.8,0,2.9-1.1,3.3-2.3c0.1-0.3,0.1-0.5,0.1-0.8V418.1z"/>
		<path fill="#333333" d="M418.2,406.4c1.2-0.2,2.7-0.4,4.7-0.4c2.4,0,4.2,0.6,5.3,1.6c1,0.9,1.7,2.3,1.7,3.9c0,1.7-0.5,3.1-1.5,4
			c-1.3,1.4-3.4,2.1-5.8,2.1c-0.7,0-1.4,0-2-0.2v7.6h-2.4V406.4z M420.7,415.5c0.5,0.1,1.2,0.2,2,0.2c2.9,0,4.7-1.4,4.7-4
			c0-2.5-1.8-3.7-4.5-3.7c-1.1,0-1.9,0.1-2.3,0.2V415.5z"/>
		<path fill="#333333" d="M427.3,428.4c0.6-1.7,1.4-4.6,1.7-6.7l2.7-0.3c-0.6,2.4-1.9,5.5-2.7,6.8L427.3,428.4z"/>
		<path fill="#333333" d="M439.9,406.4c1.2-0.2,2.7-0.4,4.7-0.4c2.4,0,4.2,0.6,5.3,1.6c1,0.9,1.7,2.3,1.7,3.9c0,1.7-0.5,3.1-1.5,4
			c-1.3,1.4-3.4,2.1-5.8,2.1c-0.7,0-1.4,0-2-0.2v7.6h-2.4V406.4z M442.3,415.5c0.5,0.1,1.2,0.2,2,0.2c2.9,0,4.7-1.4,4.7-4
			c0-2.5-1.8-3.7-4.5-3.7c-1.1,0-1.9,0.1-2.3,0.2V415.5z"/>
		<path fill="#333333" d="M465,421.3c0,1.4,0,2.6,0.1,3.7h-2.2l-0.1-2.2h-0.1c-0.6,1.1-2.1,2.5-4.5,2.5c-2.1,0-4.7-1.2-4.7-5.9v-7.9
			h2.5v7.5c0,2.6,0.8,4.3,3,4.3c1.7,0,2.8-1.1,3.2-2.2c0.1-0.4,0.2-0.8,0.2-1.3v-8.3h2.5V421.3z"/>
		<path fill="#333333" d="M468.2,405.1h2.5V425h-2.5V405.1z"/>
		<path fill="#333333" d="M476.7,407.6c0,0.8-0.6,1.5-1.6,1.5c-0.9,0-1.5-0.7-1.5-1.5c0-0.9,0.6-1.5,1.5-1.5
			C476.1,406.1,476.7,406.8,476.7,407.6z M474,425v-13.6h2.5V425H474z"/>
		<path fill="#333333" d="M491.5,405.1v16.4c0,1.2,0,2.6,0.1,3.5h-2.2l-0.1-2.4h-0.1c-0.8,1.5-2.4,2.7-4.6,2.7
			c-3.3,0-5.8-2.8-5.8-6.9c0-4.5,2.8-7.3,6.1-7.3c2.1,0,3.5,1,4.1,2.1h0.1v-8.1H491.5z M489,417c0-0.3,0-0.7-0.1-1
			c-0.4-1.6-1.7-2.9-3.6-2.9c-2.5,0-4.1,2.2-4.1,5.2c0,2.7,1.3,5,4,5c1.7,0,3.2-1.1,3.6-2.9c0.1-0.3,0.1-0.7,0.1-1.1V417z"/>
		<path fill="#333333" d="M507.1,418.1c0,5-3.5,7.2-6.7,7.2c-3.7,0-6.5-2.7-6.5-7c0-4.5,3-7.2,6.7-7.2
			C504.5,411.1,507.1,414,507.1,418.1z M496.4,418.3c0,3,1.7,5.2,4.1,5.2c2.4,0,4.1-2.2,4.1-5.3c0-2.3-1.1-5.2-4.1-5.2
			S496.4,415.7,496.4,418.3z"/>
		<path fill="#333333" d="M519,408.2h-5.7v-2.1h14v2.1h-5.8V425H519V408.2z"/>
		<path fill="#333333" d="M526.3,423.5c0-1,0.7-1.8,1.7-1.8c1,0,1.7,0.7,1.7,1.8c0,1-0.6,1.8-1.7,1.8
			C526.9,425.3,526.3,424.6,526.3,423.5z"/>
	</g>
	<g>
		<path fill="#333333" d="M540.1,419l-3,6h-2.5l9.8-18.9h2.7l2.6,18.9h-2.4l-0.8-6H540.1z M546.4,417.2l-0.7-5.5
			c-0.1-1-0.3-2.4-0.3-3.5h-0.1c-0.5,1.1-1,2.3-1.5,3.4l-2.8,5.5H546.4z"/>
		<path fill="#333333" d="M551.3,425l1.8-9.6c0.3-1.5,0.5-2.8,0.6-3.9h2l-0.4,2.5h0.1c1.3-1.9,3-2.9,4.8-2.9c2.1,0,3.1,1.3,3.2,3
			c1.2-2,2.9-3,5-3c1.6,0,3.3,1,3.3,3.6c0,0.6-0.1,1.5-0.2,2.3l-1.5,8h-2.3l1.5-7.8c0.1-0.5,0.2-1.2,0.2-1.8c0-1.4-0.5-2.4-2-2.4
			c-1.7,0-3.7,2-4.2,5l-1.3,6.9h-2.2l1.5-8c0.1-0.6,0.2-1.1,0.2-1.7c0-1.1-0.3-2.3-2-2.3s-3.8,2.2-4.3,5.1l-1.3,6.8H551.3z"/>
		<path fill="#333333" d="M577.1,422.8c0.6,0.3,1.4,0.4,2.4,0.4c2,0,3.2-1,3.9-4.4l2.4-12.7h2.3l-2.5,13c-0.8,4.4-2.7,6.2-6.2,6.2
			c-1.1,0-2.3-0.3-2.8-0.5L577.1,422.8z"/>
		<path fill="#333333" d="M605.9,424.4c-1.1,0.5-2.8,0.9-4.9,0.9c-4.8,0-7.6-3-7.6-7.8c0-3.6,1.4-6.9,4-9.1c1.9-1.7,4.3-2.5,7.1-2.5
			c2.1,0,3.6,0.5,4.1,0.9l-0.8,1.9c-0.7-0.4-2-0.8-3.7-0.8c-2,0-3.9,0.8-5.4,2.1c-1.8,1.7-2.9,4.3-2.9,7.2c0,3.4,1.5,6.2,5.7,6.2
			c1.4,0,3-0.3,4-0.8L605.9,424.4z"/>
		<path fill="#333333" d="M616.2,425c0-0.8,0.1-2.1,0.3-3.5h-0.1c-1.5,2.8-3.3,3.8-5.3,3.8c-2.4,0-3.9-1.9-3.9-4.5
			c0-4.7,3.5-9.7,9.4-9.7c1.3,0,2.7,0.2,3.6,0.5l-1.4,7.1c-0.4,2.4-0.6,4.8-0.6,6.3H616.2z M617.7,413.2c-0.3-0.1-0.8-0.2-1.6-0.2
			c-3.5,0-6.4,3.7-6.4,7.4c0,1.5,0.5,3,2.3,3c1.9,0,4.2-2.5,4.9-6.1L617.7,413.2z"/>
		<path fill="#333333" d="M621,425l1.7-8.7c0.3-1.8,0.6-3.6,0.7-4.8h2c-0.1,1-0.2,1.9-0.4,2.9h0.1c0.9-1.8,2.3-3.2,4.1-3.2
			c0.2,0,0.5,0,0.6,0.1l-0.4,2.3c-0.1,0-0.4-0.1-0.6-0.1c-2,0-3.8,2.4-4.4,5.6l-1.1,6H621z"/>
		<path fill="#333333" d="M643.2,405.1l-3,15.6c-0.3,1.4-0.5,3-0.6,4.3h-2.1l0.4-2.7h-0.1c-1.2,1.9-2.9,3-4.9,3
			c-2.6,0-4.1-2.2-4.1-4.9c0-4.8,3.6-9.2,8.4-9.2c0.9,0,1.8,0.2,2.4,0.5l1.2-6.5H643.2z M639.3,413.6c-0.5-0.3-1.3-0.6-2.2-0.6
			c-3.2,0-5.8,3.4-5.8,7.1c0,1.6,0.6,3.3,2.5,3.3c1.8,0,3.9-2,4.5-5.1L639.3,413.6z"/>
		<path fill="#333333" d="M642.7,425l2.6-13.6h2.3l-2.6,13.6H642.7z M645.8,407.7c0-0.9,0.7-1.6,1.5-1.6c0.8,0,1.4,0.6,1.4,1.5
			c0,0.9-0.7,1.6-1.6,1.6C646.3,409.1,645.8,408.5,645.8,407.7z"/>
		<path fill="#333333" d="M661.3,416.8c0,4.2-3,8.5-7.5,8.5c-3.4,0-5.3-2.5-5.3-5.6c0-4.5,3.1-8.6,7.5-8.6
			C659.7,411.1,661.3,413.9,661.3,416.8z M650.9,419.7c0,2.2,1.2,3.8,3.2,3.8c2.7,0,4.8-3.5,4.8-6.7c0-1.6-0.7-3.8-3.2-3.8
			C652.9,413,650.9,416.5,650.9,419.7z"/>
		<path fill="#333333" d="M665.1,411.4l1.2,7.7c0.2,1.5,0.4,2.6,0.4,3.3h0.1c0.3-0.7,0.6-1.6,1.4-3.2l4.1-7.9h2.5l-7.5,13.6H665
			l-2.4-13.6H665.1z"/>
		<path fill="#333333" d="M682.5,425c0-0.8,0.1-2.1,0.3-3.5h-0.1c-1.5,2.8-3.3,3.8-5.3,3.8c-2.4,0-3.9-1.9-3.9-4.5
			c0-4.7,3.5-9.7,9.4-9.7c1.3,0,2.7,0.2,3.6,0.5l-1.4,7.1c-0.4,2.4-0.6,4.8-0.6,6.3H682.5z M684,413.2c-0.3-0.1-0.8-0.2-1.6-0.2
			c-3.5,0-6.4,3.7-6.4,7.4c0,1.5,0.5,3,2.3,3c1.9,0,4.2-2.5,4.9-6.1L684,413.2z"/>
		<path fill="#333333" d="M687.2,422.6c0.6,0.4,1.8,0.8,2.9,0.8c1.6,0,2.6-1,2.6-2.2c0-1.1-0.5-1.7-1.9-2.5
			c-1.6-0.9-2.4-2.1-2.4-3.4c0-2.4,2-4.2,4.9-4.2c1.2,0,2.3,0.3,2.8,0.7l-0.6,1.8c-0.5-0.3-1.3-0.6-2.4-0.6c-1.4,0-2.4,0.9-2.4,2
			c0,1,0.6,1.6,1.8,2.3c1.5,0.9,2.5,2,2.5,3.6c0,2.9-2.3,4.5-5.2,4.5c-1.5,0-2.7-0.4-3.4-0.9L687.2,422.6z"/>
		<path fill="#333333" d="M705.8,424.5c-0.7,0.3-2.1,0.8-3.9,0.8c-3.5,0-5.2-2.4-5.2-5.2c0-4.6,3.4-8.9,8.3-8.9
			c1.3,0,2.4,0.4,2.8,0.6l-0.7,1.8c-0.5-0.3-1.3-0.5-2.3-0.5c-3.5,0-5.7,3.5-5.7,6.7c0,2.2,1.1,3.6,3.4,3.6c1.4,0,2.4-0.4,3.1-0.8
			L705.8,424.5z"/>
		<path fill="#333333" d="M716.3,406.4c1.4-0.3,3-0.4,4.7-0.4c3.2,0,5.5,0.9,6.9,2.5c1,1.1,1.8,2.7,1.8,5.1c0,3.4-1.4,6.8-3.8,8.9
			c-2.2,1.8-4.9,2.6-8.5,2.6c-1.7,0-3.4-0.1-4.6-0.2L716.3,406.4z M715.5,423.1c0.8,0.1,1.7,0.1,2.4,0.1c3,0,5.2-0.9,6.7-2.5
			c1.7-1.7,2.6-4.3,2.6-6.9c0-3.4-1.7-5.9-6.4-5.9c-0.8,0-1.9,0.1-2.6,0.2L715.5,423.1z"/>
		<path fill="#333333" d="M730.2,425l1.7-8.7c0.3-1.8,0.6-3.6,0.7-4.8h2c-0.1,1-0.2,1.9-0.4,2.9h0.1c0.9-1.8,2.3-3.2,4.1-3.2
			c0.2,0,0.5,0,0.6,0.1l-0.4,2.3c-0.1,0-0.4-0.1-0.6-0.1c-2,0-3.8,2.4-4.4,5.6l-1.1,6H730.2z"/>
		<path fill="#333333" d="M751.5,411.4l-1.8,9.6c-0.3,1.5-0.5,2.8-0.6,3.9H747l0.4-2.5h-0.1c-1.2,1.8-3,2.9-4.8,2.9
			c-1.7,0-3.6-0.8-3.6-3.9c0-0.6,0.1-1.4,0.3-2.3l1.5-7.7h2.3l-1.4,7.6c-0.2,0.8-0.3,1.4-0.3,2c0,1.4,0.6,2.4,2.2,2.4
			c1.7,0,3.8-2,4.4-5l1.3-6.9H751.5z"/>
		<path fill="#333333" d="M752.3,428.1c0.8,0.5,2.2,0.9,3.6,0.9c2.3,0,4.1-1.2,4.9-4.8l0.4-2h-0.1c-1.2,1.9-2.8,2.9-4.7,2.9
			c-2.7,0-4.1-2.3-4.1-4.7c0-4.6,3.4-9.2,8.6-9.2c1.6,0,3.3,0.4,4.3,1l-2.1,11.2c-0.6,2.9-1.3,4.8-2.7,6c-1.3,1.2-3.2,1.5-4.7,1.5
			c-1.7,0-3.2-0.4-4.1-1L752.3,428.1z M762.7,413.5c-0.4-0.2-1.3-0.4-2.2-0.4c-3.4,0-5.7,3.5-5.7,6.9c0,1.5,0.5,3.2,2.6,3.2
			c2,0,4-2.5,4.5-5.2L762.7,413.5z"/>
		<path fill="#333333" d="M765.9,422.6c0.6,0.4,1.8,0.8,2.9,0.8c1.6,0,2.6-1,2.6-2.2c0-1.1-0.5-1.7-1.9-2.5
			c-1.6-0.9-2.4-2.1-2.4-3.4c0-2.4,2-4.2,4.9-4.2c1.2,0,2.3,0.3,2.8,0.7l-0.6,1.8c-0.5-0.3-1.3-0.6-2.4-0.6c-1.4,0-2.4,0.9-2.4,2
			c0,1,0.6,1.6,1.8,2.3c1.5,0.9,2.5,2,2.5,3.6c0,2.9-2.3,4.5-5.2,4.5c-1.5,0-2.7-0.4-3.4-0.9L765.9,422.6z"/>
	</g>
	<g>
		<path fill="#333333" d="M781.4,425v-1.5l1.9-1.9c4.6-4.4,6.7-6.8,6.8-9.5c0-1.8-0.9-3.6-3.6-3.6c-1.7,0-3,0.8-3.9,1.5l-0.8-1.7
			c1.3-1.1,3.1-1.8,5.2-1.8c3.9,0,5.6,2.7,5.6,5.3c0,3.4-2.4,6.1-6.3,9.8l-1.5,1.3v0.1h8.2v2H781.4z"/>
		<path fill="#333333" d="M806.8,415.7c0,6.2-2.3,9.6-6.3,9.6c-3.6,0-6-3.3-6-9.4c0-6.1,2.6-9.5,6.3-9.5
			C804.6,406.5,806.8,409.9,806.8,415.7z M796.9,416c0,4.7,1.5,7.4,3.7,7.4c2.5,0,3.7-2.9,3.7-7.6c0-4.5-1.1-7.4-3.7-7.4
			C798.5,408.4,796.9,411,796.9,416z"/>
		<path fill="#333333" d="M812.4,409.1L812.4,409.1l-3.2,1.7l-0.5-1.9l4-2.1h2.1V425h-2.4V409.1z"/>
		<path fill="#333333" d="M818.9,420.4c0-2.3,1.4-3.9,3.6-4.9l0-0.1c-2-1-2.9-2.5-2.9-4.1c0-2.9,2.4-4.8,5.6-4.8
			c3.5,0,5.3,2.2,5.3,4.5c0,1.5-0.8,3.2-3,4.3v0.1c2.3,0.9,3.7,2.5,3.7,4.7c0,3.2-2.7,5.3-6.2,5.3
			C821.2,425.3,818.9,423,818.9,420.4z M828.7,420.3c0-2.2-1.5-3.3-4-4c-2.1,0.6-3.3,2-3.3,3.8c-0.1,1.8,1.3,3.5,3.6,3.5
			C827.2,423.5,828.7,422.1,828.7,420.3z M821.9,411.2c0,1.8,1.4,2.8,3.5,3.4c1.6-0.5,2.8-1.7,2.8-3.3c0-1.5-0.9-3-3.1-3
			C823,408.3,821.9,409.6,821.9,411.2z"/>
		<path fill="#333333" d="M831.7,428.4c0.6-1.7,1.4-4.6,1.7-6.7l2.7-0.3c-0.7,2.4-1.9,5.5-2.7,6.8L831.7,428.4z M832.9,413.7
			c0-1,0.7-1.8,1.7-1.8c1,0,1.7,0.7,1.7,1.8c0,1-0.6,1.7-1.7,1.7C833.6,415.4,832.9,414.7,832.9,413.7z"/>
		<path fill="#333333" d="M848.8,409.1L848.8,409.1l-3.2,1.7l-0.5-1.9l4-2.1h2.1V425h-2.4V409.1z"/>
		<path fill="#333333" d="M855.3,420.4c0-2.3,1.4-3.9,3.6-4.9l0-0.1c-2-1-2.9-2.5-2.9-4.1c0-2.9,2.4-4.8,5.6-4.8
			c3.5,0,5.3,2.2,5.3,4.5c0,1.5-0.8,3.2-3,4.3v0.1c2.3,0.9,3.7,2.5,3.7,4.7c0,3.2-2.7,5.3-6.2,5.3
			C857.6,425.3,855.3,423,855.3,420.4z M865.1,420.3c0-2.2-1.5-3.3-4-4c-2.1,0.6-3.3,2-3.3,3.8c-0.1,1.8,1.3,3.5,3.6,3.5
			C863.6,423.5,865.1,422.1,865.1,420.3z M858.3,411.2c0,1.8,1.4,2.8,3.5,3.4c1.6-0.5,2.8-1.7,2.8-3.3c0-1.5-0.9-3-3.1-3
			C859.4,408.3,858.3,409.6,858.3,411.2z"/>
		<path fill="#333333" d="M875.2,405.6c-2,2.7-3.5,6.4-3.5,11.5c0,5,1.5,8.6,3.5,11.4h-1.9c-1.8-2.3-3.7-5.9-3.7-11.4
			c0-5.5,1.9-9.1,3.7-11.5H875.2z"/>
		<path fill="#333333" d="M880.1,409.1L880.1,409.1l-3.2,1.7l-0.5-1.9l4-2.1h2.1V425h-2.4V409.1z"/>
		<path fill="#333333" d="M885.5,428.4c2-2.8,3.5-6.4,3.5-11.5c0-5-1.5-8.6-3.5-11.4h1.9c1.8,2.3,3.7,5.9,3.7,11.4
			c0,5.5-1.9,9-3.7,11.4H885.5z"/>
		<path fill="#333333" d="M893.1,413.7c0-1,0.7-1.8,1.7-1.8c1,0,1.6,0.7,1.7,1.8c0,1-0.6,1.7-1.7,1.7
			C893.8,415.4,893.1,414.7,893.1,413.7z M893.1,423.6c0-1,0.7-1.8,1.7-1.8c1,0,1.6,0.7,1.7,1.8c0,1-0.6,1.7-1.7,1.7
			C893.8,425.3,893.1,424.6,893.1,423.6z"/>
		<path fill="#333333" d="M901.4,409.1L901.4,409.1l-3.2,1.7l-0.5-1.9l4-2.1h2.1V425h-2.4V409.1z"/>
		<path fill="#333333" d="M920.5,417v1.7h-12.3V417H920.5z"/>
		<path fill="#333333" d="M925.4,409.1L925.4,409.1l-3.2,1.7l-0.5-1.9l4-2.1h2.1V425h-2.4V409.1z"/>
		<path fill="#333333" d="M935.9,409.1L935.9,409.1l-3.2,1.7l-0.5-1.9l4-2.1h2.1V425h-2.4V409.1z"/>
		<path fill="#333333" d="M943,423.5c0-1,0.7-1.8,1.7-1.8c1,0,1.7,0.7,1.7,1.8c0,1-0.6,1.8-1.7,1.8C943.7,425.3,943,424.6,943,423.5
			z"/>
	</g>
	<g>
		<path fill="#333333" d="M315.4,481v-1.5l1.9-1.9c4.6-4.4,6.7-6.8,6.8-9.5c0-1.8-0.9-3.6-3.6-3.6c-1.7,0-3,0.8-3.9,1.5l-0.8-1.7
			c1.3-1.1,3.1-1.8,5.2-1.8c3.9,0,5.6,2.7,5.6,5.3c0,3.4-2.4,6.1-6.3,9.8l-1.5,1.3v0.1h8.2v2H315.4z"/>
		<path fill="#333333" d="M329.4,479.5c0-1,0.7-1.8,1.7-1.8c1,0,1.7,0.7,1.7,1.8c0,1-0.6,1.8-1.7,1.8
			C330.1,481.3,329.4,480.6,329.4,479.5z"/>
	</g>
	<g>
		<path fill="#333333" d="M352.3,462.4c1.2-0.2,2.7-0.4,4.7-0.4c2.4,0,4.2,0.6,5.3,1.6c1,0.9,1.7,2.3,1.7,3.9c0,1.7-0.5,3.1-1.5,4
			c-1.3,1.4-3.4,2.1-5.8,2.1c-0.7,0-1.4,0-2-0.2v7.6h-2.4V462.4z M354.8,471.5c0.5,0.1,1.2,0.2,2,0.2c2.9,0,4.7-1.4,4.7-4
			c0-2.5-1.8-3.7-4.5-3.7c-1.1,0-1.9,0.1-2.3,0.2V471.5z"/>
		<path fill="#333333" d="M377.4,477.3c0,1.4,0,2.6,0.1,3.7h-2.2l-0.1-2.2h-0.1c-0.6,1.1-2.1,2.5-4.5,2.5c-2.1,0-4.7-1.2-4.7-5.9
			v-7.9h2.5v7.5c0,2.6,0.8,4.3,3,4.3c1.7,0,2.8-1.1,3.2-2.2c0.1-0.4,0.2-0.8,0.2-1.3v-8.3h2.5V477.3z"/>
		<path fill="#333333" d="M380.7,461.1h2.5V481h-2.5V461.1z"/>
		<path fill="#333333" d="M389.1,463.6c0,0.8-0.6,1.5-1.6,1.5c-0.9,0-1.5-0.7-1.5-1.5c0-0.9,0.6-1.5,1.5-1.5
			C388.5,462.1,389.1,462.8,389.1,463.6z M386.4,481v-13.6h2.5V481H386.4z"/>
		<path fill="#333333" d="M403.9,461.1v16.4c0,1.2,0,2.6,0.1,3.5h-2.2l-0.1-2.4h-0.1c-0.8,1.5-2.4,2.7-4.6,2.7
			c-3.3,0-5.8-2.8-5.8-6.9c0-4.5,2.8-7.3,6.1-7.3c2.1,0,3.5,1,4.1,2.1h0.1v-8.1H403.9z M401.4,473c0-0.3,0-0.7-0.1-1
			c-0.4-1.6-1.7-2.9-3.6-2.9c-2.5,0-4.1,2.2-4.1,5.2c0,2.7,1.3,5,4,5c1.7,0,3.2-1.1,3.6-2.9c0.1-0.3,0.1-0.7,0.1-1.1V473z"/>
		<path fill="#333333" d="M419.5,474.1c0,5-3.5,7.2-6.7,7.2c-3.7,0-6.5-2.7-6.5-7c0-4.5,3-7.2,6.7-7.2
			C416.9,467.1,419.5,470,419.5,474.1z M408.8,474.3c0,3,1.7,5.2,4.1,5.2c2.4,0,4.1-2.2,4.1-5.3c0-2.3-1.1-5.2-4.1-5.2
			S408.8,471.7,408.8,474.3z"/>
		<path fill="#333333" d="M431.5,464.2h-5.7v-2.1h14v2.1h-5.8V481h-2.5V464.2z"/>
	</g>
	<g>
		<path fill="#333333" d="M455.2,480.2c-1,0.6-2.7,1.1-4.5,1.1c-3.6,0-5.2-2.4-5.2-5.4c0-4.1,3-8.7,7.4-8.7c2.6,0,4,1.5,4,3.5
			c0,3.6-4,4.5-9,4.4c-0.1,0.6,0,1.8,0.3,2.6c0.5,1.2,1.6,1.8,3,1.8c1.6,0,2.8-0.5,3.6-1L455.2,480.2z M452.6,469
			c-2.2,0-3.9,2.2-4.4,4.3c3.6,0,6.5-0.4,6.5-2.5C454.7,469.6,453.9,469,452.6,469z"/>
		<path fill="#333333" d="M463.5,463.8l-0.7,3.6h3.2l-0.4,1.8h-3.2l-1.3,6.6c-0.1,0.8-0.3,1.5-0.3,2.2c0,0.8,0.4,1.3,1.3,1.3
			c0.4,0,0.8,0,1.1-0.1l-0.1,1.8c-0.4,0.2-1.1,0.3-1.8,0.3c-2.1,0-2.9-1.3-2.9-2.6c0-0.8,0.1-1.6,0.3-2.5l1.3-6.9h-2l0.4-1.8h1.9
			l0.6-3.1L463.5,463.8z"/>
		<path fill="#333333" d="M479.5,481c0-0.8,0.1-2.1,0.3-3.5h-0.1c-1.5,2.8-3.3,3.8-5.3,3.8c-2.4,0-3.9-1.9-3.9-4.5
			c0-4.7,3.5-9.7,9.4-9.7c1.3,0,2.7,0.2,3.6,0.5l-1.4,7.1c-0.4,2.4-0.6,4.8-0.6,6.3H479.5z M481,469.2c-0.3-0.1-0.8-0.2-1.6-0.2
			c-3.5,0-6.4,3.7-6.4,7.4c0,1.5,0.5,3,2.3,3c1.9,0,4.2-2.5,4.9-6.1L481,469.2z"/>
		<path fill="#333333" d="M484.4,481l3.8-19.9h2.3l-3.8,19.9H484.4z"/>
		<path fill="#333333" d="M489.7,479.7c0-1,0.7-1.9,1.8-1.9c1,0,1.6,0.7,1.6,1.7c0,1-0.7,1.8-1.8,1.8
			C490.3,481.3,489.7,480.6,489.7,479.7z"/>
		<path fill="#333333" d="M500.2,481l3.6-18.9h2.5l4.3,10.7c0.8,2.1,1.3,3.6,1.7,5.3l0.1,0c0.1-1.7,0.3-3.3,0.8-5.9l1.9-10h2.2
			l-3.6,18.9h-2.3l-4.3-10.7c-0.9-2.3-1.3-3.7-1.8-5.4l-0.1,0c-0.2,1.8-0.5,3.6-1,6.2l-1.9,9.9H500.2z"/>
		<path fill="#333333" d="M533,472.1h-6.9l-1.3,6.9h7.7l-0.4,2h-10.1l3.6-18.9h9.6l-0.4,2h-7.3l-1.1,6h6.9L533,472.1z"/>
		<path fill="#333333" d="M534.2,481l1.8-9.6c0.3-1.5,0.5-2.8,0.6-3.9h2.1l-0.3,2.7h0.1c1.2-1.9,3-3,5-3c1.6,0,3.4,0.9,3.4,3.8
			c0,0.6-0.1,1.5-0.3,2.2l-1.5,7.9h-2.3l1.5-7.8c0.1-0.5,0.2-1.2,0.2-1.7c0-1.4-0.5-2.4-2.1-2.4c-1.7,0-4,2-4.6,5.3l-1.2,6.6H534.2z
			"/>
		<path fill="#333333" d="M548.5,484.1c0.8,0.5,2.2,0.9,3.6,0.9c2.3,0,4.1-1.2,4.9-4.8l0.4-2h-0.1c-1.2,1.9-2.8,2.9-4.7,2.9
			c-2.7,0-4.1-2.3-4.1-4.7c0-4.6,3.4-9.2,8.6-9.2c1.6,0,3.3,0.4,4.3,1l-2.1,11.2c-0.6,2.9-1.3,4.8-2.7,6c-1.3,1.2-3.2,1.5-4.7,1.5
			c-1.7,0-3.2-0.4-4.1-1L548.5,484.1z M558.8,469.5c-0.4-0.2-1.3-0.4-2.2-0.4c-3.4,0-5.7,3.5-5.7,6.9c0,1.5,0.5,3.2,2.6,3.2
			c2,0,4-2.5,4.5-5.2L558.8,469.5z"/>
		<path fill="#333333" d="M562.2,481l3.8-19.9h2.3l-3.8,19.9H562.2z"/>
		<path fill="#333333" d="M571.8,478.8c0.6,0.3,1.4,0.4,2.4,0.4c2,0,3.2-1,3.9-4.4l2.4-12.7h2.3l-2.5,13c-0.8,4.4-2.7,6.2-6.2,6.2
			c-1.1,0-2.3-0.3-2.8-0.5L571.8,478.8z"/>
		<path fill="#333333" d="M603.3,481l1.3-10.2c0.3-1.8,0.7-4.6,1-6.4h-0.1c-0.9,1.9-1.9,4.1-2.9,6.1l-5.6,10.4h-1.8l-1.4-10.2
			c-0.3-2.2-0.5-4.4-0.6-6.3h-0.1c-0.4,1.7-1,4.6-1.5,6.4l-2.6,10.2H587l4.9-18.9h3l1.5,10.8c0.2,1.6,0.4,3.3,0.4,4.7h0.1
			c0.6-1.4,1.4-3.1,2.2-4.6l5.9-10.9h3l-2.4,18.9H603.3z"/>
		<path fill="#333333" d="M618.3,480.2c-1,0.6-2.7,1.1-4.5,1.1c-3.6,0-5.2-2.4-5.2-5.4c0-4.1,3-8.7,7.4-8.7c2.6,0,4,1.5,4,3.5
			c0,3.6-4,4.5-9,4.4c-0.1,0.6,0,1.8,0.3,2.6c0.5,1.2,1.6,1.8,3,1.8c1.6,0,2.8-0.5,3.6-1L618.3,480.2z M615.8,469
			c-2.2,0-3.9,2.2-4.4,4.3c3.6,0,6.5-0.4,6.5-2.5C617.8,469.6,617,469,615.8,469z"/>
		<path fill="#333333" d="M635,461.1l-3,15.6c-0.3,1.4-0.5,3-0.6,4.3h-2.1l0.4-2.7h-0.1c-1.2,1.9-2.9,3-4.9,3
			c-2.6,0-4.1-2.2-4.1-4.9c0-4.8,3.6-9.2,8.4-9.2c0.9,0,1.8,0.2,2.4,0.5l1.2-6.5H635z M631.1,469.6c-0.5-0.3-1.3-0.6-2.2-0.6
			c-3.2,0-5.8,3.4-5.8,7.1c0,1.6,0.6,3.3,2.5,3.3c1.8,0,3.9-2,4.5-5.1L631.1,469.6z"/>
	</g>
	<g>
		<path fill="#333333" d="M640.5,481v-1.5l1.9-1.9c4.6-4.4,6.7-6.8,6.8-9.5c0-1.8-0.9-3.6-3.6-3.6c-1.7,0-3,0.8-3.9,1.5l-0.8-1.7
			c1.3-1.1,3.1-1.8,5.2-1.8c3.9,0,5.6,2.7,5.6,5.3c0,3.4-2.4,6.1-6.3,9.8l-1.5,1.3v0.1h8.2v2H640.5z"/>
		<path fill="#333333" d="M665.8,471.7c0,6.2-2.3,9.6-6.3,9.6c-3.6,0-6-3.3-6-9.4c0-6.1,2.6-9.5,6.3-9.5
			C663.6,462.5,665.8,465.9,665.8,471.7z M655.9,472c0,4.7,1.5,7.4,3.7,7.4c2.5,0,3.7-2.9,3.7-7.6c0-4.5-1.1-7.4-3.7-7.4
			C657.5,464.4,655.9,467,655.9,472z"/>
		<path fill="#333333" d="M671.4,465.1L671.4,465.1l-3.2,1.7l-0.5-1.9l4-2.1h2.1V481h-2.4V465.1z"/>
		<path fill="#333333" d="M678.2,478.2c0.7,0.4,2.3,1.1,4,1.1c3.2,0,4.1-2,4.1-3.5c0-2.5-2.3-3.6-4.7-3.6h-1.4v-1.8h1.4
			c1.8,0,4.1-0.9,4.1-3.1c0-1.5-0.9-2.7-3.2-2.7c-1.5,0-2.9,0.6-3.6,1.2l-0.6-1.8c1-0.7,2.8-1.4,4.8-1.4c3.6,0,5.2,2.1,5.2,4.3
			c0,1.9-1.1,3.5-3.4,4.3v0.1c2.2,0.4,4.1,2.1,4.1,4.7c0,2.9-2.3,5.5-6.6,5.5c-2,0-3.8-0.6-4.7-1.2L678.2,478.2z"/>
		<path fill="#333333" d="M689.8,484.4c0.6-1.7,1.4-4.6,1.7-6.7l2.7-0.3c-0.7,2.4-1.9,5.5-2.7,6.8L689.8,484.4z M691,469.7
			c0-1,0.7-1.8,1.7-1.8c1,0,1.7,0.7,1.7,1.8c0,1-0.6,1.7-1.7,1.7C691.7,471.4,691,470.7,691,469.7z"/>
		<path fill="#333333" d="M702.1,478.2c0.7,0.4,2.3,1.1,4,1.1c3.2,0,4.1-2,4.1-3.5c0-2.5-2.3-3.6-4.7-3.6h-1.4v-1.8h1.4
			c1.8,0,4.1-0.9,4.1-3.1c0-1.5-0.9-2.7-3.2-2.7c-1.5,0-2.9,0.6-3.6,1.2l-0.6-1.8c1-0.7,2.8-1.4,4.8-1.4c3.6,0,5.2,2.1,5.2,4.3
			c0,1.9-1.1,3.5-3.4,4.3v0.1c2.2,0.4,4.1,2.1,4.1,4.7c0,2.9-2.3,5.5-6.6,5.5c-2,0-3.8-0.6-4.7-1.2L702.1,478.2z"/>
		<path fill="#333333" d="M725.3,464.5c-0.5,0-1.1,0-1.8,0.1c-3.9,0.6-5.9,3.5-6.3,6.5h0.1c0.9-1.1,2.4-2.1,4.4-2.1
			c3.2,0,5.5,2.3,5.5,5.9c0,3.3-2.3,6.4-6,6.4c-3.9,0-6.4-3-6.4-7.8c0-3.6,1.3-6.4,3.1-8.2c1.5-1.5,3.5-2.4,5.8-2.7
			c0.7-0.1,1.3-0.1,1.8-0.1V464.5z M724.6,475c0-2.6-1.5-4.2-3.8-4.2c-1.5,0-2.9,0.9-3.5,2.2c-0.2,0.3-0.3,0.6-0.3,1.1
			c0.1,3,1.4,5.2,4,5.2C723.2,479.4,724.6,477.6,724.6,475z"/>
		<path fill="#333333" d="M729.6,479.3c0.5,0.1,1.1,0,2-0.1c1.4-0.2,2.8-0.8,3.8-1.8c1.2-1.1,2.1-2.7,2.4-4.8h-0.1
			c-1,1.2-2.5,2-4.3,2c-3.3,0-5.4-2.5-5.4-5.6c0-3.4,2.5-6.5,6.2-6.5c3.7,0,6,3,6,7.7c0,4-1.3,6.8-3.1,8.5c-1.4,1.4-3.3,2.2-5.3,2.4
			c-0.9,0.1-1.7,0.2-2.3,0.1V479.3z M730.5,468.8c0,2.3,1.4,3.9,3.5,3.9c1.7,0,2.9-0.8,3.6-1.9c0.1-0.2,0.2-0.5,0.2-0.9
			c0-3.1-1.1-5.5-3.7-5.5C732,464.4,730.5,466.2,730.5,468.8z"/>
		<path fill="#333333" d="M747.9,461.6c-2,2.7-3.5,6.4-3.5,11.5c0,5,1.5,8.6,3.5,11.4h-1.9c-1.8-2.3-3.7-5.9-3.7-11.4
			c0-5.5,1.9-9.1,3.7-11.5H747.9z"/>
		<path fill="#333333" d="M749.4,479.3c0.5,0.1,1.1,0,2-0.1c1.4-0.2,2.8-0.8,3.8-1.8c1.2-1.1,2.1-2.7,2.4-4.8h-0.1
			c-1,1.2-2.5,2-4.3,2c-3.3,0-5.4-2.5-5.4-5.6c0-3.4,2.5-6.5,6.2-6.5c3.7,0,6,3,6,7.7c0,4-1.3,6.8-3.1,8.5c-1.4,1.4-3.3,2.2-5.3,2.4
			c-0.9,0.1-1.7,0.2-2.3,0.1V479.3z M750.3,468.8c0,2.3,1.4,3.9,3.5,3.9c1.7,0,2.9-0.8,3.6-1.9c0.1-0.2,0.2-0.5,0.2-0.9
			c0-3.1-1.1-5.5-3.7-5.5C751.8,464.4,750.3,466.2,750.3,468.8z"/>
		<path fill="#333333" d="M760.2,484.4c2-2.8,3.5-6.4,3.5-11.5c0-5-1.5-8.6-3.5-11.4h1.9c1.8,2.3,3.7,5.9,3.7,11.4
			c0,5.5-1.9,9-3.7,11.4H760.2z"/>
		<path fill="#333333" d="M767.9,469.7c0-1,0.7-1.8,1.7-1.8c1,0,1.6,0.7,1.7,1.8c0,1-0.6,1.7-1.7,1.7
			C768.5,471.4,767.9,470.7,767.9,469.7z M767.9,479.6c0-1,0.7-1.8,1.7-1.8c1,0,1.6,0.7,1.7,1.8c0,1-0.6,1.7-1.7,1.7
			C768.5,481.3,767.9,480.6,767.9,479.6z"/>
		<path fill="#333333" d="M772.6,476.4c0-2.3,1.4-3.9,3.6-4.9l0-0.1c-2-1-2.9-2.5-2.9-4.1c0-2.9,2.4-4.8,5.6-4.8
			c3.5,0,5.3,2.2,5.3,4.5c0,1.5-0.8,3.2-3,4.3v0.1c2.3,0.9,3.7,2.5,3.7,4.7c0,3.2-2.7,5.3-6.2,5.3
			C774.9,481.3,772.6,479,772.6,476.4z M782.4,476.3c0-2.2-1.5-3.3-4-4c-2.1,0.6-3.3,2-3.3,3.8c-0.1,1.8,1.3,3.5,3.6,3.5
			C780.9,479.5,782.4,478.1,782.4,476.3z M775.6,467.2c0,1.8,1.4,2.8,3.5,3.4c1.6-0.5,2.8-1.7,2.8-3.3c0-1.5-0.9-3-3.1-3
			C776.7,464.3,775.6,465.6,775.6,467.2z"/>
		<path fill="#333333" d="M798.7,471.7c0,6.2-2.3,9.6-6.3,9.6c-3.6,0-6-3.3-6-9.4c0-6.1,2.6-9.5,6.3-9.5
			C796.5,462.5,798.7,465.9,798.7,471.7z M788.8,472c0,4.7,1.5,7.4,3.7,7.4c2.5,0,3.7-2.9,3.7-7.6c0-4.5-1.1-7.4-3.7-7.4
			C790.4,464.4,788.8,467,788.8,472z"/>
		<path fill="#333333" d="M801.7,479.3c0.5,0.1,1.1,0,2-0.1c1.4-0.2,2.8-0.8,3.8-1.8c1.2-1.1,2.1-2.7,2.4-4.8h-0.1
			c-1,1.2-2.5,2-4.3,2c-3.3,0-5.4-2.5-5.4-5.6c0-3.4,2.5-6.5,6.2-6.5c3.7,0,6,3,6,7.7c0,4-1.3,6.8-3.1,8.5c-1.4,1.4-3.3,2.2-5.3,2.4
			c-0.9,0.1-1.7,0.2-2.3,0.1V479.3z M802.6,468.8c0,2.3,1.4,3.9,3.5,3.9c1.7,0,2.9-0.8,3.6-1.9c0.1-0.2,0.2-0.5,0.2-0.9
			c0-3.1-1.1-5.5-3.7-5.5C804.1,464.4,802.6,466.2,802.6,468.8z"/>
		<path fill="#333333" d="M826.7,473v1.7h-12.3V473H826.7z"/>
		<path fill="#333333" d="M828.4,476.4c0-2.3,1.4-3.9,3.6-4.9l0-0.1c-2-1-2.9-2.5-2.9-4.1c0-2.9,2.4-4.8,5.6-4.8
			c3.5,0,5.3,2.2,5.3,4.5c0,1.5-0.8,3.2-3,4.3v0.1c2.3,0.9,3.7,2.5,3.7,4.7c0,3.2-2.7,5.3-6.2,5.3
			C830.7,481.3,828.4,479,828.4,476.4z M838.2,476.3c0-2.2-1.5-3.3-4-4c-2.1,0.6-3.3,2-3.3,3.8c-0.1,1.8,1.3,3.5,3.6,3.5
			C836.8,479.5,838.2,478.1,838.2,476.3z M831.5,467.2c0,1.8,1.4,2.8,3.5,3.4c1.6-0.5,2.8-1.7,2.8-3.3c0-1.5-0.9-3-3.1-3
			C832.6,464.3,831.5,465.6,831.5,467.2z"/>
		<path fill="#333333" d="M846.4,465.1L846.4,465.1l-3.2,1.7l-0.5-1.9l4-2.1h2.1V481h-2.4V465.1z"/>
		<path fill="#333333" d="M852.9,476.4c0-2.3,1.4-3.9,3.6-4.9l0-0.1c-2-1-2.9-2.5-2.9-4.1c0-2.9,2.4-4.8,5.6-4.8
			c3.5,0,5.3,2.2,5.3,4.5c0,1.5-0.8,3.2-3,4.3v0.1c2.3,0.9,3.7,2.5,3.7,4.7c0,3.2-2.7,5.3-6.2,5.3
			C855.2,481.3,852.9,479,852.9,476.4z M862.7,476.3c0-2.2-1.5-3.3-4-4c-2.1,0.6-3.3,2-3.3,3.8c-0.1,1.8,1.3,3.5,3.6,3.5
			C861.2,479.5,862.7,478.1,862.7,476.3z M855.9,467.2c0,1.8,1.4,2.8,3.5,3.4c1.6-0.5,2.8-1.7,2.8-3.3c0-1.5-0.9-3-3.1-3
			C857,464.3,855.9,465.6,855.9,467.2z"/>
		<path fill="#333333" d="M867.1,479.5c0-1,0.7-1.8,1.7-1.8c1,0,1.7,0.7,1.7,1.8c0,1-0.6,1.8-1.7,1.8
			C867.8,481.3,867.1,480.6,867.1,479.5z"/>
	</g>
	<g>
		<path fill="#333333" d="M316.1,534.2c0.7,0.4,2.3,1.1,4,1.1c3.2,0,4.1-2,4.1-3.5c0-2.5-2.3-3.6-4.7-3.6h-1.4v-1.8h1.4
			c1.8,0,4.1-0.9,4.1-3.1c0-1.5-0.9-2.7-3.2-2.7c-1.5,0-2.9,0.6-3.6,1.2l-0.6-1.8c1-0.7,2.8-1.4,4.8-1.4c3.6,0,5.2,2.1,5.2,4.3
			c0,1.9-1.1,3.5-3.4,4.3v0.1c2.2,0.4,4.1,2.1,4.1,4.7c0,2.9-2.3,5.5-6.6,5.5c-2,0-3.8-0.6-4.7-1.2L316.1,534.2z"/>
		<path fill="#333333" d="M329.1,535.5c0-1,0.7-1.8,1.7-1.8c1,0,1.7,0.7,1.7,1.8c0,1-0.6,1.8-1.7,1.8
			C329.7,537.3,329.1,536.6,329.1,535.5z"/>
	</g>
	<g>
		<path fill="#333333" d="M352,534c1.1,0.7,2.7,1.2,4.4,1.2c2.5,0,3.9-1.3,3.9-3.2c0-1.8-1-2.8-3.6-3.8c-3.1-1.1-5-2.7-5-5.3
			c0-2.9,2.4-5.1,6.1-5.1c1.9,0,3.3,0.4,4.2,0.9l-0.7,2c-0.6-0.3-1.9-0.9-3.6-0.9c-2.6,0-3.6,1.5-3.6,2.8c0,1.8,1.1,2.6,3.8,3.6
			c3.2,1.2,4.8,2.8,4.8,5.5c0,2.9-2.2,5.4-6.6,5.4c-1.8,0-3.8-0.5-4.8-1.2L352,534z"/>
		<path fill="#333333" d="M367.8,519.6c0,0.8-0.6,1.5-1.6,1.5c-0.9,0-1.5-0.7-1.5-1.5c0-0.9,0.6-1.5,1.5-1.5
			C367.2,518.1,367.8,518.8,367.8,519.6z M365.1,537v-13.6h2.5V537H365.1z"/>
		<path fill="#333333" d="M373.8,519.6v3.9h3.5v1.9h-3.5v7.3c0,1.7,0.5,2.6,1.8,2.6c0.6,0,1.1-0.1,1.4-0.2l0.1,1.8
			c-0.5,0.2-1.2,0.3-2.2,0.3c-1.1,0-2.1-0.4-2.7-1c-0.7-0.7-1-1.9-1-3.5v-7.4h-2.1v-1.9h2.1v-3.2L373.8,519.6z"/>
		<path fill="#333333" d="M379.1,537c0.1-0.9,0.1-2.3,0.1-3.5v-16.4h2.4v8.5h0.1c0.9-1.5,2.4-2.5,4.6-2.5c3.4,0,5.7,2.8,5.7,6.9
			c0,4.8-3.1,7.3-6.1,7.3c-2,0-3.5-0.8-4.5-2.5h-0.1l-0.1,2.2H379.1z M381.7,531.6c0,0.3,0.1,0.6,0.1,0.9c0.5,1.7,1.9,2.9,3.7,2.9
			c2.6,0,4.1-2.1,4.1-5.2c0-2.7-1.4-5-4-5c-1.7,0-3.2,1.1-3.8,3c-0.1,0.3-0.1,0.6-0.1,1V531.6z"/>
		<path fill="#333333" d="M406.9,530.1c0,5-3.5,7.2-6.7,7.2c-3.7,0-6.5-2.7-6.5-7c0-4.5,3-7.2,6.7-7.2
			C404.3,523.1,406.9,526,406.9,530.1z M396.1,530.3c0,3,1.7,5.2,4.1,5.2c2.4,0,4.1-2.2,4.1-5.3c0-2.3-1.1-5.2-4.1-5.2
			S396.1,527.7,396.1,530.3z"/>
		<path fill="#333333" d="M409.3,527.1c0-1.4,0-2.5-0.1-3.7h2.2l0.1,2.2h0.1c0.7-1.3,2.2-2.5,4.5-2.5c1.9,0,4.8,1.1,4.8,5.8v8.1
			h-2.5v-7.8c0-2.2-0.8-4-3.1-4c-1.6,0-2.9,1.1-3.3,2.5c-0.1,0.3-0.2,0.7-0.2,1.1v8.1h-2.5V527.1z"/>
		<path fill="#333333" d="M446.2,527.4c0,6.5-3.9,9.9-8.8,9.9c-5,0-8.5-3.9-8.5-9.6c0-6,3.7-9.9,8.8-9.9
			C442.9,517.8,446.2,521.8,446.2,527.4z M431.6,527.7c0,4,2.2,7.6,6,7.6c3.9,0,6-3.6,6-7.8c0-3.8-2-7.7-6-7.7
			C433.6,519.8,431.6,523.5,431.6,527.7z"/>
	</g>
	<g>
		<path fill="#333333" d="M462.8,536.2c-1,0.6-2.7,1.1-4.5,1.1c-3.6,0-5.2-2.4-5.2-5.4c0-4.1,3-8.7,7.4-8.7c2.6,0,4,1.5,4,3.5
			c0,3.6-4,4.5-9,4.4c-0.1,0.6,0,1.8,0.3,2.6c0.5,1.2,1.6,1.8,3,1.8c1.6,0,2.8-0.5,3.6-1L462.8,536.2z M460.2,525
			c-2.2,0-3.9,2.2-4.4,4.3c3.6,0,6.5-0.4,6.5-2.5C462.3,525.6,461.4,525,460.2,525z"/>
		<path fill="#333333" d="M471.1,519.8l-0.7,3.6h3.2l-0.4,1.8H470l-1.3,6.6c-0.1,0.8-0.3,1.5-0.3,2.2c0,0.8,0.4,1.3,1.3,1.3
			c0.4,0,0.8,0,1.1-0.1l-0.1,1.8c-0.4,0.2-1.1,0.3-1.8,0.3c-2.1,0-2.9-1.3-2.9-2.6c0-0.8,0.1-1.6,0.3-2.5l1.3-6.9h-2l0.4-1.8h1.9
			l0.6-3.1L471.1,519.8z"/>
		<path fill="#333333" d="M487.1,537c0-0.8,0.1-2.1,0.3-3.5h-0.1c-1.5,2.8-3.3,3.8-5.3,3.8c-2.4,0-3.9-1.9-3.9-4.5
			c0-4.7,3.5-9.7,9.4-9.7c1.3,0,2.7,0.2,3.6,0.5l-1.4,7.1c-0.4,2.4-0.6,4.8-0.6,6.3H487.1z M488.6,525.2c-0.3-0.1-0.8-0.2-1.6-0.2
			c-3.5,0-6.4,3.7-6.4,7.4c0,1.5,0.5,3,2.3,3c1.9,0,4.2-2.5,4.9-6.1L488.6,525.2z"/>
		<path fill="#333333" d="M492,537l3.8-19.9h2.3l-3.8,19.9H492z"/>
		<path fill="#333333" d="M497.3,535.7c0-1,0.7-1.9,1.8-1.9c1,0,1.6,0.7,1.6,1.7c0,1-0.7,1.8-1.8,1.8
			C497.9,537.3,497.3,536.6,497.3,535.7z"/>
		<path fill="#333333" d="M518.6,528.1h-6.9l-1.3,6.9h7.7l-0.4,2h-10.1l3.6-18.9h9.6l-0.4,2h-7.3l-1.1,6h6.9L518.6,528.1z"/>
		<path fill="#333333" d="M532.9,523.4l-1.8,9.6c-0.3,1.5-0.5,2.8-0.6,3.9h-2.1l0.4-2.5h-0.1c-1.2,1.8-3,2.9-4.8,2.9
			c-1.7,0-3.6-0.8-3.6-3.9c0-0.6,0.1-1.4,0.3-2.3l1.5-7.7h2.3l-1.4,7.6c-0.2,0.8-0.3,1.4-0.3,2c0,1.4,0.6,2.4,2.2,2.4
			c1.7,0,3.8-2,4.4-5l1.3-6.9H532.9z"/>
		<path fill="#333333" d="M533.7,537l1.7-8.7c0.3-1.8,0.6-3.6,0.7-4.8h2c-0.1,1-0.2,1.9-0.4,2.9h0.1c0.9-1.8,2.3-3.2,4.1-3.2
			c0.2,0,0.5,0,0.6,0.1l-0.4,2.3c-0.1,0-0.4-0.1-0.6-0.1c-2,0-3.8,2.4-4.4,5.6l-1.1,6H533.7z"/>
		<path fill="#333333" d="M550.5,518.4c1.1-0.3,2.7-0.4,4.1-0.4c1.9,0,3.5,0.4,4.5,1.4c0.9,0.8,1.4,1.8,1.4,3.1
			c0,2.7-2.1,4.8-4.5,5.5l0,0.1c1.3,0.4,2,1.8,2.1,3.8c0.2,2.6,0.3,4.4,0.6,5.2h-2.4c-0.1-0.4-0.3-2.4-0.4-4.6
			c-0.1-2.6-1.1-3.7-3-3.7h-2.1l-1.5,8.2h-2.3L550.5,518.4z M551.2,527h2.1c2.9,0,4.8-1.9,4.8-4.2c0-2-1.5-2.9-3.6-2.9
			c-0.9,0-1.5,0.1-2,0.2L551.2,527z"/>
		<path fill="#333333" d="M570.5,536.2c-1,0.6-2.7,1.1-4.5,1.1c-3.6,0-5.2-2.4-5.2-5.4c0-4.1,3-8.7,7.4-8.7c2.6,0,4,1.5,4,3.5
			c0,3.6-4,4.5-9,4.4c-0.1,0.6,0,1.8,0.3,2.6c0.5,1.2,1.6,1.8,3,1.8c1.6,0,2.8-0.5,3.6-1L570.5,536.2z M567.9,525
			c-2.2,0-3.9,2.2-4.4,4.3c3.6,0,6.5-0.4,6.5-2.5C570,525.6,569.1,525,567.9,525z"/>
		<path fill="#333333" d="M572.6,534.6c0.6,0.4,1.8,0.8,2.9,0.8c1.6,0,2.6-1,2.6-2.2c0-1.1-0.5-1.7-1.9-2.5
			c-1.6-0.9-2.4-2.1-2.4-3.4c0-2.4,2-4.2,4.9-4.2c1.2,0,2.3,0.3,2.8,0.7l-0.6,1.8c-0.5-0.3-1.3-0.6-2.4-0.6c-1.4,0-2.4,0.9-2.4,2
			c0,1,0.6,1.6,1.8,2.3c1.5,0.9,2.5,2,2.5,3.6c0,2.9-2.3,4.5-5.2,4.5c-1.5,0-2.7-0.4-3.4-0.9L572.6,534.6z"/>
		<path fill="#333333" d="M580.7,542.5l2.7-14.3c0.3-1.6,0.6-3.4,0.8-4.8h2.1l-0.4,2.5h0.1c1.2-1.8,3-2.9,4.9-2.9
			c2.9,0,4.2,2.4,4.2,4.9c0,4.8-3.4,9.3-7.9,9.3c-1.5,0-2.4-0.3-2.9-0.6h-0.1l-1.1,5.9H580.7z M584.5,534.7c0.6,0.5,1.5,0.8,2.6,0.8
			c3,0,5.5-3.7,5.5-7.3c0-1.4-0.6-3.1-2.6-3.1c-1.8,0-4.1,2.1-4.8,5.9L584.5,534.7z"/>
		<path fill="#333333" d="M595.9,537l2.6-13.6h2.3l-2.6,13.6H595.9z M598.9,519.7c0-0.9,0.7-1.6,1.5-1.6c0.8,0,1.4,0.6,1.4,1.5
			c0,0.9-0.7,1.6-1.6,1.6C599.4,521.1,598.9,520.5,598.9,519.7z"/>
		<path fill="#333333" d="M601.5,537l1.7-8.7c0.3-1.8,0.6-3.6,0.7-4.8h2c-0.1,1-0.2,1.9-0.4,2.9h0.1c0.9-1.8,2.3-3.2,4.1-3.2
			c0.2,0,0.5,0,0.6,0.1l-0.4,2.3c-0.1,0-0.4-0.1-0.6-0.1c-2,0-3.8,2.4-4.4,5.6l-1.1,6H601.5z"/>
		<path fill="#333333" d="M613.6,534.8c0.6,0.3,1.4,0.4,2.4,0.4c2,0,3.2-1,3.9-4.4l2.4-12.7h2.3l-2.5,13c-0.8,4.4-2.7,6.2-6.2,6.2
			c-1.1,0-2.3-0.3-2.8-0.5L613.6,534.8z"/>
	</g>
	<g>
		<path fill="#333333" d="M630.2,537v-1.5l1.9-1.9c4.6-4.4,6.7-6.8,6.8-9.5c0-1.8-0.9-3.6-3.6-3.6c-1.7,0-3,0.8-3.9,1.5l-0.8-1.7
			c1.3-1.1,3.1-1.8,5.2-1.8c3.9,0,5.6,2.7,5.6,5.3c0,3.4-2.4,6.1-6.3,9.8l-1.5,1.3v0.1h8.2v2H630.2z"/>
		<path fill="#333333" d="M655.6,527.7c0,6.2-2.3,9.6-6.3,9.6c-3.6,0-6-3.3-6-9.4c0-6.1,2.6-9.5,6.3-9.5
			C653.4,518.5,655.6,521.9,655.6,527.7z M645.7,528c0,4.7,1.5,7.4,3.7,7.4c2.5,0,3.7-2.9,3.7-7.6c0-4.5-1.1-7.4-3.7-7.4
			C647.3,520.4,645.7,523,645.7,528z"/>
		<path fill="#333333" d="M656.3,537v-1.5l1.9-1.9c4.6-4.4,6.7-6.8,6.8-9.5c0-1.8-0.9-3.6-3.6-3.6c-1.7,0-3,0.8-3.9,1.5l-0.8-1.7
			c1.3-1.1,3.1-1.8,5.2-1.8c3.9,0,5.6,2.7,5.6,5.3c0,3.4-2.4,6.1-6.3,9.8l-1.5,1.3v0.1h8.2v2H656.3z"/>
		<path fill="#333333" d="M681.7,527.7c0,6.2-2.3,9.6-6.3,9.6c-3.6,0-6-3.3-6-9.4c0-6.1,2.6-9.5,6.3-9.5
			C679.5,518.5,681.7,521.9,681.7,527.7z M671.8,528c0,4.7,1.5,7.4,3.7,7.4c2.5,0,3.7-2.9,3.7-7.6c0-4.5-1.1-7.4-3.7-7.4
			C673.3,520.4,671.8,523,671.8,528z"/>
		<path fill="#333333" d="M682.4,540.4c0.6-1.7,1.4-4.6,1.7-6.7l2.7-0.3c-0.7,2.4-1.9,5.5-2.7,6.8L682.4,540.4z M683.6,525.7
			c0-1,0.7-1.8,1.7-1.8c1,0,1.7,0.7,1.7,1.8c0,1-0.6,1.7-1.7,1.7C684.3,527.4,683.6,526.7,683.6,525.7z"/>
		<path fill="#333333" d="M705,520.9H698l-0.7,4.7c0.4-0.1,0.8-0.1,1.5-0.1c1.4,0,2.8,0.3,3.9,1c1.4,0.8,2.6,2.4,2.6,4.7
			c0,3.6-2.8,6.2-6.8,6.2c-2,0-3.7-0.6-4.5-1.1l0.6-1.9c0.8,0.4,2.2,1,3.9,1c2.3,0,4.3-1.5,4.3-3.9c0-2.4-1.6-4-5.2-4
			c-1,0-1.8,0.1-2.5,0.2l1.2-8.7h8.7V520.9z"/>
		<path fill="#333333" d="M717.9,520.5c-0.5,0-1.1,0-1.8,0.1c-3.9,0.6-5.9,3.5-6.3,6.5h0.1c0.9-1.1,2.4-2.1,4.4-2.1
			c3.2,0,5.5,2.3,5.5,5.9c0,3.3-2.3,6.4-6,6.4c-3.9,0-6.4-3-6.4-7.8c0-3.6,1.3-6.4,3.1-8.2c1.5-1.5,3.5-2.4,5.8-2.7
			c0.7-0.1,1.3-0.1,1.8-0.1V520.5z M717.2,531c0-2.6-1.5-4.2-3.8-4.2c-1.5,0-2.9,0.9-3.5,2.2c-0.2,0.3-0.3,0.6-0.3,1.1
			c0.1,3,1.4,5.2,4,5.2C715.8,535.4,717.2,533.6,717.2,531z"/>
		<path fill="#333333" d="M721.2,525.7c0-1,0.7-1.8,1.7-1.8c1,0,1.6,0.7,1.7,1.8c0,1-0.6,1.7-1.7,1.7
			C721.9,527.4,721.2,526.7,721.2,525.7z M721.2,535.6c0-1,0.7-1.8,1.7-1.8c1,0,1.6,0.7,1.7,1.8c0,1-0.6,1.7-1.7,1.7
			C721.9,537.3,721.2,536.6,721.2,535.6z"/>
		<path fill="#333333" d="M726.1,537v-1.5l1.9-1.9c4.6-4.4,6.7-6.8,6.8-9.5c0-1.8-0.9-3.6-3.6-3.6c-1.7,0-3,0.8-3.9,1.5l-0.8-1.7
			c1.3-1.1,3.1-1.8,5.2-1.8c3.9,0,5.6,2.7,5.6,5.3c0,3.4-2.4,6.1-6.3,9.8l-1.5,1.3v0.1h8.2v2H726.1z"/>
		<path fill="#333333" d="M751.5,527.7c0,6.2-2.3,9.6-6.3,9.6c-3.6,0-6-3.3-6-9.4c0-6.1,2.6-9.5,6.3-9.5
			C749.3,518.5,751.5,521.9,751.5,527.7z M741.6,528c0,4.7,1.5,7.4,3.7,7.4c2.5,0,3.7-2.9,3.7-7.6c0-4.5-1.1-7.4-3.7-7.4
			C743.1,520.4,741.6,523,741.6,528z"/>
		<path fill="#333333" d="M765.6,527.7c0,6.2-2.3,9.6-6.3,9.6c-3.6,0-6-3.3-6-9.4c0-6.1,2.6-9.5,6.3-9.5
			C763.4,518.5,765.6,521.9,765.6,527.7z M755.7,528c0,4.7,1.5,7.4,3.7,7.4c2.5,0,3.7-2.9,3.7-7.6c0-4.5-1.1-7.4-3.7-7.4
			C757.2,520.4,755.7,523,755.7,528z"/>
		<path fill="#333333" d="M779.7,527.7c0,6.2-2.3,9.6-6.3,9.6c-3.6,0-6-3.3-6-9.4c0-6.1,2.6-9.5,6.3-9.5
			C777.5,518.5,779.7,521.9,779.7,527.7z M769.8,528c0,4.7,1.5,7.4,3.7,7.4c2.5,0,3.7-2.9,3.7-7.6c0-4.5-1.1-7.4-3.7-7.4
			C771.4,520.4,769.8,523,769.8,528z"/>
		<path fill="#333333" d="M791.9,520.5c-0.5,0-1.1,0-1.8,0.1c-3.9,0.6-5.9,3.5-6.3,6.5h0.1c0.9-1.1,2.4-2.1,4.4-2.1
			c3.2,0,5.5,2.3,5.5,5.9c0,3.3-2.3,6.4-6,6.4c-3.9,0-6.4-3-6.4-7.8c0-3.6,1.3-6.4,3.1-8.2c1.5-1.5,3.5-2.4,5.8-2.7
			c0.7-0.1,1.3-0.1,1.8-0.1V520.5z M791.2,531c0-2.6-1.5-4.2-3.8-4.2c-1.5,0-2.9,0.9-3.5,2.2c-0.2,0.3-0.3,0.6-0.3,1.1
			c0.1,3,1.4,5.2,4,5.2C789.8,535.4,791.2,533.6,791.2,531z"/>
		<path fill="#333333" d="M805.9,518.8v1.6L798,537h-2.5l7.9-16.1v-0.1h-8.9v-2H805.9z"/>
		<path fill="#333333" d="M808,534.2c0.7,0.4,2.3,1.1,4,1.1c3.2,0,4.1-2,4.1-3.5c0-2.5-2.3-3.6-4.7-3.6H810v-1.8h1.4
			c1.8,0,4.1-0.9,4.1-3.1c0-1.5-0.9-2.7-3.2-2.7c-1.5,0-2.9,0.6-3.6,1.2l-0.6-1.8c1-0.7,2.8-1.4,4.8-1.4c3.6,0,5.2,2.1,5.2,4.3
			c0,1.9-1.1,3.5-3.4,4.3v0.1c2.2,0.4,4.1,2.1,4.1,4.7c0,2.9-2.3,5.5-6.6,5.5c-2,0-3.8-0.6-4.7-1.2L808,534.2z"/>
		<path fill="#333333" d="M820.9,535.5c0-1,0.7-1.8,1.7-1.8c1,0,1.7,0.7,1.7,1.8c0,1-0.6,1.8-1.7,1.8
			C821.6,537.3,820.9,536.6,820.9,535.5z"/>
	</g>
</g>
</svg>
