<?xml version="1.0" encoding="utf-8"?>
<!-- Generator: Adobe Illustrator 24.2.0, SVG Export Plug-In . SVG Version: 6.00 Build 0)  -->
<svg version="1.1" id="Layer_1" xmlns="http://www.w3.org/2000/svg" xmlns:xlink="http://www.w3.org/1999/xlink" x="0px" y="0px"
	 width="2048px" height="1536px" viewBox="0 0 2048 1536" enable-background="new 0 0 2048 1536" xml:space="preserve">
<rect x="140.5" y="140.5" fill="#FFFFFF" width="1767" height="1255"/>
<g>
	<path fill="#CC0033" d="M1878.5,172.1c0.7-0.7,0.5-1.5-0.6-2.5c-1-1-1.8-1.2-2.4-0.5l-29.2,29.2c-0.6,0.6-0.4,1.4,0.5,2.4
		c1,1,1.8,1.2,2.5,0.6L1878.5,172.1z"/>
	<path fill="#CC0033" d="M1849.4,169.1c-0.7-0.7-1.5-0.5-2.5,0.6c-1,1-1.2,1.8-0.5,2.4l29.2,29.2c0.6,0.6,1.4,0.4,2.4-0.5
		c1-1,1.2-1.8,0.6-2.5L1849.4,169.1z"/>
</g>
<g>
	<g>
		<path fill="#CC0033" d="M283.7,322v11h-4.1v-30.8h8.8c1.1,0,8.7,0.1,8.7,6.6v6.8c0,1.9-0.9,3.5-2.4,4.6c1.5,1,2.4,2.5,2.4,4.4v8.4
			h-4.2v-8.4c0-2-2.9-2.6-4.7-2.6H283.7z M292.8,308.8c0-1.9-2.8-2.6-4.5-2.6h-4.6V318h4.4c1.8,0,4.7-0.5,4.7-2.5V308.8z"/>
		<path fill="#CC0033" d="M305.4,315.3h13.1v4.5h-13.1c0,0.8,0,1.9,0,3c0,1.8,0,3.7,0.1,3.9c0.4,1.3,2.7,1.8,4.3,1.8h8.7v4.5l-8.7,0
			c-4,0-8.8-1.9-8.8-6.6v-24.2h17.5v4.4h-13.1V315.3z"/>
		<path fill="#CC0033" d="M340.1,302.2v4.3h-13.2v9.1H338v4.4h-11.1v2.8c0,3.3,0,8.9,0,10.3h-4.3v-30.8H340.1z"/>
		<path fill="#CC0033" d="M348.4,315.3h13.1v4.5h-13.1c0,0.8,0,1.9,0,3c0,1.8,0,3.7,0.1,3.9c0.4,1.3,2.7,1.8,4.3,1.8h8.7v4.5l-8.7,0
			c-4,0-8.8-1.9-8.8-6.6v-24.2h17.5v4.4h-13.1V315.3z"/>
		<path fill="#CC0033" d="M369.8,322v11h-4.1v-30.8h8.8c1.1,0,8.7,0.1,8.7,6.6v6.8c0,1.9-0.9,3.5-2.4,4.6c1.5,1,2.4,2.5,2.4,4.4v8.4
			h-4.2v-8.4c0-2-2.9-2.6-4.7-2.6H369.8z M378.9,308.8c0-1.9-2.8-2.6-4.5-2.6h-4.6V318h4.4c1.8,0,4.7-0.5,4.7-2.5V308.8z"/>
		<path fill="#CC0033" d="M391.5,315.3h13.1v4.5h-13.1c0,0.8,0,1.9,0,3c0,1.8,0,3.7,0.1,3.9c0.4,1.3,2.7,1.8,4.3,1.8h8.7v4.5l-8.7,0
			c-4,0-8.8-1.9-8.8-6.6v-24.2h17.5v4.4h-13.1V315.3z"/>
		<path fill="#CC0033" d="M428.2,333h-3.7l-11.7-21.8V333h-4v-30.8h3.8l11.6,21.8v-21.8h4V333z"/>
		<path fill="#CC0033" d="M452.2,325.2c0.3,4.5-2.4,6.6-5.4,7.5h0c-1.2,0.4-2.9,0.5-4.4,0.5c-1.5,0-3.1-0.1-4.2-0.4
			c-3-0.9-5.6-3-5.6-6.2v-17.8c0-3.7,3-5.8,6.4-6.4c1.1-0.2,2.3-0.3,3.4-0.3c1.6,0,3.4,0.2,4.8,0.7c2.9,1,5.3,3,5,7.3l-4.4,0
			c0-2-0.4-2.6-1.9-3.2l-0.4-0.1c-0.9-0.2-1.8-0.3-2.9-0.3c-0.9,0-1.9,0-2.6,0.2c-1.5,0.2-2.9,1.1-2.9,2.1v17.8
			c0,0.9,1.1,1.6,2.3,1.9c0.9,0.2,2,0.3,3.1,0.3c1.1,0,2.2-0.1,3.1-0.4c1.2-0.4,2.2-1,2.2-3.1L452.2,325.2z"/>
		<path fill="#CC0033" d="M460.7,315.3h13.1v4.5h-13.1c0,0.8,0,1.9,0,3c0,1.8,0,3.7,0.1,3.9c0.4,1.3,2.7,1.8,4.3,1.8h8.7v4.5l-8.7,0
			c-4,0-8.8-1.9-8.8-6.6v-24.2h17.5v4.4h-13.1V315.3z"/>
		<path fill="#CC0033" d="M491.4,309.2c0.1-2.6-2.6-3.5-4.3-3.6c-1.7,0-3.5,0.2-4.6,1.4c-0.7,0.8-0.8,2.2-0.8,3.3
			c0,1,0.3,1.8,0.8,2.5c1,1.2,3,1.7,4.8,2.2c5.3,1.4,9.5,3.7,9.5,9.9c0,2.7-0.9,4.9-2.6,6.4c-1.8,1.5-4.8,2-7.2,2
			c-1.6,0-3.1-0.2-4.5-0.4c-3-0.6-5.3-2.9-4.9-7.6l4.1,0c0,1.4,0.2,3.2,2.2,3.7c1,0.2,2.1,0.4,3.1,0.4c1.5,0,3.1-0.2,4.3-1.2
			c1-0.7,1.3-2,1.4-3.3c0-3.6-3.3-5.2-6.3-6c-2.6-0.7-5.2-1.5-6.7-3.2c-1.4-1.5-2-3.4-2-5.5c0-2.3,0-4.4,2.2-6.2
			c1.6-1.6,4.8-2.4,7.4-2.4c3.1,0,8.5,2.2,8.4,7.5L491.4,309.2z"/>
	</g>
	<g>
		<path fill="#333333" d="M320.8,409.1L320.8,409.1l-3.2,1.7l-0.5-1.9l4-2.1h2.1V425h-2.4V409.1z"/>
		<path fill="#333333" d="M327.8,423.5c0-1,0.7-1.8,1.7-1.8c1,0,1.7,0.7,1.7,1.8c0,1-0.6,1.8-1.7,1.8
			C328.5,425.3,327.8,424.6,327.8,423.5z"/>
	</g>
	<g>
		<path fill="#333333" d="M368.2,416.7c-0.1-2.6-0.3-5.8-0.3-8.1h-0.1c-0.6,2.2-1.4,4.6-2.4,7.2l-3.3,9.2h-1.8l-3.1-9
			c-0.9-2.7-1.7-5.1-2.2-7.3H355c-0.1,2.4-0.2,5.5-0.4,8.3l-0.5,8.1h-2.3l1.3-18.9h3.1l3.2,9.1c0.8,2.3,1.4,4.4,1.9,6.4h0.1
			c0.5-1.9,1.1-4,2-6.4l3.4-9.1h3.1l1.2,18.9h-2.4L368.2,416.7z"/>
		<path fill="#333333" d="M375.5,418.7c0.1,3.3,2.2,4.7,4.6,4.7c1.8,0,2.8-0.3,3.8-0.7l0.4,1.8c-0.9,0.4-2.4,0.8-4.5,0.8
			c-4.2,0-6.7-2.7-6.7-6.8c0-4.1,2.4-7.3,6.4-7.3c4.4,0,5.6,3.9,5.6,6.4c0,0.5-0.1,0.9-0.1,1.1H375.5z M382.8,416.9
			c0-1.6-0.6-4-3.4-4c-2.5,0-3.6,2.3-3.8,4H382.8z"/>
		<path fill="#333333" d="M387.5,405.1h2.5v8.5h0.1c0.4-0.7,1-1.3,1.8-1.7c0.7-0.4,1.6-0.7,2.5-0.7c1.8,0,4.7,1.1,4.7,5.8v8.1h-2.5
			v-7.8c0-2.2-0.8-4-3.1-4c-1.6,0-2.9,1.1-3.3,2.5c-0.1,0.3-0.2,0.7-0.2,1.2v8.2h-2.5V405.1z"/>
		<path fill="#333333" d="M405,407.6v3.9h3.5v1.9H405v7.3c0,1.7,0.5,2.6,1.8,2.6c0.6,0,1.1-0.1,1.4-0.2l0.1,1.8
			c-0.5,0.2-1.2,0.3-2.2,0.3c-1.1,0-2.1-0.4-2.7-1c-0.7-0.7-1-1.9-1-3.5v-7.4h-2.1v-1.9h2.1v-3.2L405,407.6z"/>
		<path fill="#333333" d="M418.2,425l-0.2-1.7H418c-0.8,1.1-2.2,2-4.1,2c-2.7,0-4.1-1.9-4.1-3.9c0-3.3,2.9-5.1,8.1-5v-0.3
			c0-1.1-0.3-3.1-3.1-3.1c-1.3,0-2.6,0.4-3.5,1l-0.6-1.6c1.1-0.7,2.7-1.2,4.5-1.2c4.1,0,5.2,2.8,5.2,5.5v5.1c0,1.2,0.1,2.3,0.2,3.2
			H418.2z M417.9,418.1c-2.7-0.1-5.7,0.4-5.7,3.1c0,1.6,1.1,2.4,2.3,2.4c1.8,0,2.9-1.1,3.3-2.3c0.1-0.3,0.1-0.5,0.1-0.8V418.1z"/>
		<path fill="#333333" d="M429.1,422c1.1,0.7,2.7,1.2,4.4,1.2c2.5,0,3.9-1.3,3.9-3.2c0-1.8-1-2.8-3.6-3.8c-3.1-1.1-5-2.7-5-5.3
			c0-2.9,2.4-5.1,6.1-5.1c1.9,0,3.3,0.4,4.2,0.9l-0.7,2c-0.6-0.3-1.9-0.9-3.6-0.9c-2.6,0-3.6,1.5-3.6,2.8c0,1.8,1.1,2.6,3.8,3.6
			c3.2,1.2,4.8,2.8,4.8,5.5c0,2.9-2.2,5.4-6.6,5.4c-1.8,0-3.8-0.5-4.8-1.2L429.1,422z"/>
	</g>
	<g>
		<path fill="#333333" d="M455.9,424.2c-1,0.6-2.7,1.1-4.5,1.1c-3.6,0-5.2-2.4-5.2-5.4c0-4.1,3-8.7,7.4-8.7c2.6,0,4,1.5,4,3.5
			c0,3.6-4,4.5-9,4.4c-0.1,0.6,0,1.8,0.3,2.6c0.5,1.2,1.6,1.8,3,1.8c1.6,0,2.8-0.5,3.6-1L455.9,424.2z M453.3,413
			c-2.2,0-3.9,2.2-4.4,4.3c3.6,0,6.5-0.4,6.5-2.5C455.4,413.6,454.5,413,453.3,413z"/>
		<path fill="#333333" d="M464.2,407.8l-0.7,3.6h3.2l-0.4,1.8h-3.2l-1.3,6.6c-0.1,0.8-0.3,1.5-0.3,2.2c0,0.8,0.4,1.3,1.3,1.3
			c0.4,0,0.8,0,1.1-0.1l-0.1,1.8c-0.4,0.2-1.1,0.3-1.8,0.3c-2.1,0-2.9-1.3-2.9-2.6c0-0.8,0.1-1.6,0.3-2.5l1.3-6.9h-2l0.4-1.8h1.9
			l0.6-3.1L464.2,407.8z"/>
		<path fill="#333333" d="M480.2,425c0-0.8,0.1-2.1,0.3-3.5h-0.1c-1.5,2.8-3.3,3.8-5.3,3.8c-2.4,0-3.9-1.9-3.9-4.5
			c0-4.7,3.5-9.7,9.4-9.7c1.3,0,2.7,0.2,3.6,0.5l-1.4,7.1c-0.4,2.4-0.6,4.8-0.6,6.3H480.2z M481.7,413.2c-0.3-0.1-0.8-0.2-1.6-0.2
			c-3.5,0-6.4,3.7-6.4,7.4c0,1.5,0.5,3,2.3,3c1.9,0,4.2-2.5,4.9-6.1L481.7,413.2z"/>
		<path fill="#333333" d="M485,425l3.8-19.9h2.3l-3.8,19.9H485z"/>
		<path fill="#333333" d="M490.4,423.7c0-1,0.7-1.9,1.8-1.9c1,0,1.6,0.7,1.6,1.7c0,1-0.7,1.8-1.8,1.8
			C491,425.3,490.4,424.6,490.4,423.7z"/>
		<path fill="#333333" d="M513.9,424.4c-1.1,0.5-2.8,0.9-4.9,0.9c-4.8,0-7.6-3-7.6-7.8c0-3.6,1.4-6.9,4-9.1c1.9-1.7,4.3-2.5,7.1-2.5
			c2.1,0,3.6,0.5,4.1,0.9l-0.8,1.9c-0.7-0.4-2-0.8-3.7-0.8c-2,0-3.9,0.8-5.4,2.1c-1.8,1.7-2.9,4.3-2.9,7.2c0,3.4,1.5,6.2,5.7,6.2
			c1.4,0,3-0.3,4-0.8L513.9,424.4z"/>
		<path fill="#333333" d="M515.4,425l3.8-19.9h2.3l-1.7,8.7h0.1c1.1-1.7,2.8-2.7,4.8-2.7c1.5,0,3.4,1,3.4,3.6c0,0.7-0.1,1.6-0.2,2.3
			l-1.5,7.9H524l1.5-7.8c0.1-0.5,0.2-1.1,0.2-1.9c0-1.3-0.6-2.2-2.1-2.2c-1.8,0-4.1,2.1-4.6,5.2l-1.3,6.8H515.4z"/>
		<path fill="#333333" d="M539.4,424.2c-1,0.6-2.7,1.1-4.5,1.1c-3.6,0-5.2-2.4-5.2-5.4c0-4.1,3-8.7,7.4-8.7c2.6,0,4,1.5,4,3.5
			c0,3.6-4,4.5-9,4.4c-0.1,0.6,0,1.8,0.3,2.6c0.5,1.2,1.6,1.8,3,1.8c1.6,0,2.8-0.5,3.6-1L539.4,424.2z M536.8,413
			c-2.2,0-3.9,2.2-4.4,4.3c3.6,0,6.5-0.4,6.5-2.5C538.9,413.6,538,413,536.8,413z"/>
		<path fill="#333333" d="M541.5,422.6c0.6,0.4,1.8,0.8,2.9,0.8c1.6,0,2.6-1,2.6-2.2c0-1.1-0.5-1.7-1.9-2.5
			c-1.6-0.9-2.4-2.1-2.4-3.4c0-2.4,2-4.2,4.9-4.2c1.2,0,2.3,0.3,2.8,0.7l-0.6,1.8c-0.5-0.3-1.3-0.6-2.4-0.6c-1.4,0-2.4,0.9-2.4,2
			c0,1,0.6,1.6,1.8,2.3c1.5,0.9,2.5,2,2.5,3.6c0,2.9-2.3,4.5-5.2,4.5c-1.5,0-2.7-0.4-3.4-0.9L541.5,422.6z"/>
		<path fill="#333333" d="M557.1,407.8l-0.7,3.6h3.2l-0.4,1.8H556l-1.3,6.6c-0.1,0.8-0.3,1.5-0.3,2.2c0,0.8,0.4,1.3,1.3,1.3
			c0.4,0,0.8,0,1.1-0.1l-0.1,1.8c-0.4,0.2-1.1,0.3-1.8,0.3c-2.1,0-2.9-1.3-2.9-2.6c0-0.8,0.1-1.6,0.3-2.5l1.3-6.9h-2l0.4-1.8h1.9
			l0.6-3.1L557.1,407.8z"/>
	</g>
	<g>
		<path fill="#333333" d="M565.1,425v-1.5l1.9-1.9c4.6-4.4,6.7-6.8,6.8-9.5c0-1.8-0.9-3.6-3.6-3.6c-1.7,0-3,0.8-3.9,1.5l-0.8-1.7
			c1.3-1.1,3.1-1.8,5.2-1.8c3.9,0,5.6,2.7,5.6,5.3c0,3.4-2.4,6.1-6.3,9.8l-1.5,1.3v0.1h8.2v2H565.1z"/>
		<path fill="#333333" d="M590.5,415.7c0,6.2-2.3,9.6-6.3,9.6c-3.6,0-6-3.3-6-9.4c0-6.1,2.6-9.5,6.3-9.5
			C588.3,406.5,590.5,409.9,590.5,415.7z M580.6,416c0,4.7,1.5,7.4,3.7,7.4c2.5,0,3.7-2.9,3.7-7.6c0-4.5-1.1-7.4-3.7-7.4
			C582.2,408.4,580.6,411,580.6,416z"/>
		<path fill="#333333" d="M596.1,409.1L596.1,409.1l-3.2,1.7l-0.5-1.9l4-2.1h2.1V425h-2.4V409.1z"/>
		<path fill="#333333" d="M613.8,406.8v1.6l-7.9,16.6h-2.5l7.9-16.1v-0.1h-8.9v-2H613.8z"/>
		<path fill="#333333" d="M613.5,428.4c0.6-1.7,1.4-4.6,1.7-6.7l2.7-0.3c-0.7,2.4-1.9,5.5-2.7,6.8L613.5,428.4z M614.7,413.7
			c0-1,0.7-1.8,1.7-1.8c1,0,1.7,0.7,1.7,1.8c0,1-0.6,1.7-1.7,1.7C615.4,415.4,614.7,414.7,614.7,413.7z"/>
		<path fill="#333333" d="M630.6,409.1L630.6,409.1l-3.2,1.7l-0.5-1.9l4-2.1h2.1V425h-2.4V409.1z"/>
		<path fill="#333333" d="M647.7,408.9h-6.9l-0.7,4.7c0.4-0.1,0.8-0.1,1.5-0.1c1.4,0,2.8,0.3,3.9,1c1.4,0.8,2.6,2.4,2.6,4.7
			c0,3.6-2.8,6.2-6.8,6.2c-2,0-3.7-0.6-4.5-1.1l0.6-1.9c0.8,0.4,2.2,1,3.9,1c2.3,0,4.3-1.5,4.3-3.9c0-2.4-1.6-4-5.2-4
			c-1,0-1.8,0.1-2.5,0.2l1.2-8.7h8.7V408.9z"/>
		<path fill="#333333" d="M654.4,409.1L654.4,409.1l-3.2,1.7l-0.5-1.9l4-2.1h2.1V425h-2.4V409.1z"/>
		<path fill="#333333" d="M667.1,405.6c-2,2.7-3.5,6.4-3.5,11.5c0,5,1.5,8.6,3.5,11.4h-1.9c-1.8-2.3-3.7-5.9-3.7-11.4
			c0-5.5,1.9-9.1,3.7-11.5H667.1z"/>
		<path fill="#333333" d="M672,409.1L672,409.1l-3.2,1.7l-0.5-1.9l4-2.1h2.1V425H672V409.1z"/>
		<path fill="#333333" d="M677.4,428.4c2-2.8,3.5-6.4,3.5-11.5c0-5-1.5-8.6-3.5-11.4h1.9c1.8,2.3,3.7,5.9,3.7,11.4
			c0,5.5-1.9,9-3.7,11.4H677.4z"/>
		<path fill="#333333" d="M685,413.7c0-1,0.7-1.8,1.7-1.8c1,0,1.6,0.7,1.7,1.8c0,1-0.6,1.7-1.7,1.7C685.7,415.4,685,414.7,685,413.7
			z M685,423.6c0-1,0.7-1.8,1.7-1.8c1,0,1.6,0.7,1.7,1.8c0,1-0.6,1.7-1.7,1.7C685.7,425.3,685,424.6,685,423.6z"/>
		<path fill="#333333" d="M693.4,409.1L693.4,409.1l-3.2,1.7l-0.5-1.9l4-2.1h2.1V425h-2.4V409.1z"/>
		<path fill="#333333" d="M712.3,415.7c0,6.2-2.3,9.6-6.3,9.6c-3.6,0-6-3.3-6-9.4c0-6.1,2.6-9.5,6.3-9.5
			C710.2,406.5,712.3,409.9,712.3,415.7z M702.5,416c0,4.7,1.5,7.4,3.7,7.4c2.5,0,3.7-2.9,3.7-7.6c0-4.5-1.1-7.4-3.7-7.4
			C704,408.4,702.5,411,702.5,416z"/>
		<path fill="#333333" d="M724.5,408.5c-0.5,0-1.1,0-1.8,0.1c-3.9,0.6-5.9,3.5-6.3,6.5h0.1c0.9-1.1,2.4-2.1,4.4-2.1
			c3.2,0,5.5,2.3,5.5,5.9c0,3.3-2.3,6.4-6,6.4c-3.9,0-6.4-3-6.4-7.8c0-3.6,1.3-6.4,3.1-8.2c1.5-1.5,3.5-2.4,5.8-2.7
			c0.7-0.1,1.3-0.1,1.8-0.1V408.5z M723.8,419c0-2.6-1.5-4.2-3.8-4.2c-1.5,0-2.9,0.9-3.5,2.2c-0.2,0.3-0.3,0.6-0.3,1.1
			c0.1,3,1.4,5.2,4,5.2C722.4,423.4,723.8,421.6,723.8,419z"/>
		<path fill="#333333" d="M740.7,417v1.7h-12.3V417H740.7z"/>
		<path fill="#333333" d="M745.6,409.1L745.6,409.1l-3.2,1.7l-0.5-1.9l4-2.1h2.1V425h-2.4V409.1z"/>
		<path fill="#333333" d="M756.2,409.1L756.2,409.1l-3.2,1.7l-0.5-1.9l4-2.1h2.1V425h-2.4V409.1z"/>
		<path fill="#333333" d="M762.7,420.4c0-2.3,1.4-3.9,3.6-4.9l0-0.1c-2-1-2.9-2.5-2.9-4.1c0-2.9,2.4-4.8,5.6-4.8
			c3.5,0,5.3,2.2,5.3,4.5c0,1.5-0.8,3.2-3,4.3v0.1c2.3,0.9,3.7,2.5,3.7,4.7c0,3.2-2.7,5.3-6.2,5.3C765,425.3,762.7,423,762.7,420.4z
			 M772.5,420.3c0-2.2-1.5-3.3-4-4c-2.1,0.6-3.3,2-3.3,3.8c-0.1,1.8,1.3,3.5,3.6,3.5C771,423.5,772.5,422.1,772.5,420.3z
			 M765.7,411.2c0,1.8,1.4,2.8,3.5,3.4c1.6-0.5,2.8-1.7,2.8-3.3c0-1.5-0.9-3-3.1-3C766.8,408.3,765.7,409.6,765.7,411.2z"/>
		<path fill="#333333" d="M776.9,423.5c0-1,0.7-1.8,1.7-1.8c1,0,1.7,0.7,1.7,1.8c0,1-0.6,1.8-1.7,1.8
			C777.6,425.3,776.9,424.6,776.9,423.5z"/>
	</g>
</g>
</svg>
