<?xml version="1.0" encoding="utf-8"?>
<!-- Generator: Adobe Illustrator 24.2.0, SVG Export Plug-In . SVG Version: 6.00 Build 0)  -->
<svg version="1.1" id="Layer_1" xmlns="http://www.w3.org/2000/svg" xmlns:xlink="http://www.w3.org/1999/xlink" x="0px" y="0px"
	 width="2048px" height="1536px" viewBox="0 0 2048 1536" enable-background="new 0 0 2048 1536" xml:space="preserve">
<rect x="140.5" y="140.5" fill="#FFFFFF" width="1767" height="1255"/>
<g>
	<path fill="#CC0033" d="M1878.5,172.1c0.7-0.7,0.5-1.5-0.6-2.5c-1-1-1.8-1.2-2.4-0.5l-29.2,29.2c-0.6,0.6-0.4,1.4,0.5,2.4
		c1,1,1.8,1.2,2.5,0.6L1878.5,172.1z"/>
	<path fill="#CC0033" d="M1849.4,169.1c-0.7-0.7-1.5-0.5-2.5,0.6c-1,1-1.2,1.8-0.5,2.4l29.2,29.2c0.6,0.6,1.4,0.4,2.4-0.5
		c1-1,1.2-1.8,0.6-2.5L1849.4,169.1z"/>
</g>
<g>
	<g>
		<path fill="#CC0033" d="M283.7,322v11h-4.1v-30.8h8.8c1.1,0,8.7,0.1,8.7,6.6v6.8c0,1.9-0.9,3.5-2.4,4.6c1.5,1,2.4,2.5,2.4,4.4v8.4
			h-4.2v-8.4c0-2-2.9-2.6-4.7-2.6H283.7z M292.8,308.8c0-1.9-2.8-2.6-4.5-2.6h-4.6V318h4.4c1.8,0,4.7-0.5,4.7-2.5V308.8z"/>
		<path fill="#CC0033" d="M305.4,315.3h13.1v4.5h-13.1c0,0.8,0,1.9,0,3c0,1.8,0,3.7,0.1,3.9c0.4,1.3,2.7,1.8,4.3,1.8h8.7v4.5l-8.7,0
			c-4,0-8.8-1.9-8.8-6.6v-24.2h17.5v4.4h-13.1V315.3z"/>
		<path fill="#CC0033" d="M340.1,302.2v4.3h-13.2v9.1H338v4.4h-11.1v2.8c0,3.3,0,8.9,0,10.3h-4.3v-30.8H340.1z"/>
		<path fill="#CC0033" d="M348.4,315.3h13.1v4.5h-13.1c0,0.8,0,1.9,0,3c0,1.8,0,3.7,0.1,3.9c0.4,1.3,2.7,1.8,4.3,1.8h8.7v4.5l-8.7,0
			c-4,0-8.8-1.9-8.8-6.6v-24.2h17.5v4.4h-13.1V315.3z"/>
		<path fill="#CC0033" d="M369.8,322v11h-4.1v-30.8h8.8c1.1,0,8.7,0.1,8.7,6.6v6.8c0,1.9-0.9,3.5-2.4,4.6c1.5,1,2.4,2.5,2.4,4.4v8.4
			h-4.2v-8.4c0-2-2.9-2.6-4.7-2.6H369.8z M378.9,308.8c0-1.9-2.8-2.6-4.5-2.6h-4.6V318h4.4c1.8,0,4.7-0.5,4.7-2.5V308.8z"/>
		<path fill="#CC0033" d="M391.5,315.3h13.1v4.5h-13.1c0,0.8,0,1.9,0,3c0,1.8,0,3.7,0.1,3.9c0.4,1.3,2.7,1.8,4.3,1.8h8.7v4.5l-8.7,0
			c-4,0-8.8-1.9-8.8-6.6v-24.2h17.5v4.4h-13.1V315.3z"/>
		<path fill="#CC0033" d="M428.2,333h-3.7l-11.7-21.8V333h-4v-30.8h3.8l11.6,21.8v-21.8h4V333z"/>
		<path fill="#CC0033" d="M452.2,325.2c0.3,4.5-2.4,6.6-5.4,7.5h0c-1.2,0.4-2.9,0.5-4.4,0.5c-1.5,0-3.1-0.1-4.2-0.4
			c-3-0.9-5.6-3-5.6-6.2v-17.8c0-3.7,3-5.8,6.4-6.4c1.1-0.2,2.3-0.3,3.4-0.3c1.6,0,3.4,0.2,4.8,0.7c2.9,1,5.3,3,5,7.3l-4.4,0
			c0-2-0.4-2.6-1.9-3.2l-0.4-0.1c-0.9-0.2-1.8-0.3-2.9-0.3c-0.9,0-1.9,0-2.6,0.2c-1.5,0.2-2.9,1.1-2.9,2.1v17.8
			c0,0.9,1.1,1.6,2.3,1.9c0.9,0.2,2,0.3,3.1,0.3c1.1,0,2.2-0.1,3.1-0.4c1.2-0.4,2.2-1,2.2-3.1L452.2,325.2z"/>
		<path fill="#CC0033" d="M460.7,315.3h13.1v4.5h-13.1c0,0.8,0,1.9,0,3c0,1.8,0,3.7,0.1,3.9c0.4,1.3,2.7,1.8,4.3,1.8h8.7v4.5l-8.7,0
			c-4,0-8.8-1.9-8.8-6.6v-24.2h17.5v4.4h-13.1V315.3z"/>
		<path fill="#CC0033" d="M491.4,309.2c0.1-2.6-2.6-3.5-4.3-3.6c-1.7,0-3.5,0.2-4.6,1.4c-0.7,0.8-0.8,2.2-0.8,3.3
			c0,1,0.3,1.8,0.8,2.5c1,1.2,3,1.7,4.8,2.2c5.3,1.4,9.5,3.7,9.5,9.9c0,2.7-0.9,4.9-2.6,6.4c-1.8,1.5-4.8,2-7.2,2
			c-1.6,0-3.1-0.2-4.5-0.4c-3-0.6-5.3-2.9-4.9-7.6l4.1,0c0,1.4,0.2,3.2,2.2,3.7c1,0.2,2.1,0.4,3.1,0.4c1.5,0,3.1-0.2,4.3-1.2
			c1-0.7,1.3-2,1.4-3.3c0-3.6-3.3-5.2-6.3-6c-2.6-0.7-5.2-1.5-6.7-3.2c-1.4-1.5-2-3.4-2-5.5c0-2.3,0-4.4,2.2-6.2
			c1.6-1.6,4.8-2.4,7.4-2.4c3.1,0,8.5,2.2,8.4,7.5L491.4,309.2z"/>
	</g>
	<g>
		<path fill="#333333" d="M320.8,409.1L320.8,409.1l-3.2,1.7l-0.5-1.9l4-2.1h2.1V425h-2.4V409.1z"/>
		<path fill="#333333" d="M327.8,423.5c0-1,0.7-1.8,1.7-1.8c1,0,1.7,0.7,1.7,1.8c0,1-0.6,1.8-1.7,1.8
			C328.5,425.3,327.8,424.6,327.8,423.5z"/>
	</g>
	<g>
		<path fill="#333333" d="M368.4,415.4c0,6.5-3.9,9.9-8.8,9.9c-5,0-8.5-3.9-8.5-9.6c0-6,3.7-9.9,8.8-9.9
			C365.1,405.8,368.4,409.8,368.4,415.4z M353.8,415.7c0,4,2.2,7.6,6,7.6c3.9,0,6-3.6,6-7.8c0-3.8-2-7.7-6-7.7
			C355.8,407.8,353.8,411.5,353.8,415.7z"/>
		<path fill="#333333" d="M371,406.4c1.2-0.2,2.7-0.4,4.7-0.4c2.4,0,4.2,0.6,5.3,1.6c1,0.9,1.7,2.3,1.7,3.9c0,1.7-0.5,3.1-1.5,4
			c-1.3,1.4-3.4,2.1-5.8,2.1c-0.7,0-1.4,0-2-0.2v7.6H371V406.4z M373.4,415.5c0.5,0.1,1.2,0.2,2,0.2c2.9,0,4.7-1.4,4.7-4
			c0-2.5-1.8-3.7-4.5-3.7c-1.1,0-1.9,0.1-2.3,0.2V415.5z"/>
		<path fill="#333333" d="M384.6,422c1.1,0.7,2.7,1.2,4.4,1.2c2.5,0,3.9-1.3,3.9-3.2c0-1.8-1-2.8-3.6-3.8c-3.1-1.1-5-2.7-5-5.3
			c0-2.9,2.4-5.1,6.1-5.1c1.9,0,3.3,0.4,4.2,0.9l-0.7,2c-0.6-0.3-1.9-0.9-3.6-0.9c-2.6,0-3.6,1.5-3.6,2.8c0,1.8,1.1,2.6,3.8,3.6
			c3.2,1.2,4.8,2.8,4.8,5.5c0,2.9-2.2,5.4-6.6,5.4c-1.8,0-3.8-0.5-4.8-1.2L384.6,422z"/>
		<path fill="#333333" d="M399.9,406.1v11.2c0,4.2,1.9,6,4.4,6c2.8,0,4.6-1.8,4.6-6v-11.2h2.5v11c0,5.8-3.1,8.2-7.1,8.2
			c-3.9,0-6.8-2.2-6.8-8.1v-11.1H399.9z"/>
		<path fill="#333333" d="M430.6,416.7c-0.1-2.6-0.3-5.8-0.3-8.1h-0.1c-0.6,2.2-1.4,4.6-2.4,7.2l-3.3,9.2h-1.8l-3.1-9
			c-0.9-2.7-1.7-5.1-2.2-7.3h-0.1c-0.1,2.4-0.2,5.5-0.4,8.3l-0.5,8.1h-2.3l1.3-18.9h3.1l3.2,9.1c0.8,2.3,1.4,4.4,1.9,6.4h0.1
			c0.5-1.9,1.1-4,2-6.4l3.4-9.1h3.1l1.2,18.9h-2.4L430.6,416.7z"/>
		<path fill="#333333" d="M439,406.1V425h-2.4v-18.9H439z"/>
		<path fill="#333333" d="M446.2,408.2h-5.7v-2.1h14v2.1h-5.8V425h-2.5V408.2z"/>
		<path fill="#333333" d="M461.4,422c1.1,0.7,2.7,1.2,4.4,1.2c2.5,0,3.9-1.3,3.9-3.2c0-1.8-1-2.8-3.6-3.8c-3.1-1.1-5-2.7-5-5.3
			c0-2.9,2.4-5.1,6.1-5.1c1.9,0,3.3,0.4,4.2,0.9l-0.7,2c-0.6-0.3-1.9-0.9-3.6-0.9c-2.6,0-3.6,1.5-3.6,2.8c0,1.8,1.1,2.6,3.8,3.6
			c3.2,1.2,4.8,2.8,4.8,5.5c0,2.9-2.2,5.4-6.6,5.4c-1.8,0-3.8-0.5-4.8-1.2L461.4,422z"/>
		<path fill="#333333" d="M485.8,421.3c0,1.4,0,2.6,0.1,3.7h-2.2l-0.1-2.2h-0.1c-0.6,1.1-2.1,2.5-4.5,2.5c-2.1,0-4.7-1.2-4.7-5.9
			v-7.9h2.5v7.5c0,2.6,0.8,4.3,3,4.3c1.7,0,2.8-1.1,3.2-2.2c0.1-0.4,0.2-0.8,0.2-1.3v-8.3h2.5V421.3z"/>
		<path fill="#333333" d="M489.1,415.1c0-1.4,0-2.5-0.1-3.7h2.2l0.1,2.2h0.1c0.8-1.3,2-2.5,4.3-2.5c1.8,0,3.2,1.1,3.8,2.7h0.1
			c0.4-0.8,1-1.3,1.5-1.8c0.8-0.6,1.7-1,3-1c1.8,0,4.5,1.2,4.5,5.9v8H506v-7.7c0-2.6-1-4.2-2.9-4.2c-1.4,0-2.5,1-2.9,2.2
			c-0.1,0.3-0.2,0.8-0.2,1.2v8.4h-2.4v-8.1c0-2.2-1-3.7-2.8-3.7c-1.5,0-2.7,1.2-3.1,2.5c-0.1,0.4-0.2,0.8-0.2,1.2v8.2h-2.4V415.1z"
			/>
		<path fill="#333333" d="M511.6,415.1c0-1.4,0-2.5-0.1-3.7h2.2l0.1,2.2h0.1c0.8-1.3,2-2.5,4.3-2.5c1.8,0,3.2,1.1,3.8,2.7h0.1
			c0.4-0.8,1-1.3,1.5-1.8c0.8-0.6,1.7-1,3-1c1.8,0,4.5,1.2,4.5,5.9v8h-2.4v-7.7c0-2.6-1-4.2-2.9-4.2c-1.4,0-2.5,1-2.9,2.2
			c-0.1,0.3-0.2,0.8-0.2,1.2v8.4h-2.4v-8.1c0-2.2-1-3.7-2.8-3.7c-1.5,0-2.7,1.2-3.1,2.5c-0.1,0.4-0.2,0.8-0.2,1.2v8.2h-2.4V415.1z"
			/>
		<path fill="#333333" d="M541.6,425l-0.2-1.7h-0.1c-0.8,1.1-2.2,2-4.1,2c-2.7,0-4.1-1.9-4.1-3.9c0-3.3,2.9-5.1,8.1-5v-0.3
			c0-1.1-0.3-3.1-3.1-3.1c-1.3,0-2.6,0.4-3.5,1l-0.6-1.6c1.1-0.7,2.7-1.2,4.5-1.2c4.1,0,5.2,2.8,5.2,5.5v5.1c0,1.2,0.1,2.3,0.2,3.2
			H541.6z M541.3,418.1c-2.7-0.1-5.7,0.4-5.7,3.1c0,1.6,1.1,2.4,2.3,2.4c1.8,0,2.9-1.1,3.3-2.3c0.1-0.3,0.1-0.5,0.1-0.8V418.1z"/>
		<path fill="#333333" d="M546.8,415.7c0-1.6,0-3-0.1-4.2h2.2l0.1,2.7h0.1c0.6-1.8,2.1-3,3.8-3c0.3,0,0.5,0,0.7,0.1v2.3
			c-0.3-0.1-0.5-0.1-0.8-0.1c-1.7,0-3,1.3-3.3,3.2c-0.1,0.3-0.1,0.7-0.1,1.1v7.2h-2.4V415.7z"/>
		<path fill="#333333" d="M557,411.4l3,8c0.3,0.9,0.6,2,0.9,2.8h0.1c0.3-0.8,0.5-1.8,0.9-2.8l2.7-8h2.6l-3.7,9.7
			c-1.8,4.6-3,7-4.6,8.5c-1.2,1.1-2.4,1.5-3,1.6l-0.6-2.1c0.6-0.2,1.4-0.6,2.2-1.2c0.7-0.5,1.5-1.5,2.1-2.7c0.1-0.3,0.2-0.4,0.2-0.6
			s-0.1-0.3-0.2-0.6l-5-12.5H557z"/>
		<path fill="#333333" d="M586.7,418.1c0,5-3.5,7.2-6.7,7.2c-3.7,0-6.5-2.7-6.5-7c0-4.5,3-7.2,6.7-7.2
			C584,411.1,586.7,414,586.7,418.1z M575.9,418.3c0,3,1.7,5.2,4.1,5.2c2.4,0,4.1-2.2,4.1-5.3c0-2.3-1.1-5.2-4.1-5.2
			S575.9,415.7,575.9,418.3z"/>
		<path fill="#333333" d="M589.3,425v-11.7h-1.9v-1.9h1.9v-0.6c0-1.9,0.4-3.6,1.6-4.7c0.9-0.9,2.2-1.3,3.3-1.3
			c0.9,0,1.6,0.2,2.1,0.4l-0.3,1.9c-0.4-0.2-0.9-0.3-1.6-0.3c-2.1,0-2.6,1.8-2.6,3.9v0.7h3.3v1.9h-3.3V425H589.3z"/>
		<path fill="#333333" d="M602.4,406.4c1.2-0.2,2.7-0.4,4.7-0.4c2.4,0,4.2,0.6,5.3,1.6c1,0.9,1.7,2.3,1.7,3.9c0,1.7-0.5,3.1-1.5,4
			c-1.3,1.4-3.4,2.1-5.8,2.1c-0.7,0-1.4,0-2-0.2v7.6h-2.4V406.4z M604.9,415.5c0.5,0.1,1.2,0.2,2,0.2c2.9,0,4.7-1.4,4.7-4
			c0-2.5-1.8-3.7-4.5-3.7c-1.1,0-1.9,0.1-2.3,0.2V415.5z"/>
		<path fill="#333333" d="M616.2,415.7c0-1.6,0-3-0.1-4.2h2.2l0.1,2.7h0.1c0.6-1.8,2.1-3,3.8-3c0.3,0,0.5,0,0.7,0.1v2.3
			c-0.3-0.1-0.5-0.1-0.8-0.1c-1.7,0-3,1.3-3.3,3.2c-0.1,0.3-0.1,0.7-0.1,1.1v7.2h-2.4V415.7z"/>
		<path fill="#333333" d="M636.7,418.1c0,5-3.5,7.2-6.7,7.2c-3.7,0-6.5-2.7-6.5-7c0-4.5,3-7.2,6.7-7.2
			C634.1,411.1,636.7,414,636.7,418.1z M626,418.3c0,3,1.7,5.2,4.1,5.2c2.4,0,4.1-2.2,4.1-5.3c0-2.3-1.1-5.2-4.1-5.2
			S626,415.7,626,418.3z"/>
		<path fill="#333333" d="M651,405.1v16.4c0,1.2,0,2.6,0.1,3.5h-2.2l-0.1-2.4h-0.1c-0.8,1.5-2.4,2.7-4.6,2.7c-3.3,0-5.8-2.8-5.8-6.9
			c0-4.5,2.8-7.3,6.1-7.3c2.1,0,3.5,1,4.1,2.1h0.1v-8.1H651z M648.5,417c0-0.3,0-0.7-0.1-1c-0.4-1.6-1.7-2.9-3.6-2.9
			c-2.5,0-4.1,2.2-4.1,5.2c0,2.7,1.3,5,4,5c1.7,0,3.2-1.1,3.6-2.9c0.1-0.3,0.1-0.7,0.1-1.1V417z"/>
		<path fill="#333333" d="M665.5,421.3c0,1.4,0,2.6,0.1,3.7h-2.2l-0.1-2.2h-0.1c-0.6,1.1-2.1,2.5-4.5,2.5c-2.1,0-4.7-1.2-4.7-5.9
			v-7.9h2.5v7.5c0,2.6,0.8,4.3,3,4.3c1.7,0,2.8-1.1,3.2-2.2c0.1-0.4,0.2-0.8,0.2-1.3v-8.3h2.5V421.3z"/>
		<path fill="#333333" d="M678.6,424.5c-0.6,0.3-2.1,0.8-3.9,0.8c-4.1,0-6.7-2.8-6.7-6.9c0-4.2,2.9-7.2,7.3-7.2
			c1.5,0,2.7,0.4,3.4,0.7l-0.6,1.9c-0.6-0.3-1.5-0.6-2.9-0.6c-3.1,0-4.8,2.3-4.8,5.1c0,3.1,2,5.1,4.7,5.1c1.4,0,2.3-0.4,3-0.7
			L678.6,424.5z"/>
		<path fill="#333333" d="M684.3,407.6v3.9h3.5v1.9h-3.5v7.3c0,1.7,0.5,2.6,1.8,2.6c0.6,0,1.1-0.1,1.4-0.2l0.1,1.8
			c-0.5,0.2-1.2,0.3-2.2,0.3c-1.1,0-2.1-0.4-2.7-1c-0.7-0.7-1-1.9-1-3.5v-7.4h-2.1v-1.9h2.1v-3.2L684.3,407.6z"/>
		<path fill="#333333" d="M709,424.4c-0.9,0.4-2.7,0.9-5,0.9c-5.3,0-9.3-3.4-9.3-9.5c0-5.9,4-9.9,9.9-9.9c2.4,0,3.8,0.5,4.5,0.8
			l-0.6,2c-0.9-0.4-2.2-0.8-3.8-0.8c-4.4,0-7.4,2.8-7.4,7.8c0,4.6,2.7,7.6,7.3,7.6c1.5,0,3-0.3,4-0.8L709,424.4z"/>
		<path fill="#333333" d="M711,405.1h2.5v8.5h0.1c0.4-0.7,1-1.3,1.8-1.7c0.7-0.4,1.6-0.7,2.5-0.7c1.8,0,4.7,1.1,4.7,5.8v8.1h-2.5
			v-7.8c0-2.2-0.8-4-3.1-4c-1.6,0-2.9,1.1-3.3,2.5c-0.1,0.3-0.2,0.7-0.2,1.2v8.2H711V405.1z"/>
		<path fill="#333333" d="M733.2,425l-0.2-1.7h-0.1c-0.8,1.1-2.2,2-4.1,2c-2.7,0-4.1-1.9-4.1-3.9c0-3.3,2.9-5.1,8.1-5v-0.3
			c0-1.1-0.3-3.1-3.1-3.1c-1.3,0-2.6,0.4-3.5,1l-0.6-1.6c1.1-0.7,2.7-1.2,4.5-1.2c4.1,0,5.2,2.8,5.2,5.5v5.1c0,1.2,0.1,2.3,0.2,3.2
			H733.2z M732.8,418.1c-2.7-0.1-5.7,0.4-5.7,3.1c0,1.6,1.1,2.4,2.3,2.4c1.8,0,2.9-1.1,3.3-2.3c0.1-0.3,0.1-0.5,0.1-0.8V418.1z"/>
		<path fill="#333333" d="M738.4,415.7c0-1.6,0-3-0.1-4.2h2.2l0.1,2.7h0.1c0.6-1.8,2.1-3,3.8-3c0.3,0,0.5,0,0.7,0.1v2.3
			c-0.3-0.1-0.5-0.1-0.8-0.1c-1.7,0-3,1.3-3.3,3.2c-0.1,0.3-0.1,0.7-0.1,1.1v7.2h-2.4V415.7z"/>
		<path fill="#333333" d="M754.3,425l-0.2-1.7H754c-0.8,1.1-2.2,2-4.1,2c-2.7,0-4.1-1.9-4.1-3.9c0-3.3,2.9-5.1,8.1-5v-0.3
			c0-1.1-0.3-3.1-3.1-3.1c-1.3,0-2.6,0.4-3.5,1l-0.6-1.6c1.1-0.7,2.7-1.2,4.5-1.2c4.1,0,5.2,2.8,5.2,5.5v5.1c0,1.2,0.1,2.3,0.2,3.2
			H754.3z M753.9,418.1c-2.7-0.1-5.7,0.4-5.7,3.1c0,1.6,1.1,2.4,2.3,2.4c1.8,0,2.9-1.1,3.3-2.3c0.1-0.3,0.1-0.5,0.1-0.8V418.1z"/>
		<path fill="#333333" d="M769.2,424.5c-0.6,0.3-2.1,0.8-3.9,0.8c-4.1,0-6.7-2.8-6.7-6.9c0-4.2,2.9-7.2,7.3-7.2
			c1.5,0,2.7,0.4,3.4,0.7l-0.6,1.9c-0.6-0.3-1.5-0.6-2.9-0.6c-3.1,0-4.8,2.3-4.8,5.1c0,3.1,2,5.1,4.7,5.1c1.4,0,2.3-0.4,3-0.7
			L769.2,424.5z"/>
		<path fill="#333333" d="M774.9,407.6v3.9h3.5v1.9h-3.5v7.3c0,1.7,0.5,2.6,1.8,2.6c0.6,0,1.1-0.1,1.4-0.2l0.1,1.8
			c-0.5,0.2-1.2,0.3-2.2,0.3c-1.1,0-2.1-0.4-2.7-1c-0.7-0.7-1-1.9-1-3.5v-7.4h-2.1v-1.9h2.1v-3.2L774.9,407.6z"/>
		<path fill="#333333" d="M781.6,418.7c0.1,3.3,2.2,4.7,4.6,4.7c1.8,0,2.8-0.3,3.8-0.7l0.4,1.8c-0.9,0.4-2.4,0.8-4.5,0.8
			c-4.2,0-6.7-2.7-6.7-6.8c0-4.1,2.4-7.3,6.4-7.3c4.4,0,5.6,3.9,5.6,6.4c0,0.5-0.1,0.9-0.1,1.1H781.6z M788.8,416.9
			c0-1.6-0.6-4-3.4-4c-2.5,0-3.6,2.3-3.8,4H788.8z"/>
		<path fill="#333333" d="M793.5,415.7c0-1.6,0-3-0.1-4.2h2.2l0.1,2.7h0.1c0.6-1.8,2.1-3,3.8-3c0.3,0,0.5,0,0.7,0.1v2.3
			c-0.3-0.1-0.5-0.1-0.8-0.1c-1.7,0-3,1.3-3.3,3.2c-0.1,0.3-0.1,0.7-0.1,1.1v7.2h-2.4V415.7z"/>
		<path fill="#333333" d="M804.7,407.6c0,0.8-0.6,1.5-1.6,1.5c-0.9,0-1.5-0.7-1.5-1.5c0-0.9,0.6-1.5,1.5-1.5
			C804.1,406.1,804.7,406.8,804.7,407.6z M802,425v-13.6h2.5V425H802z"/>
		<path fill="#333333" d="M807.3,422.5c0.7,0.5,2,1,3.2,1c1.8,0,2.6-0.9,2.6-2c0-1.2-0.7-1.8-2.5-2.5c-2.4-0.9-3.6-2.2-3.6-3.8
			c0-2.2,1.8-4,4.7-4c1.4,0,2.6,0.4,3.3,0.8l-0.6,1.8c-0.5-0.3-1.5-0.8-2.8-0.8c-1.5,0-2.3,0.8-2.3,1.8c0,1.1,0.8,1.6,2.6,2.3
			c2.4,0.9,3.6,2.1,3.6,4.1c0,2.4-1.8,4.1-5.1,4.1c-1.5,0-2.9-0.4-3.8-0.9L807.3,422.5z"/>
		<path fill="#333333" d="M821.1,407.6v3.9h3.5v1.9h-3.5v7.3c0,1.7,0.5,2.6,1.8,2.6c0.6,0,1.1-0.1,1.4-0.2l0.1,1.8
			c-0.5,0.2-1.2,0.3-2.2,0.3c-1.1,0-2.1-0.4-2.7-1c-0.7-0.7-1-1.9-1-3.5v-7.4h-2.1v-1.9h2.1v-3.2L821.1,407.6z"/>
		<path fill="#333333" d="M829.3,407.6c0,0.8-0.6,1.5-1.6,1.5c-0.9,0-1.5-0.7-1.5-1.5c0-0.9,0.6-1.5,1.5-1.5
			C828.7,406.1,829.3,406.8,829.3,407.6z M826.5,425v-13.6h2.5V425H826.5z"/>
		<path fill="#333333" d="M842,424.5c-0.6,0.3-2.1,0.8-3.9,0.8c-4.1,0-6.7-2.8-6.7-6.9c0-4.2,2.9-7.2,7.3-7.2c1.5,0,2.7,0.4,3.4,0.7
			l-0.6,1.9c-0.6-0.3-1.5-0.6-2.9-0.6c-3.1,0-4.8,2.3-4.8,5.1c0,3.1,2,5.1,4.7,5.1c1.4,0,2.3-0.4,3-0.7L842,424.5z"/>
		<path fill="#333333" d="M844.1,422.5c0.7,0.5,2,1,3.2,1c1.8,0,2.6-0.9,2.6-2c0-1.2-0.7-1.8-2.5-2.5c-2.4-0.9-3.6-2.2-3.6-3.8
			c0-2.2,1.8-4,4.7-4c1.4,0,2.6,0.4,3.3,0.8l-0.6,1.8c-0.5-0.3-1.5-0.8-2.8-0.8c-1.5,0-2.3,0.8-2.3,1.8c0,1.1,0.8,1.6,2.6,2.3
			c2.4,0.9,3.6,2.1,3.6,4.1c0,2.4-1.8,4.1-5.1,4.1c-1.5,0-2.9-0.4-3.8-0.9L844.1,422.5z"/>
		<path fill="#333333" d="M853.2,428.4c0.6-1.7,1.4-4.6,1.7-6.7l2.7-0.3c-0.6,2.4-1.9,5.5-2.7,6.8L853.2,428.4z"/>
		<path fill="#333333" d="M868.9,419.1l-2,5.9h-2.5l6.4-18.9h2.9l6.4,18.9h-2.6l-2-5.9H868.9z M875.1,417.2l-1.8-5.4
			c-0.4-1.2-0.7-2.4-1-3.4h-0.1c-0.3,1.1-0.6,2.3-1,3.4l-1.8,5.5H875.1z"/>
		<path fill="#333333" d="M882.1,415.9c0-1.7-0.1-3.1-0.1-4.4h2.2l0.1,2.3h0.1c1-1.7,2.6-2.6,4.8-2.6c3.3,0,5.7,2.8,5.7,6.9
			c0,4.9-3,7.3-6.2,7.3c-1.8,0-3.4-0.8-4.2-2.1h-0.1v7.4h-2.4V415.9z M884.5,419.5c0,0.4,0.1,0.7,0.1,1c0.4,1.7,1.9,2.9,3.7,2.9
			c2.6,0,4.1-2.1,4.1-5.2c0-2.7-1.4-5-4-5c-1.7,0-3.2,1.2-3.7,3.1c-0.1,0.3-0.2,0.7-0.2,1V419.5z"/>
		<path fill="#333333" d="M897.3,415.7c0-1.6,0-3-0.1-4.2h2.2l0.1,2.7h0.1c0.6-1.8,2.1-3,3.8-3c0.3,0,0.5,0,0.7,0.1v2.3
			c-0.3-0.1-0.5-0.1-0.8-0.1c-1.7,0-3,1.3-3.3,3.2c-0.1,0.3-0.1,0.7-0.1,1.1v7.2h-2.4V415.7z"/>
		<path fill="#333333" d="M908.5,407.6c0,0.8-0.6,1.5-1.6,1.5c-0.9,0-1.5-0.7-1.5-1.5c0-0.9,0.6-1.5,1.5-1.5
			C907.9,406.1,908.5,406.8,908.5,407.6z M905.7,425v-13.6h2.5V425H905.7z"/>
		<path fill="#333333" d="M911.4,405.1h2.5V425h-2.5V405.1z"/>
		<path fill="#333333" d="M922.4,425v-1.5l1.9-1.9c4.6-4.4,6.7-6.8,6.8-9.5c0-1.8-0.9-3.6-3.6-3.6c-1.7,0-3,0.8-3.9,1.5l-0.8-1.7
			c1.3-1.1,3.1-1.8,5.2-1.8c3.9,0,5.6,2.7,5.6,5.3c0,3.4-2.4,6.1-6.3,9.8l-1.5,1.3v0.1h8.2v2H922.4z"/>
		<path fill="#333333" d="M947.7,415.7c0,6.2-2.3,9.6-6.3,9.6c-3.6,0-6-3.3-6-9.4c0-6.1,2.6-9.5,6.3-9.5
			C945.5,406.5,947.7,409.9,947.7,415.7z M937.8,416c0,4.7,1.5,7.4,3.7,7.4c2.5,0,3.7-2.9,3.7-7.6c0-4.5-1.1-7.4-3.7-7.4
			C939.4,408.4,937.8,411,937.8,416z"/>
		<path fill="#333333" d="M948.4,425v-1.5l1.9-1.9c4.6-4.4,6.7-6.8,6.8-9.5c0-1.8-0.9-3.6-3.6-3.6c-1.7,0-3,0.8-3.9,1.5l-0.8-1.7
			c1.3-1.1,3.1-1.8,5.2-1.8c3.9,0,5.6,2.7,5.6,5.3c0,3.4-2.4,6.1-6.3,9.8l-1.5,1.3v0.1h8.2v2H948.4z"/>
		<path fill="#333333" d="M966,409.1L966,409.1l-3.2,1.7l-0.5-1.9l4-2.1h2.1V425H966V409.1z"/>
		<path fill="#333333" d="M973,423.5c0-1,0.7-1.8,1.7-1.8c1,0,1.7,0.7,1.7,1.8c0,1-0.6,1.8-1.7,1.8C973.7,425.3,973,424.6,973,423.5
			z"/>
	</g>
	<g>
		<path fill="#333333" d="M315.4,481v-1.5l1.9-1.9c4.6-4.4,6.7-6.8,6.8-9.5c0-1.8-0.9-3.6-3.6-3.6c-1.7,0-3,0.8-3.9,1.5l-0.8-1.7
			c1.3-1.1,3.1-1.8,5.2-1.8c3.9,0,5.6,2.7,5.6,5.3c0,3.4-2.4,6.1-6.3,9.8l-1.5,1.3v0.1h8.2v2H315.4z"/>
		<path fill="#333333" d="M329.4,479.5c0-1,0.7-1.8,1.7-1.8c1,0,1.7,0.7,1.7,1.8c0,1-0.6,1.8-1.7,1.8
			C330.1,481.3,329.4,480.6,329.4,479.5z"/>
	</g>
	<g>
		<path fill="#333333" d="M354.8,462.1v11.2c0,4.2,1.9,6,4.4,6c2.8,0,4.6-1.8,4.6-6v-11.2h2.5v11c0,5.8-3.1,8.2-7.1,8.2
			c-3.9,0-6.8-2.2-6.8-8.1v-11.1H354.8z"/>
		<path fill="#333333" d="M369.7,462.4c1.2-0.2,2.7-0.4,4.7-0.4c2.4,0,4.2,0.6,5.3,1.6c1,0.9,1.7,2.3,1.7,3.9c0,1.7-0.5,3.1-1.5,4
			c-1.3,1.4-3.4,2.1-5.8,2.1c-0.7,0-1.4,0-2-0.2v7.6h-2.4V462.4z M372.1,471.5c0.5,0.1,1.2,0.2,2,0.2c2.9,0,4.7-1.4,4.7-4
			c0-2.5-1.8-3.7-4.5-3.7c-1.1,0-1.9,0.1-2.3,0.2V471.5z"/>
		<path fill="#333333" d="M387.7,464.2h-5.7v-2.1h14v2.1h-5.8V481h-2.5V464.2z"/>
		<path fill="#333333" d="M397.4,462.4c1.2-0.3,3-0.4,4.7-0.4c2.6,0,4.3,0.5,5.5,1.5c1,0.8,1.5,2.1,1.5,3.6c0,2.5-1.6,4.1-3.6,4.8
			v0.1c1.5,0.5,2.3,1.8,2.8,3.8c0.6,2.6,1.1,4.5,1.5,5.2h-2.5c-0.3-0.5-0.7-2.2-1.3-4.5c-0.6-2.6-1.6-3.6-3.8-3.7h-2.3v8.2h-2.4
			V462.4z M399.9,471h2.5c2.6,0,4.3-1.4,4.3-3.6c0-2.4-1.8-3.5-4.3-3.5c-1.2,0-2,0.1-2.4,0.2V471z"/>
		<path fill="#333333" d="M415.3,475.1l-2,5.9h-2.5l6.4-18.9h2.9l6.4,18.9h-2.6l-2-5.9H415.3z M421.5,473.2l-1.8-5.4
			c-0.4-1.2-0.7-2.4-1-3.4h-0.1c-0.3,1.1-0.6,2.3-1,3.4l-1.8,5.5H421.5z"/>
		<path fill="#333333" d="M431.5,481l-6.2-18.9h2.6l2.9,9.3c0.8,2.5,1.5,4.8,2,7.1h0.1c0.5-2.2,1.3-4.6,2.2-7l3.2-9.3h2.6l-6.7,18.9
			H431.5z"/>
		<path fill="#333333" d="M444.9,462.1V481h-2.4v-18.9H444.9z"/>
		<path fill="#333333" d="M453.9,478c1.1,0.7,2.7,1.2,4.4,1.2c2.5,0,3.9-1.3,3.9-3.2c0-1.8-1-2.8-3.6-3.8c-3.1-1.1-5-2.7-5-5.3
			c0-2.9,2.4-5.1,6.1-5.1c1.9,0,3.3,0.4,4.2,0.9l-0.7,2c-0.6-0.3-1.9-0.9-3.6-0.9c-2.6,0-3.6,1.5-3.6,2.8c0,1.8,1.1,2.6,3.8,3.6
			c3.2,1.2,4.8,2.8,4.8,5.5c0,2.9-2.2,5.4-6.6,5.4c-1.8,0-3.8-0.5-4.8-1.2L453.9,478z"/>
		<path fill="#333333" d="M478.3,477.3c0,1.4,0,2.6,0.1,3.7h-2.2l-0.1-2.2h-0.1c-0.6,1.1-2.1,2.5-4.5,2.5c-2.1,0-4.7-1.2-4.7-5.9
			v-7.9h2.5v7.5c0,2.6,0.8,4.3,3,4.3c1.7,0,2.8-1.1,3.2-2.2c0.1-0.4,0.2-0.8,0.2-1.3v-8.3h2.5V477.3z"/>
		<path fill="#333333" d="M481.6,471.1c0-1.4,0-2.5-0.1-3.7h2.2l0.1,2.2h0.1c0.8-1.3,2-2.5,4.3-2.5c1.8,0,3.2,1.1,3.8,2.7h0.1
			c0.4-0.8,1-1.3,1.5-1.8c0.8-0.6,1.7-1,3-1c1.8,0,4.5,1.2,4.5,5.9v8h-2.4v-7.7c0-2.6-1-4.2-2.9-4.2c-1.4,0-2.5,1-2.9,2.2
			c-0.1,0.3-0.2,0.8-0.2,1.2v8.4h-2.4v-8.1c0-2.2-1-3.7-2.8-3.7c-1.5,0-2.7,1.2-3.1,2.5c-0.1,0.4-0.2,0.8-0.2,1.2v8.2h-2.4V471.1z"
			/>
		<path fill="#333333" d="M504.1,471.1c0-1.4,0-2.5-0.1-3.7h2.2l0.1,2.2h0.1c0.8-1.3,2-2.5,4.3-2.5c1.8,0,3.2,1.1,3.8,2.7h0.1
			c0.4-0.8,1-1.3,1.5-1.8c0.8-0.6,1.7-1,3-1c1.8,0,4.5,1.2,4.5,5.9v8H521v-7.7c0-2.6-1-4.2-2.9-4.2c-1.4,0-2.5,1-2.9,2.2
			c-0.1,0.3-0.2,0.8-0.2,1.2v8.4h-2.4v-8.1c0-2.2-1-3.7-2.8-3.7c-1.5,0-2.7,1.2-3.1,2.5c-0.1,0.4-0.2,0.8-0.2,1.2v8.2h-2.4V471.1z"
			/>
		<path fill="#333333" d="M534.1,481l-0.2-1.7h-0.1c-0.8,1.1-2.2,2-4.1,2c-2.7,0-4.1-1.9-4.1-3.9c0-3.3,2.9-5.1,8.1-5v-0.3
			c0-1.1-0.3-3.1-3.1-3.1c-1.3,0-2.6,0.4-3.5,1l-0.6-1.6c1.1-0.7,2.7-1.2,4.5-1.2c4.1,0,5.2,2.8,5.2,5.5v5.1c0,1.2,0.1,2.3,0.2,3.2
			H534.1z M533.8,474.1c-2.7-0.1-5.7,0.4-5.7,3.1c0,1.6,1.1,2.4,2.3,2.4c1.8,0,2.9-1.1,3.3-2.3c0.1-0.3,0.1-0.5,0.1-0.8V474.1z"/>
		<path fill="#333333" d="M539.3,471.7c0-1.6,0-3-0.1-4.2h2.2l0.1,2.7h0.1c0.6-1.8,2.1-3,3.8-3c0.3,0,0.5,0,0.7,0.1v2.3
			c-0.3-0.1-0.5-0.1-0.8-0.1c-1.7,0-3,1.3-3.3,3.2c-0.1,0.3-0.1,0.7-0.1,1.1v7.2h-2.4V471.7z"/>
		<path fill="#333333" d="M549.5,467.4l3,8c0.3,0.9,0.6,2,0.9,2.8h0.1c0.3-0.8,0.5-1.8,0.9-2.8l2.7-8h2.6l-3.7,9.7
			c-1.8,4.6-3,7-4.6,8.5c-1.2,1.1-2.4,1.5-3,1.6l-0.6-2.1c0.6-0.2,1.4-0.6,2.2-1.2c0.7-0.5,1.5-1.5,2.1-2.7c0.1-0.3,0.2-0.4,0.2-0.6
			s-0.1-0.3-0.2-0.6l-5-12.5H549.5z"/>
		<path fill="#333333" d="M579.2,474.1c0,5-3.5,7.2-6.7,7.2c-3.7,0-6.5-2.7-6.5-7c0-4.5,3-7.2,6.7-7.2
			C576.6,467.1,579.2,470,579.2,474.1z M568.5,474.3c0,3,1.7,5.2,4.1,5.2c2.4,0,4.1-2.2,4.1-5.3c0-2.3-1.1-5.2-4.1-5.2
			S568.5,471.7,568.5,474.3z"/>
		<path fill="#333333" d="M581.8,481v-11.7h-1.9v-1.9h1.9v-0.6c0-1.9,0.4-3.6,1.6-4.7c0.9-0.9,2.2-1.3,3.3-1.3
			c0.9,0,1.6,0.2,2.1,0.4l-0.3,1.9c-0.4-0.2-0.9-0.3-1.6-0.3c-2.1,0-2.6,1.8-2.6,3.9v0.7h3.3v1.9h-3.3V481H581.8z"/>
		<path fill="#333333" d="M594.9,462.4c1.2-0.2,2.7-0.4,4.7-0.4c2.4,0,4.2,0.6,5.3,1.6c1,0.9,1.7,2.3,1.7,3.9c0,1.7-0.5,3.1-1.5,4
			c-1.3,1.4-3.4,2.1-5.8,2.1c-0.7,0-1.4,0-2-0.2v7.6h-2.4V462.4z M597.4,471.5c0.5,0.1,1.2,0.2,2,0.2c2.9,0,4.7-1.4,4.7-4
			c0-2.5-1.8-3.7-4.5-3.7c-1.1,0-1.9,0.1-2.3,0.2V471.5z"/>
		<path fill="#333333" d="M608.7,471.7c0-1.6,0-3-0.1-4.2h2.2l0.1,2.7h0.1c0.6-1.8,2.1-3,3.8-3c0.3,0,0.5,0,0.7,0.1v2.3
			c-0.3-0.1-0.5-0.1-0.8-0.1c-1.7,0-3,1.3-3.3,3.2c-0.1,0.3-0.1,0.7-0.1,1.1v7.2h-2.4V471.7z"/>
		<path fill="#333333" d="M629.2,474.1c0,5-3.5,7.2-6.7,7.2c-3.7,0-6.5-2.7-6.5-7c0-4.5,3-7.2,6.7-7.2
			C626.6,467.1,629.2,470,629.2,474.1z M618.5,474.3c0,3,1.7,5.2,4.1,5.2c2.4,0,4.1-2.2,4.1-5.3c0-2.3-1.1-5.2-4.1-5.2
			S618.5,471.7,618.5,474.3z"/>
		<path fill="#333333" d="M643.5,461.1v16.4c0,1.2,0,2.6,0.1,3.5h-2.2l-0.1-2.4h-0.1c-0.8,1.5-2.4,2.7-4.6,2.7
			c-3.3,0-5.8-2.8-5.8-6.9c0-4.5,2.8-7.3,6.1-7.3c2.1,0,3.5,1,4.1,2.1h0.1v-8.1H643.5z M641.1,473c0-0.3,0-0.7-0.1-1
			c-0.4-1.6-1.7-2.9-3.6-2.9c-2.5,0-4.1,2.2-4.1,5.2c0,2.7,1.3,5,4,5c1.7,0,3.2-1.1,3.6-2.9c0.1-0.3,0.1-0.7,0.1-1.1V473z"/>
		<path fill="#333333" d="M658.1,477.3c0,1.4,0,2.6,0.1,3.7H656l-0.1-2.2h-0.1c-0.6,1.1-2.1,2.5-4.5,2.5c-2.1,0-4.7-1.2-4.7-5.9
			v-7.9h2.5v7.5c0,2.6,0.8,4.3,3,4.3c1.7,0,2.8-1.1,3.2-2.2c0.1-0.4,0.2-0.8,0.2-1.3v-8.3h2.5V477.3z"/>
		<path fill="#333333" d="M671.1,480.5c-0.6,0.3-2.1,0.8-3.9,0.8c-4.1,0-6.7-2.8-6.7-6.9c0-4.2,2.9-7.2,7.3-7.2
			c1.5,0,2.7,0.4,3.4,0.7l-0.6,1.9c-0.6-0.3-1.5-0.6-2.9-0.6c-3.1,0-4.8,2.3-4.8,5.1c0,3.1,2,5.1,4.7,5.1c1.4,0,2.3-0.4,3-0.7
			L671.1,480.5z"/>
		<path fill="#333333" d="M676.8,463.6v3.9h3.5v1.9h-3.5v7.3c0,1.7,0.5,2.6,1.8,2.6c0.6,0,1.1-0.1,1.4-0.2l0.1,1.8
			c-0.5,0.2-1.2,0.3-2.2,0.3c-1.1,0-2.1-0.4-2.7-1c-0.7-0.7-1-1.9-1-3.5v-7.4h-2.1v-1.9h2.1v-3.2L676.8,463.6z"/>
		<path fill="#333333" d="M701.5,480.4c-0.9,0.4-2.7,0.9-5,0.9c-5.3,0-9.3-3.4-9.3-9.5c0-5.9,4-9.9,9.9-9.9c2.4,0,3.8,0.5,4.5,0.8
			l-0.6,2c-0.9-0.4-2.2-0.8-3.8-0.8c-4.4,0-7.4,2.8-7.4,7.8c0,4.6,2.7,7.6,7.3,7.6c1.5,0,3-0.3,4-0.8L701.5,480.4z"/>
		<path fill="#333333" d="M703.5,461.1h2.5v8.5h0.1c0.4-0.7,1-1.3,1.8-1.7c0.7-0.4,1.6-0.7,2.5-0.7c1.8,0,4.7,1.1,4.7,5.8v8.1h-2.5
			v-7.8c0-2.2-0.8-4-3.1-4c-1.6,0-2.9,1.1-3.3,2.5c-0.1,0.3-0.2,0.7-0.2,1.2v8.2h-2.5V461.1z"/>
		<path fill="#333333" d="M725.7,481l-0.2-1.7h-0.1c-0.8,1.1-2.2,2-4.1,2c-2.7,0-4.1-1.9-4.1-3.9c0-3.3,2.9-5.1,8.1-5v-0.3
			c0-1.1-0.3-3.1-3.1-3.1c-1.3,0-2.6,0.4-3.5,1l-0.6-1.6c1.1-0.7,2.7-1.2,4.5-1.2c4.1,0,5.2,2.8,5.2,5.5v5.1c0,1.2,0.1,2.3,0.2,3.2
			H725.7z M725.4,474.1c-2.7-0.1-5.7,0.4-5.7,3.1c0,1.6,1.1,2.4,2.3,2.4c1.8,0,2.9-1.1,3.3-2.3c0.1-0.3,0.1-0.5,0.1-0.8V474.1z"/>
		<path fill="#333333" d="M730.9,471.7c0-1.6,0-3-0.1-4.2h2.2l0.1,2.7h0.1c0.6-1.8,2.1-3,3.8-3c0.3,0,0.5,0,0.7,0.1v2.3
			c-0.3-0.1-0.5-0.1-0.8-0.1c-1.7,0-3,1.3-3.3,3.2c-0.1,0.3-0.1,0.7-0.1,1.1v7.2h-2.4V471.7z"/>
		<path fill="#333333" d="M746.9,481l-0.2-1.7h-0.1c-0.8,1.1-2.2,2-4.1,2c-2.7,0-4.1-1.9-4.1-3.9c0-3.3,2.9-5.1,8.1-5v-0.3
			c0-1.1-0.3-3.1-3.1-3.1c-1.3,0-2.6,0.4-3.5,1l-0.6-1.6c1.1-0.7,2.7-1.2,4.5-1.2c4.1,0,5.2,2.8,5.2,5.5v5.1c0,1.2,0.1,2.3,0.2,3.2
			H746.9z M746.5,474.1c-2.7-0.1-5.7,0.4-5.7,3.1c0,1.6,1.1,2.4,2.3,2.4c1.8,0,2.9-1.1,3.3-2.3c0.1-0.3,0.1-0.5,0.1-0.8V474.1z"/>
		<path fill="#333333" d="M761.8,480.5c-0.6,0.3-2.1,0.8-3.9,0.8c-4.1,0-6.7-2.8-6.7-6.9c0-4.2,2.9-7.2,7.3-7.2
			c1.5,0,2.7,0.4,3.4,0.7l-0.6,1.9c-0.6-0.3-1.5-0.6-2.9-0.6c-3.1,0-4.8,2.3-4.8,5.1c0,3.1,2,5.1,4.7,5.1c1.4,0,2.3-0.4,3-0.7
			L761.8,480.5z"/>
		<path fill="#333333" d="M767.5,463.6v3.9h3.5v1.9h-3.5v7.3c0,1.7,0.5,2.6,1.8,2.6c0.6,0,1.1-0.1,1.4-0.2l0.1,1.8
			c-0.5,0.2-1.2,0.3-2.2,0.3c-1.1,0-2.1-0.4-2.7-1c-0.7-0.7-1-1.9-1-3.5v-7.4H763v-1.9h2.1v-3.2L767.5,463.6z"/>
		<path fill="#333333" d="M774.2,474.7c0.1,3.3,2.2,4.7,4.6,4.7c1.8,0,2.8-0.3,3.8-0.7l0.4,1.8c-0.9,0.4-2.4,0.8-4.5,0.8
			c-4.2,0-6.7-2.7-6.7-6.8c0-4.1,2.4-7.3,6.4-7.3c4.4,0,5.6,3.9,5.6,6.4c0,0.5-0.1,0.9-0.1,1.1H774.2z M781.4,472.9
			c0-1.6-0.6-4-3.4-4c-2.5,0-3.6,2.3-3.8,4H781.4z"/>
		<path fill="#333333" d="M786.1,471.7c0-1.6,0-3-0.1-4.2h2.2l0.1,2.7h0.1c0.6-1.8,2.1-3,3.8-3c0.3,0,0.5,0,0.7,0.1v2.3
			c-0.3-0.1-0.5-0.1-0.8-0.1c-1.7,0-3,1.3-3.3,3.2c-0.1,0.3-0.1,0.7-0.1,1.1v7.2h-2.4V471.7z"/>
		<path fill="#333333" d="M797.3,463.6c0,0.8-0.6,1.5-1.6,1.5c-0.9,0-1.5-0.7-1.5-1.5c0-0.9,0.6-1.5,1.5-1.5
			C796.7,462.1,797.3,462.8,797.3,463.6z M794.5,481v-13.6h2.5V481H794.5z"/>
		<path fill="#333333" d="M799.8,478.5c0.7,0.5,2,1,3.2,1c1.8,0,2.6-0.9,2.6-2c0-1.2-0.7-1.8-2.5-2.5c-2.4-0.9-3.6-2.2-3.6-3.8
			c0-2.2,1.8-4,4.7-4c1.4,0,2.6,0.4,3.3,0.8l-0.6,1.8c-0.5-0.3-1.5-0.8-2.8-0.8c-1.5,0-2.3,0.8-2.3,1.8c0,1.1,0.8,1.6,2.6,2.3
			c2.4,0.9,3.6,2.1,3.6,4.1c0,2.4-1.8,4.1-5.1,4.1c-1.5,0-2.9-0.4-3.8-0.9L799.8,478.5z"/>
		<path fill="#333333" d="M813.7,463.6v3.9h3.5v1.9h-3.5v7.3c0,1.7,0.5,2.6,1.8,2.6c0.6,0,1.1-0.1,1.4-0.2l0.1,1.8
			c-0.5,0.2-1.2,0.3-2.2,0.3c-1.1,0-2.1-0.4-2.7-1c-0.7-0.7-1-1.9-1-3.5v-7.4h-2.1v-1.9h2.1v-3.2L813.7,463.6z"/>
		<path fill="#333333" d="M821.8,463.6c0,0.8-0.6,1.5-1.6,1.5c-0.9,0-1.5-0.7-1.5-1.5c0-0.9,0.6-1.5,1.5-1.5
			C821.2,462.1,821.8,462.8,821.8,463.6z M819.1,481v-13.6h2.5V481H819.1z"/>
		<path fill="#333333" d="M834.5,480.5c-0.6,0.3-2.1,0.8-3.9,0.8c-4.1,0-6.7-2.8-6.7-6.9c0-4.2,2.9-7.2,7.3-7.2
			c1.5,0,2.7,0.4,3.4,0.7l-0.6,1.9c-0.6-0.3-1.5-0.6-2.9-0.6c-3.1,0-4.8,2.3-4.8,5.1c0,3.1,2,5.1,4.7,5.1c1.4,0,2.3-0.4,3-0.7
			L834.5,480.5z"/>
		<path fill="#333333" d="M836.6,478.5c0.7,0.5,2,1,3.2,1c1.8,0,2.6-0.9,2.6-2c0-1.2-0.7-1.8-2.5-2.5c-2.4-0.9-3.6-2.2-3.6-3.8
			c0-2.2,1.8-4,4.7-4c1.4,0,2.6,0.4,3.3,0.8l-0.6,1.8c-0.5-0.3-1.5-0.8-2.8-0.8c-1.5,0-2.3,0.8-2.3,1.8c0,1.1,0.8,1.6,2.6,2.3
			c2.4,0.9,3.6,2.1,3.6,4.1c0,2.4-1.8,4.1-5.1,4.1c-1.5,0-2.9-0.4-3.8-0.9L836.6,478.5z"/>
		<path fill="#333333" d="M845.8,484.4c0.6-1.7,1.4-4.6,1.7-6.7l2.7-0.3c-0.6,2.4-1.9,5.5-2.7,6.8L845.8,484.4z"/>
		<path fill="#333333" d="M874.3,472.7c-0.1-2.6-0.3-5.8-0.3-8.1H874c-0.6,2.2-1.4,4.6-2.4,7.2l-3.3,9.2h-1.8l-3.1-9
			c-0.9-2.7-1.7-5.1-2.2-7.3h-0.1c-0.1,2.4-0.2,5.5-0.4,8.3l-0.5,8.1h-2.3l1.3-18.9h3.1l3.2,9.1c0.8,2.3,1.4,4.4,1.9,6.4h0.1
			c0.5-1.9,1.1-4,2-6.4l3.4-9.1h3.1l1.2,18.9h-2.4L874.3,472.7z"/>
		<path fill="#333333" d="M887.7,481l-0.2-1.7h-0.1c-0.8,1.1-2.2,2-4.1,2c-2.7,0-4.1-1.9-4.1-3.9c0-3.3,2.9-5.1,8.1-5v-0.3
			c0-1.1-0.3-3.1-3.1-3.1c-1.3,0-2.6,0.4-3.5,1l-0.6-1.6c1.1-0.7,2.7-1.2,4.5-1.2c4.1,0,5.2,2.8,5.2,5.5v5.1c0,1.2,0.1,2.3,0.2,3.2
			H887.7z M887.3,474.1c-2.7-0.1-5.7,0.4-5.7,3.1c0,1.6,1.1,2.4,2.3,2.4c1.8,0,2.9-1.1,3.3-2.3c0.1-0.3,0.1-0.5,0.1-0.8V474.1z"/>
		<path fill="#333333" d="M893.4,467.4l3,8c0.3,0.9,0.6,2,0.9,2.8h0.1c0.3-0.8,0.5-1.8,0.9-2.8l2.7-8h2.6l-3.7,9.7
			c-1.8,4.6-3,7-4.6,8.5c-1.2,1.1-2.4,1.5-3,1.6l-0.6-2.1c0.6-0.2,1.4-0.6,2.2-1.2c0.7-0.5,1.5-1.5,2.1-2.7c0.1-0.3,0.2-0.4,0.2-0.6
			s-0.1-0.3-0.2-0.6l-5-12.5H893.4z"/>
		<path fill="#333333" d="M910,481v-1.5l1.9-1.9c4.6-4.4,6.7-6.8,6.8-9.5c0-1.8-0.9-3.6-3.6-3.6c-1.7,0-3,0.8-3.9,1.5l-0.8-1.7
			c1.3-1.1,3.1-1.8,5.2-1.8c3.9,0,5.6,2.7,5.6,5.3c0,3.4-2.4,6.1-6.3,9.8l-1.5,1.3v0.1h8.2v2H910z"/>
		<path fill="#333333" d="M935.4,471.7c0,6.2-2.3,9.6-6.3,9.6c-3.6,0-6-3.3-6-9.4c0-6.1,2.6-9.5,6.3-9.5
			C933.2,462.5,935.4,465.9,935.4,471.7z M925.5,472c0,4.7,1.5,7.4,3.7,7.4c2.5,0,3.7-2.9,3.7-7.6c0-4.5-1.1-7.4-3.7-7.4
			C927.1,464.4,925.5,467,925.5,472z"/>
		<path fill="#333333" d="M936.1,481v-1.5l1.9-1.9c4.6-4.4,6.7-6.8,6.8-9.5c0-1.8-0.9-3.6-3.6-3.6c-1.7,0-3,0.8-3.9,1.5l-0.8-1.7
			c1.3-1.1,3.1-1.8,5.2-1.8c3.9,0,5.6,2.7,5.6,5.3c0,3.4-2.4,6.1-6.3,9.8l-1.5,1.3v0.1h8.2v2H936.1z"/>
		<path fill="#333333" d="M953.6,465.1L953.6,465.1l-3.2,1.7l-0.5-1.9l4-2.1h2.1V481h-2.4V465.1z"/>
		<path fill="#333333" d="M960.6,479.5c0-1,0.7-1.8,1.7-1.8c1,0,1.7,0.7,1.7,1.8c0,1-0.6,1.8-1.7,1.8
			C961.3,481.3,960.6,480.6,960.6,479.5z"/>
	</g>
	<g>
		<path fill="#333333" d="M316.1,534.2c0.7,0.4,2.3,1.1,4,1.1c3.2,0,4.1-2,4.1-3.5c0-2.5-2.3-3.6-4.7-3.6h-1.4v-1.8h1.4
			c1.8,0,4.1-0.9,4.1-3.1c0-1.5-0.9-2.7-3.2-2.7c-1.5,0-2.9,0.6-3.6,1.2l-0.6-1.8c1-0.7,2.8-1.4,4.8-1.4c3.6,0,5.2,2.1,5.2,4.3
			c0,1.9-1.1,3.5-3.4,4.3v0.1c2.2,0.4,4.1,2.1,4.1,4.7c0,2.9-2.3,5.5-6.6,5.5c-2,0-3.8-0.6-4.7-1.2L316.1,534.2z"/>
		<path fill="#333333" d="M329.1,535.5c0-1,0.7-1.8,1.7-1.8c1,0,1.7,0.7,1.7,1.8c0,1-0.6,1.8-1.7,1.8
			C329.7,537.3,329.1,536.6,329.1,535.5z"/>
	</g>
	<g>
		<path fill="#333333" d="M356.5,537l-6.2-18.9h2.6l2.9,9.3c0.8,2.5,1.5,4.8,2,7.1h0.1c0.5-2.2,1.3-4.6,2.2-7l3.2-9.3h2.6l-6.7,18.9
			H356.5z"/>
		<path fill="#333333" d="M377.2,528.2h-7.3v6.8h8.2v2h-10.6v-18.9h10.2v2h-7.8v6h7.3V528.2z"/>
		<path fill="#333333" d="M380.2,518.1h2.4V535h8.1v2h-10.5V518.1z"/>
		<path fill="#333333" d="M402.3,528.2H395v6.8h8.2v2h-10.6v-18.9h10.2v2H395v6h7.3V528.2z"/>
		<path fill="#333333" d="M409.7,520.2h-5.7v-2.1h14v2.1h-5.8V537h-2.5V520.2z"/>
		<path fill="#333333" d="M419.4,518.4c1.2-0.3,3-0.4,4.7-0.4c2.6,0,4.3,0.5,5.5,1.5c1,0.8,1.5,2.1,1.5,3.6c0,2.5-1.6,4.1-3.6,4.8
			v0.1c1.5,0.5,2.3,1.8,2.8,3.8c0.6,2.6,1.1,4.5,1.5,5.2h-2.5c-0.3-0.5-0.7-2.2-1.3-4.5c-0.6-2.6-1.6-3.6-3.8-3.7h-2.3v8.2h-2.4
			V518.4z M421.8,527h2.5c2.6,0,4.3-1.4,4.3-3.6c0-2.4-1.8-3.5-4.3-3.5c-1.2,0-2,0.1-2.4,0.2V527z"/>
		<path fill="#333333" d="M436.4,518.1V537h-2.4v-18.9H436.4z"/>
		<path fill="#333333" d="M445.4,534c1.1,0.7,2.7,1.2,4.4,1.2c2.5,0,3.9-1.3,3.9-3.2c0-1.8-1-2.8-3.6-3.8c-3.1-1.1-5-2.7-5-5.3
			c0-2.9,2.4-5.1,6.1-5.1c1.9,0,3.3,0.4,4.2,0.9l-0.7,2c-0.6-0.3-1.9-0.9-3.6-0.9c-2.6,0-3.6,1.5-3.6,2.8c0,1.8,1.1,2.6,3.8,3.6
			c3.2,1.2,4.8,2.8,4.8,5.5c0,2.9-2.2,5.4-6.6,5.4c-1.8,0-3.8-0.5-4.8-1.2L445.4,534z"/>
		<path fill="#333333" d="M469.9,533.3c0,1.4,0,2.6,0.1,3.7h-2.2l-0.1-2.2h-0.1c-0.6,1.1-2.1,2.5-4.5,2.5c-2.1,0-4.7-1.2-4.7-5.9
			v-7.9h2.5v7.5c0,2.6,0.8,4.3,3,4.3c1.7,0,2.8-1.1,3.2-2.2c0.1-0.4,0.2-0.8,0.2-1.3v-8.3h2.5V533.3z"/>
		<path fill="#333333" d="M473.1,527.1c0-1.4,0-2.5-0.1-3.7h2.2l0.1,2.2h0.1c0.8-1.3,2-2.5,4.3-2.5c1.8,0,3.2,1.1,3.8,2.7h0.1
			c0.4-0.8,1-1.3,1.5-1.8c0.8-0.6,1.7-1,3-1c1.8,0,4.5,1.2,4.5,5.9v8h-2.4v-7.7c0-2.6-1-4.2-2.9-4.2c-1.4,0-2.5,1-2.9,2.2
			c-0.1,0.3-0.2,0.8-0.2,1.2v8.4h-2.4v-8.1c0-2.2-1-3.7-2.8-3.7c-1.5,0-2.7,1.2-3.1,2.5c-0.1,0.4-0.2,0.8-0.2,1.2v8.2h-2.4V527.1z"
			/>
		<path fill="#333333" d="M495.7,527.1c0-1.4,0-2.5-0.1-3.7h2.2l0.1,2.2h0.1c0.8-1.3,2-2.5,4.3-2.5c1.8,0,3.2,1.1,3.8,2.7h0.1
			c0.4-0.8,1-1.3,1.5-1.8c0.8-0.6,1.7-1,3-1c1.8,0,4.5,1.2,4.5,5.9v8h-2.4v-7.7c0-2.6-1-4.2-2.9-4.2c-1.4,0-2.5,1-2.9,2.2
			c-0.1,0.3-0.2,0.8-0.2,1.2v8.4h-2.4v-8.1c0-2.2-1-3.7-2.8-3.7c-1.5,0-2.7,1.2-3.1,2.5c-0.1,0.4-0.2,0.8-0.2,1.2v8.2h-2.4V527.1z"
			/>
		<path fill="#333333" d="M525.7,537l-0.2-1.7h-0.1c-0.8,1.1-2.2,2-4.1,2c-2.7,0-4.1-1.9-4.1-3.9c0-3.3,2.9-5.1,8.1-5v-0.3
			c0-1.1-0.3-3.1-3.1-3.1c-1.3,0-2.6,0.4-3.5,1l-0.6-1.6c1.1-0.7,2.7-1.2,4.5-1.2c4.1,0,5.2,2.8,5.2,5.5v5.1c0,1.2,0.1,2.3,0.2,3.2
			H525.7z M525.3,530.1c-2.7-0.1-5.7,0.4-5.7,3.1c0,1.6,1.1,2.4,2.3,2.4c1.8,0,2.9-1.1,3.3-2.3c0.1-0.3,0.1-0.5,0.1-0.8V530.1z"/>
		<path fill="#333333" d="M530.8,527.7c0-1.6,0-3-0.1-4.2h2.2l0.1,2.7h0.1c0.6-1.8,2.1-3,3.8-3c0.3,0,0.5,0,0.7,0.1v2.3
			c-0.3-0.1-0.5-0.1-0.8-0.1c-1.7,0-3,1.3-3.3,3.2c-0.1,0.3-0.1,0.7-0.1,1.1v7.2h-2.4V527.7z"/>
		<path fill="#333333" d="M541.1,523.4l3,8c0.3,0.9,0.6,2,0.9,2.8h0.1c0.3-0.8,0.5-1.8,0.9-2.8l2.7-8h2.6l-3.7,9.7
			c-1.8,4.6-3,7-4.6,8.5c-1.2,1.1-2.4,1.5-3,1.6l-0.6-2.1c0.6-0.2,1.4-0.6,2.2-1.2c0.7-0.5,1.5-1.5,2.1-2.7c0.1-0.3,0.2-0.4,0.2-0.6
			s-0.1-0.3-0.2-0.6l-5-12.5H541.1z"/>
		<path fill="#333333" d="M570.8,530.1c0,5-3.5,7.2-6.7,7.2c-3.7,0-6.5-2.7-6.5-7c0-4.5,3-7.2,6.7-7.2
			C568.1,523.1,570.8,526,570.8,530.1z M560,530.3c0,3,1.7,5.2,4.1,5.2c2.4,0,4.1-2.2,4.1-5.3c0-2.3-1.1-5.2-4.1-5.2
			S560,527.7,560,530.3z"/>
		<path fill="#333333" d="M573.4,537v-11.7h-1.9v-1.9h1.9v-0.6c0-1.9,0.4-3.6,1.6-4.7c0.9-0.9,2.2-1.3,3.3-1.3
			c0.9,0,1.6,0.2,2.1,0.4l-0.3,1.9c-0.4-0.2-0.9-0.3-1.6-0.3c-2.1,0-2.6,1.8-2.6,3.9v0.7h3.3v1.9h-3.3V537H573.4z"/>
		<path fill="#333333" d="M586.5,518.4c1.2-0.2,2.7-0.4,4.7-0.4c2.4,0,4.2,0.6,5.3,1.6c1,0.9,1.7,2.3,1.7,3.9c0,1.7-0.5,3.1-1.5,4
			c-1.3,1.4-3.4,2.1-5.8,2.1c-0.7,0-1.4,0-2-0.2v7.6h-2.4V518.4z M588.9,527.5c0.5,0.1,1.2,0.2,2,0.2c2.9,0,4.7-1.4,4.7-4
			c0-2.5-1.8-3.7-4.5-3.7c-1.1,0-1.9,0.1-2.3,0.2V527.5z"/>
		<path fill="#333333" d="M600.3,527.7c0-1.6,0-3-0.1-4.2h2.2l0.1,2.7h0.1c0.6-1.8,2.1-3,3.8-3c0.3,0,0.5,0,0.7,0.1v2.3
			c-0.3-0.1-0.5-0.1-0.8-0.1c-1.7,0-3,1.3-3.3,3.2c-0.1,0.3-0.1,0.7-0.1,1.1v7.2h-2.4V527.7z"/>
		<path fill="#333333" d="M620.8,530.1c0,5-3.5,7.2-6.7,7.2c-3.7,0-6.5-2.7-6.5-7c0-4.5,3-7.2,6.7-7.2
			C618.2,523.1,620.8,526,620.8,530.1z M610.1,530.3c0,3,1.7,5.2,4.1,5.2c2.4,0,4.1-2.2,4.1-5.3c0-2.3-1.1-5.2-4.1-5.2
			S610.1,527.7,610.1,530.3z"/>
		<path fill="#333333" d="M635.1,517.1v16.4c0,1.2,0,2.6,0.1,3.5H633l-0.1-2.4h-0.1c-0.8,1.5-2.4,2.7-4.6,2.7
			c-3.3,0-5.8-2.8-5.8-6.9c0-4.5,2.8-7.3,6.1-7.3c2.1,0,3.5,1,4.1,2.1h0.1v-8.1H635.1z M632.6,529c0-0.3,0-0.7-0.1-1
			c-0.4-1.6-1.7-2.9-3.6-2.9c-2.5,0-4.1,2.2-4.1,5.2c0,2.7,1.3,5,4,5c1.7,0,3.2-1.1,3.6-2.9c0.1-0.3,0.1-0.7,0.1-1.1V529z"/>
		<path fill="#333333" d="M649.6,533.3c0,1.4,0,2.6,0.1,3.7h-2.2l-0.1-2.2h-0.1c-0.6,1.1-2.1,2.5-4.5,2.5c-2.1,0-4.7-1.2-4.7-5.9
			v-7.9h2.5v7.5c0,2.6,0.8,4.3,3,4.3c1.7,0,2.8-1.1,3.2-2.2c0.1-0.4,0.2-0.8,0.2-1.3v-8.3h2.5V533.3z"/>
		<path fill="#333333" d="M662.7,536.5c-0.6,0.3-2.1,0.8-3.9,0.8c-4.1,0-6.7-2.8-6.7-6.9c0-4.2,2.9-7.2,7.3-7.2
			c1.5,0,2.7,0.4,3.4,0.7l-0.6,1.9c-0.6-0.3-1.5-0.6-2.9-0.6c-3.1,0-4.8,2.3-4.8,5.1c0,3.1,2,5.1,4.7,5.1c1.4,0,2.3-0.4,3-0.7
			L662.7,536.5z"/>
		<path fill="#333333" d="M668.4,519.6v3.9h3.5v1.9h-3.5v7.3c0,1.7,0.5,2.6,1.8,2.6c0.6,0,1.1-0.1,1.4-0.2l0.1,1.8
			c-0.5,0.2-1.2,0.3-2.2,0.3c-1.1,0-2.1-0.4-2.7-1c-0.7-0.7-1-1.9-1-3.5v-7.4h-2.1v-1.9h2.1v-3.2L668.4,519.6z"/>
		<path fill="#333333" d="M693.1,536.4c-0.9,0.4-2.7,0.9-5,0.9c-5.3,0-9.3-3.4-9.3-9.5c0-5.9,4-9.9,9.9-9.9c2.4,0,3.8,0.5,4.5,0.8
			l-0.6,2c-0.9-0.4-2.2-0.8-3.8-0.8c-4.4,0-7.4,2.8-7.4,7.8c0,4.6,2.7,7.6,7.3,7.6c1.5,0,3-0.3,4-0.8L693.1,536.4z"/>
		<path fill="#333333" d="M695.1,517.1h2.5v8.5h0.1c0.4-0.7,1-1.3,1.8-1.7c0.7-0.4,1.6-0.7,2.5-0.7c1.8,0,4.7,1.1,4.7,5.8v8.1h-2.5
			v-7.8c0-2.2-0.8-4-3.1-4c-1.6,0-2.9,1.1-3.3,2.5c-0.1,0.3-0.2,0.7-0.2,1.2v8.2h-2.5V517.1z"/>
		<path fill="#333333" d="M717.3,537l-0.2-1.7H717c-0.8,1.1-2.2,2-4.1,2c-2.7,0-4.1-1.9-4.1-3.9c0-3.3,2.9-5.1,8.1-5v-0.3
			c0-1.1-0.3-3.1-3.1-3.1c-1.3,0-2.6,0.4-3.5,1l-0.6-1.6c1.1-0.7,2.7-1.2,4.5-1.2c4.1,0,5.2,2.8,5.2,5.5v5.1c0,1.2,0.1,2.3,0.2,3.2
			H717.3z M716.9,530.1c-2.7-0.1-5.7,0.4-5.7,3.1c0,1.6,1.1,2.4,2.3,2.4c1.8,0,2.9-1.1,3.3-2.3c0.1-0.3,0.1-0.5,0.1-0.8V530.1z"/>
		<path fill="#333333" d="M722.4,527.7c0-1.6,0-3-0.1-4.2h2.2l0.1,2.7h0.1c0.6-1.8,2.1-3,3.8-3c0.3,0,0.5,0,0.7,0.1v2.3
			c-0.3-0.1-0.5-0.1-0.8-0.1c-1.7,0-3,1.3-3.3,3.2c-0.1,0.3-0.1,0.7-0.1,1.1v7.2h-2.4V527.7z"/>
		<path fill="#333333" d="M738.4,537l-0.2-1.7h-0.1c-0.8,1.1-2.2,2-4.1,2c-2.7,0-4.1-1.9-4.1-3.9c0-3.3,2.9-5.1,8.1-5v-0.3
			c0-1.1-0.3-3.1-3.1-3.1c-1.3,0-2.6,0.4-3.5,1l-0.6-1.6c1.1-0.7,2.7-1.2,4.5-1.2c4.1,0,5.2,2.8,5.2,5.5v5.1c0,1.2,0.1,2.3,0.2,3.2
			H738.4z M738,530.1c-2.7-0.1-5.7,0.4-5.7,3.1c0,1.6,1.1,2.4,2.3,2.4c1.8,0,2.9-1.1,3.3-2.3c0.1-0.3,0.1-0.5,0.1-0.8V530.1z"/>
		<path fill="#333333" d="M753.3,536.5c-0.6,0.3-2.1,0.8-3.9,0.8c-4.1,0-6.7-2.8-6.7-6.9c0-4.2,2.9-7.2,7.3-7.2
			c1.5,0,2.7,0.4,3.4,0.7l-0.6,1.9c-0.6-0.3-1.5-0.6-2.9-0.6c-3.1,0-4.8,2.3-4.8,5.1c0,3.1,2,5.1,4.7,5.1c1.4,0,2.3-0.4,3-0.7
			L753.3,536.5z"/>
		<path fill="#333333" d="M759,519.6v3.9h3.5v1.9H759v7.3c0,1.7,0.5,2.6,1.8,2.6c0.6,0,1.1-0.1,1.4-0.2l0.1,1.8
			c-0.5,0.2-1.2,0.3-2.2,0.3c-1.1,0-2.1-0.4-2.7-1c-0.7-0.7-1-1.9-1-3.5v-7.4h-2.1v-1.9h2.1v-3.2L759,519.6z"/>
		<path fill="#333333" d="M765.7,530.7c0.1,3.3,2.2,4.7,4.6,4.7c1.8,0,2.8-0.3,3.8-0.7l0.4,1.8c-0.9,0.4-2.4,0.8-4.5,0.8
			c-4.2,0-6.7-2.7-6.7-6.8c0-4.1,2.4-7.3,6.4-7.3c4.4,0,5.6,3.9,5.6,6.4c0,0.5-0.1,0.9-0.1,1.1H765.7z M772.9,528.9
			c0-1.6-0.6-4-3.4-4c-2.5,0-3.6,2.3-3.8,4H772.9z"/>
		<path fill="#333333" d="M777.6,527.7c0-1.6,0-3-0.1-4.2h2.2l0.1,2.7h0.1c0.6-1.8,2.1-3,3.8-3c0.3,0,0.5,0,0.7,0.1v2.3
			c-0.3-0.1-0.5-0.1-0.8-0.1c-1.7,0-3,1.3-3.3,3.2c-0.1,0.3-0.1,0.7-0.1,1.1v7.2h-2.4V527.7z"/>
		<path fill="#333333" d="M788.8,519.6c0,0.8-0.6,1.5-1.6,1.5c-0.9,0-1.5-0.7-1.5-1.5c0-0.9,0.6-1.5,1.5-1.5
			C788.2,518.1,788.8,518.8,788.8,519.6z M786.1,537v-13.6h2.5V537H786.1z"/>
		<path fill="#333333" d="M791.4,534.5c0.7,0.5,2,1,3.2,1c1.8,0,2.6-0.9,2.6-2c0-1.2-0.7-1.8-2.5-2.5c-2.4-0.9-3.6-2.2-3.6-3.8
			c0-2.2,1.8-4,4.7-4c1.4,0,2.6,0.4,3.3,0.8l-0.6,1.8c-0.5-0.3-1.5-0.8-2.8-0.8c-1.5,0-2.3,0.8-2.3,1.8c0,1.1,0.8,1.6,2.6,2.3
			c2.4,0.9,3.6,2.1,3.6,4.1c0,2.4-1.8,4.1-5.1,4.1c-1.5,0-2.9-0.4-3.8-0.9L791.4,534.5z"/>
		<path fill="#333333" d="M805.2,519.6v3.9h3.5v1.9h-3.5v7.3c0,1.7,0.5,2.6,1.8,2.6c0.6,0,1.1-0.1,1.4-0.2l0.1,1.8
			c-0.5,0.2-1.2,0.3-2.2,0.3c-1.1,0-2.1-0.4-2.7-1c-0.7-0.7-1-1.9-1-3.5v-7.4h-2.1v-1.9h2.1v-3.2L805.2,519.6z"/>
		<path fill="#333333" d="M813.4,519.6c0,0.8-0.6,1.5-1.6,1.5c-0.9,0-1.5-0.7-1.5-1.5c0-0.9,0.6-1.5,1.5-1.5
			C812.8,518.1,813.4,518.8,813.4,519.6z M810.6,537v-13.6h2.5V537H810.6z"/>
		<path fill="#333333" d="M826,536.5c-0.6,0.3-2.1,0.8-3.9,0.8c-4.1,0-6.7-2.8-6.7-6.9c0-4.2,2.9-7.2,7.3-7.2c1.5,0,2.7,0.4,3.4,0.7
			l-0.6,1.9c-0.6-0.3-1.5-0.6-2.9-0.6c-3.1,0-4.8,2.3-4.8,5.1c0,3.1,2,5.1,4.7,5.1c1.4,0,2.3-0.4,3-0.7L826,536.5z"/>
		<path fill="#333333" d="M828.1,534.5c0.7,0.5,2,1,3.2,1c1.8,0,2.6-0.9,2.6-2c0-1.2-0.7-1.8-2.5-2.5c-2.4-0.9-3.6-2.2-3.6-3.8
			c0-2.2,1.8-4,4.7-4c1.4,0,2.6,0.4,3.3,0.8l-0.6,1.8c-0.5-0.3-1.5-0.8-2.8-0.8c-1.5,0-2.3,0.8-2.3,1.8c0,1.1,0.8,1.6,2.6,2.3
			c2.4,0.9,3.6,2.1,3.6,4.1c0,2.4-1.8,4.1-5.1,4.1c-1.5,0-2.9-0.4-3.8-0.9L828.1,534.5z"/>
		<path fill="#333333" d="M837.3,540.4c0.6-1.7,1.4-4.6,1.7-6.7l2.7-0.3c-0.6,2.4-1.9,5.5-2.7,6.8L837.3,540.4z"/>
		<path fill="#333333" d="M865.9,528.7c-0.1-2.6-0.3-5.8-0.3-8.1h-0.1c-0.6,2.2-1.4,4.6-2.4,7.2l-3.3,9.2h-1.8l-3.1-9
			c-0.9-2.7-1.7-5.1-2.2-7.3h-0.1c-0.1,2.4-0.2,5.5-0.4,8.3l-0.5,8.1h-2.3l1.3-18.9h3.1l3.2,9.1c0.8,2.3,1.4,4.4,1.9,6.4h0.1
			c0.5-1.9,1.1-4,2-6.4l3.4-9.1h3.1l1.2,18.9h-2.4L865.9,528.7z"/>
		<path fill="#333333" d="M879.2,537l-0.2-1.7H879c-0.8,1.1-2.2,2-4.1,2c-2.7,0-4.1-1.9-4.1-3.9c0-3.3,2.9-5.1,8.1-5v-0.3
			c0-1.1-0.3-3.1-3.1-3.1c-1.3,0-2.6,0.4-3.5,1l-0.6-1.6c1.1-0.7,2.7-1.2,4.5-1.2c4.1,0,5.2,2.8,5.2,5.5v5.1c0,1.2,0.1,2.3,0.2,3.2
			H879.2z M878.9,530.1c-2.7-0.1-5.7,0.4-5.7,3.1c0,1.6,1.1,2.4,2.3,2.4c1.8,0,2.9-1.1,3.3-2.3c0.1-0.3,0.1-0.5,0.1-0.8V530.1z"/>
		<path fill="#333333" d="M884.9,523.4l3,8c0.3,0.9,0.6,2,0.9,2.8h0.1c0.3-0.8,0.5-1.8,0.9-2.8l2.7-8h2.6l-3.7,9.7
			c-1.8,4.6-3,7-4.6,8.5c-1.2,1.1-2.4,1.5-3,1.6l-0.6-2.1c0.6-0.2,1.4-0.6,2.2-1.2c0.7-0.5,1.5-1.5,2.1-2.7c0.1-0.3,0.2-0.4,0.2-0.6
			s-0.1-0.3-0.2-0.6l-5-12.5H884.9z"/>
		<path fill="#333333" d="M901.6,537v-1.5l1.9-1.9c4.6-4.4,6.7-6.8,6.8-9.5c0-1.8-0.9-3.6-3.6-3.6c-1.7,0-3,0.8-3.9,1.5l-0.8-1.7
			c1.3-1.1,3.1-1.8,5.2-1.8c3.9,0,5.6,2.7,5.6,5.3c0,3.4-2.4,6.1-6.3,9.8l-1.5,1.3v0.1h8.2v2H901.6z"/>
		<path fill="#333333" d="M926.9,527.7c0,6.2-2.3,9.6-6.3,9.6c-3.6,0-6-3.3-6-9.4c0-6.1,2.6-9.5,6.3-9.5
			C924.7,518.5,926.9,521.9,926.9,527.7z M917,528c0,4.7,1.5,7.4,3.7,7.4c2.5,0,3.7-2.9,3.7-7.6c0-4.5-1.1-7.4-3.7-7.4
			C918.6,520.4,917,523,917,528z"/>
		<path fill="#333333" d="M927.6,537v-1.5l1.9-1.9c4.6-4.4,6.7-6.8,6.8-9.5c0-1.8-0.9-3.6-3.6-3.6c-1.7,0-3,0.8-3.9,1.5l-0.8-1.7
			c1.3-1.1,3.1-1.8,5.2-1.8c3.9,0,5.6,2.7,5.6,5.3c0,3.4-2.4,6.1-6.3,9.8l-1.5,1.3v0.1h8.2v2H927.6z"/>
		<path fill="#333333" d="M953,527.7c0,6.2-2.3,9.6-6.3,9.6c-3.6,0-6-3.3-6-9.4c0-6.1,2.6-9.5,6.3-9.5
			C950.8,518.5,953,521.9,953,527.7z M943.1,528c0,4.7,1.5,7.4,3.7,7.4c2.5,0,3.7-2.9,3.7-7.6c0-4.5-1.1-7.4-3.7-7.4
			C944.7,520.4,943.1,523,943.1,528z"/>
		<path fill="#333333" d="M954.5,535.5c0-1,0.7-1.8,1.7-1.8c1,0,1.7,0.7,1.7,1.8c0,1-0.6,1.8-1.7,1.8
			C955.2,537.3,954.5,536.6,954.5,535.5z"/>
	</g>
	<g>
		<path fill="#333333" d="M323.1,593v-5h-8.5v-1.6l8.1-11.6h2.7v11.3h2.5v1.9h-2.5v5H323.1z M323.1,586.1V580c0-1,0-1.9,0.1-2.9
			h-0.1c-0.6,1.1-1,1.8-1.5,2.7l-4.5,6.2v0.1H323.1z"/>
		<path fill="#333333" d="M329.2,591.5c0-1,0.7-1.8,1.7-1.8c1,0,1.7,0.7,1.7,1.8c0,1-0.6,1.8-1.7,1.8
			C329.9,593.3,329.2,592.6,329.2,591.5z"/>
	</g>
	<g>
		<path fill="#333333" d="M366.7,592.2c-1.1,0.4-3.2,1-5.8,1c-2.9,0-5.2-0.7-7.1-2.5c-1.6-1.6-2.6-4.1-2.6-7c0-5.6,3.9-9.7,10.2-9.7
			c2.2,0,3.9,0.5,4.7,0.9l-0.6,2c-1-0.4-2.3-0.8-4.2-0.8c-4.6,0-7.6,2.9-7.6,7.6c0,4.8,2.9,7.6,7.3,7.6c1.6,0,2.7-0.2,3.2-0.5V585
			h-3.8v-2h6.2V592.2z"/>
		<path fill="#333333" d="M377.3,593l-0.2-1.7H377c-0.8,1.1-2.2,2-4.1,2c-2.7,0-4.1-1.9-4.1-3.9c0-3.3,2.9-5.1,8.1-5v-0.3
			c0-1.1-0.3-3.1-3.1-3.1c-1.3,0-2.6,0.4-3.5,1l-0.6-1.6c1.1-0.7,2.7-1.2,4.5-1.2c4.1,0,5.2,2.8,5.2,5.5v5.1c0,1.2,0.1,2.3,0.2,3.2
			H377.3z M376.9,586.1c-2.7-0.1-5.7,0.4-5.7,3.1c0,1.6,1.1,2.4,2.3,2.4c1.8,0,2.9-1.1,3.3-2.3c0.1-0.3,0.1-0.5,0.1-0.8V586.1z"/>
		<path fill="#333333" d="M382.5,573.1h2.5V593h-2.5V573.1z"/>
		<path fill="#333333" d="M390.9,575.6c0,0.8-0.6,1.5-1.6,1.5c-0.9,0-1.5-0.7-1.5-1.5c0-0.9,0.6-1.5,1.5-1.5
			C390.3,574.1,390.9,574.8,390.9,575.6z M388.2,593v-13.6h2.5V593H388.2z"/>
		<path fill="#333333" d="M395.4,586.7c0.1,3.3,2.2,4.7,4.6,4.7c1.8,0,2.8-0.3,3.8-0.7l0.4,1.8c-0.9,0.4-2.4,0.8-4.5,0.8
			c-4.2,0-6.7-2.7-6.7-6.8c0-4.1,2.4-7.3,6.4-7.3c4.4,0,5.6,3.9,5.6,6.4c0,0.5-0.1,0.9-0.1,1.1H395.4z M402.6,584.9
			c0-1.6-0.6-4-3.4-4c-2.5,0-3.6,2.3-3.8,4H402.6z M398.5,573.6l2.5,4h-1.8l-3.4-4H398.5z"/>
		<path fill="#333333" d="M413.3,593v-18.9h2.7l6,9.5c1.4,2.2,2.5,4.2,3.4,6.1l0.1,0c-0.2-2.5-0.3-4.8-0.3-7.8v-7.9h2.3V593H425
			l-6-9.6c-1.3-2.1-2.6-4.3-3.5-6.3l-0.1,0c0.1,2.4,0.2,4.6,0.2,7.8v8.1H413.3z"/>
	</g>
	<g>
		<path fill="#333333" d="M445.1,592.2c-1,0.6-2.7,1.1-4.5,1.1c-3.6,0-5.2-2.4-5.2-5.4c0-4.1,3-8.7,7.4-8.7c2.6,0,4,1.5,4,3.5
			c0,3.6-4,4.5-9,4.4c-0.1,0.6,0,1.8,0.3,2.6c0.5,1.2,1.6,1.8,3,1.8c1.6,0,2.8-0.5,3.6-1L445.1,592.2z M442.5,581
			c-2.2,0-3.9,2.2-4.4,4.3c3.6,0,6.5-0.4,6.5-2.5C444.6,581.6,443.7,581,442.5,581z"/>
		<path fill="#333333" d="M453.4,575.8l-0.7,3.6h3.2l-0.4,1.8h-3.2l-1.3,6.6c-0.1,0.8-0.3,1.5-0.3,2.2c0,0.8,0.4,1.3,1.3,1.3
			c0.4,0,0.8,0,1.1-0.1l-0.1,1.8c-0.4,0.2-1.1,0.3-1.8,0.3c-2.1,0-2.9-1.3-2.9-2.6c0-0.8,0.1-1.6,0.3-2.5l1.3-6.9h-2l0.4-1.8h1.9
			l0.6-3.1L453.4,575.8z"/>
		<path fill="#333333" d="M469.4,593c0-0.8,0.1-2.1,0.3-3.5h-0.1c-1.5,2.8-3.3,3.8-5.3,3.8c-2.4,0-3.9-1.9-3.9-4.5
			c0-4.7,3.5-9.7,9.4-9.7c1.3,0,2.7,0.2,3.6,0.5l-1.4,7.1c-0.4,2.4-0.6,4.8-0.6,6.3H469.4z M470.9,581.2c-0.3-0.1-0.8-0.2-1.6-0.2
			c-3.5,0-6.4,3.7-6.4,7.4c0,1.5,0.5,3,2.3,3c1.9,0,4.2-2.5,4.9-6.1L470.9,581.2z"/>
		<path fill="#333333" d="M474.3,593l3.8-19.9h2.3l-3.8,19.9H474.3z"/>
		<path fill="#333333" d="M479.6,591.7c0-1,0.7-1.9,1.8-1.9c1,0,1.6,0.7,1.6,1.7c0,1-0.7,1.8-1.8,1.8
			C480.2,593.3,479.6,592.6,479.6,591.7z"/>
		<path fill="#333333" d="M500.9,584.1h-6.9l-1.3,6.9h7.7l-0.4,2h-10.1l3.6-18.9h9.6l-0.4,2h-7.3l-1.1,6h6.9L500.9,584.1z"/>
		<path fill="#333333" d="M515.2,579.4l-1.8,9.6c-0.3,1.5-0.5,2.8-0.6,3.9h-2.1l0.4-2.5H511c-1.2,1.8-3,2.9-4.8,2.9
			c-1.7,0-3.6-0.8-3.6-3.9c0-0.6,0.1-1.4,0.3-2.3l1.5-7.7h2.3l-1.4,7.6c-0.2,0.8-0.3,1.4-0.3,2c0,1.4,0.6,2.4,2.2,2.4
			c1.7,0,3.8-2,4.4-5l1.3-6.9H515.2z"/>
		<path fill="#333333" d="M516,593l1.7-8.7c0.3-1.8,0.6-3.6,0.7-4.8h2c-0.1,1-0.2,1.9-0.4,2.9h0.1c0.9-1.8,2.3-3.2,4.1-3.2
			c0.2,0,0.5,0,0.6,0.1l-0.4,2.3c-0.1,0-0.4-0.1-0.6-0.1c-2,0-3.8,2.4-4.4,5.6l-1.1,6H516z"/>
		<path fill="#333333" d="M535.2,574.1l-1.5,8h8.7l1.5-8h2.4l-3.6,18.9h-2.3l1.7-8.9h-8.7l-1.7,8.9h-2.3l3.6-18.9H535.2z"/>
		<path fill="#333333" d="M555.8,592.2c-1,0.6-2.7,1.1-4.5,1.1c-3.6,0-5.2-2.4-5.2-5.4c0-4.1,3-8.7,7.4-8.7c2.6,0,4,1.5,4,3.5
			c0,3.6-4,4.5-9,4.4c-0.1,0.6,0,1.8,0.3,2.6c0.5,1.2,1.6,1.8,3,1.8c1.6,0,2.8-0.5,3.6-1L555.8,592.2z M553.2,581
			c-2.2,0-3.9,2.2-4.4,4.3c3.6,0,6.5-0.4,6.5-2.5C555.3,581.6,554.5,581,553.2,581z"/>
		<path fill="#333333" d="M567,593c0-0.8,0.1-2.1,0.3-3.5h-0.1c-1.5,2.8-3.3,3.8-5.3,3.8c-2.4,0-3.9-1.9-3.9-4.5
			c0-4.7,3.5-9.7,9.4-9.7c1.3,0,2.7,0.2,3.6,0.5l-1.4,7.1c-0.4,2.4-0.6,4.8-0.6,6.3H567z M568.5,581.2c-0.3-0.1-0.8-0.2-1.6-0.2
			c-3.5,0-6.4,3.7-6.4,7.4c0,1.5,0.5,3,2.3,3c1.9,0,4.2-2.5,4.9-6.1L568.5,581.2z"/>
		<path fill="#333333" d="M571.9,593l1.7-8.7c0.3-1.8,0.6-3.6,0.7-4.8h2c-0.1,1-0.2,1.9-0.4,2.9h0.1c0.9-1.8,2.3-3.2,4.1-3.2
			c0.2,0,0.5,0,0.6,0.1l-0.4,2.3c-0.1,0-0.4-0.1-0.6-0.1c-2,0-3.8,2.4-4.4,5.6l-1.1,6H571.9z"/>
		<path fill="#333333" d="M586.7,575.8l-0.7,3.6h3.2l-0.4,1.8h-3.2l-1.3,6.6c-0.1,0.8-0.3,1.5-0.3,2.2c0,0.8,0.4,1.3,1.3,1.3
			c0.4,0,0.8,0,1.1-0.1l-0.1,1.8c-0.4,0.2-1.1,0.3-1.8,0.3c-2.1,0-2.9-1.3-2.9-2.6c0-0.8,0.1-1.6,0.3-2.5l1.3-6.9h-2l0.4-1.8h1.9
			l0.6-3.1L586.7,575.8z"/>
		<path fill="#333333" d="M592.6,590.8c0.6,0.3,1.4,0.4,2.4,0.4c2,0,3.2-1,3.9-4.4l2.4-12.7h2.3l-2.5,13c-0.8,4.4-2.7,6.2-6.2,6.2
			c-1.1,0-2.3-0.3-2.8-0.5L592.6,590.8z"/>
	</g>
	<g>
		<path fill="#333333" d="M609.2,593v-1.5l1.9-1.9c4.6-4.4,6.7-6.8,6.8-9.5c0-1.8-0.9-3.6-3.6-3.6c-1.7,0-3,0.8-3.9,1.5l-0.8-1.7
			c1.3-1.1,3.1-1.8,5.2-1.8c3.9,0,5.6,2.7,5.6,5.3c0,3.4-2.4,6.1-6.3,9.8l-1.5,1.3v0.1h8.2v2H609.2z"/>
		<path fill="#333333" d="M634.5,583.7c0,6.2-2.3,9.6-6.3,9.6c-3.6,0-6-3.3-6-9.4c0-6.1,2.6-9.5,6.3-9.5
			C632.4,574.5,634.5,577.9,634.5,583.7z M624.7,584c0,4.7,1.5,7.4,3.7,7.4c2.5,0,3.7-2.9,3.7-7.6c0-4.5-1.1-7.4-3.7-7.4
			C626.2,576.4,624.7,579,624.7,584z"/>
		<path fill="#333333" d="M640.1,577.1L640.1,577.1l-3.2,1.7l-0.5-1.9l4-2.1h2.1V593h-2.4V577.1z"/>
		<path fill="#333333" d="M657.3,576.5c-0.5,0-1.1,0-1.8,0.1c-3.9,0.6-5.9,3.5-6.3,6.5h0.1c0.9-1.1,2.4-2.1,4.4-2.1
			c3.2,0,5.5,2.3,5.5,5.9c0,3.3-2.3,6.4-6,6.4c-3.9,0-6.4-3-6.4-7.8c0-3.6,1.3-6.4,3.1-8.2c1.5-1.5,3.5-2.4,5.8-2.7
			c0.7-0.1,1.3-0.1,1.8-0.1V576.5z M656.6,587c0-2.6-1.5-4.2-3.8-4.2c-1.5,0-2.9,0.9-3.5,2.2c-0.2,0.3-0.3,0.6-0.3,1.1
			c0.1,3,1.4,5.2,4,5.2C655.1,591.4,656.6,589.6,656.6,587z"/>
		<path fill="#333333" d="M659.4,596.4c0.6-1.7,1.4-4.6,1.7-6.7l2.7-0.3c-0.7,2.4-1.9,5.5-2.7,6.8L659.4,596.4z M660.6,581.7
			c0-1,0.7-1.8,1.7-1.8c1,0,1.7,0.7,1.7,1.8c0,1-0.6,1.7-1.7,1.7C661.3,583.4,660.6,582.7,660.6,581.7z"/>
		<path fill="#333333" d="M671.7,590.2c0.7,0.4,2.3,1.1,4,1.1c3.2,0,4.1-2,4.1-3.5c0-2.5-2.3-3.6-4.7-3.6h-1.4v-1.8h1.4
			c1.8,0,4.1-0.9,4.1-3.1c0-1.5-0.9-2.7-3.2-2.7c-1.5,0-2.9,0.6-3.6,1.2l-0.6-1.8c1-0.7,2.8-1.4,4.8-1.4c3.6,0,5.2,2.1,5.2,4.3
			c0,1.9-1.1,3.5-3.4,4.3v0.1c2.2,0.4,4.1,2.1,4.1,4.7c0,2.9-2.3,5.5-6.6,5.5c-2,0-3.8-0.6-4.7-1.2L671.7,590.2z"/>
		<path fill="#333333" d="M695.5,574.8v1.6l-7.9,16.6h-2.5l7.9-16.1v-0.1h-8.9v-2H695.5z"/>
		<path fill="#333333" d="M702.3,573.6c-2,2.7-3.5,6.4-3.5,11.5c0,5,1.5,8.6,3.5,11.4h-1.9c-1.8-2.3-3.7-5.9-3.7-11.4
			c0-5.5,1.9-9.1,3.7-11.5H702.3z"/>
		<path fill="#333333" d="M707.2,577.1L707.2,577.1l-3.2,1.7l-0.5-1.9l4-2.1h2.1V593h-2.4V577.1z"/>
		<path fill="#333333" d="M712.6,596.4c2-2.8,3.5-6.4,3.5-11.5c0-5-1.5-8.6-3.5-11.4h1.9c1.8,2.3,3.7,5.9,3.7,11.4
			c0,5.5-1.9,9-3.7,11.4H712.6z"/>
		<path fill="#333333" d="M720.2,581.7c0-1,0.7-1.8,1.7-1.8c1,0,1.6,0.7,1.7,1.8c0,1-0.6,1.7-1.7,1.7
			C720.9,583.4,720.2,582.7,720.2,581.7z M720.2,591.6c0-1,0.7-1.8,1.7-1.8c1,0,1.6,0.7,1.7,1.8c0,1-0.6,1.7-1.7,1.7
			C720.9,593.3,720.2,592.6,720.2,591.6z"/>
		<path fill="#333333" d="M735.7,576.5c-0.5,0-1.1,0-1.8,0.1c-3.9,0.6-5.9,3.5-6.3,6.5h0.1c0.9-1.1,2.4-2.1,4.4-2.1
			c3.2,0,5.5,2.3,5.5,5.9c0,3.3-2.3,6.4-6,6.4c-3.9,0-6.4-3-6.4-7.8c0-3.6,1.3-6.4,3.1-8.2c1.5-1.5,3.5-2.4,5.8-2.7
			c0.7-0.1,1.3-0.1,1.8-0.1V576.5z M735,587c0-2.6-1.5-4.2-3.8-4.2c-1.5,0-2.9,0.9-3.5,2.2c-0.2,0.3-0.3,0.6-0.3,1.1
			c0.1,3,1.4,5.2,4,5.2C733.6,591.4,735,589.6,735,587z"/>
		<path fill="#333333" d="M749.8,574.8v1.6l-7.9,16.6h-2.5l7.9-16.1v-0.1h-8.9v-2H749.8z"/>
		<path fill="#333333" d="M762.2,585v1.7h-12.3V585H762.2z"/>
		<path fill="#333333" d="M767.1,577.1L767.1,577.1l-3.2,1.7l-0.5-1.9l4-2.1h2.1V593h-2.4V577.1z"/>
		<path fill="#333333" d="M777.7,577.1L777.7,577.1l-3.2,1.7l-0.5-1.9l4-2.1h2.1V593h-2.4V577.1z"/>
		<path fill="#333333" d="M785.6,591.3c0.5,0.1,1.1,0,2-0.1c1.4-0.2,2.8-0.8,3.8-1.8c1.2-1.1,2.1-2.7,2.4-4.8h-0.1
			c-1,1.2-2.5,2-4.3,2c-3.3,0-5.4-2.5-5.4-5.6c0-3.4,2.5-6.5,6.2-6.5c3.7,0,6,3,6,7.7c0,4-1.3,6.8-3.1,8.5c-1.4,1.4-3.3,2.2-5.3,2.4
			c-0.9,0.1-1.7,0.2-2.3,0.1V591.3z M786.5,580.8c0,2.3,1.4,3.9,3.5,3.9c1.7,0,2.9-0.8,3.6-1.9c0.1-0.2,0.2-0.5,0.2-0.9
			c0-3.1-1.1-5.5-3.7-5.5C788,576.4,786.5,578.2,786.5,580.8z"/>
		<path fill="#333333" d="M797.1,591.5c0-1,0.7-1.8,1.7-1.8c1,0,1.7,0.7,1.7,1.8c0,1-0.6,1.8-1.7,1.8
			C797.7,593.3,797.1,592.6,797.1,591.5z"/>
	</g>
	<g>
		<path fill="#333333" d="M326.4,632.9h-6.9l-0.7,4.7c0.4-0.1,0.8-0.1,1.5-0.1c1.4,0,2.8,0.3,3.9,1c1.4,0.8,2.6,2.4,2.6,4.7
			c0,3.6-2.8,6.2-6.8,6.2c-2,0-3.7-0.6-4.5-1.1l0.6-1.9c0.8,0.4,2.2,1,3.9,1c2.3,0,4.3-1.5,4.3-3.9c0-2.4-1.6-4-5.2-4
			c-1,0-1.8,0.1-2.5,0.2l1.2-8.7h8.7V632.9z"/>
		<path fill="#333333" d="M328.9,647.5c0-1,0.7-1.8,1.7-1.8c1,0,1.7,0.7,1.7,1.8c0,1-0.6,1.8-1.7,1.8
			C329.6,649.3,328.9,648.6,328.9,647.5z"/>
	</g>
	<g>
		<path fill="#333333" d="M366.8,648.2c-1.1,0.4-3.2,1-5.8,1c-2.9,0-5.2-0.7-7.1-2.5c-1.6-1.6-2.6-4.1-2.6-7c0-5.6,3.9-9.7,10.2-9.7
			c2.2,0,3.9,0.5,4.7,0.9l-0.6,2c-1-0.4-2.3-0.8-4.2-0.8c-4.6,0-7.6,2.9-7.6,7.6c0,4.8,2.9,7.6,7.3,7.6c1.6,0,2.7-0.2,3.2-0.5V641
			h-3.8v-2h6.2V648.2z"/>
		<path fill="#333333" d="M377.3,649l-0.2-1.7H377c-0.8,1.1-2.2,2-4.1,2c-2.7,0-4.1-1.9-4.1-3.9c0-3.3,2.9-5.1,8.1-5v-0.3
			c0-1.1-0.3-3.1-3.1-3.1c-1.3,0-2.6,0.4-3.5,1l-0.6-1.6c1.1-0.7,2.7-1.2,4.5-1.2c4.1,0,5.2,2.8,5.2,5.5v5.1c0,1.2,0.1,2.3,0.2,3.2
			H377.3z M377,642.1c-2.7-0.1-5.7,0.4-5.7,3.1c0,1.6,1.1,2.4,2.3,2.4c1.8,0,2.9-1.1,3.3-2.3c0.1-0.3,0.1-0.5,0.1-0.8V642.1z"/>
		<path fill="#333333" d="M382.5,629.1h2.5V649h-2.5V629.1z"/>
		<path fill="#333333" d="M391,631.6c0,0.8-0.6,1.5-1.6,1.5c-0.9,0-1.5-0.7-1.5-1.5c0-0.9,0.6-1.5,1.5-1.5
			C390.4,630.1,391,630.8,391,631.6z M388.2,649v-13.6h2.5V649H388.2z"/>
		<path fill="#333333" d="M395.4,642.7c0.1,3.3,2.2,4.7,4.6,4.7c1.8,0,2.8-0.3,3.8-0.7l0.4,1.8c-0.9,0.4-2.4,0.8-4.5,0.8
			c-4.2,0-6.7-2.7-6.7-6.8c0-4.1,2.4-7.3,6.4-7.3c4.4,0,5.6,3.9,5.6,6.4c0,0.5-0.1,0.9-0.1,1.1H395.4z M402.6,640.9
			c0-1.6-0.6-4-3.4-4c-2.5,0-3.6,2.3-3.8,4H402.6z M398.5,629.6l2.5,4h-1.8l-3.4-4H398.5z"/>
		<path fill="#333333" d="M413.3,649v-18.9h2.7l6,9.5c1.4,2.2,2.5,4.2,3.4,6.1l0.1,0c-0.2-2.5-0.3-4.8-0.3-7.8v-7.9h2.3V649H425
			l-6-9.6c-1.3-2.1-2.6-4.3-3.5-6.3l-0.1,0c0.1,2.4,0.2,4.6,0.2,7.8v8.1H413.3z"/>
	</g>
	<g>
		<path fill="#333333" d="M445.1,648.2c-1,0.6-2.7,1.1-4.5,1.1c-3.6,0-5.2-2.4-5.2-5.4c0-4.1,3-8.7,7.4-8.7c2.6,0,4,1.5,4,3.5
			c0,3.6-4,4.5-9,4.4c-0.1,0.6,0,1.8,0.3,2.6c0.5,1.2,1.6,1.8,3,1.8c1.6,0,2.8-0.5,3.6-1L445.1,648.2z M442.5,637
			c-2.2,0-3.9,2.2-4.4,4.3c3.6,0,6.5-0.4,6.5-2.5C444.6,637.6,443.8,637,442.5,637z"/>
		<path fill="#333333" d="M453.4,631.8l-0.7,3.6h3.2l-0.4,1.8h-3.2l-1.3,6.6c-0.1,0.8-0.3,1.5-0.3,2.2c0,0.8,0.4,1.3,1.3,1.3
			c0.4,0,0.8,0,1.1-0.1l-0.1,1.8c-0.4,0.2-1.1,0.3-1.8,0.3c-2.1,0-2.9-1.3-2.9-2.6c0-0.8,0.1-1.6,0.3-2.5l1.3-6.9h-2l0.4-1.8h1.9
			l0.6-3.1L453.4,631.8z"/>
		<path fill="#333333" d="M469.4,649c0-0.8,0.1-2.1,0.3-3.5h-0.1c-1.5,2.8-3.3,3.8-5.3,3.8c-2.4,0-3.9-1.9-3.9-4.5
			c0-4.7,3.5-9.7,9.4-9.7c1.3,0,2.7,0.2,3.6,0.5l-1.4,7.1c-0.4,2.4-0.6,4.8-0.6,6.3H469.4z M470.9,637.2c-0.3-0.1-0.8-0.2-1.6-0.2
			c-3.5,0-6.4,3.7-6.4,7.4c0,1.5,0.5,3,2.3,3c1.9,0,4.2-2.5,4.9-6.1L470.9,637.2z"/>
		<path fill="#333333" d="M474.3,649l3.8-19.9h2.3l-3.8,19.9H474.3z"/>
		<path fill="#333333" d="M479.6,647.7c0-1,0.7-1.9,1.8-1.9c1,0,1.6,0.7,1.6,1.7c0,1-0.7,1.8-1.8,1.8
			C480.2,649.3,479.6,648.6,479.6,647.7z"/>
		<path fill="#333333" d="M500.9,640.1h-6.9l-1.3,6.9h7.7l-0.4,2h-10.1l3.6-18.9h9.6l-0.4,2h-7.3l-1.1,6h6.9L500.9,640.1z"/>
		<path fill="#333333" d="M515.3,635.4l-1.8,9.6c-0.3,1.5-0.5,2.8-0.6,3.9h-2.1l0.4-2.5H511c-1.2,1.8-3,2.9-4.8,2.9
			c-1.7,0-3.6-0.8-3.6-3.9c0-0.6,0.1-1.4,0.3-2.3l1.5-7.7h2.3l-1.4,7.6c-0.2,0.8-0.3,1.4-0.3,2c0,1.4,0.6,2.4,2.2,2.4
			c1.7,0,3.8-2,4.4-5l1.3-6.9H515.3z"/>
		<path fill="#333333" d="M516,649l1.7-8.7c0.3-1.8,0.6-3.6,0.7-4.8h2c-0.1,1-0.2,1.9-0.4,2.9h0.1c0.9-1.8,2.3-3.2,4.1-3.2
			c0.2,0,0.5,0,0.6,0.1l-0.4,2.3c-0.1,0-0.4-0.1-0.6-0.1c-2,0-3.8,2.4-4.4,5.6l-1.1,6H516z"/>
		<path fill="#333333" d="M532.9,630.4c1.1-0.3,2.7-0.4,4.1-0.4c1.9,0,3.5,0.4,4.5,1.4c0.9,0.8,1.4,1.8,1.4,3.1
			c0,2.7-2.1,4.8-4.5,5.5l0,0.1c1.3,0.4,2,1.8,2.1,3.8c0.2,2.6,0.3,4.4,0.6,5.2h-2.4c-0.1-0.4-0.3-2.4-0.4-4.6
			c-0.1-2.6-1.1-3.7-3-3.7h-2.1l-1.5,8.2h-2.3L532.9,630.4z M533.5,639h2.1c2.9,0,4.8-1.9,4.8-4.2c0-2-1.5-2.9-3.6-2.9
			c-0.9,0-1.5,0.1-2,0.2L533.5,639z"/>
		<path fill="#333333" d="M552.8,648.2c-1,0.6-2.7,1.1-4.5,1.1c-3.6,0-5.2-2.4-5.2-5.4c0-4.1,3-8.7,7.4-8.7c2.6,0,4,1.5,4,3.5
			c0,3.6-4,4.5-9,4.4c-0.1,0.6,0,1.8,0.3,2.6c0.5,1.2,1.6,1.8,3,1.8c1.6,0,2.8-0.5,3.6-1L552.8,648.2z M550.3,637
			c-2.2,0-3.9,2.2-4.4,4.3c3.6,0,6.5-0.4,6.5-2.5C552.3,637.6,551.5,637,550.3,637z"/>
		<path fill="#333333" d="M555,646.6c0.6,0.4,1.8,0.8,2.9,0.8c1.6,0,2.6-1,2.6-2.2c0-1.1-0.5-1.7-1.9-2.5c-1.6-0.9-2.4-2.1-2.4-3.4
			c0-2.4,2-4.2,4.9-4.2c1.2,0,2.3,0.3,2.8,0.7l-0.6,1.8c-0.5-0.3-1.3-0.6-2.4-0.6c-1.4,0-2.4,0.9-2.4,2c0,1,0.6,1.6,1.8,2.3
			c1.5,0.9,2.5,2,2.5,3.6c0,2.9-2.3,4.5-5.2,4.5c-1.5,0-2.7-0.4-3.4-0.9L555,646.6z"/>
		<path fill="#333333" d="M563.1,654.5l2.7-14.3c0.3-1.6,0.6-3.4,0.8-4.8h2.1l-0.4,2.5h0.1c1.2-1.8,3-2.9,4.9-2.9
			c2.9,0,4.2,2.4,4.2,4.9c0,4.8-3.4,9.3-7.9,9.3c-1.5,0-2.4-0.3-2.9-0.6h-0.1l-1.1,5.9H563.1z M566.9,646.7c0.6,0.5,1.5,0.8,2.6,0.8
			c3,0,5.5-3.7,5.5-7.3c0-1.4-0.6-3.1-2.6-3.1c-1.8,0-4.1,2.1-4.8,5.9L566.9,646.7z"/>
		<path fill="#333333" d="M578.2,649l2.6-13.6h2.3l-2.6,13.6H578.2z M581.3,631.7c0-0.9,0.7-1.6,1.5-1.6c0.8,0,1.4,0.6,1.4,1.5
			c0,0.9-0.7,1.6-1.6,1.6C581.8,633.1,581.3,632.5,581.3,631.7z"/>
		<path fill="#333333" d="M583.8,649l1.7-8.7c0.3-1.8,0.6-3.6,0.7-4.8h2c-0.1,1-0.2,1.9-0.4,2.9h0.1c0.9-1.8,2.3-3.2,4.1-3.2
			c0.2,0,0.5,0,0.6,0.1l-0.4,2.3c-0.1,0-0.4-0.1-0.6-0.1c-2,0-3.8,2.4-4.4,5.6l-1.1,6H583.8z"/>
		<path fill="#333333" d="M595.9,646.8c0.6,0.3,1.4,0.4,2.4,0.4c2,0,3.2-1,3.9-4.4l2.4-12.7h2.3l-2.5,13c-0.8,4.4-2.7,6.2-6.2,6.2
			c-1.1,0-2.3-0.3-2.8-0.5L595.9,646.8z"/>
	</g>
	<g>
		<path fill="#333333" d="M612.6,649v-1.5l1.9-1.9c4.6-4.4,6.7-6.8,6.8-9.5c0-1.8-0.9-3.6-3.6-3.6c-1.7,0-3,0.8-3.9,1.5l-0.8-1.7
			c1.3-1.1,3.1-1.8,5.2-1.8c3.9,0,5.6,2.7,5.6,5.3c0,3.4-2.4,6.1-6.3,9.8l-1.5,1.3v0.1h8.2v2H612.6z"/>
		<path fill="#333333" d="M637.9,639.7c0,6.2-2.3,9.6-6.3,9.6c-3.6,0-6-3.3-6-9.4c0-6.1,2.6-9.5,6.3-9.5
			C635.7,630.5,637.9,633.9,637.9,639.7z M628,640c0,4.7,1.5,7.4,3.7,7.4c2.5,0,3.7-2.9,3.7-7.6c0-4.5-1.1-7.4-3.7-7.4
			C629.6,632.4,628,635,628,640z"/>
		<path fill="#333333" d="M643.5,633.1L643.5,633.1l-3.2,1.7l-0.5-1.9l4-2.1h2.1V649h-2.4V633.1z"/>
		<path fill="#333333" d="M651.3,647.3c0.5,0.1,1.1,0,2-0.1c1.4-0.2,2.8-0.8,3.8-1.8c1.2-1.1,2.1-2.7,2.4-4.8h-0.1
			c-1,1.2-2.5,2-4.3,2c-3.3,0-5.4-2.5-5.4-5.6c0-3.4,2.5-6.5,6.2-6.5c3.7,0,6,3,6,7.7c0,4-1.3,6.8-3.1,8.5c-1.4,1.4-3.3,2.2-5.3,2.4
			c-0.9,0.1-1.7,0.2-2.3,0.1V647.3z M652.2,636.8c0,2.3,1.4,3.9,3.5,3.9c1.7,0,2.9-0.8,3.6-1.9c0.1-0.2,0.2-0.5,0.2-0.9
			c0-3.1-1.1-5.5-3.7-5.5C653.7,632.4,652.2,634.2,652.2,636.8z"/>
		<path fill="#333333" d="M662.6,652.4c0.6-1.7,1.4-4.6,1.7-6.7l2.7-0.3c-0.7,2.4-1.9,5.5-2.7,6.8L662.6,652.4z M663.8,637.7
			c0-1,0.7-1.8,1.7-1.8c1,0,1.7,0.7,1.7,1.8c0,1-0.6,1.7-1.7,1.7C664.5,639.4,663.8,638.7,663.8,637.7z"/>
		<path fill="#333333" d="M685.2,632.9h-6.9l-0.7,4.7c0.4-0.1,0.8-0.1,1.5-0.1c1.4,0,2.8,0.3,3.9,1c1.4,0.8,2.6,2.4,2.6,4.7
			c0,3.6-2.8,6.2-6.8,6.2c-2,0-3.7-0.6-4.5-1.1l0.6-1.9c0.8,0.4,2.2,1,3.9,1c2.3,0,4.3-1.5,4.3-3.9c0-2.4-1.6-4-5.2-4
			c-1,0-1.8,0.1-2.5,0.2l1.2-8.7h8.7V632.9z"/>
		<path fill="#333333" d="M687.7,646.2c0.7,0.4,2.3,1.1,4,1.1c3.2,0,4.1-2,4.1-3.5c0-2.5-2.3-3.6-4.7-3.6h-1.4v-1.8h1.4
			c1.8,0,4.1-0.9,4.1-3.1c0-1.5-0.9-2.7-3.2-2.7c-1.5,0-2.9,0.6-3.6,1.2l-0.6-1.8c1-0.7,2.8-1.4,4.8-1.4c3.6,0,5.2,2.1,5.2,4.3
			c0,1.9-1.1,3.5-3.4,4.3v0.1c2.2,0.4,4.1,2.1,4.1,4.7c0,2.9-2.3,5.5-6.6,5.5c-2,0-3.8-0.6-4.7-1.2L687.7,646.2z"/>
		<path fill="#333333" d="M706.4,629.6c-2,2.7-3.5,6.4-3.5,11.5c0,5,1.5,8.6,3.5,11.4h-1.9c-1.8-2.3-3.7-5.9-3.7-11.4
			c0-5.5,1.9-9.1,3.7-11.5H706.4z"/>
		<path fill="#333333" d="M711.3,633.1L711.3,633.1l-3.2,1.7l-0.5-1.9l4-2.1h2.1V649h-2.4V633.1z"/>
		<path fill="#333333" d="M716.7,652.4c2-2.8,3.5-6.4,3.5-11.5c0-5-1.5-8.6-3.5-11.4h1.9c1.8,2.3,3.7,5.9,3.7,11.4
			c0,5.5-1.9,9-3.7,11.4H716.7z"/>
		<path fill="#333333" d="M724.3,637.7c0-1,0.7-1.8,1.7-1.8c1,0,1.6,0.7,1.7,1.8c0,1-0.6,1.7-1.7,1.7
			C725,639.4,724.3,638.7,724.3,637.7z M724.3,647.6c0-1,0.7-1.8,1.7-1.8c1,0,1.6,0.7,1.7,1.8c0,1-0.6,1.7-1.7,1.7
			C725,649.3,724.3,648.6,724.3,647.6z"/>
		<path fill="#333333" d="M732.6,633.1L732.6,633.1l-3.2,1.7l-0.5-1.9l4-2.1h2.1V649h-2.4V633.1z"/>
		<path fill="#333333" d="M739.1,644.4c0-2.3,1.4-3.9,3.6-4.9l0-0.1c-2-1-2.9-2.5-2.9-4.1c0-2.9,2.4-4.8,5.6-4.8
			c3.5,0,5.3,2.2,5.3,4.5c0,1.5-0.8,3.2-3,4.3v0.1c2.3,0.9,3.7,2.5,3.7,4.7c0,3.2-2.7,5.3-6.2,5.3
			C741.4,649.3,739.1,647,739.1,644.4z M748.9,644.3c0-2.2-1.5-3.3-4-4c-2.1,0.6-3.3,2-3.3,3.8c-0.1,1.8,1.3,3.5,3.6,3.5
			C747.5,647.5,748.9,646.1,748.9,644.3z M742.2,635.2c0,1.8,1.4,2.8,3.5,3.4c1.6-0.5,2.8-1.7,2.8-3.3c0-1.5-0.9-3-3.1-3
			C743.3,632.3,742.2,633.6,742.2,635.2z"/>
		<path fill="#333333" d="M765.3,639.7c0,6.2-2.3,9.6-6.3,9.6c-3.6,0-6-3.3-6-9.4c0-6.1,2.6-9.5,6.3-9.5
			C763.1,630.5,765.3,633.9,765.3,639.7z M755.4,640c0,4.7,1.5,7.4,3.7,7.4c2.5,0,3.7-2.9,3.7-7.6c0-4.5-1.1-7.4-3.7-7.4
			C756.9,632.4,755.4,635,755.4,640z"/>
		<path fill="#333333" d="M770.8,633.1L770.8,633.1l-3.2,1.7l-0.5-1.9l4-2.1h2.1V649h-2.4V633.1z"/>
		<path fill="#333333" d="M777.3,644.4c0-2.3,1.4-3.9,3.6-4.9l0-0.1c-2-1-2.9-2.5-2.9-4.1c0-2.9,2.4-4.8,5.6-4.8
			c3.5,0,5.3,2.2,5.3,4.5c0,1.5-0.8,3.2-3,4.3v0.1c2.3,0.9,3.7,2.5,3.7,4.7c0,3.2-2.7,5.3-6.2,5.3
			C779.6,649.3,777.3,647,777.3,644.4z M787.1,644.3c0-2.2-1.5-3.3-4-4c-2.1,0.6-3.3,2-3.3,3.8c-0.1,1.8,1.3,3.5,3.6,3.5
			C785.7,647.5,787.1,646.1,787.1,644.3z M780.4,635.2c0,1.8,1.4,2.8,3.5,3.4c1.6-0.5,2.8-1.7,2.8-3.3c0-1.5-0.9-3-3.1-3
			C781.5,632.3,780.4,633.6,780.4,635.2z"/>
		<path fill="#333333" d="M791.1,644.4c0-2.3,1.4-3.9,3.6-4.9l0-0.1c-2-1-2.9-2.5-2.9-4.1c0-2.9,2.4-4.8,5.6-4.8
			c3.5,0,5.3,2.2,5.3,4.5c0,1.5-0.8,3.2-3,4.3v0.1c2.3,0.9,3.7,2.5,3.7,4.7c0,3.2-2.7,5.3-6.2,5.3
			C793.4,649.3,791.1,647,791.1,644.4z M800.9,644.3c0-2.2-1.5-3.3-4-4c-2.1,0.6-3.3,2-3.3,3.8c-0.1,1.8,1.3,3.5,3.6,3.5
			C799.5,647.5,800.9,646.1,800.9,644.3z M794.2,635.2c0,1.8,1.4,2.8,3.5,3.4c1.6-0.5,2.8-1.7,2.8-3.3c0-1.5-0.9-3-3.1-3
			C795.3,632.3,794.2,633.6,794.2,635.2z"/>
		<path fill="#333333" d="M806.1,647.3c0.5,0.1,1.1,0,2-0.1c1.4-0.2,2.8-0.8,3.8-1.8c1.2-1.1,2.1-2.7,2.4-4.8h-0.1
			c-1,1.2-2.5,2-4.3,2c-3.3,0-5.4-2.5-5.4-5.6c0-3.4,2.5-6.5,6.2-6.5c3.7,0,6,3,6,7.7c0,4-1.3,6.8-3.1,8.5c-1.4,1.4-3.3,2.2-5.3,2.4
			c-0.9,0.1-1.7,0.2-2.3,0.1V647.3z M807,636.8c0,2.3,1.4,3.9,3.5,3.9c1.7,0,2.9-0.8,3.6-1.9c0.1-0.2,0.2-0.5,0.2-0.9
			c0-3.1-1.1-5.5-3.7-5.5C808.5,632.4,807,634.2,807,636.8z"/>
		<path fill="#333333" d="M817.6,647.5c0-1,0.7-1.8,1.7-1.8c1,0,1.7,0.7,1.7,1.8c0,1-0.6,1.8-1.7,1.8
			C818.3,649.3,817.6,648.6,817.6,647.5z"/>
	</g>
</g>
</svg>
