<?xml version="1.0" encoding="utf-8"?>
<!-- Generator: Adobe Illustrator 24.2.0, SVG Export Plug-In . SVG Version: 6.00 Build 0)  -->
<svg version="1.1" id="Layer_1" xmlns="http://www.w3.org/2000/svg" xmlns:xlink="http://www.w3.org/1999/xlink" x="0px" y="0px"
	 width="2048px" height="1536px" viewBox="0 0 2048 1536" enable-background="new 0 0 2048 1536" xml:space="preserve">
<g id="pi-btn-close">
	<polygon fill="#5160AB" points="1511.9,1060.9 1511.9,1157.1 1511.9,1158.9 1513.8,1158.9 1947.3,1158.9 1949.1,1158.9 
		1949.1,1157.1 1949.1,1060.8 1949.1,1059 1947.3,1059 1513.7,1059 1511.8,1059 	"/>
	<polygon fill="none" stroke="#FFFFFF" stroke-width="3.7" points="1511.9,1060.9 1511.9,1157.1 1511.9,1158.9 1513.8,1158.9 
		1947.3,1158.9 1949.1,1158.9 1949.1,1157.1 1949.1,1060.8 1949.1,1059 1947.3,1059 1513.7,1059 1511.8,1059 	"/>
	<path fill="#FFFFFF" d="M1817.7,1114.9c0.2,3.1-1.6,4.5-3.7,5.1l0,0c-0.8,0.2-2,0.3-3,0.3s-2.1-0.1-2.9-0.3c-2-0.6-3.8-2.1-3.8-4.3
		v-12.1c0-2.5,2-3.9,4.4-4.4c0.8-0.2,1.6-0.2,2.3-0.2c1.1,0,2.3,0.1,3.2,0.4c2,0.7,3.6,2.1,3.4,5h-3c0-1.3-0.2-1.8-1.3-2.2l-0.3-0.1
		c-0.6-0.1-1.2-0.2-2-0.2c-0.6,0-1.3,0-1.8,0.1c-1,0.2-2,0.7-2,1.4v12.1c0,0.6,0.7,1.1,1.6,1.3c0.6,0.2,1.4,0.2,2.1,0.2
		c0.8,0,1.5-0.1,2.1-0.2c0.8-0.2,1.5-0.7,1.5-2.1L1817.7,1114.9z"/>
	<path fill="#FFFFFF" d="M1831.3,1117.3v2.9h-4.8c-3.1,0-6-1.3-6-4.9v-14l2.9-2v16c0,1.5,1.7,2,3.1,2H1831.3z"/>
	<path fill="#FFFFFF" d="M1833.6,1103.5c0-2.9,3.3-4.4,6.6-4.4c3.3,0,6.6,1.5,6.6,4.4v12.5c0,3-3.3,4.5-6.6,4.5
		c-3.3,0-6.6-1.5-6.6-4.5V1103.5z M1844,1116.2v-0.4v-12.3c0-1.2-1.9-1.7-3.8-1.7s-3.8,0.5-3.8,1.7v12.3c0,0.2,0,0.4,0.1,0.5
		c0.3,0.9,2,1.3,3.7,1.3s3.4-0.4,3.7-1.3L1844,1116.2z"/>
	<path fill="#FFFFFF" d="M1859,1104c0.1-1.8-1.7-2.4-2.9-2.4c-1.2,0-2.4,0.1-3.2,0.9c-0.5,0.5-0.6,1.5-0.6,2.3
		c0,0.7,0.2,1.3,0.6,1.7c0.7,0.8,2,1.2,3.3,1.5c3.6,0.9,6.5,2.5,6.5,6.8c0,1.9-0.6,3.4-1.8,4.4c-1.2,1-3.2,1.4-4.9,1.4
		c-1.1,0-2.1-0.1-3.1-0.3c-2.1-0.4-3.6-2-3.4-5.2h2.8c0,1,0.1,2.2,1.5,2.5c0.7,0.2,1.4,0.2,2.1,0.2c1,0,2.1-0.1,2.9-0.8
		c0.7-0.5,0.9-1.3,0.9-2.3c0-2.5-2.3-3.6-4.3-4.1c-1.7-0.5-3.5-1-4.6-2.2c-0.9-1-1.3-2.3-1.3-3.7c0-1.6,0-3,1.5-4.2
		c1.1-1.1,3.2-1.6,5-1.6c2.1,0,5.8,1.5,5.7,5.1L1859,1104z"/>
	<path fill="#FFFFFF" d="M1868,1108.2h8.9v3.1h-8.9c0,0.6,0,1.3,0,2.1c0,1.3,0,2.5,0.1,2.6c0.3,0.9,1.9,1.2,2.9,1.2h5.9v3.1h-5.9
		c-2.8,0-6-1.3-6-4.5v-16.5h11.9v3h-8.9V1108.2z"/>
	<polygon fill="#FFFFFF" points="1896.4,1096.9 1893,1100.2 1901.9,1109.1 1892.7,1118.3 1896,1121.6 1905.2,1112.4 1914.2,1121.3 
		1917.5,1118 1908.6,1109.1 1918,1099.6 1914.7,1096.3 1905.2,1105.7 	"/>
</g>
<g id="pi-btn-veletri">
	
		<rect x="1704" y="1360.1" transform="matrix(0.7071 -0.7071 0.7071 0.7071 -473.4013 1629.275)" fill="#FFFFFF" width="52" height="52"/>
	<polygon fill="#FFFFFF" points="1951,1400.5 1951,1320.5 1510,1320.5 1510,1400.5 1703.5,1400.5 	"/>
	
		<rect x="1704" y="1360.1" transform="matrix(0.7071 -0.7071 0.7071 0.7071 -473.4013 1629.275)" fill="#FFFFFF" width="52" height="52"/>
	<g>
		<g>
			<path fill="#5160AB" d="M1593.9,1371.5l-5.3-4.7c-1.2-1.1-1.5-2.1-1.5-3.5v-13.5l3.3-2.3v15.8c0,0.5,0,0.7,0.4,1l0,0l3.9,3.5
				l3.9-3.5c0.2-0.3,0.3-0.5,0.3-1v-15.9h3.3v15.9c0,1.4-0.3,2.4-1.5,3.5l-5.3,4.7H1593.9z"/>
			<path fill="#5160AB" d="M1607.6,1357.6h10.1v3.5h-10.1c0,0.6,0,1.5,0,2.3c0,1.4,0,2.8,0.1,3c0.3,1,2.1,1.4,3.3,1.4h6.7v3.5h-6.7
				c-3.1,0-6.8-1.5-6.8-5.1v-18.7h13.5v3.4h-10.1V1357.6z"/>
			<path fill="#5160AB" d="M1632.1,1368v3.3h-5.4c-3.5,0-6.8-1.5-6.8-5.6v-15.9l3.3-2.3v18.2c0,1.7,2,2.3,3.6,2.3H1632.1z"/>
			<path fill="#5160AB" d="M1637.1,1357.6h10.1v3.5h-10.1c0,0.6,0,1.5,0,2.3c0,1.4,0,2.8,0.1,3c0.3,1,2.1,1.4,3.3,1.4h6.7v3.5h-6.7
				c-3.1,0-6.8-1.5-6.8-5.1v-18.7h13.5v3.4h-10.1V1357.6z"/>
			<path fill="#5160AB" d="M1650.7,1347.5h13.9v3h-6c0,6.8-0.1,14-0.1,20.8h-3.3l0.1-20.8h-6.8L1650.7,1347.5z"/>
			<path fill="#5160AB" d="M1670.4,1362.8v8.5h-3.2v-23.8h6.8c0.8,0,6.7,0.1,6.7,5.1v5.3c0,1.5-0.7,2.7-1.9,3.5
				c1.2,0.7,1.9,1.9,1.9,3.4v6.5h-3.2v-6.5c0-1.5-2.3-2-3.6-2H1670.4z M1677.4,1352.5c0-1.5-2.2-2-3.5-2h-3.6v9.2h3.4
				c1.4,0,3.6-0.4,3.6-1.9L1677.4,1352.5L1677.4,1352.5z"/>
			<path fill="#5160AB" d="M1686.1,1347.5v23.8h-3.2v-21.5L1686.1,1347.5z"/>
		</g>
		<g>
			<path fill="#5160AB" d="M1687.7,1351.7c0-3.6,3-6.3,6.4-6.3s6.5,2.7,6.5,6.3c0,3.7-3,6.4-6.5,6.4S1687.7,1355.4,1687.7,1351.7z
				 M1699.2,1351.7c0-2.9-2.3-5-5.1-5c-2.8,0-5.1,2.1-5.1,5s2.3,5.1,5.1,5.1C1696.9,1356.8,1699.2,1354.6,1699.2,1351.7z
				 M1693.2,1352.9v2.7h-1.2v-7.7h2.2c0.3,0,2.2,0,2.2,1.7v1.7c0,0.4-0.2,0.8-0.4,1.1c0.3,0.3,0.4,0.6,0.4,1.1v2.1h-1.2v-2.1
				c0-0.4-0.7-0.5-1-0.5L1693.2,1352.9L1693.2,1352.9z M1695.2,1349.6c0-0.4-0.6-0.5-1-0.5h-1v2.6h1c0.4,0,1-0.1,1-0.5V1349.6z"/>
		</g>
		<g>
			<path fill="#5160AB" d="M1714.8,1375.3c-3.2-6.4-3.2-23.1,0-29.5h1.7c-3.2,6.4-3.2,23.1,0,29.5H1714.8z"/>
			<path fill="#5160AB" d="M1719.7,1366.7c0,0.5,0.1,1,0.5,1.5c0.6,0.8,1.6,1.3,2.8,1.5c0.9,0.2,2,0.2,2.6,0.1
				c0.4-0.1,0.7-0.1,1-0.3c0.7-0.2,1.7-0.8,2.2-1.5l1.5,0.9c-1,1.6-2.7,2.3-4.4,2.5c-1,0.2-1.9,0.2-3,0c-1.7-0.3-3.3-1.1-4.2-2.2
				c-0.5-0.8-0.7-1.6-0.7-2.6v-7.5c0-2.2,1.7-3.6,3.9-4.2c1.6-0.4,3.3-0.4,4.9,0c4.4,1.3,5.2,7.2,1.1,9.4c-2.4,1.3-5.9,0.8-8.2,0.8
				L1719.7,1366.7L1719.7,1366.7z M1719.7,1363.5c1.5-0.1,5.1,0.3,7.3-0.8c2.9-1.4,2.3-5.4-0.7-6.3c-1.3-0.3-2.8-0.3-4,0
				c-1.5,0.4-2.6,1.3-2.6,2.6L1719.7,1363.5L1719.7,1363.5z"/>
			<path fill="#5160AB" d="M1733.2,1378.6c0-8,0-15.9,0-23.9h1.6v1.9c1.4-1.9,4.8-2.6,7.3-1.9c2.2,0.6,3.9,2,3.9,4.2v7.7
				c0,5.1-8.2,6.3-11,3v7.8L1733.2,1378.6z M1734.9,1366.8c0,3.7,9.3,4.1,9.3-0.2v-7.8l0,0c0-1.3-1.2-2.2-2.7-2.6
				c-0.6-0.2-1.3-0.2-2-0.2c-2.1,0-4.7,1-4.7,3.6L1734.9,1366.8L1734.9,1366.8z"/>
			<path fill="#5160AB" d="M1761.3,1366.8c0,2.1-1.5,3.5-3.4,4.1c-1.5,0.5-3,0.5-4.6,0.3c-2.5-0.4-4.7-1.9-4.7-4.5v-7.9
				c0-2.2,1.7-3.7,3.9-4.2c0.8-0.2,1.6-0.3,2.5-0.3s1.7,0.1,2.5,0.3c2.2,0.6,3.9,2,3.9,4.2v8H1761.3z M1759.6,1366.8v-7.9
				c0-1.3-1.2-2.2-2.6-2.6c-0.6-0.2-1.3-0.3-2-0.3s-1.4,0.1-2,0.3c-1.5,0.4-2.6,1.3-2.6,2.6v7.9c0,1.5,1.5,2.5,3.3,2.8
				c1.3,0.2,2.5,0.1,3.7-0.3S1759.6,1368.1,1759.6,1366.8z"/>
			<path fill="#5160AB" d="M1764.1,1378.6c0-8,0-15.9,0-23.9h1.6v1.9c1.4-1.9,4.8-2.6,7.3-1.9c2.2,0.6,3.9,2,3.9,4.2v7.7
				c0,5.1-8.2,6.3-11,3v7.8L1764.1,1378.6z M1765.8,1366.8c0,3.7,9.3,4.1,9.3-0.2v-7.8l0,0c0-1.3-1.2-2.2-2.7-2.6
				c-0.6-0.2-1.3-0.2-2-0.2c-2.1,0-4.7,1-4.7,3.6L1765.8,1366.8L1765.8,1366.8z"/>
			<path fill="#5160AB" d="M1779.6,1371.2v-7.6v-4.4v-4.8h1.7v1.8c1.5-2.1,4.7-2.4,7.1-1.8l-0.3,1.6c-2.2-0.7-6.7,0.4-6.7,3.1v12
				h-1.8L1779.6,1371.2L1779.6,1371.2z"/>
			<path fill="#5160AB" d="M1802.6,1366.8c0,2.1-1.5,3.5-3.4,4.1c-1.5,0.5-3,0.5-4.6,0.3c-2.5-0.4-4.7-1.9-4.7-4.5v-7.9
				c0-2.2,1.7-3.7,3.9-4.2c0.8-0.2,1.6-0.3,2.5-0.3s1.7,0.1,2.5,0.3c2.2,0.6,3.9,2,3.9,4.2v8H1802.6z M1800.9,1366.8v-7.9
				c0-1.3-1.2-2.2-2.6-2.6c-0.6-0.2-1.3-0.3-2-0.3s-1.4,0.1-2,0.3c-1.5,0.4-2.6,1.3-2.6,2.6v7.9c0,1.5,1.5,2.5,3.3,2.8
				c1.3,0.2,2.5,0.1,3.7-0.3S1800.9,1368.1,1800.9,1366.8z"/>
			<path fill="#5160AB" d="M1806.5,1367.1c1.2,2.9,5,2.9,7.1,2.3c1.5-0.4,2.7-1.3,2.7-2.7c0-2.3-2.3-2.7-4.7-3
				c-3.1-0.4-6.2-0.8-6.2-4.7c0-2.3,1.7-3.8,3.9-4.5c2.7-0.7,7-0.4,8.3,2.4l-1.4,0.9c-1.3-2.1-4.4-2.3-6.5-1.7
				c-1.5,0.4-2.7,1.4-2.7,2.8c0,2.3,2.3,2.7,4.7,3c3.1,0.4,6.2,0.8,6.2,4.7c0,2.3-1.7,3.7-3.9,4.4c-3,0.8-7.9,0.3-9-3.1
				L1806.5,1367.1z"/>
			<path fill="#5160AB" d="M1824.1,1347.4v7.2h4v1.5c-1.4,0-2.7,0-4,0v10.4c0,2.9,2.1,3.1,4.4,3.2v1.6c-3.1,0.2-6.1-1-6.1-4.7v-10.5
				h-2.9v-1.5h2.9v-5.9L1824.1,1347.4z"/>
			<path fill="#5160AB" d="M1831.8,1366.7c0,0.5,0.1,1,0.5,1.5c0.6,0.8,1.6,1.3,2.8,1.5c0.9,0.2,2,0.2,2.6,0.1
				c0.4-0.1,0.7-0.1,1-0.3c0.7-0.2,1.7-0.8,2.2-1.5l1.5,0.9c-1,1.6-2.7,2.3-4.4,2.5c-1,0.2-1.9,0.2-3,0c-1.7-0.3-3.3-1.1-4.2-2.2
				c-0.5-0.8-0.7-1.6-0.7-2.6v-7.5c0-2.2,1.7-3.6,3.9-4.2c1.6-0.4,3.3-0.4,4.9,0c4.4,1.3,5.2,7.2,1.1,9.4c-2.4,1.3-5.9,0.8-8.2,0.8
				L1831.8,1366.7L1831.8,1366.7z M1831.8,1363.5c1.5-0.1,5.1,0.3,7.3-0.8c2.9-1.4,2.3-5.4-0.7-6.3c-1.3-0.3-2.8-0.3-4,0
				c-1.5,0.4-2.6,1.3-2.6,2.6L1831.8,1363.5L1831.8,1363.5z"/>
			<path fill="#5160AB" d="M1856.4,1371.2V1359c0-2-2.3-3.1-4.6-3.1c-2.3,0-4.7,1.1-4.7,3.4v11.9h-1.7v-16.7h1.7v1.6
				c1.3-1.4,3-1.8,4.6-1.8c3.2,0,6.4,1.5,6.4,4.8v12.1L1856.4,1371.2L1856.4,1371.2z"/>
			<path fill="#5160AB" d="M1873.6,1366.8c0,2.1-1.5,3.5-3.4,4.1c-1.5,0.5-3,0.5-4.6,0.3c-2.5-0.4-4.7-1.9-4.7-4.5v-7.9
				c0-2.2,1.7-3.7,3.9-4.2c0.8-0.2,1.6-0.3,2.5-0.3s1.7,0.1,2.5,0.3c2.2,0.6,3.9,2,3.9,4.2v8H1873.6z M1871.9,1366.8v-7.9
				c0-1.3-1.2-2.2-2.6-2.6c-0.6-0.2-1.3-0.3-2-0.3s-1.4,0.1-2,0.3c-1.5,0.4-2.6,1.3-2.6,2.6v7.9c0,1.5,1.5,2.5,3.3,2.8
				c1.3,0.2,2.5,0.1,3.7-0.3S1871.9,1368.1,1871.9,1366.8z"/>
			<path fill="#5160AB" d="M1880.5,1371.4c-2.8,0.2-4.2-0.7-4.2-3.7v-19l1.7-1.2v20.2c0,1.8,0.7,2.2,2.5,2.2V1371.4z"/>
			<path fill="#5160AB" d="M1882.1,1375.3c3.2-6.4,3.2-23.1,0-29.5h1.7c3.2,6.4,3.2,23.1,0,29.5H1882.1z"/>
		</g>
	</g>
</g>
<g id="pi-btn-uptravi">
	<rect x="1510" y="1240.5" fill="#FFFFFF" width="441" height="80"/>
	<g>
		<g>
			<path fill="#5160AB" d="M1594.7,1290.2c1.3,0,2.6-0.1,3.3-0.6c0.5-0.3,0.9-0.8,0.9-1.4v-18.8h3.2v18.8c0,1.7-1,3.2-2.3,4
				c-1.2,0.7-3.2,1.2-5,1.1h-0.3c-1.8,0-3.8-0.4-5-1.1c-1.4-0.9-2.4-2.3-2.4-4v-16.4l3.2-2.4v18.8c0,0.6,0.3,1,0.9,1.3
				c0.6,0.4,1.8,0.6,3.1,0.6L1594.7,1290.2L1594.7,1290.2z"/>
			<path fill="#5160AB" d="M1607.6,1284.6v8.6h-3.1v-23.8h6.7c2.9,0,6.7,1.5,6.7,5v5.1c0,3.4-3.3,5-6.7,5h-3.6V1284.6z
				 M1611.2,1281.6c1.8,0,3.6-0.6,3.6-1.9v-5.1c0-1.5-2.2-1.9-3.6-1.9h-3.6v9L1611.2,1281.6L1611.2,1281.6z"/>
			<path fill="#5160AB" d="M1621.1,1269.4h13.9v3h-6c0,6.8-0.1,14-0.1,20.8h-3.3l0.1-20.8h-6.8L1621.1,1269.4z"/>
			<path fill="#5160AB" d="M1640.7,1284.8v8.5h-3.2v-23.8h6.8c0.8,0,6.7,0.1,6.7,5.1v5.3c0,1.5-0.7,2.7-1.9,3.5
				c1.2,0.7,1.9,1.9,1.9,3.4v6.5h-3.2v-6.5c0-1.5-2.3-2-3.6-2H1640.7z M1647.8,1274.5c0-1.5-2.2-2-3.5-2h-3.6v9.2h3.4
				c1.4,0,3.6-0.4,3.6-1.9L1647.8,1274.5L1647.8,1274.5z"/>
			<path fill="#5160AB" d="M1668.2,1274.2v19h-3v-8.8h-8.9v8.8h-3v-19c0-1.7,1-3.1,2.3-3.9c1.2-0.7,3.3-1.2,5.1-1.2
				c2,0,3.9,0.4,5.1,1.2C1667.2,1271.2,1668.1,1272.5,1668.2,1274.2z M1656.2,1274.2v7.2h8.9v-7.2c0-0.6-0.4-1-0.9-1.3
				c-0.8-0.5-2.2-0.7-3.6-0.7s-2.8,0.3-3.6,0.7C1656.6,1273.2,1656.2,1273.7,1656.2,1274.2z"/>
			<path fill="#5160AB" d="M1677.4,1293.5l-5.3-4.7c-1.2-1.1-1.5-2.1-1.5-3.5v-13.5l3.3-2.3v15.8c0,0.5,0,0.7,0.4,1l0,0l3.9,3.5
				l3.9-3.5c0.2-0.3,0.3-0.5,0.3-1v-15.9h3.3v15.9c0,1.4-0.3,2.4-1.5,3.5l-5.3,4.7H1677.4z"/>
			<path fill="#5160AB" d="M1691.1,1269.5v23.8h-3.2v-21.5L1691.1,1269.5z"/>
		</g>
		<g>
			<path fill="#5160AB" d="M1692.6,1273.7c0-3.6,3-6.3,6.4-6.3s6.5,2.7,6.5,6.3c0,3.7-3,6.4-6.5,6.4S1692.6,1277.4,1692.6,1273.7z
				 M1704.2,1273.7c0-2.9-2.3-5-5.1-5c-2.8,0-5.1,2.1-5.1,5s2.3,5.1,5.1,5.1C1701.9,1278.8,1704.2,1276.6,1704.2,1273.7z
				 M1698.1,1274.9v2.7h-1.2v-7.7h2.2c0.3,0,2.2,0,2.2,1.7v1.7c0,0.4-0.2,0.8-0.4,1.1c0.3,0.3,0.4,0.6,0.4,1.1v2.1h-1.2v-2.1
				c0-0.4-0.7-0.5-1-0.5L1698.1,1274.9L1698.1,1274.9z M1700.1,1271.6c0-0.4-0.6-0.5-1-0.5h-1v2.6h1c0.4,0,1-0.1,1-0.5V1271.6z"/>
		</g>
		<g>
			<path fill="#5160AB" d="M1719.7,1297.3c-3.2-6.4-3.2-23.1,0-29.5h1.7c-3.2,6.4-3.2,23.1,0,29.5H1719.7z"/>
			<path fill="#5160AB" d="M1724.2,1289.1c1.2,2.9,5,2.9,7.1,2.3c1.5-0.4,2.7-1.3,2.7-2.7c0-2.3-2.3-2.7-4.7-3
				c-3.1-0.4-6.2-0.8-6.2-4.7c0-2.3,1.7-3.8,3.9-4.5c2.7-0.7,7-0.4,8.3,2.4l-1.4,0.9c-1.3-2.1-4.4-2.3-6.5-1.7
				c-1.5,0.4-2.7,1.4-2.7,2.8c0,2.3,2.3,2.7,4.7,3c3.1,0.4,6.2,0.8,6.2,4.7c0,2.3-1.7,3.7-3.9,4.4c-3,0.8-7.9,0.3-9-3.1
				L1724.2,1289.1z"/>
			<path fill="#5160AB" d="M1739.7,1288.7c0,0.5,0.1,1,0.5,1.5c0.6,0.8,1.6,1.3,2.8,1.5c0.9,0.2,2,0.2,2.6,0.1
				c0.4-0.1,0.7-0.1,1-0.3c0.7-0.2,1.7-0.8,2.2-1.5l1.5,0.9c-1,1.6-2.7,2.3-4.4,2.5c-1,0.2-1.9,0.2-3,0c-1.7-0.3-3.3-1.1-4.2-2.2
				c-0.5-0.8-0.7-1.6-0.7-2.6v-7.5c0-2.2,1.7-3.6,3.9-4.2c1.6-0.4,3.3-0.4,4.9,0c4.4,1.3,5.2,7.2,1.1,9.4c-2.4,1.3-5.9,0.8-8.2,0.8
				L1739.7,1288.7L1739.7,1288.7z M1739.7,1285.5c1.5-0.1,5.1,0.3,7.3-0.8c2.9-1.4,2.3-5.4-0.7-6.3c-1.3-0.3-2.8-0.3-4,0
				c-1.5,0.4-2.6,1.3-2.6,2.6L1739.7,1285.5L1739.7,1285.5z"/>
			<path fill="#5160AB" d="M1757.5,1293.4c-2.8,0.2-4.2-0.7-4.2-3.7v-19l1.7-1.2v20.2c0,1.8,0.7,2.2,2.5,2.2V1293.4z"/>
			<path fill="#5160AB" d="M1761.1,1288.7c0,0.5,0.1,1,0.5,1.5c0.6,0.8,1.6,1.3,2.8,1.5c0.9,0.2,2,0.2,2.6,0.1
				c0.4-0.1,0.7-0.1,1-0.3c0.7-0.2,1.7-0.8,2.2-1.5l1.5,0.9c-1,1.6-2.7,2.3-4.4,2.5c-1,0.2-1.9,0.2-3,0c-1.7-0.3-3.3-1.1-4.2-2.2
				c-0.5-0.8-0.7-1.6-0.7-2.6v-7.5c0-2.2,1.7-3.6,3.9-4.2c1.6-0.4,3.3-0.4,4.9,0c4.4,1.3,5.2,7.2,1.1,9.4c-2.4,1.3-5.9,0.8-8.2,0.8
				L1761.1,1288.7L1761.1,1288.7z M1761.1,1285.5c1.5-0.1,5.1,0.3,7.3-0.8c2.9-1.4,2.3-5.4-0.7-6.3c-1.3-0.3-2.8-0.3-4,0
				c-1.5,0.4-2.6,1.3-2.6,2.6L1761.1,1285.5L1761.1,1285.5z"/>
			<path fill="#5160AB" d="M1779.2,1284.9l-3.5-3.3c-1.2-1.1-1.3-1.7-1.3-2.9v-0.9l1.7-1.2v2.1c0,0.7,0.1,1,0.6,1.5l3.9,3.7l0,0
				l3.9-3.7c0.5-0.5,0.6-0.7,0.6-1.5v-2.1h1.7v2.1c0,1.2-0.2,1.8-1.3,2.9l-3.5,3.3l3.5,3.3c1.1,1.1,1.3,1.7,1.3,2.9v2.1h-1.7v-2.1
				c0-0.7-0.1-1-0.6-1.5l-3.9-3.7l0,0l-3.9,3.7c-0.5,0.5-0.6,0.8-0.6,1.5v2.1h-1.7v-2.1c0-1.2,0.2-1.8,1.3-2.9L1779.2,1284.9z"/>
			<path fill="#5160AB" d="M1789.9,1277.8l1.7-1.2v16.7h-1.7V1277.8z"/>
			<path fill="#5160AB" d="M1794.6,1300.6c0-8,0-15.9,0-23.9h1.6v1.9c1.4-1.9,4.8-2.6,7.3-1.9c2.2,0.6,3.9,2,3.9,4.2v7.7
				c0,5.1-8.2,6.3-11,3v7.8L1794.6,1300.6z M1796.3,1288.8c0,3.7,9.3,4.1,9.3-0.2v-7.8l0,0c0-1.3-1.2-2.2-2.7-2.6
				c-0.6-0.2-1.3-0.2-2-0.2c-2.1,0-4.7,1-4.7,3.6L1796.3,1288.8L1796.3,1288.8z"/>
			<path fill="#5160AB" d="M1820.7,1281.1c0-0.5-0.1-1-0.4-1.4c-0.6-0.8-1.6-1.3-2.9-1.6c-0.9-0.2-1.7-0.1-2.7,0
				c-1.2,0.2-2.4,0.7-3.1,1.8l-1.5-0.9c2-3.2,9.3-3.4,11.5-0.3c0.5,0.8,0.7,1.6,0.7,2.5v8.9c0,1.3,0.8,1.6,1.7,1.6v1.5
				c-1.4,0.1-2.5-0.3-3.1-1.4c-1.5,1.4-3.3,1.8-5,1.8c-0.8,0-1.7-0.1-2.5-0.3c-4.6-1.3-5.2-6.8-1.7-9.1c2.1-1.4,5.5-1.6,8.8-1v-2.1
				H1820.7z M1820.7,1284.8c-2.5-0.6-5.8-0.7-7.8,0.6c-2.4,1.7-2.2,5.3,1.1,6.3c0.6,0.2,1.3,0.2,2,0.2c1.8,0,4.7-0.7,4.7-2.9
				L1820.7,1284.8L1820.7,1284.8z"/>
			<path fill="#5160AB" d="M1837.6,1276.4l1.3,1.1l-1.2,1.3c0.5,0.6,0.7,1.4,0.7,2.3v4.9c0,2.1-1.5,3.5-3.4,4.1
				c-0.4,0.1-0.6,0.2-0.9,0.2c-0.3,0.1-0.6,0.1-0.8,0.1c-0.4,0-1,0-1.4,0c-0.2,0-0.4,0-0.5,0c-0.2,0-0.4,0-0.7-0.1
				c-0.2,0-0.5,0-0.8-0.1c-1.4,0-1.8,1.6-0.3,1.8c3.3,0.5,8.8-1.1,8.8,4.1v0.6c0,2.1-1.2,3.2-3.2,3.8c-0.8,0.3-1.8,0.3-2.8,0.3
				s-1.9-0.1-2.8-0.3c-2-0.4-3.5-1.7-3.6-3.7c0-0.5,0-0.9,0.1-1.6h1.7c-0.1,0.6-0.2,1-0.1,1.5c0.1,1.2,1.1,1.8,2.3,2.1
				c1.6,0.5,3.5,0.4,4.8,0c1.1-0.3,1.9-0.9,1.9-2.1v-0.3v-0.2v-0.2c0-3.4-4.8-2-7.5-2.5c-2.5-0.4-3.1-2.8-1.6-4
				c0.1-0.1,0.2-0.2,0.4-0.3c-1.3-0.7-2.1-1.9-2.1-3.5v-4.9c0-2.2,1.7-3.7,3.9-4.2c0.8-0.2,1.7-0.3,2.5-0.3s1.7,0.1,2.5,0.3
				c0.7,0.2,1.3,0.4,1.8,0.8L1837.6,1276.4z M1836.8,1286v-4.9c0-1.3-1.2-2.2-2.6-2.6c-0.6-0.2-1.3-0.2-2-0.2s-1.4,0.1-2,0.2
				c-1.5,0.4-2.6,1.3-2.6,2.6v4.9c0,1.6,1.6,2.5,3.5,2.8c0.6,0.1,1.2,0.1,1.8,0.1c0.6-0.1,1.2-0.2,1.7-0.3
				C1835.8,1288,1836.8,1287.2,1836.8,1286z"/>
			<path fill="#5160AB" d="M1841.2,1297.3c3.2-6.4,3.2-23.1,0-29.5h1.7c3.2,6.4,3.2,23.1,0,29.5H1841.2z"/>
		</g>
	</g>
	<line fill="none" stroke="#5160AB" x1="1510" y1="1320.5" x2="1951" y2="1320.5"/>
</g>
<g id="pi-btn-opsumit">
	<rect x="1510" y="1160.5" fill="#FFFFFF" width="441" height="80"/>
	<g>
		<g>
			<path fill="#5160AB" d="M1587.1,1196.2c0-3.3,3.7-5,7.5-5c3.7,0,7.5,1.7,7.5,5v14.1c0,3.4-3.8,5.1-7.5,5.1
				c-3.8,0-7.5-1.7-7.5-5.1V1196.2z M1598.9,1210.7v-0.4v-14c0-1.3-2.2-1.9-4.3-1.9c-2.1,0-4.3,0.6-4.3,1.9v14c0,0.3,0,0.5,0.1,0.6
				c0.3,1,2.2,1.5,4.2,1.5c1.9,0,3.8-0.5,4.2-1.5L1598.9,1210.7z"/>
			<path fill="#5160AB" d="M1607.6,1206.6v8.6h-3.1v-23.8h6.7c2.9,0,6.7,1.5,6.7,5v5.1c0,3.4-3.3,5-6.7,5h-3.6V1206.6z
				 M1611.2,1203.6c1.8,0,3.6-0.6,3.6-1.9v-5.1c0-1.5-2.2-1.9-3.6-1.9h-3.6v9L1611.2,1203.6L1611.2,1203.6z"/>
			<path fill="#5160AB" d="M1630.2,1196.9c0.1-2-2-2.7-3.3-2.8c-1.3,0-2.7,0.1-3.6,1.1c-0.6,0.6-0.6,1.7-0.6,2.6
				c0,0.7,0.2,1.4,0.6,1.9c0.7,0.9,2.3,1.3,3.7,1.7c4.1,1.1,7.3,2.8,7.3,7.6c0,2.1-0.7,3.8-2,5c-1.4,1.1-3.7,1.6-5.5,1.6
				c-1.2,0-2.4-0.1-3.5-0.3c-2.3-0.4-4.1-2.3-3.8-5.8h3.2c0,1.1,0.2,2.5,1.7,2.9c0.8,0.2,1.6,0.3,2.4,0.3c1.2,0,2.4-0.1,3.3-0.9
				c0.7-0.6,1-1.5,1.1-2.6c0-2.8-2.6-4-4.9-4.6c-2-0.5-4-1.2-5.2-2.4c-1.1-1.1-1.5-2.7-1.5-4.2c0-1.8,0-3.4,1.7-4.8
				c1.3-1.2,3.7-1.8,5.7-1.8c2.4,0,6.6,1.7,6.5,5.8L1630.2,1196.9z"/>
			<path fill="#5160AB" d="M1643.7,1212.2c1.3,0,2.6-0.1,3.3-0.6c0.5-0.3,0.9-0.8,0.9-1.4v-18.8h3.2v18.8c0,1.7-1,3.2-2.3,4
				c-1.2,0.7-3.2,1.2-5,1.1h-0.3c-1.8,0-3.8-0.4-5-1.1c-1.4-0.9-2.4-2.3-2.4-4v-16.4l3.2-2.4v18.8c0,0.6,0.3,1,0.9,1.3
				c0.6,0.4,1.8,0.6,3.1,0.6L1643.7,1212.2L1643.7,1212.2z"/>
			<path fill="#5160AB" d="M1669.3,1191.5h3.2v23.8h-3.1v-16.5l-5.2,11.1h-2.2l-5.2-11.2v16.5h-3.1v-23.8h3.2l6.3,13.7
				L1669.3,1191.5z"/>
			<path fill="#5160AB" d="M1678.5,1191.5v23.8h-3.2v-21.5L1678.5,1191.5z"/>
			<path fill="#5160AB" d="M1682,1191.5h13.9v3h-6c0,6.8-0.1,14-0.1,20.8h-3.3l0.1-20.8h-6.8L1682,1191.5z"/>
		</g>
		<g>
			<path fill="#5160AB" d="M1696.9,1195.7c0-3.6,3-6.3,6.4-6.3s6.5,2.7,6.5,6.3c0,3.7-3,6.4-6.5,6.4S1696.9,1199.4,1696.9,1195.7z
				 M1708.5,1195.7c0-2.9-2.3-5-5.1-5c-2.8,0-5.1,2.1-5.1,5s2.3,5.1,5.1,5.1C1706.2,1200.8,1708.5,1198.6,1708.5,1195.7z
				 M1702.4,1196.9v2.7h-1.2v-7.7h2.2c0.3,0,2.2,0,2.2,1.7v1.7c0,0.4-0.2,0.8-0.4,1.1c0.3,0.3,0.4,0.6,0.4,1.1v2.1h-1.2v-2.1
				c0-0.4-0.7-0.5-1-0.5L1702.4,1196.9L1702.4,1196.9z M1704.4,1193.6c0-0.4-0.6-0.5-1-0.5h-1v2.6h1c0.4,0,1-0.1,1-0.5V1193.6z"/>
		</g>
		<g>
			<path fill="#5160AB" d="M1724,1219.3c-3.2-6.4-3.2-23.1,0-29.5h1.7c-3.2,6.4-3.2,23.1,0,29.5H1724z"/>
			<path fill="#5160AB" d="M1739.4,1215.2c-0.6,0-1.1,0-1.7,0v-12.3c-0.1-2.1-2.1-3.1-4.1-3.1c-2.2,0.1-4.4,1.4-4.4,3.5v11.9h-1.7
				v-16.7h1.7v1.6c1.3-1.4,3-1.8,4.6-1.8c2.1,0,4,0.8,4.8,2.4c0.9-1.6,3.1-2.3,5-2.3c3,0,5.9,1.5,5.9,4.7v12.1h-1.7v-12.1
				c0-2.2-2.1-3.1-4.2-3.1c-2,0-4.1,0.9-4.2,3L1739.4,1215.2L1739.4,1215.2z"/>
			<path fill="#5160AB" d="M1763,1203.1c0-0.5-0.1-1-0.4-1.4c-0.6-0.8-1.6-1.3-2.9-1.6c-0.9-0.2-1.7-0.1-2.7,0
				c-1.2,0.2-2.4,0.7-3.1,1.8l-1.5-0.9c2-3.2,9.3-3.4,11.5-0.3c0.5,0.8,0.7,1.6,0.7,2.5v8.9c0,1.3,0.8,1.6,1.7,1.6v1.5
				c-1.4,0.1-2.5-0.3-3.1-1.4c-1.5,1.4-3.3,1.8-5,1.8c-0.8,0-1.7-0.1-2.5-0.3c-4.6-1.3-5.2-6.8-1.7-9.1c2.1-1.4,5.5-1.6,8.8-1v-2.1
				H1763z M1763,1206.8c-2.5-0.6-5.8-0.7-7.8,0.6c-2.4,1.7-2.2,5.3,1.1,6.3c0.6,0.2,1.3,0.2,2,0.2c1.8,0,4.7-0.7,4.7-2.9
				L1763,1206.8L1763,1206.8z"/>
			<path fill="#5160AB" d="M1781,1210.9c0,2.2-1.7,3.7-3.9,4.2l0,0c-1.6,0.4-3.4,0.4-5,0c-2.1-0.6-3.9-2-3.9-4.4v-7.8
				c0-2.3,1.8-3.7,3.9-4.3c0.8-0.2,1.6-0.3,2.5-0.3c0.8,0,1.7,0.1,2.5,0.3c2.2,0.6,3.9,2,3.9,4.3h-1.7c0-1.4-1.2-2.2-2.7-2.7
				c-0.6-0.2-1.3-0.3-2-0.3s-1.4,0.1-2,0.3c-1.3,0.3-2.6,1.2-2.6,2.7v7.8c0,1.5,1.3,2.3,2.6,2.7c1.3,0.3,2.8,0.3,4,0l0,0
				c1.5-0.4,2.6-1.3,2.6-2.7h1.8L1781,1210.9L1781,1210.9z"/>
			<path fill="#5160AB" d="M1783.8,1199.8l1.7-1.2v16.7h-1.7V1199.8z"/>
			<path fill="#5160AB" d="M1792.5,1191.4v7.2h4v1.5c-1.4,0-2.7,0-4,0v10.4c0,2.9,2.1,3.1,4.4,3.2v1.6c-3.1,0.2-6.1-1-6.1-4.7v-10.5
				h-2.9v-1.5h2.9v-5.9L1792.5,1191.4z"/>
			<path fill="#5160AB" d="M1800.2,1210.7c0,0.5,0.1,1,0.5,1.5c0.6,0.8,1.6,1.3,2.8,1.5c0.9,0.2,2,0.2,2.6,0.1
				c0.4-0.1,0.7-0.1,1-0.3c0.7-0.2,1.7-0.8,2.2-1.5l1.5,0.9c-1,1.6-2.7,2.3-4.4,2.5c-1,0.2-1.9,0.2-3,0c-1.7-0.3-3.3-1.1-4.2-2.2
				c-0.5-0.8-0.7-1.6-0.7-2.6v-7.5c0-2.2,1.7-3.6,3.9-4.2c1.6-0.4,3.3-0.4,4.9,0c4.4,1.3,5.2,7.2,1.1,9.4c-2.4,1.3-5.9,0.8-8.2,0.8
				L1800.2,1210.7L1800.2,1210.7z M1800.2,1207.5c1.5-0.1,5.1,0.3,7.3-0.8c2.9-1.4,2.3-5.4-0.7-6.3c-1.3-0.3-2.8-0.3-4,0
				c-1.5,0.4-2.6,1.3-2.6,2.6L1800.2,1207.5L1800.2,1207.5z"/>
			<path fill="#5160AB" d="M1824.8,1215.2V1203c0-2-2.3-3.1-4.6-3.1c-2.3,0-4.7,1.1-4.7,3.4v11.9h-1.7v-16.7h1.7v1.6
				c1.3-1.4,3-1.8,4.6-1.8c3.2,0,6.4,1.5,6.4,4.8v12.1L1824.8,1215.2L1824.8,1215.2z"/>
			<path fill="#5160AB" d="M1832.9,1191.4v7.2h4v1.5c-1.4,0-2.7,0-4,0v10.4c0,2.9,2.1,3.1,4.4,3.2v1.6c-3.1,0.2-6.1-1-6.1-4.7v-10.5
				h-2.9v-1.5h2.9v-5.9L1832.9,1191.4z"/>
			<path fill="#5160AB" d="M1849.5,1203.1c0-0.5-0.1-1-0.4-1.4c-0.6-0.8-1.6-1.3-2.9-1.6c-0.9-0.2-1.7-0.1-2.7,0
				c-1.2,0.2-2.4,0.7-3.1,1.8l-1.5-0.9c2-3.2,9.3-3.4,11.5-0.3c0.5,0.8,0.7,1.6,0.7,2.5v8.9c0,1.3,0.8,1.6,1.7,1.6v1.5
				c-1.4,0.1-2.5-0.3-3.1-1.4c-1.5,1.4-3.3,1.8-5,1.8c-0.8,0-1.7-0.1-2.5-0.3c-4.6-1.3-5.2-6.8-1.7-9.1c2.1-1.4,5.5-1.6,8.8-1v-2.1
				H1849.5z M1849.5,1206.8c-2.5-0.6-5.8-0.7-7.8,0.6c-2.4,1.7-2.2,5.3,1.1,6.3c0.6,0.2,1.3,0.2,2,0.2c1.8,0,4.7-0.7,4.7-2.9
				L1849.5,1206.8L1849.5,1206.8z"/>
			<path fill="#5160AB" d="M1866.1,1215.2V1203c0-2-2.3-3.1-4.6-3.1c-2.3,0-4.7,1.1-4.7,3.4v11.9h-1.7v-16.7h1.7v1.6
				c1.3-1.4,3-1.8,4.6-1.8c3.2,0,6.4,1.5,6.4,4.8v12.1L1866.1,1215.2L1866.1,1215.2z"/>
			<path fill="#5160AB" d="M1869.8,1219.3c3.2-6.4,3.2-23.1,0-29.5h1.7c3.2,6.4,3.2,23.1,0,29.5H1869.8z"/>
		</g>
	</g>
	<line fill="none" stroke="#5160AB" x1="1510" y1="1241" x2="1951" y2="1241"/>
	<line fill="none" stroke="#5160AB" x1="1510" y1="1160.5" x2="1951" y2="1160.5"/>
</g>
<g>
	<path fill="#FFFFFF" stroke="#FFFFFF" stroke-width="2" d="M1705.2,1490.4v14.7h-5.3v-40.6h11.5c5,0,11.4,2.6,11.4,8.6v8.8
		c0,5.7-5.7,8.6-11.4,8.6L1705.2,1490.4L1705.2,1490.4z M1711.3,1485.1c3.1,0,6.1-1.1,6.1-3.3v-8.8c0-2.5-3.8-3.2-6.1-3.3h-6.2v15.4
		L1711.3,1485.1L1711.3,1485.1z"/>
	<path fill="#FFFFFF" stroke="#FFFFFF" stroke-width="2" d="M1733.8,1464.5v40.5h-5.5v-36.7L1733.8,1464.5z"/>
</g>
</svg>
